0
SECTION
2
HEADER
9
$ACADVER
1
AC1014
9
$HANDSEED
5
FFFF
0
ENDSEC
0
SECTION
2
TABLES
0
TABLE
2
VPORT
5
8
100
AcDbSymbolTable
0
ENDTAB
0
TABLE
2
LTYPE
5
5
100
AcDbSymbolTable
0
LTYPE
5
14
100
AcDbSymbolTableRecord
100
AcDbLinetypeTableRecord
2
BYBLOCK
70
0
0
LTYPE
5
15
100
AcDbSymbolTableRecord
100
AcDbLinetypeTableRecord
2
BYLAYER
70
0
0
ENDTAB
0
TABLE
2
LAYER
5
2
100
AcDbSymbolTable
70
2
0
LAYER
5
50
100
AcDbSymbolTableRecord
100
AcDbLayerTableRecord
2
0
70
0
6
CONTINUOUS
0
ENDTAB
0
TABLE
2
STYLE
5
3
100
AcDbSymbolTable
70
1
0
STYLE
5
11
100
AcDbSymbolTableRecord
100
AcDbTextStyleTableRecord
2
STANDARD
70
0
0
ENDTAB
0
TABLE
2
VIEW
5
6
100
AcDbSymbolTable
70
0
0
ENDTAB
0
TABLE
2
UCS
5
7
100
AcDbSymbolTable
70
0
0
ENDTAB
0
TABLE
2
APPID
5
9
100
AcDbSymbolTable
70
2
0
APPID
5
12
100
AcDbSymbolTableRecord
100
AcDbRegAppTableRecord
2
ACAD
70
0
0
ENDTAB
0
TABLE
2
DIMSTYLE
5
A
100
AcDbSymbolTable
70
1
0
ENDTAB
0
TABLE
2
BLOCK_RECORD
5
1
100
AcDbSymbolTable
70
1
0
BLOCK_RECORD
5
1F
100
AcDbSymbolTableRecord
100
AcDbBlockTableRecord
2
*MODEL_SPACE
0
BLOCK_RECORD
5
1B
100
AcDbSymbolTableRecord
100
AcDbBlockTableRecord
2
*PAPER_SPACE
0
ENDTAB
0
ENDSEC
0
SECTION
2
BLOCKS
0
BLOCK
5
20
100
AcDbEntity
100
AcDbBlockBegin
2
*MODEL_SPACE
0
ENDBLK
5
21
100
AcDbEntity
100
AcDbBlockEnd
0
BLOCK
5
1C
100
AcDbEntity
100
AcDbBlockBegin
2
*PAPER_SPACE
0
ENDBLK
5
1D
100
AcDbEntity
100
AcDbBlockEnd
0
ENDSEC
0
SECTION
2
ENTITIES
0
LWPOLYLINE
5
100
100
AcDbEntity
8
0
100
AcDbPolyline
90
4
70
1
43
0.0
10
-262.25
20
-15
10
-130.25
20
-15
10
-130.25
20
-22
10
-262.25
20
-22
0
LINE
5
101
100
AcDbEntity
8
0
100
AcDbLine
10
-262.25
20
-17.25
30
0
11
-130.25
21
-17.250000000000089
31
0
0
LINE
5
102
100
AcDbEntity
8
0
100
AcDbLine
10
-260
20
-15
30
0
11
-260
21
-22
31
0
0
LINE
5
103
100
AcDbEntity
8
0
100
AcDbLine
10
-132.5
20
-15
30
0
11
-132.5
21
-22
31
0
0
CIRCLE
5
104
100
AcDbEntity
8
0
100
AcDbCircle
10
-260
20
-17.250000000000018
30
0
40
0.24999999999998579
0
CIRCLE
5
105
100
AcDbEntity
8
0
100
AcDbCircle
10
-257.5
20
-17.250000000000018
30
0
40
0.24999999999998579
0
CIRCLE
5
106
100
AcDbEntity
8
0
100
AcDbCircle
10
-255
20
-17.250000000000018
30
0
40
0.24999999999998579
0
CIRCLE
5
107
100
AcDbEntity
8
0
100
AcDbCircle
10
-252.5
20
-17.250000000000018
30
0
40
0.24999999999998579
0
CIRCLE
5
108
100
AcDbEntity
8
0
100
AcDbCircle
10
-250
20
-17.250000000000018
30
0
40
0.24999999999998579
0
CIRCLE
5
109
100
AcDbEntity
8
0
100
AcDbCircle
10
-247.5
20
-17.250000000000018
30
0
40
0.24999999999998579
0
CIRCLE
5
110
100
AcDbEntity
8
0
100
AcDbCircle
10
-245
20
-17.250000000000018
30
0
40
0.24999999999998579
0
CIRCLE
5
111
100
AcDbEntity
8
0
100
AcDbCircle
10
-242.5
20
-17.250000000000018
30
0
40
0.24999999999998579
0
CIRCLE
5
112
100
AcDbEntity
8
0
100
AcDbCircle
10
-240
20
-17.250000000000018
30
0
40
0.24999999999998579
0
CIRCLE
5
113
100
AcDbEntity
8
0
100
AcDbCircle
10
-237.5
20
-17.250000000000018
30
0
40
0.24999999999998579
0
CIRCLE
5
114
100
AcDbEntity
8
0
100
AcDbCircle
10
-235
20
-17.250000000000018
30
0
40
0.24999999999998579
0
CIRCLE
5
115
100
AcDbEntity
8
0
100
AcDbCircle
10
-232.5
20
-17.250000000000018
30
0
40
0.24999999999998579
0
CIRCLE
5
116
100
AcDbEntity
8
0
100
AcDbCircle
10
-230
20
-17.250000000000018
30
0
40
0.24999999999998579
0
CIRCLE
5
117
100
AcDbEntity
8
0
100
AcDbCircle
10
-227.5
20
-17.250000000000018
30
0
40
0.24999999999998579
0
CIRCLE
5
118
100
AcDbEntity
8
0
100
AcDbCircle
10
-225
20
-17.250000000000018
30
0
40
0.24999999999998579
0
CIRCLE
5
119
100
AcDbEntity
8
0
100
AcDbCircle
10
-222.5
20
-17.250000000000018
30
0
40
0.24999999999998579
0
CIRCLE
5
120
100
AcDbEntity
8
0
100
AcDbCircle
10
-220
20
-17.250000000000018
30
0
40
0.24999999999998579
0
CIRCLE
5
121
100
AcDbEntity
8
0
100
AcDbCircle
10
-217.5
20
-17.250000000000018
30
0
40
0.24999999999998579
0
CIRCLE
5
122
100
AcDbEntity
8
0
100
AcDbCircle
10
-215
20
-17.250000000000018
30
0
40
0.24999999999998579
0
CIRCLE
5
123
100
AcDbEntity
8
0
100
AcDbCircle
10
-212.5
20
-17.250000000000018
30
0
40
0.24999999999998579
0
CIRCLE
5
124
100
AcDbEntity
8
0
100
AcDbCircle
10
-210
20
-17.250000000000018
30
0
40
0.24999999999998579
0
CIRCLE
5
125
100
AcDbEntity
8
0
100
AcDbCircle
10
-207.5
20
-17.250000000000018
30
0
40
0.24999999999998579
0
CIRCLE
5
126
100
AcDbEntity
8
0
100
AcDbCircle
10
-205
20
-17.250000000000018
30
0
40
0.24999999999998579
0
CIRCLE
5
127
100
AcDbEntity
8
0
100
AcDbCircle
10
-202.5
20
-17.250000000000018
30
0
40
0.24999999999998579
0
CIRCLE
5
128
100
AcDbEntity
8
0
100
AcDbCircle
10
-200
20
-17.250000000000018
30
0
40
0.24999999999998579
0
CIRCLE
5
129
100
AcDbEntity
8
0
100
AcDbCircle
10
-197.5
20
-17.250000000000018
30
0
40
0.24999999999998579
0
CIRCLE
5
130
100
AcDbEntity
8
0
100
AcDbCircle
10
-195
20
-17.250000000000018
30
0
40
0.24999999999998579
0
CIRCLE
5
131
100
AcDbEntity
8
0
100
AcDbCircle
10
-192.5
20
-17.250000000000018
30
0
40
0.24999999999998579
0
CIRCLE
5
132
100
AcDbEntity
8
0
100
AcDbCircle
10
-190
20
-17.250000000000018
30
0
40
0.24999999999998579
0
CIRCLE
5
133
100
AcDbEntity
8
0
100
AcDbCircle
10
-187.5
20
-17.250000000000018
30
0
40
0.24999999999998579
0
CIRCLE
5
134
100
AcDbEntity
8
0
100
AcDbCircle
10
-185
20
-17.250000000000018
30
0
40
0.24999999999998579
0
CIRCLE
5
135
100
AcDbEntity
8
0
100
AcDbCircle
10
-182.5
20
-17.250000000000018
30
0
40
0.24999999999998579
0
CIRCLE
5
136
100
AcDbEntity
8
0
100
AcDbCircle
10
-180
20
-17.250000000000018
30
0
40
0.24999999999998579
0
CIRCLE
5
137
100
AcDbEntity
8
0
100
AcDbCircle
10
-177.5
20
-17.250000000000018
30
0
40
0.24999999999998579
0
CIRCLE
5
138
100
AcDbEntity
8
0
100
AcDbCircle
10
-175
20
-17.250000000000018
30
0
40
0.24999999999998579
0
CIRCLE
5
139
100
AcDbEntity
8
0
100
AcDbCircle
10
-172.5
20
-17.250000000000018
30
0
40
0.24999999999998579
0
CIRCLE
5
140
100
AcDbEntity
8
0
100
AcDbCircle
10
-170
20
-17.250000000000018
30
0
40
0.24999999999998579
0
CIRCLE
5
141
100
AcDbEntity
8
0
100
AcDbCircle
10
-167.5
20
-17.250000000000018
30
0
40
0.24999999999998579
0
CIRCLE
5
142
100
AcDbEntity
8
0
100
AcDbCircle
10
-165
20
-17.250000000000018
30
0
40
0.24999999999998579
0
CIRCLE
5
143
100
AcDbEntity
8
0
100
AcDbCircle
10
-162.5
20
-17.250000000000018
30
0
40
0.24999999999998579
0
CIRCLE
5
144
100
AcDbEntity
8
0
100
AcDbCircle
10
-160
20
-17.250000000000018
30
0
40
0.24999999999998579
0
CIRCLE
5
145
100
AcDbEntity
8
0
100
AcDbCircle
10
-157.5
20
-17.250000000000018
30
0
40
0.24999999999998579
0
CIRCLE
5
146
100
AcDbEntity
8
0
100
AcDbCircle
10
-155
20
-17.250000000000018
30
0
40
0.24999999999998579
0
CIRCLE
5
147
100
AcDbEntity
8
0
100
AcDbCircle
10
-152.5
20
-17.250000000000018
30
0
40
0.24999999999998579
0
CIRCLE
5
148
100
AcDbEntity
8
0
100
AcDbCircle
10
-150
20
-17.250000000000018
30
0
40
0.24999999999998579
0
CIRCLE
5
149
100
AcDbEntity
8
0
100
AcDbCircle
10
-147.5
20
-17.250000000000018
30
0
40
0.24999999999998579
0
CIRCLE
5
150
100
AcDbEntity
8
0
100
AcDbCircle
10
-145
20
-17.250000000000018
30
0
40
0.24999999999998579
0
CIRCLE
5
151
100
AcDbEntity
8
0
100
AcDbCircle
10
-142.5
20
-17.250000000000018
30
0
40
0.24999999999998579
0
CIRCLE
5
152
100
AcDbEntity
8
0
100
AcDbCircle
10
-140
20
-17.250000000000018
30
0
40
0.24999999999998579
0
CIRCLE
5
153
100
AcDbEntity
8
0
100
AcDbCircle
10
-137.5
20
-17.250000000000018
30
0
40
0.24999999999998579
0
CIRCLE
5
154
100
AcDbEntity
8
0
100
AcDbCircle
10
-135
20
-17.250000000000018
30
0
40
0.24999999999998579
0
CIRCLE
5
155
100
AcDbEntity
8
0
100
AcDbCircle
10
-132.5
20
-17.250000000000018
30
0
40
0.24999999999998579
0
LINE
5
156
100
AcDbEntity
8
0
100
AcDbLine
10
-132.5
20
-29.000000000000004
30
0
11
-132.5
21
-22
31
0
0
CIRCLE
5
157
100
AcDbEntity
8
0
100
AcDbCircle
10
-260
20
-26.749999999999989
30
0
40
0.24999999999998579
0
LINE
5
158
100
AcDbEntity
8
0
100
AcDbLine
10
-262.25
20
-29.000000000000004
30
0
11
-262.25
21
-22
31
0
0
LINE
5
159
100
AcDbEntity
8
0
100
AcDbLine
10
-262.25
20
-26.750000000000004
30
0
11
-130.25
21
-26.749999999999915
31
0
0
LINE
5
160
100
AcDbEntity
8
0
100
AcDbLine
10
-130.25
20
-29.000000000000004
30
0
11
-262.25
21
-29.000000000000004
31
0
0
LINE
5
161
100
AcDbEntity
8
0
100
AcDbLine
10
-130.25
20
-22
30
0
11
-130.25
21
-29.000000000000004
31
0
0
CIRCLE
5
162
100
AcDbEntity
8
0
100
AcDbCircle
10
-172.5
20
-26.749999999999989
30
0
40
0.24999999999998579
0
CIRCLE
5
163
100
AcDbEntity
8
0
100
AcDbCircle
10
-175
20
-26.749999999999989
30
0
40
0.24999999999998579
0
CIRCLE
5
164
100
AcDbEntity
8
0
100
AcDbCircle
10
-177.5
20
-26.749999999999989
30
0
40
0.24999999999998579
0
CIRCLE
5
165
100
AcDbEntity
8
0
100
AcDbCircle
10
-180
20
-26.749999999999989
30
0
40
0.24999999999998579
0
CIRCLE
5
166
100
AcDbEntity
8
0
100
AcDbCircle
10
-182.5
20
-26.749999999999989
30
0
40
0.24999999999998579
0
CIRCLE
5
167
100
AcDbEntity
8
0
100
AcDbCircle
10
-185
20
-26.749999999999989
30
0
40
0.24999999999998579
0
CIRCLE
5
168
100
AcDbEntity
8
0
100
AcDbCircle
10
-187.5
20
-26.749999999999989
30
0
40
0.24999999999998579
0
CIRCLE
5
169
100
AcDbEntity
8
0
100
AcDbCircle
10
-190
20
-26.749999999999989
30
0
40
0.24999999999998579
0
CIRCLE
5
170
100
AcDbEntity
8
0
100
AcDbCircle
10
-192.5
20
-26.749999999999989
30
0
40
0.24999999999998579
0
CIRCLE
5
171
100
AcDbEntity
8
0
100
AcDbCircle
10
-195
20
-26.749999999999989
30
0
40
0.24999999999998579
0
CIRCLE
5
172
100
AcDbEntity
8
0
100
AcDbCircle
10
-197.5
20
-26.749999999999989
30
0
40
0.24999999999998579
0
CIRCLE
5
173
100
AcDbEntity
8
0
100
AcDbCircle
10
-200
20
-26.749999999999989
30
0
40
0.24999999999998579
0
CIRCLE
5
174
100
AcDbEntity
8
0
100
AcDbCircle
10
-202.5
20
-26.749999999999989
30
0
40
0.24999999999998579
0
CIRCLE
5
175
100
AcDbEntity
8
0
100
AcDbCircle
10
-205
20
-26.749999999999989
30
0
40
0.24999999999998579
0
CIRCLE
5
176
100
AcDbEntity
8
0
100
AcDbCircle
10
-207.5
20
-26.749999999999989
30
0
40
0.24999999999998579
0
CIRCLE
5
177
100
AcDbEntity
8
0
100
AcDbCircle
10
-210
20
-26.749999999999989
30
0
40
0.24999999999998579
0
CIRCLE
5
178
100
AcDbEntity
8
0
100
AcDbCircle
10
-212.5
20
-26.749999999999989
30
0
40
0.24999999999998579
0
CIRCLE
5
179
100
AcDbEntity
8
0
100
AcDbCircle
10
-215
20
-26.749999999999989
30
0
40
0.24999999999998579
0
CIRCLE
5
180
100
AcDbEntity
8
0
100
AcDbCircle
10
-217.5
20
-26.749999999999989
30
0
40
0.24999999999998579
0
CIRCLE
5
181
100
AcDbEntity
8
0
100
AcDbCircle
10
-220
20
-26.749999999999989
30
0
40
0.24999999999998579
0
CIRCLE
5
182
100
AcDbEntity
8
0
100
AcDbCircle
10
-222.5
20
-26.749999999999989
30
0
40
0.24999999999998579
0
CIRCLE
5
183
100
AcDbEntity
8
0
100
AcDbCircle
10
-225
20
-26.749999999999989
30
0
40
0.24999999999998579
0
CIRCLE
5
184
100
AcDbEntity
8
0
100
AcDbCircle
10
-227.5
20
-26.749999999999989
30
0
40
0.24999999999998579
0
CIRCLE
5
185
100
AcDbEntity
8
0
100
AcDbCircle
10
-230
20
-26.749999999999989
30
0
40
0.24999999999998579
0
CIRCLE
5
186
100
AcDbEntity
8
0
100
AcDbCircle
10
-232.5
20
-26.749999999999989
30
0
40
0.24999999999998579
0
CIRCLE
5
187
100
AcDbEntity
8
0
100
AcDbCircle
10
-235
20
-26.749999999999989
30
0
40
0.24999999999998579
0
CIRCLE
5
188
100
AcDbEntity
8
0
100
AcDbCircle
10
-237.5
20
-26.749999999999989
30
0
40
0.24999999999998579
0
CIRCLE
5
189
100
AcDbEntity
8
0
100
AcDbCircle
10
-240
20
-26.749999999999989
30
0
40
0.24999999999998579
0
CIRCLE
5
190
100
AcDbEntity
8
0
100
AcDbCircle
10
-242.5
20
-26.749999999999989
30
0
40
0.24999999999998579
0
CIRCLE
5
191
100
AcDbEntity
8
0
100
AcDbCircle
10
-245
20
-26.749999999999989
30
0
40
0.24999999999998579
0
CIRCLE
5
192
100
AcDbEntity
8
0
100
AcDbCircle
10
-247.5
20
-26.749999999999989
30
0
40
0.24999999999998579
0
CIRCLE
5
193
100
AcDbEntity
8
0
100
AcDbCircle
10
-257.5
20
-26.749999999999989
30
0
40
0.24999999999998579
0
CIRCLE
5
194
100
AcDbEntity
8
0
100
AcDbCircle
10
-250
20
-26.749999999999989
30
0
40
0.24999999999998579
0
CIRCLE
5
195
100
AcDbEntity
8
0
100
AcDbCircle
10
-252.5
20
-26.749999999999989
30
0
40
0.24999999999998579
0
CIRCLE
5
196
100
AcDbEntity
8
0
100
AcDbCircle
10
-255
20
-26.749999999999989
30
0
40
0.24999999999998579
0
CIRCLE
5
197
100
AcDbEntity
8
0
100
AcDbCircle
10
-132.5
20
-26.749999999999989
30
0
40
0.24999999999998579
0
CIRCLE
5
198
100
AcDbEntity
8
0
100
AcDbCircle
10
-135
20
-26.749999999999989
30
0
40
0.24999999999998579
0
CIRCLE
5
199
100
AcDbEntity
8
0
100
AcDbCircle
10
-137.5
20
-26.749999999999989
30
0
40
0.24999999999998579
0
CIRCLE
5
200
100
AcDbEntity
8
0
100
AcDbCircle
10
-140
20
-26.749999999999989
30
0
40
0.24999999999998579
0
CIRCLE
5
201
100
AcDbEntity
8
0
100
AcDbCircle
10
-142.5
20
-26.749999999999989
30
0
40
0.24999999999998579
0
CIRCLE
5
202
100
AcDbEntity
8
0
100
AcDbCircle
10
-145
20
-26.749999999999989
30
0
40
0.24999999999998579
0
CIRCLE
5
203
100
AcDbEntity
8
0
100
AcDbCircle
10
-147.5
20
-26.749999999999989
30
0
40
0.24999999999998579
0
CIRCLE
5
204
100
AcDbEntity
8
0
100
AcDbCircle
10
-150
20
-26.749999999999989
30
0
40
0.24999999999998579
0
CIRCLE
5
205
100
AcDbEntity
8
0
100
AcDbCircle
10
-152.5
20
-26.749999999999989
30
0
40
0.24999999999998579
0
CIRCLE
5
206
100
AcDbEntity
8
0
100
AcDbCircle
10
-155
20
-26.749999999999989
30
0
40
0.24999999999998579
0
CIRCLE
5
207
100
AcDbEntity
8
0
100
AcDbCircle
10
-157.5
20
-26.749999999999989
30
0
40
0.24999999999998579
0
CIRCLE
5
208
100
AcDbEntity
8
0
100
AcDbCircle
10
-160
20
-26.749999999999989
30
0
40
0.24999999999998579
0
CIRCLE
5
209
100
AcDbEntity
8
0
100
AcDbCircle
10
-162.5
20
-26.749999999999989
30
0
40
0.24999999999998579
0
CIRCLE
5
210
100
AcDbEntity
8
0
100
AcDbCircle
10
-165
20
-26.749999999999989
30
0
40
0.24999999999998579
0
CIRCLE
5
211
100
AcDbEntity
8
0
100
AcDbCircle
10
-167.5
20
-26.749999999999989
30
0
40
0.24999999999998579
0
CIRCLE
5
212
100
AcDbEntity
8
0
100
AcDbCircle
10
-170
20
-26.749999999999989
30
0
40
0.24999999999998579
0
LINE
5
213
100
AcDbEntity
8
0
100
AcDbLine
10
-260
20
-29.000000000000004
30
0
11
-260
21
-22
31
0
0
ENDSEC
0
SECTION
2
OBJECTS
0
DICTIONARY
5
C
100
AcDbDictionary
3
ACAD_GROUP
350
D
3
ACAD_MLINESTYLE
350
17
0
DICTIONARY
5
D
100
AcDbDictionary
0
DICTIONARY
5
1A
330
C
100
AcDbDictionary
0
DICTIONARY
5
17
100
AcDbDictionary
0
ENDSEC
0
EOF
