0
SECTION
2
HEADER
9
$ACADVER
1
AC1014
9
$HANDSEED
5
FFFF
0
ENDSEC
0
SECTION
2
TABLES
0
TABLE
2
VPORT
5
8
100
AcDbSymbolTable
0
ENDTAB
0
TABLE
2
LTYPE
5
5
100
AcDbSymbolTable
0
LTYPE
5
14
100
AcDbSymbolTableRecord
100
AcDbLinetypeTableRecord
2
BYBLOCK
70
0
0
LTYPE
5
15
100
AcDbSymbolTableRecord
100
AcDbLinetypeTableRecord
2
BYLAYER
70
0
0
ENDTAB
0
TABLE
2
LAYER
5
2
100
AcDbSymbolTable
70
2
0
LAYER
5
50
100
AcDbSymbolTableRecord
100
AcDbLayerTableRecord
2
0
70
0
6
CONTINUOUS
0
ENDTAB
0
TABLE
2
STYLE
5
3
100
AcDbSymbolTable
70
1
0
STYLE
5
11
100
AcDbSymbolTableRecord
100
AcDbTextStyleTableRecord
2
STANDARD
70
0
0
ENDTAB
0
TABLE
2
VIEW
5
6
100
AcDbSymbolTable
70
0
0
ENDTAB
0
TABLE
2
UCS
5
7
100
AcDbSymbolTable
70
0
0
ENDTAB
0
TABLE
2
APPID
5
9
100
AcDbSymbolTable
70
2
0
APPID
5
12
100
AcDbSymbolTableRecord
100
AcDbRegAppTableRecord
2
ACAD
70
0
0
ENDTAB
0
TABLE
2
DIMSTYLE
5
A
100
AcDbSymbolTable
70
1
0
ENDTAB
0
TABLE
2
BLOCK_RECORD
5
1
100
AcDbSymbolTable
70
1
0
BLOCK_RECORD
5
1F
100
AcDbSymbolTableRecord
100
AcDbBlockTableRecord
2
*MODEL_SPACE
0
BLOCK_RECORD
5
1B
100
AcDbSymbolTableRecord
100
AcDbBlockTableRecord
2
*PAPER_SPACE
0
ENDTAB
0
ENDSEC
0
SECTION
2
BLOCKS
0
BLOCK
5
20
100
AcDbEntity
100
AcDbBlockBegin
2
*MODEL_SPACE
0
ENDBLK
5
21
100
AcDbEntity
100
AcDbBlockEnd
0
BLOCK
5
1C
100
AcDbEntity
100
AcDbBlockBegin
2
*PAPER_SPACE
0
ENDBLK
5
1D
100
AcDbEntity
100
AcDbBlockEnd
0
ENDSEC
0
SECTION
2
ENTITIES
0
LINE
5
100
100
AcDbEntity
8
0
100
AcDbLine
10
-131.99999999999972
20
-15
30
0
11
-261.25
21
-15
31
0
0
LINE
5
101
100
AcDbEntity
8
0
100
AcDbLine
10
-262.25
20
-16
30
0
11
-262.25
21
-39.000000000000021
31
0
0
LINE
5
102
100
AcDbEntity
8
0
100
AcDbLine
10
-130.99999999999972
20
-38
30
0
11
-130.99999999999972
21
-16
31
0
0
LINE
5
103
100
AcDbEntity
8
0
100
AcDbLine
10
-262.25
20
-17.25
30
0
11
-130.99999999999972
21
-17.250000000000089
31
0
0
LINE
5
104
100
AcDbEntity
8
0
100
AcDbLine
10
-260
20
-15
30
0
11
-260
21
-39
31
0
0
LINE
5
105
100
AcDbEntity
8
0
100
AcDbLine
10
-133.24999999999972
20
-15
30
0
11
-133.24999999999972
21
-39
31
0
0
LINE
5
106
100
AcDbEntity
8
0
100
AcDbLine
10
-262.25
20
-36.750000000000178
30
0
11
-131.00000195205212
21
-36.750000000000099
31
0
0
LINE
5
107
100
AcDbEntity
8
0
100
AcDbLine
10
-131.99999999999972
20
-39.000000000000014
30
0
11
-261.25
21
-38.999999999999993
31
0
0
LWPOLYLINE
5
108
100
AcDbEntity
8
0
100
AcDbPolyline
90
4
70
1
43
0.0
10
-259.25
20
-17
10
-260
20
-17.000000000000018
42
0.99999999999999989
10
-260
20
-17.499999999999989
10
-259.25
20
-17.500000000000004
42
0.99999999999999989
0
LWPOLYLINE
5
109
100
AcDbEntity
8
0
100
AcDbPolyline
90
4
70
1
43
0.0
10
-260
20
-37.000000000000163
42
-0.99999999999999989
10
-260
20
-36.500000000000192
10
-259.25
20
-36.500000000000171
42
-0.99999999999999989
10
-259.25
20
-37.000000000000178
0
LWPOLYLINE
5
110
100
AcDbEntity
8
0
100
AcDbPolyline
90
4
70
1
43
0.0
10
-253.25
20
-36.500000000000171
42
-0.99999999999999989
10
-253.25
20
-37.000000000000178
10
-254
20
-37.000000000000163
42
-0.99999999999999989
10
-254
20
-36.500000000000192
0
LWPOLYLINE
5
111
100
AcDbEntity
8
0
100
AcDbPolyline
90
4
70
1
43
0.0
10
-254
20
-17.499999999999989
42
-0.99999999999999989
10
-254
20
-17.000000000000018
10
-253.25
20
-17
42
-0.99999999999999989
10
-253.25
20
-17.500000000000004
0
LWPOLYLINE
5
112
100
AcDbEntity
8
0
100
AcDbPolyline
90
4
70
1
43
0.0
10
-247.24999999999997
20
-36.500000000000171
42
-0.99999999999999989
10
-247.24999999999997
20
-37.000000000000178
10
-247.99999999999997
20
-37.000000000000163
42
-0.99999999999999989
10
-247.99999999999997
20
-36.500000000000192
0
LWPOLYLINE
5
113
100
AcDbEntity
8
0
100
AcDbPolyline
90
4
70
1
43
0.0
10
-247.99999999999997
20
-17.499999999999989
42
-0.99999999999999989
10
-247.99999999999997
20
-17.000000000000018
10
-247.24999999999997
20
-17
42
-0.99999999999999989
10
-247.24999999999997
20
-17.500000000000004
0
LWPOLYLINE
5
114
100
AcDbEntity
8
0
100
AcDbPolyline
90
4
70
1
43
0.0
10
-241.24999999999997
20
-36.500000000000171
42
-0.99999999999999989
10
-241.24999999999997
20
-37.000000000000178
10
-241.99999999999994
20
-37.000000000000163
42
-0.99999999999999989
10
-241.99999999999994
20
-36.500000000000192
0
LWPOLYLINE
5
115
100
AcDbEntity
8
0
100
AcDbPolyline
90
4
70
1
43
0.0
10
-241.99999999999994
20
-17.499999999999989
42
-0.99999999999999989
10
-241.99999999999994
20
-17.000000000000018
10
-241.24999999999997
20
-17
42
-0.99999999999999989
10
-241.24999999999997
20
-17.500000000000004
0
LWPOLYLINE
5
116
100
AcDbEntity
8
0
100
AcDbPolyline
90
4
70
1
43
0.0
10
-235.24999999999994
20
-36.500000000000171
42
-0.99999999999999989
10
-235.24999999999994
20
-37.000000000000178
10
-235.99999999999994
20
-37.000000000000163
42
-0.99999999999999989
10
-235.99999999999994
20
-36.500000000000192
0
LWPOLYLINE
5
117
100
AcDbEntity
8
0
100
AcDbPolyline
90
4
70
1
43
0.0
10
-235.99999999999994
20
-17.499999999999989
42
-0.99999999999999989
10
-235.99999999999994
20
-17.000000000000018
10
-235.24999999999994
20
-17
42
-0.99999999999999989
10
-235.24999999999994
20
-17.500000000000004
0
LWPOLYLINE
5
118
100
AcDbEntity
8
0
100
AcDbPolyline
90
4
70
1
43
0.0
10
-229.24999999999994
20
-36.500000000000171
42
-0.99999999999999989
10
-229.24999999999994
20
-37.000000000000178
10
-229.99999999999994
20
-37.000000000000163
42
-0.99999999999999989
10
-229.99999999999994
20
-36.500000000000192
0
LWPOLYLINE
5
119
100
AcDbEntity
8
0
100
AcDbPolyline
90
4
70
1
43
0.0
10
-229.99999999999994
20
-17.499999999999989
42
-0.99999999999999989
10
-229.99999999999994
20
-17.000000000000018
10
-229.24999999999994
20
-17
42
-0.99999999999999989
10
-229.24999999999994
20
-17.500000000000004
0
LWPOLYLINE
5
120
100
AcDbEntity
8
0
100
AcDbPolyline
90
4
70
1
43
0.0
10
-223.24999999999991
20
-36.500000000000171
42
-0.99999999999999989
10
-223.24999999999991
20
-37.000000000000178
10
-223.99999999999991
20
-37.000000000000163
42
-0.99999999999999989
10
-223.99999999999991
20
-36.500000000000192
0
LWPOLYLINE
5
121
100
AcDbEntity
8
0
100
AcDbPolyline
90
4
70
1
43
0.0
10
-223.99999999999991
20
-17.499999999999989
42
-0.99999999999999989
10
-223.99999999999991
20
-17.000000000000018
10
-223.24999999999991
20
-17
42
-0.99999999999999989
10
-223.24999999999991
20
-17.500000000000004
0
LWPOLYLINE
5
122
100
AcDbEntity
8
0
100
AcDbPolyline
90
4
70
1
43
0.0
10
-217.24999999999991
20
-36.500000000000171
42
-0.99999999999999989
10
-217.24999999999991
20
-37.000000000000178
10
-217.99999999999989
20
-37.000000000000163
42
-0.99999999999999989
10
-217.99999999999989
20
-36.500000000000192
0
LWPOLYLINE
5
123
100
AcDbEntity
8
0
100
AcDbPolyline
90
4
70
1
43
0.0
10
-217.99999999999989
20
-17.499999999999989
42
-0.99999999999999989
10
-217.99999999999989
20
-17.000000000000018
10
-217.24999999999991
20
-17
42
-0.99999999999999989
10
-217.24999999999991
20
-17.500000000000004
0
LWPOLYLINE
5
124
100
AcDbEntity
8
0
100
AcDbPolyline
90
4
70
1
43
0.0
10
-211.24999999999989
20
-36.500000000000171
42
-0.99999999999999989
10
-211.24999999999989
20
-37.000000000000178
10
-211.99999999999989
20
-37.000000000000163
42
-0.99999999999999989
10
-211.99999999999989
20
-36.500000000000192
0
LWPOLYLINE
5
125
100
AcDbEntity
8
0
100
AcDbPolyline
90
4
70
1
43
0.0
10
-211.99999999999989
20
-17.499999999999989
42
-0.99999999999999989
10
-211.99999999999989
20
-17.000000000000018
10
-211.24999999999989
20
-17
42
-0.99999999999999989
10
-211.24999999999989
20
-17.500000000000004
0
LWPOLYLINE
5
126
100
AcDbEntity
8
0
100
AcDbPolyline
90
4
70
1
43
0.0
10
-205.24999999999989
20
-36.500000000000171
42
-0.99999999999999989
10
-205.24999999999989
20
-37.000000000000178
10
-205.99999999999989
20
-37.000000000000163
42
-0.99999999999999989
10
-205.99999999999989
20
-36.500000000000192
0
LWPOLYLINE
5
127
100
AcDbEntity
8
0
100
AcDbPolyline
90
4
70
1
43
0.0
10
-205.99999999999989
20
-17.499999999999989
42
-0.99999999999999989
10
-205.99999999999989
20
-17.000000000000018
10
-205.24999999999989
20
-17
42
-0.99999999999999989
10
-205.24999999999989
20
-17.500000000000004
0
LWPOLYLINE
5
128
100
AcDbEntity
8
0
100
AcDbPolyline
90
4
70
1
43
0.0
10
-199.24999999999986
20
-36.500000000000171
42
-0.99999999999999989
10
-199.24999999999986
20
-37.000000000000178
10
-199.99999999999986
20
-37.000000000000163
42
-0.99999999999999989
10
-199.99999999999986
20
-36.500000000000192
0
LWPOLYLINE
5
129
100
AcDbEntity
8
0
100
AcDbPolyline
90
4
70
1
43
0.0
10
-199.99999999999986
20
-17.499999999999989
42
-0.99999999999999989
10
-199.99999999999986
20
-17.000000000000018
10
-199.24999999999986
20
-17
42
-0.99999999999999989
10
-199.24999999999986
20
-17.500000000000004
0
LWPOLYLINE
5
130
100
AcDbEntity
8
0
100
AcDbPolyline
90
4
70
1
43
0.0
10
-193.24999999999986
20
-36.500000000000171
42
-0.99999999999999989
10
-193.24999999999986
20
-37.000000000000178
10
-193.99999999999983
20
-37.000000000000163
42
-0.99999999999999989
10
-193.99999999999983
20
-36.500000000000192
0
LWPOLYLINE
5
131
100
AcDbEntity
8
0
100
AcDbPolyline
90
4
70
1
43
0.0
10
-193.99999999999983
20
-17.499999999999989
42
-0.99999999999999989
10
-193.99999999999983
20
-17.000000000000018
10
-193.24999999999986
20
-17
42
-0.99999999999999989
10
-193.24999999999986
20
-17.500000000000004
0
LWPOLYLINE
5
132
100
AcDbEntity
8
0
100
AcDbPolyline
90
4
70
1
43
0.0
10
-187.24999999999983
20
-36.500000000000171
42
-0.99999999999999989
10
-187.24999999999983
20
-37.000000000000178
10
-187.99999999999983
20
-37.000000000000163
42
-0.99999999999999989
10
-187.99999999999983
20
-36.500000000000192
0
LWPOLYLINE
5
133
100
AcDbEntity
8
0
100
AcDbPolyline
90
4
70
1
43
0.0
10
-187.99999999999983
20
-17.499999999999989
42
-0.99999999999999989
10
-187.99999999999983
20
-17.000000000000018
10
-187.24999999999983
20
-17
42
-0.99999999999999989
10
-187.24999999999983
20
-17.500000000000004
0
LWPOLYLINE
5
134
100
AcDbEntity
8
0
100
AcDbPolyline
90
4
70
1
43
0.0
10
-181.24999999999983
20
-36.500000000000171
42
-0.99999999999999989
10
-181.24999999999983
20
-37.000000000000178
10
-181.99999999999983
20
-37.000000000000163
42
-0.99999999999999989
10
-181.99999999999983
20
-36.500000000000192
0
LWPOLYLINE
5
135
100
AcDbEntity
8
0
100
AcDbPolyline
90
4
70
1
43
0.0
10
-181.99999999999983
20
-17.499999999999989
42
-0.99999999999999989
10
-181.99999999999983
20
-17.000000000000018
10
-181.24999999999983
20
-17
42
-0.99999999999999989
10
-181.24999999999983
20
-17.500000000000004
0
LWPOLYLINE
5
136
100
AcDbEntity
8
0
100
AcDbPolyline
90
4
70
1
43
0.0
10
-175.2499999999998
20
-36.500000000000171
42
-0.99999999999999989
10
-175.2499999999998
20
-37.000000000000178
10
-175.9999999999998
20
-37.000000000000163
42
-0.99999999999999989
10
-175.9999999999998
20
-36.500000000000192
0
LWPOLYLINE
5
137
100
AcDbEntity
8
0
100
AcDbPolyline
90
4
70
1
43
0.0
10
-175.9999999999998
20
-17.499999999999989
42
-0.99999999999999989
10
-175.9999999999998
20
-17.000000000000018
10
-175.2499999999998
20
-17
42
-0.99999999999999989
10
-175.2499999999998
20
-17.500000000000004
0
LWPOLYLINE
5
138
100
AcDbEntity
8
0
100
AcDbPolyline
90
4
70
1
43
0.0
10
-169.2499999999998
20
-36.500000000000171
42
-0.99999999999999989
10
-169.2499999999998
20
-37.000000000000178
10
-169.99999999999977
20
-37.000000000000163
42
-0.99999999999999989
10
-169.99999999999977
20
-36.500000000000192
0
LWPOLYLINE
5
139
100
AcDbEntity
8
0
100
AcDbPolyline
90
4
70
1
43
0.0
10
-169.99999999999977
20
-17.499999999999989
42
-0.99999999999999989
10
-169.99999999999977
20
-17.000000000000018
10
-169.2499999999998
20
-17
42
-0.99999999999999989
10
-169.2499999999998
20
-17.500000000000004
0
LWPOLYLINE
5
140
100
AcDbEntity
8
0
100
AcDbPolyline
90
4
70
1
43
0.0
10
-163.24999999999977
20
-36.500000000000171
42
-0.99999999999999989
10
-163.24999999999977
20
-37.000000000000178
10
-163.99999999999977
20
-37.000000000000163
42
-0.99999999999999989
10
-163.99999999999977
20
-36.500000000000192
0
LWPOLYLINE
5
141
100
AcDbEntity
8
0
100
AcDbPolyline
90
4
70
1
43
0.0
10
-163.99999999999977
20
-17.499999999999989
42
-0.99999999999999989
10
-163.99999999999977
20
-17.000000000000018
10
-163.24999999999977
20
-17
42
-0.99999999999999989
10
-163.24999999999977
20
-17.500000000000004
0
LWPOLYLINE
5
142
100
AcDbEntity
8
0
100
AcDbPolyline
90
4
70
1
43
0.0
10
-157.24999999999977
20
-36.500000000000171
42
-0.99999999999999989
10
-157.24999999999977
20
-37.000000000000178
10
-157.99999999999977
20
-37.000000000000163
42
-0.99999999999999989
10
-157.99999999999977
20
-36.500000000000192
0
LWPOLYLINE
5
143
100
AcDbEntity
8
0
100
AcDbPolyline
90
4
70
1
43
0.0
10
-157.99999999999977
20
-17.499999999999989
42
-0.99999999999999989
10
-157.99999999999977
20
-17.000000000000018
10
-157.24999999999977
20
-17
42
-0.99999999999999989
10
-157.24999999999977
20
-17.500000000000004
0
LWPOLYLINE
5
144
100
AcDbEntity
8
0
100
AcDbPolyline
90
4
70
1
43
0.0
10
-151.24999999999974
20
-36.500000000000171
42
-0.99999999999999989
10
-151.24999999999974
20
-37.000000000000178
10
-151.99999999999974
20
-37.000000000000163
42
-0.99999999999999989
10
-151.99999999999974
20
-36.500000000000192
0
LWPOLYLINE
5
145
100
AcDbEntity
8
0
100
AcDbPolyline
90
4
70
1
43
0.0
10
-151.99999999999974
20
-17.499999999999989
42
-0.99999999999999989
10
-151.99999999999974
20
-17.000000000000018
10
-151.24999999999974
20
-17
42
-0.99999999999999989
10
-151.24999999999974
20
-17.500000000000004
0
LWPOLYLINE
5
146
100
AcDbEntity
8
0
100
AcDbPolyline
90
4
70
1
43
0.0
10
-145.24999999999974
20
-36.500000000000171
42
-0.99999999999999989
10
-145.24999999999974
20
-37.000000000000178
10
-145.99999999999972
20
-37.000000000000163
42
-0.99999999999999989
10
-145.99999999999972
20
-36.500000000000192
0
LWPOLYLINE
5
147
100
AcDbEntity
8
0
100
AcDbPolyline
90
4
70
1
43
0.0
10
-145.99999999999972
20
-17.499999999999989
42
-0.99999999999999989
10
-145.99999999999972
20
-17.000000000000018
10
-145.24999999999974
20
-17
42
-0.99999999999999989
10
-145.24999999999974
20
-17.500000000000004
0
LWPOLYLINE
5
148
100
AcDbEntity
8
0
100
AcDbPolyline
90
4
70
1
43
0.0
10
-139.24999999999972
20
-36.500000000000171
42
-0.99999999999999989
10
-139.24999999999972
20
-37.000000000000178
10
-139.99999999999972
20
-37.000000000000163
42
-0.99999999999999989
10
-139.99999999999972
20
-36.500000000000192
0
LWPOLYLINE
5
149
100
AcDbEntity
8
0
100
AcDbPolyline
90
4
70
1
43
0.0
10
-139.99999999999972
20
-17.499999999999989
42
-0.99999999999999989
10
-139.99999999999972
20
-17.000000000000018
10
-139.24999999999972
20
-17
42
-0.99999999999999989
10
-139.24999999999972
20
-17.500000000000004
0
LWPOLYLINE
5
150
100
AcDbEntity
8
0
100
AcDbPolyline
90
4
70
1
43
0.0
10
-133.24999999999972
20
-36.500000000000171
42
-0.99999999999999989
10
-133.24999999999972
20
-37.000000000000178
10
-133.99999999999972
20
-37.000000000000163
42
-0.99999999999999989
10
-133.99999999999972
20
-36.500000000000192
0
LWPOLYLINE
5
151
100
AcDbEntity
8
0
100
AcDbPolyline
90
4
70
1
43
0.0
10
-133.99999999999972
20
-17.499999999999989
42
-0.99999999999999989
10
-133.99999999999972
20
-17.000000000000018
10
-133.24999999999972
20
-17
42
-0.99999999999999989
10
-133.24999999999972
20
-17.500000000000004
0
ARC
5
152
100
AcDbEntity
8
0
100
AcDbCircle
10
-131.99999999999972
20
-15.999999999999995
30
0
40
0.99999999999999645
100
AcDbArc
50
0
51
90
0
ARC
5
153
100
AcDbEntity
8
0
100
AcDbCircle
10
-131.99999999999972
20
-38.000000000000014
30
0
40
0.99999999999999645
100
AcDbArc
50
-90
51
0
0
ARC
5
154
100
AcDbEntity
8
0
100
AcDbCircle
10
-261.25
20
-37.999999999999979
30
0
40
1.0000000000000142
100
AcDbArc
50
180
51
270
0
ARC
5
155
100
AcDbEntity
8
0
100
AcDbCircle
10
-261.25
20
-16.000000000000021
30
0
40
1.0000000000000209
100
AcDbArc
50
90
51
180
0
ENDSEC
0
SECTION
2
OBJECTS
0
DICTIONARY
5
C
100
AcDbDictionary
3
ACAD_GROUP
350
D
3
ACAD_MLINESTYLE
350
17
0
DICTIONARY
5
D
100
AcDbDictionary
0
DICTIONARY
5
1A
330
C
100
AcDbDictionary
0
DICTIONARY
5
17
100
AcDbDictionary
0
ENDSEC
0
EOF
