0
SECTION
2
HEADER
9
$ACADVER
1
AC1014
9
$HANDSEED
5
FFFF
0
ENDSEC
0
SECTION
2
TABLES
0
TABLE
2
VPORT
5
8
100
AcDbSymbolTable
0
ENDTAB
0
TABLE
2
LTYPE
5
5
100
AcDbSymbolTable
0
LTYPE
5
14
100
AcDbSymbolTableRecord
100
AcDbLinetypeTableRecord
2
BYBLOCK
70
0
0
LTYPE
5
15
100
AcDbSymbolTableRecord
100
AcDbLinetypeTableRecord
2
BYLAYER
70
0
0
ENDTAB
0
TABLE
2
LAYER
5
2
100
AcDbSymbolTable
70
2
0
LAYER
5
50
100
AcDbSymbolTableRecord
100
AcDbLayerTableRecord
2
0
70
0
6
CONTINUOUS
0
ENDTAB
0
TABLE
2
STYLE
5
3
100
AcDbSymbolTable
70
1
0
STYLE
5
11
100
AcDbSymbolTableRecord
100
AcDbTextStyleTableRecord
2
STANDARD
70
0
0
ENDTAB
0
TABLE
2
VIEW
5
6
100
AcDbSymbolTable
70
0
0
ENDTAB
0
TABLE
2
UCS
5
7
100
AcDbSymbolTable
70
0
0
ENDTAB
0
TABLE
2
APPID
5
9
100
AcDbSymbolTable
70
2
0
APPID
5
12
100
AcDbSymbolTableRecord
100
AcDbRegAppTableRecord
2
ACAD
70
0
0
ENDTAB
0
TABLE
2
DIMSTYLE
5
A
100
AcDbSymbolTable
70
1
0
ENDTAB
0
TABLE
2
BLOCK_RECORD
5
1
100
AcDbSymbolTable
70
1
0
BLOCK_RECORD
5
1F
100
AcDbSymbolTableRecord
100
AcDbBlockTableRecord
2
*MODEL_SPACE
0
BLOCK_RECORD
5
1B
100
AcDbSymbolTableRecord
100
AcDbBlockTableRecord
2
*PAPER_SPACE
0
ENDTAB
0
ENDSEC
0
SECTION
2
BLOCKS
0
BLOCK
5
20
100
AcDbEntity
100
AcDbBlockBegin
2
*MODEL_SPACE
0
ENDBLK
5
21
100
AcDbEntity
100
AcDbBlockEnd
0
BLOCK
5
1C
100
AcDbEntity
100
AcDbBlockBegin
2
*PAPER_SPACE
0
ENDBLK
5
1D
100
AcDbEntity
100
AcDbBlockEnd
0
ENDSEC
0
SECTION
2
ENTITIES
0
LINE
5
100
100
AcDbEntity
8
0
100
AcDbLine
10
0
20
0
30
0
11
-25
21
0
31
0
0
LINE
5
101
100
AcDbEntity
8
0
100
AcDbLine
10
-425
20
-1.3404472412935162e-30
30
0
11
-425
21
45
31
0
0
LINE
5
102
100
AcDbEntity
8
0
100
AcDbLine
10
-425
20
45
30
0
11
0
21
45
31
0
0
LINE
5
103
100
AcDbEntity
8
0
100
AcDbLine
10
0
20
45
30
0
11
0
21
11.354065922853804
31
0
0
LINE
5
104
100
AcDbEntity
8
0
100
AcDbLine
10
-101.00000000000001
20
45
30
0
11
-101.00000000000001
21
0
31
0
0
LINE
5
105
100
AcDbEntity
8
0
100
AcDbLine
10
-295
20
45
30
0
11
-295
21
0
31
0
0
LINE
5
106
100
AcDbEntity
8
0
100
AcDbLine
10
-263
20
45
30
0
11
-263
21
0
31
0
0
LINE
5
107
100
AcDbEntity
8
0
100
AcDbLine
10
-133
20
45
30
0
11
-133
21
0
31
0
0
LINE
5
108
100
AcDbEntity
8
0
100
AcDbLine
10
-25
20
45
30
0
11
-25
21
0
31
0
0
LINE
5
109
100
AcDbEntity
8
0
100
AcDbLine
10
-295
20
0
30
0
11
-425
21
-1.3404472412935162e-30
31
0
0
LINE
5
110
100
AcDbEntity
8
0
100
AcDbLine
10
-263
20
0
30
0
11
-295
21
0
31
0
0
LINE
5
111
100
AcDbEntity
8
0
100
AcDbLine
10
-101.00000000000001
20
0
30
0
11
-133
21
0
31
0
0
LINE
5
112
100
AcDbEntity
8
0
100
AcDbLine
10
-133
20
0
30
0
11
-101.00000000000001
21
0
31
0
0
LINE
5
113
100
AcDbEntity
8
0
100
AcDbLine
10
-101.00000000000001
20
0
30
0
11
-133
21
0
31
0
0
LINE
5
114
100
AcDbEntity
8
0
100
AcDbLine
10
-133
20
0
30
0
11
-263
21
0
31
0
0
LINE
5
115
100
AcDbEntity
8
0
100
AcDbLine
10
-25
20
0
30
0
11
-101.00000000000001
21
0
31
0
0
LINE
5
116
100
AcDbEntity
8
0
100
AcDbLine
10
-1.2572186472917926
20
9.4971125410832826
30
0
11
-25
21
0
31
0
0
LINE
5
117
100
AcDbEntity
8
0
100
AcDbLine
10
0
20
10
30
0
11
0
21
0
31
0
0
LINE
5
118
100
AcDbEntity
8
0
100
AcDbLine
10
-295
20
2.25
30
0
11
-422.75
21
2.25
31
0
0
LINE
5
119
100
AcDbEntity
8
0
100
AcDbLine
10
-279
20
0
30
0
11
-279
21
45
31
0
0
LINE
5
120
100
AcDbEntity
8
0
100
AcDbLine
10
-323
20
45
30
0
11
-323
21
33.5
31
0
0
LINE
5
121
100
AcDbEntity
8
0
100
AcDbLine
10
-335.99999999999994
20
33.5
30
0
11
-335.99999999999994
21
45
31
0
0
LINE
5
122
100
AcDbEntity
8
0
100
AcDbLine
10
0
20
80
30
0
11
0
21
90
31
0
0
LINE
5
123
100
AcDbEntity
8
0
100
AcDbLine
10
-263
20
45
30
0
11
-263
21
90
31
0
0
LINE
5
124
100
AcDbEntity
8
0
100
AcDbLine
10
-133
20
45
30
0
11
-133
21
90
31
0
0
LINE
5
125
100
AcDbEntity
8
0
100
AcDbLine
10
0
20
45
30
0
11
-4.7184478546569153e-15
21
78.645934077146194
31
0
0
LINE
5
126
100
AcDbEntity
8
0
100
AcDbLine
10
-25
20
45
30
0
11
-25
21
90
31
0
0
LINE
5
127
100
AcDbEntity
8
0
100
AcDbLine
10
-295
20
90
30
0
11
-425
21
90
31
0
0
LINE
5
128
100
AcDbEntity
8
0
100
AcDbLine
10
-263
20
90
30
0
11
-295
21
90
31
0
0
LINE
5
129
100
AcDbEntity
8
0
100
AcDbLine
10
-101.00000000000001
20
90
30
0
11
-133
21
90
31
0
0
LINE
5
130
100
AcDbEntity
8
0
100
AcDbLine
10
-133
20
90
30
0
11
-101.00000000000001
21
90
31
0
0
LINE
5
131
100
AcDbEntity
8
0
100
AcDbLine
10
-101.00000000000001
20
90
30
0
11
-133
21
90
31
0
0
LINE
5
132
100
AcDbEntity
8
0
100
AcDbLine
10
-133
20
90
30
0
11
-263
21
90
31
0
0
LINE
5
133
100
AcDbEntity
8
0
100
AcDbLine
10
-25
20
90
30
0
11
-101.00000000000001
21
90
31
0
0
LINE
5
134
100
AcDbEntity
8
0
100
AcDbLine
10
-1.2572186472917879
20
80.502887458916717
30
0
11
-25
21
90
31
0
0
LINE
5
135
100
AcDbEntity
8
0
100
AcDbLine
10
-279
20
90
30
0
11
-279
21
45
31
0
0
LINE
5
136
100
AcDbEntity
8
0
100
AcDbLine
10
-295
20
45
30
0
11
-295
21
90
31
0
0
LINE
5
137
100
AcDbEntity
8
0
100
AcDbLine
10
-425
20
90
30
0
11
-425
21
45
31
0
0
LINE
5
138
100
AcDbEntity
8
0
100
AcDbLine
10
-101.00000000000001
20
45
30
0
11
-101.00000000000001
21
90
31
0
0
LINE
5
139
100
AcDbEntity
8
0
100
AcDbLine
10
0
20
90
30
0
11
-25
21
90
31
0
0
LINE
5
140
100
AcDbEntity
8
0
100
AcDbLine
10
-295.75
20
2.5000000000000036
30
0
11
-295.75
21
2.0000000000000018
31
0
0
LINE
5
141
100
AcDbEntity
8
0
100
AcDbLine
10
-295.75
20
2.5000000000000036
30
0
11
-295
21
2.5000000000000133
31
0
0
LINE
5
142
100
AcDbEntity
8
0
100
AcDbLine
10
-295.75
20
2.0000000000000018
30
0
11
-295
21
1.9999999999999871
31
0
0
ARC
5
143
100
AcDbEntity
8
0
100
AcDbCircle
10
-295.75
20
2.25
30
0
40
0.25000000000000328
100
AcDbArc
50
90
51
270
0
ARC
5
144
100
AcDbEntity
8
0
100
AcDbCircle
10
-295
20
2.25
30
0
40
0.25000000000001299
100
AcDbArc
50
-90
51
90
0
LWPOLYLINE
5
145
100
AcDbEntity
8
0
100
AcDbPolyline
90
4
70
1
43
0.0
10
-301
20
2.5000000000000133
10
-301.75
20
2.5000000000000036
42
0.99999999999999989
10
-301.75
20
2.0000000000000018
10
-301
20
1.9999999999999871
42
0.99999999999999989
0
LWPOLYLINE
5
146
100
AcDbEntity
8
0
100
AcDbPolyline
90
4
70
1
43
0.0
10
-307
20
2.5000000000000133
10
-307.75
20
2.5000000000000036
42
0.99999999999999989
10
-307.75
20
2.0000000000000018
10
-307
20
1.9999999999999871
42
0.99999999999999989
0
LWPOLYLINE
5
147
100
AcDbEntity
8
0
100
AcDbPolyline
90
4
70
1
43
0.0
10
-313.00000000000006
20
2.5000000000000133
10
-313.75000000000006
20
2.5000000000000036
42
0.99999999999999989
10
-313.75000000000006
20
2.0000000000000018
10
-313.00000000000006
20
1.9999999999999871
42
0.99999999999999989
0
LWPOLYLINE
5
148
100
AcDbEntity
8
0
100
AcDbPolyline
90
4
70
1
43
0.0
10
-319.00000000000006
20
2.5000000000000133
10
-319.75000000000006
20
2.5000000000000036
42
0.99999999999999989
10
-319.75000000000006
20
2.0000000000000018
10
-319.00000000000006
20
1.9999999999999871
42
0.99999999999999989
0
LWPOLYLINE
5
149
100
AcDbEntity
8
0
100
AcDbPolyline
90
4
70
1
43
0.0
10
-325.00000000000006
20
2.5000000000000133
10
-325.75
20
2.5000000000000036
42
0.99999999999999989
10
-325.75
20
2.0000000000000018
10
-325.00000000000006
20
1.9999999999999871
42
0.99999999999999989
0
LWPOLYLINE
5
150
100
AcDbEntity
8
0
100
AcDbPolyline
90
4
70
1
43
0.0
10
-331.00000000000011
20
2.5000000000000133
10
-331.75000000000011
20
2.5000000000000036
42
0.99999999999999989
10
-331.75000000000011
20
2.0000000000000018
10
-331.00000000000011
20
1.9999999999999871
42
0.99999999999999989
0
LWPOLYLINE
5
151
100
AcDbEntity
8
0
100
AcDbPolyline
90
4
70
1
43
0.0
10
-337.00000000000011
20
2.5000000000000133
10
-337.75000000000006
20
2.5000000000000036
42
0.99999999999999989
10
-337.75000000000006
20
2.0000000000000018
10
-337.00000000000011
20
1.9999999999999871
42
0.99999999999999989
0
LWPOLYLINE
5
152
100
AcDbEntity
8
0
100
AcDbPolyline
90
4
70
1
43
0.0
10
-343.00000000000011
20
2.5000000000000133
10
-343.75000000000011
20
2.5000000000000036
42
0.99999999999999989
10
-343.75000000000011
20
2.0000000000000018
10
-343.00000000000011
20
1.9999999999999871
42
0.99999999999999989
0
LWPOLYLINE
5
153
100
AcDbEntity
8
0
100
AcDbPolyline
90
4
70
1
43
0.0
10
-349.00000000000011
20
2.5000000000000133
10
-349.75000000000011
20
2.5000000000000036
42
0.99999999999999989
10
-349.75000000000011
20
2.0000000000000018
10
-349.00000000000011
20
1.9999999999999871
42
0.99999999999999989
0
LWPOLYLINE
5
154
100
AcDbEntity
8
0
100
AcDbPolyline
90
4
70
1
43
0.0
10
-355.00000000000011
20
2.5000000000000133
10
-355.75000000000017
20
2.5000000000000036
42
0.99999999999999989
10
-355.75000000000017
20
2.0000000000000018
10
-355.00000000000011
20
1.9999999999999871
42
0.99999999999999989
0
LWPOLYLINE
5
155
100
AcDbEntity
8
0
100
AcDbPolyline
90
4
70
1
43
0.0
10
-361.00000000000017
20
2.5000000000000133
10
-361.75000000000011
20
2.5000000000000036
42
0.99999999999999989
10
-361.75000000000011
20
2.0000000000000018
10
-361.00000000000017
20
1.9999999999999871
42
0.99999999999999989
0
LWPOLYLINE
5
156
100
AcDbEntity
8
0
100
AcDbPolyline
90
4
70
1
43
0.0
10
-367.00000000000017
20
2.5000000000000133
10
-367.75000000000023
20
2.5000000000000036
42
0.99999999999999989
10
-367.75000000000023
20
2.0000000000000018
10
-367.00000000000017
20
1.9999999999999871
42
0.99999999999999989
0
LWPOLYLINE
5
157
100
AcDbEntity
8
0
100
AcDbPolyline
90
4
70
1
43
0.0
10
-373.00000000000017
20
2.5000000000000133
10
-373.75000000000011
20
2.5000000000000036
42
0.99999999999999989
10
-373.75000000000011
20
2.0000000000000018
10
-373.00000000000017
20
1.9999999999999871
42
0.99999999999999989
0
LWPOLYLINE
5
158
100
AcDbEntity
8
0
100
AcDbPolyline
90
4
70
1
43
0.0
10
-379.00000000000023
20
2.5000000000000133
10
-379.75000000000023
20
2.5000000000000036
42
0.99999999999999989
10
-379.75000000000023
20
2.0000000000000018
10
-379.00000000000023
20
1.9999999999999871
42
0.99999999999999989
0
LWPOLYLINE
5
159
100
AcDbEntity
8
0
100
AcDbPolyline
90
4
70
1
43
0.0
10
-385.00000000000023
20
2.5000000000000133
10
-385.75000000000017
20
2.5000000000000036
42
0.99999999999999989
10
-385.75000000000017
20
2.0000000000000018
10
-385.00000000000023
20
1.9999999999999871
42
0.99999999999999989
0
LWPOLYLINE
5
160
100
AcDbEntity
8
0
100
AcDbPolyline
90
4
70
1
43
0.0
10
-391.00000000000023
20
2.5000000000000133
10
-391.75000000000023
20
2.5000000000000036
42
0.99999999999999989
10
-391.75000000000023
20
2.0000000000000018
10
-391.00000000000023
20
1.9999999999999871
42
0.99999999999999989
0
LWPOLYLINE
5
161
100
AcDbEntity
8
0
100
AcDbPolyline
90
4
70
1
43
0.0
10
-397.00000000000023
20
2.5000000000000133
10
-397.75000000000023
20
2.5000000000000036
42
0.99999999999999989
10
-397.75000000000023
20
2.0000000000000018
10
-397.00000000000023
20
1.9999999999999871
42
0.99999999999999989
0
LWPOLYLINE
5
162
100
AcDbEntity
8
0
100
AcDbPolyline
90
4
70
1
43
0.0
10
-403.00000000000023
20
2.5000000000000133
10
-403.75000000000028
20
2.5000000000000036
42
0.99999999999999989
10
-403.75000000000028
20
2.0000000000000018
10
-403.00000000000023
20
1.9999999999999871
42
0.99999999999999989
0
LWPOLYLINE
5
163
100
AcDbEntity
8
0
100
AcDbPolyline
90
4
70
1
43
0.0
10
-409.00000000000028
20
2.5000000000000133
10
-409.75000000000023
20
2.5000000000000036
42
0.99999999999999989
10
-409.75000000000023
20
2.0000000000000018
10
-409.00000000000028
20
1.9999999999999871
42
0.99999999999999989
0
LWPOLYLINE
5
164
100
AcDbEntity
8
0
100
AcDbPolyline
90
4
70
1
43
0.0
10
-415.00000000000028
20
2.5000000000000133
10
-415.75000000000034
20
2.5000000000000036
42
0.99999999999999989
10
-415.75000000000034
20
2.0000000000000018
10
-415.00000000000028
20
1.9999999999999871
42
0.99999999999999989
0
LWPOLYLINE
5
165
100
AcDbEntity
8
0
100
AcDbPolyline
90
4
70
1
43
0.0
10
-421.00000000000028
20
2.5000000000000133
10
-421.75000000000023
20
2.5000000000000036
42
0.99999999999999989
10
-421.75000000000023
20
2.0000000000000018
10
-421.00000000000028
20
1.9999999999999871
42
0.99999999999999989
0
LWPOLYLINE
5
166
100
AcDbEntity
8
0
100
AcDbPolyline
90
4
70
1
43
0.0
10
-323
20
33.750000000000007
10
-323.75
20
33.75
42
0.99999999999999989
10
-323.75
20
33.25
10
-323
20
33.249999999999986
42
0.99999999999999989
0
LINE
5
167
100
AcDbEntity
8
0
100
AcDbLine
10
-263
20
2.25
30
0
11
-133
21
2.25
31
0
0
LINE
5
168
100
AcDbEntity
8
0
100
AcDbLine
10
-295
20
87.75
30
0
11
-422.75
21
87.75
31
0
0
LINE
5
169
100
AcDbEntity
8
0
100
AcDbLine
10
-263
20
87.75
30
0
11
-133
21
87.75
31
0
0
LWPOLYLINE
5
170
100
AcDbEntity
8
0
100
AcDbPolyline
90
4
70
1
43
0.0
10
-329.74999999999994
20
33.249999999999993
42
-0.99999999999999989
10
-329.74999999999994
20
33.75
10
-328.99999999999989
20
33.750000000000007
42
-0.99999999999999989
10
-328.99999999999989
20
33.249999999999986
0
LWPOLYLINE
5
171
100
AcDbEntity
8
0
100
AcDbPolyline
90
4
70
1
43
0.0
10
-323
20
33.750000000000007
42
-0.99999999999999989
10
-323
20
33.249999999999986
10
-323.75
20
33.249999999999993
42
-0.99999999999999989
10
-323.75
20
33.75
0
LWPOLYLINE
5
172
100
AcDbEntity
8
0
100
AcDbPolyline
90
4
70
1
43
0.0
10
-323
20
56.750000000000014
42
-0.99999999999999989
10
-323
20
56.249999999999993
10
-323.75
20
56.25
42
-0.99999999999999989
10
-323.75
20
56.750000000000007
0
LWPOLYLINE
5
173
100
AcDbEntity
8
0
100
AcDbPolyline
90
4
70
1
43
0.0
10
-323
20
56.750000000000014
42
-0.99999999999999989
10
-323
20
56.249999999999993
10
-323.75
20
56.25
42
-0.99999999999999989
10
-323.75
20
56.750000000000007
0
LWPOLYLINE
5
174
100
AcDbEntity
8
0
100
AcDbPolyline
90
4
70
1
43
0.0
10
-328.99999999999989
20
56.750000000000014
42
-0.99999999999999989
10
-328.99999999999989
20
56.249999999999993
10
-329.74999999999994
20
56.25
42
-0.99999999999999989
10
-329.74999999999994
20
56.750000000000007
0
ARC
5
175
100
AcDbEntity
8
0
100
AcDbCircle
10
-262.25
20
2.25
30
0
40
0.25000000000001299
100
AcDbArc
50
-90
51
90
0
ARC
5
176
100
AcDbEntity
8
0
100
AcDbCircle
10
-263
20
2.25
30
0
40
0.25000000000000328
100
AcDbArc
50
90
51
270
0
LINE
5
177
100
AcDbEntity
8
0
100
AcDbLine
10
-263
20
2.0000000000000018
30
0
11
-262.25
21
1.9999999999999871
31
0
0
LINE
5
178
100
AcDbEntity
8
0
100
AcDbLine
10
-263
20
2.5000000000000036
30
0
11
-263
21
2.0000000000000018
31
0
0
LINE
5
179
100
AcDbEntity
8
0
100
AcDbLine
10
-263
20
2.5000000000000036
30
0
11
-262.25
21
2.5000000000000133
31
0
0
LWPOLYLINE
5
180
100
AcDbEntity
8
0
100
AcDbPolyline
90
4
70
1
43
0.0
10
-256.25
20
2.5000000000000133
10
-257
20
2.5000000000000036
42
0.99999999999999989
10
-257
20
2.0000000000000018
10
-256.25
20
1.9999999999999871
42
0.99999999999999989
0
LWPOLYLINE
5
181
100
AcDbEntity
8
0
100
AcDbPolyline
90
4
70
1
43
0.0
10
-250.25
20
2.5000000000000133
10
-250.99999999999997
20
2.5000000000000036
42
0.99999999999999989
10
-250.99999999999997
20
2.0000000000000018
10
-250.25
20
1.9999999999999871
42
0.99999999999999989
0
LWPOLYLINE
5
182
100
AcDbEntity
8
0
100
AcDbPolyline
90
4
70
1
43
0.0
10
-244.24999999999997
20
2.5000000000000133
10
-244.99999999999997
20
2.5000000000000036
42
0.99999999999999989
10
-244.99999999999997
20
2.0000000000000018
10
-244.24999999999997
20
1.9999999999999871
42
0.99999999999999989
0
LWPOLYLINE
5
183
100
AcDbEntity
8
0
100
AcDbPolyline
90
4
70
1
43
0.0
10
-238.24999999999994
20
2.5000000000000133
10
-238.99999999999994
20
2.5000000000000036
42
0.99999999999999989
10
-238.99999999999994
20
2.0000000000000018
10
-238.24999999999994
20
1.9999999999999871
42
0.99999999999999989
0
LWPOLYLINE
5
184
100
AcDbEntity
8
0
100
AcDbPolyline
90
4
70
1
43
0.0
10
-232.24999999999994
20
2.5000000000000133
10
-232.99999999999994
20
2.5000000000000036
42
0.99999999999999989
10
-232.99999999999994
20
2.0000000000000018
10
-232.24999999999994
20
1.9999999999999871
42
0.99999999999999989
0
LWPOLYLINE
5
185
100
AcDbEntity
8
0
100
AcDbPolyline
90
4
70
1
43
0.0
10
-226.24999999999994
20
2.5000000000000133
10
-226.99999999999991
20
2.5000000000000036
42
0.99999999999999989
10
-226.99999999999991
20
2.0000000000000018
10
-226.24999999999994
20
1.9999999999999871
42
0.99999999999999989
0
LWPOLYLINE
5
186
100
AcDbEntity
8
0
100
AcDbPolyline
90
4
70
1
43
0.0
10
-220.24999999999991
20
2.5000000000000133
10
-220.99999999999991
20
2.5000000000000036
42
0.99999999999999989
10
-220.99999999999991
20
2.0000000000000018
10
-220.24999999999991
20
1.9999999999999871
42
0.99999999999999989
0
LWPOLYLINE
5
187
100
AcDbEntity
8
0
100
AcDbPolyline
90
4
70
1
43
0.0
10
-214.24999999999989
20
2.5000000000000133
10
-214.99999999999989
20
2.5000000000000036
42
0.99999999999999989
10
-214.99999999999989
20
2.0000000000000018
10
-214.24999999999989
20
1.9999999999999871
42
0.99999999999999989
0
LWPOLYLINE
5
188
100
AcDbEntity
8
0
100
AcDbPolyline
90
4
70
1
43
0.0
10
-208.24999999999989
20
2.5000000000000133
10
-208.99999999999989
20
2.5000000000000036
42
0.99999999999999989
10
-208.99999999999989
20
2.0000000000000018
10
-208.24999999999989
20
1.9999999999999871
42
0.99999999999999989
0
LWPOLYLINE
5
189
100
AcDbEntity
8
0
100
AcDbPolyline
90
4
70
1
43
0.0
10
-202.24999999999989
20
2.5000000000000133
10
-202.99999999999986
20
2.5000000000000036
42
0.99999999999999989
10
-202.99999999999986
20
2.0000000000000018
10
-202.24999999999989
20
1.9999999999999871
42
0.99999999999999989
0
LWPOLYLINE
5
190
100
AcDbEntity
8
0
100
AcDbPolyline
90
4
70
1
43
0.0
10
-196.24999999999986
20
2.5000000000000133
10
-196.99999999999986
20
2.5000000000000036
42
0.99999999999999989
10
-196.99999999999986
20
2.0000000000000018
10
-196.24999999999986
20
1.9999999999999871
42
0.99999999999999989
0
LWPOLYLINE
5
191
100
AcDbEntity
8
0
100
AcDbPolyline
90
4
70
1
43
0.0
10
-190.24999999999983
20
2.5000000000000133
10
-190.99999999999983
20
2.5000000000000036
42
0.99999999999999989
10
-190.99999999999983
20
2.0000000000000018
10
-190.24999999999983
20
1.9999999999999871
42
0.99999999999999989
0
LWPOLYLINE
5
192
100
AcDbEntity
8
0
100
AcDbPolyline
90
4
70
1
43
0.0
10
-184.24999999999983
20
2.5000000000000133
10
-184.99999999999983
20
2.5000000000000036
42
0.99999999999999989
10
-184.99999999999983
20
2.0000000000000018
10
-184.24999999999983
20
1.9999999999999871
42
0.99999999999999989
0
LWPOLYLINE
5
193
100
AcDbEntity
8
0
100
AcDbPolyline
90
4
70
1
43
0.0
10
-178.24999999999983
20
2.5000000000000133
10
-178.9999999999998
20
2.5000000000000036
42
0.99999999999999989
10
-178.9999999999998
20
2.0000000000000018
10
-178.24999999999983
20
1.9999999999999871
42
0.99999999999999989
0
LWPOLYLINE
5
194
100
AcDbEntity
8
0
100
AcDbPolyline
90
4
70
1
43
0.0
10
-172.2499999999998
20
2.5000000000000133
10
-172.9999999999998
20
2.5000000000000036
42
0.99999999999999989
10
-172.9999999999998
20
2.0000000000000018
10
-172.2499999999998
20
1.9999999999999871
42
0.99999999999999989
0
LWPOLYLINE
5
195
100
AcDbEntity
8
0
100
AcDbPolyline
90
4
70
1
43
0.0
10
-166.24999999999977
20
2.5000000000000133
10
-166.99999999999977
20
2.5000000000000036
42
0.99999999999999989
10
-166.99999999999977
20
2.0000000000000018
10
-166.24999999999977
20
1.9999999999999871
42
0.99999999999999989
0
LWPOLYLINE
5
196
100
AcDbEntity
8
0
100
AcDbPolyline
90
4
70
1
43
0.0
10
-160.24999999999977
20
2.5000000000000133
10
-160.99999999999977
20
2.5000000000000036
42
0.99999999999999989
10
-160.99999999999977
20
2.0000000000000018
10
-160.24999999999977
20
1.9999999999999871
42
0.99999999999999989
0
LWPOLYLINE
5
197
100
AcDbEntity
8
0
100
AcDbPolyline
90
4
70
1
43
0.0
10
-154.24999999999977
20
2.5000000000000133
10
-154.99999999999974
20
2.5000000000000036
42
0.99999999999999989
10
-154.99999999999974
20
2.0000000000000018
10
-154.24999999999977
20
1.9999999999999871
42
0.99999999999999989
0
LWPOLYLINE
5
198
100
AcDbEntity
8
0
100
AcDbPolyline
90
4
70
1
43
0.0
10
-148.24999999999974
20
2.5000000000000133
10
-148.99999999999974
20
2.5000000000000036
42
0.99999999999999989
10
-148.99999999999974
20
2.0000000000000018
10
-148.24999999999974
20
1.9999999999999871
42
0.99999999999999989
0
LWPOLYLINE
5
199
100
AcDbEntity
8
0
100
AcDbPolyline
90
4
70
1
43
0.0
10
-142.24999999999972
20
2.5000000000000133
10
-142.99999999999972
20
2.5000000000000036
42
0.99999999999999989
10
-142.99999999999972
20
2.0000000000000018
10
-142.24999999999972
20
1.9999999999999871
42
0.99999999999999989
0
LWPOLYLINE
5
200
100
AcDbEntity
8
0
100
AcDbPolyline
90
4
70
1
43
0.0
10
-136.24999999999972
20
2.5000000000000133
10
-136.99999999999972
20
2.5000000000000036
42
0.99999999999999989
10
-136.99999999999972
20
2.0000000000000018
10
-136.24999999999972
20
1.9999999999999871
42
0.99999999999999989
0
LINE
5
201
100
AcDbEntity
8
0
100
AcDbLine
10
-263
20
87.5
30
0
11
-262.25
21
87.5
31
0
0
LINE
5
202
100
AcDbEntity
8
0
100
AcDbLine
10
-263
20
88
30
0
11
-263
21
87.5
31
0
0
ARC
5
203
100
AcDbEntity
8
0
100
AcDbCircle
10
-263
20
87.75
30
0
40
0.25000000000000355
100
AcDbArc
50
90
51
270
0
LINE
5
204
100
AcDbEntity
8
0
100
AcDbLine
10
-263
20
88
30
0
11
-262.25
21
88.000000000000028
31
0
0
ARC
5
205
100
AcDbEntity
8
0
100
AcDbCircle
10
-262.25
20
87.75
30
0
40
0.25000000000000355
100
AcDbArc
50
-90
51
90
0
ARC
5
206
100
AcDbEntity
8
0
100
AcDbCircle
10
-257
20
87.75
30
0
40
0.25000000000000355
100
AcDbArc
50
90
51
270
0
LINE
5
207
100
AcDbEntity
8
0
100
AcDbLine
10
-257
20
88
30
0
11
-257
21
87.5
31
0
0
LINE
5
208
100
AcDbEntity
8
0
100
AcDbLine
10
-257
20
87.5
30
0
11
-256.25
21
87.5
31
0
0
ARC
5
209
100
AcDbEntity
8
0
100
AcDbCircle
10
-256.25
20
87.75
30
0
40
0.25000000000000355
100
AcDbArc
50
-90
51
90
0
LINE
5
210
100
AcDbEntity
8
0
100
AcDbLine
10
-257
20
88
30
0
11
-256.25
21
88.000000000000028
31
0
0
ARC
5
211
100
AcDbEntity
8
0
100
AcDbCircle
10
-250.99999999999997
20
87.75
30
0
40
0.25000000000000355
100
AcDbArc
50
90
51
270
0
LINE
5
212
100
AcDbEntity
8
0
100
AcDbLine
10
-250.99999999999997
20
88
30
0
11
-250.99999999999997
21
87.5
31
0
0
LINE
5
213
100
AcDbEntity
8
0
100
AcDbLine
10
-250.99999999999997
20
87.5
30
0
11
-250.25
21
87.5
31
0
0
ARC
5
214
100
AcDbEntity
8
0
100
AcDbCircle
10
-250.25
20
87.75
30
0
40
0.25000000000000355
100
AcDbArc
50
-90
51
90
0
LINE
5
215
100
AcDbEntity
8
0
100
AcDbLine
10
-250.99999999999997
20
88
30
0
11
-250.25
21
88.000000000000028
31
0
0
ARC
5
216
100
AcDbEntity
8
0
100
AcDbCircle
10
-244.99999999999997
20
87.75
30
0
40
0.25000000000000355
100
AcDbArc
50
90
51
270
0
LINE
5
217
100
AcDbEntity
8
0
100
AcDbLine
10
-244.99999999999997
20
88
30
0
11
-244.99999999999997
21
87.5
31
0
0
LINE
5
218
100
AcDbEntity
8
0
100
AcDbLine
10
-244.99999999999997
20
87.5
30
0
11
-244.24999999999997
21
87.5
31
0
0
ARC
5
219
100
AcDbEntity
8
0
100
AcDbCircle
10
-244.24999999999997
20
87.75
30
0
40
0.25000000000000355
100
AcDbArc
50
-90
51
90
0
LINE
5
220
100
AcDbEntity
8
0
100
AcDbLine
10
-244.99999999999997
20
88
30
0
11
-244.24999999999997
21
88.000000000000028
31
0
0
ARC
5
221
100
AcDbEntity
8
0
100
AcDbCircle
10
-238.99999999999994
20
87.75
30
0
40
0.25000000000000355
100
AcDbArc
50
90
51
270
0
LINE
5
222
100
AcDbEntity
8
0
100
AcDbLine
10
-238.99999999999994
20
88
30
0
11
-238.99999999999994
21
87.5
31
0
0
LINE
5
223
100
AcDbEntity
8
0
100
AcDbLine
10
-238.99999999999994
20
87.5
30
0
11
-238.24999999999994
21
87.5
31
0
0
ARC
5
224
100
AcDbEntity
8
0
100
AcDbCircle
10
-238.24999999999994
20
87.75
30
0
40
0.25000000000000355
100
AcDbArc
50
-90
51
90
0
LINE
5
225
100
AcDbEntity
8
0
100
AcDbLine
10
-238.99999999999994
20
88
30
0
11
-238.24999999999994
21
88.000000000000028
31
0
0
ARC
5
226
100
AcDbEntity
8
0
100
AcDbCircle
10
-232.99999999999994
20
87.75
30
0
40
0.25000000000000355
100
AcDbArc
50
90
51
270
0
LINE
5
227
100
AcDbEntity
8
0
100
AcDbLine
10
-232.99999999999994
20
88
30
0
11
-232.99999999999994
21
87.5
31
0
0
LINE
5
228
100
AcDbEntity
8
0
100
AcDbLine
10
-232.99999999999994
20
87.5
30
0
11
-232.24999999999994
21
87.5
31
0
0
ARC
5
229
100
AcDbEntity
8
0
100
AcDbCircle
10
-232.24999999999994
20
87.75
30
0
40
0.25000000000000355
100
AcDbArc
50
-90
51
90
0
LINE
5
230
100
AcDbEntity
8
0
100
AcDbLine
10
-232.99999999999994
20
88
30
0
11
-232.24999999999994
21
88.000000000000028
31
0
0
ARC
5
231
100
AcDbEntity
8
0
100
AcDbCircle
10
-226.99999999999991
20
87.75
30
0
40
0.25000000000000355
100
AcDbArc
50
90
51
270
0
LINE
5
232
100
AcDbEntity
8
0
100
AcDbLine
10
-226.99999999999991
20
88
30
0
11
-226.99999999999991
21
87.5
31
0
0
LINE
5
233
100
AcDbEntity
8
0
100
AcDbLine
10
-226.99999999999991
20
87.5
30
0
11
-226.24999999999994
21
87.5
31
0
0
ARC
5
234
100
AcDbEntity
8
0
100
AcDbCircle
10
-226.24999999999994
20
87.75
30
0
40
0.25000000000000355
100
AcDbArc
50
-90
51
90
0
LINE
5
235
100
AcDbEntity
8
0
100
AcDbLine
10
-226.99999999999991
20
88
30
0
11
-226.24999999999994
21
88.000000000000028
31
0
0
ARC
5
236
100
AcDbEntity
8
0
100
AcDbCircle
10
-220.99999999999991
20
87.75
30
0
40
0.25000000000000355
100
AcDbArc
50
90
51
270
0
LINE
5
237
100
AcDbEntity
8
0
100
AcDbLine
10
-220.99999999999991
20
88
30
0
11
-220.99999999999991
21
87.5
31
0
0
LINE
5
238
100
AcDbEntity
8
0
100
AcDbLine
10
-220.99999999999991
20
87.5
30
0
11
-220.24999999999991
21
87.5
31
0
0
ARC
5
239
100
AcDbEntity
8
0
100
AcDbCircle
10
-220.24999999999991
20
87.75
30
0
40
0.25000000000000355
100
AcDbArc
50
-90
51
90
0
LINE
5
240
100
AcDbEntity
8
0
100
AcDbLine
10
-220.99999999999991
20
88
30
0
11
-220.24999999999991
21
88.000000000000028
31
0
0
ARC
5
241
100
AcDbEntity
8
0
100
AcDbCircle
10
-214.99999999999989
20
87.75
30
0
40
0.25000000000000355
100
AcDbArc
50
90
51
270
0
LINE
5
242
100
AcDbEntity
8
0
100
AcDbLine
10
-214.99999999999989
20
88
30
0
11
-214.99999999999989
21
87.5
31
0
0
LINE
5
243
100
AcDbEntity
8
0
100
AcDbLine
10
-214.99999999999989
20
87.5
30
0
11
-214.24999999999989
21
87.5
31
0
0
ARC
5
244
100
AcDbEntity
8
0
100
AcDbCircle
10
-214.24999999999989
20
87.75
30
0
40
0.25000000000000355
100
AcDbArc
50
-90
51
90
0
LINE
5
245
100
AcDbEntity
8
0
100
AcDbLine
10
-214.99999999999989
20
88
30
0
11
-214.24999999999989
21
88.000000000000028
31
0
0
ARC
5
246
100
AcDbEntity
8
0
100
AcDbCircle
10
-208.99999999999989
20
87.75
30
0
40
0.25000000000000355
100
AcDbArc
50
90
51
270
0
LINE
5
247
100
AcDbEntity
8
0
100
AcDbLine
10
-208.99999999999989
20
88
30
0
11
-208.99999999999989
21
87.5
31
0
0
LINE
5
248
100
AcDbEntity
8
0
100
AcDbLine
10
-208.99999999999989
20
87.5
30
0
11
-208.24999999999989
21
87.5
31
0
0
ARC
5
249
100
AcDbEntity
8
0
100
AcDbCircle
10
-208.24999999999989
20
87.75
30
0
40
0.25000000000000355
100
AcDbArc
50
-90
51
90
0
LINE
5
250
100
AcDbEntity
8
0
100
AcDbLine
10
-208.99999999999989
20
88
30
0
11
-208.24999999999989
21
88.000000000000028
31
0
0
ARC
5
251
100
AcDbEntity
8
0
100
AcDbCircle
10
-202.99999999999986
20
87.75
30
0
40
0.25000000000000355
100
AcDbArc
50
90
51
270
0
LINE
5
252
100
AcDbEntity
8
0
100
AcDbLine
10
-202.99999999999986
20
88
30
0
11
-202.99999999999986
21
87.5
31
0
0
LINE
5
253
100
AcDbEntity
8
0
100
AcDbLine
10
-202.99999999999986
20
87.5
30
0
11
-202.24999999999989
21
87.5
31
0
0
ARC
5
254
100
AcDbEntity
8
0
100
AcDbCircle
10
-202.24999999999989
20
87.75
30
0
40
0.25000000000000355
100
AcDbArc
50
-90
51
90
0
LINE
5
255
100
AcDbEntity
8
0
100
AcDbLine
10
-202.99999999999986
20
88
30
0
11
-202.24999999999989
21
88.000000000000028
31
0
0
ARC
5
256
100
AcDbEntity
8
0
100
AcDbCircle
10
-196.99999999999986
20
87.75
30
0
40
0.25000000000000355
100
AcDbArc
50
90
51
270
0
LINE
5
257
100
AcDbEntity
8
0
100
AcDbLine
10
-196.99999999999986
20
88
30
0
11
-196.99999999999986
21
87.5
31
0
0
LINE
5
258
100
AcDbEntity
8
0
100
AcDbLine
10
-196.99999999999986
20
87.5
30
0
11
-196.24999999999986
21
87.5
31
0
0
ARC
5
259
100
AcDbEntity
8
0
100
AcDbCircle
10
-196.24999999999986
20
87.75
30
0
40
0.25000000000000355
100
AcDbArc
50
-90
51
90
0
LINE
5
260
100
AcDbEntity
8
0
100
AcDbLine
10
-196.99999999999986
20
88
30
0
11
-196.24999999999986
21
88.000000000000028
31
0
0
ARC
5
261
100
AcDbEntity
8
0
100
AcDbCircle
10
-190.99999999999983
20
87.75
30
0
40
0.25000000000000355
100
AcDbArc
50
90
51
270
0
LINE
5
262
100
AcDbEntity
8
0
100
AcDbLine
10
-190.99999999999983
20
88
30
0
11
-190.99999999999983
21
87.5
31
0
0
LINE
5
263
100
AcDbEntity
8
0
100
AcDbLine
10
-190.99999999999983
20
87.5
30
0
11
-190.24999999999983
21
87.5
31
0
0
ARC
5
264
100
AcDbEntity
8
0
100
AcDbCircle
10
-190.24999999999983
20
87.75
30
0
40
0.25000000000000355
100
AcDbArc
50
-90
51
90
0
LINE
5
265
100
AcDbEntity
8
0
100
AcDbLine
10
-190.99999999999983
20
88
30
0
11
-190.24999999999983
21
88.000000000000028
31
0
0
ARC
5
266
100
AcDbEntity
8
0
100
AcDbCircle
10
-184.99999999999983
20
87.75
30
0
40
0.25000000000000355
100
AcDbArc
50
90
51
270
0
LINE
5
267
100
AcDbEntity
8
0
100
AcDbLine
10
-184.99999999999983
20
88
30
0
11
-184.99999999999983
21
87.5
31
0
0
LINE
5
268
100
AcDbEntity
8
0
100
AcDbLine
10
-184.99999999999983
20
87.5
30
0
11
-184.24999999999983
21
87.5
31
0
0
ARC
5
269
100
AcDbEntity
8
0
100
AcDbCircle
10
-184.24999999999983
20
87.75
30
0
40
0.25000000000000355
100
AcDbArc
50
-90
51
90
0
LINE
5
270
100
AcDbEntity
8
0
100
AcDbLine
10
-184.99999999999983
20
88
30
0
11
-184.24999999999983
21
88.000000000000028
31
0
0
ARC
5
271
100
AcDbEntity
8
0
100
AcDbCircle
10
-178.9999999999998
20
87.75
30
0
40
0.25000000000000355
100
AcDbArc
50
90
51
270
0
LINE
5
272
100
AcDbEntity
8
0
100
AcDbLine
10
-178.9999999999998
20
88
30
0
11
-178.9999999999998
21
87.5
31
0
0
LINE
5
273
100
AcDbEntity
8
0
100
AcDbLine
10
-178.9999999999998
20
87.5
30
0
11
-178.24999999999983
21
87.5
31
0
0
ARC
5
274
100
AcDbEntity
8
0
100
AcDbCircle
10
-178.24999999999983
20
87.75
30
0
40
0.25000000000000355
100
AcDbArc
50
-90
51
90
0
LINE
5
275
100
AcDbEntity
8
0
100
AcDbLine
10
-178.9999999999998
20
88
30
0
11
-178.24999999999983
21
88.000000000000028
31
0
0
ARC
5
276
100
AcDbEntity
8
0
100
AcDbCircle
10
-172.9999999999998
20
87.75
30
0
40
0.25000000000000355
100
AcDbArc
50
90
51
270
0
LINE
5
277
100
AcDbEntity
8
0
100
AcDbLine
10
-172.9999999999998
20
88
30
0
11
-172.9999999999998
21
87.5
31
0
0
LINE
5
278
100
AcDbEntity
8
0
100
AcDbLine
10
-172.9999999999998
20
87.5
30
0
11
-172.2499999999998
21
87.5
31
0
0
ARC
5
279
100
AcDbEntity
8
0
100
AcDbCircle
10
-172.2499999999998
20
87.75
30
0
40
0.25000000000000355
100
AcDbArc
50
-90
51
90
0
LINE
5
280
100
AcDbEntity
8
0
100
AcDbLine
10
-172.9999999999998
20
88
30
0
11
-172.2499999999998
21
88.000000000000028
31
0
0
ARC
5
281
100
AcDbEntity
8
0
100
AcDbCircle
10
-166.99999999999977
20
87.75
30
0
40
0.25000000000000355
100
AcDbArc
50
90
51
270
0
LINE
5
282
100
AcDbEntity
8
0
100
AcDbLine
10
-166.99999999999977
20
88
30
0
11
-166.99999999999977
21
87.5
31
0
0
LINE
5
283
100
AcDbEntity
8
0
100
AcDbLine
10
-166.99999999999977
20
87.5
30
0
11
-166.24999999999977
21
87.5
31
0
0
ARC
5
284
100
AcDbEntity
8
0
100
AcDbCircle
10
-166.24999999999977
20
87.75
30
0
40
0.25000000000000355
100
AcDbArc
50
-90
51
90
0
LINE
5
285
100
AcDbEntity
8
0
100
AcDbLine
10
-166.99999999999977
20
88
30
0
11
-166.24999999999977
21
88.000000000000028
31
0
0
ARC
5
286
100
AcDbEntity
8
0
100
AcDbCircle
10
-160.99999999999977
20
87.75
30
0
40
0.25000000000000355
100
AcDbArc
50
90
51
270
0
LINE
5
287
100
AcDbEntity
8
0
100
AcDbLine
10
-160.99999999999977
20
88
30
0
11
-160.99999999999977
21
87.5
31
0
0
LINE
5
288
100
AcDbEntity
8
0
100
AcDbLine
10
-160.99999999999977
20
87.5
30
0
11
-160.24999999999977
21
87.5
31
0
0
ARC
5
289
100
AcDbEntity
8
0
100
AcDbCircle
10
-160.24999999999977
20
87.75
30
0
40
0.25000000000000355
100
AcDbArc
50
-90
51
90
0
LINE
5
290
100
AcDbEntity
8
0
100
AcDbLine
10
-160.99999999999977
20
88
30
0
11
-160.24999999999977
21
88.000000000000028
31
0
0
ARC
5
291
100
AcDbEntity
8
0
100
AcDbCircle
10
-154.99999999999974
20
87.75
30
0
40
0.25000000000000355
100
AcDbArc
50
90
51
270
0
LINE
5
292
100
AcDbEntity
8
0
100
AcDbLine
10
-154.99999999999974
20
88
30
0
11
-154.99999999999974
21
87.5
31
0
0
LINE
5
293
100
AcDbEntity
8
0
100
AcDbLine
10
-154.99999999999974
20
87.5
30
0
11
-154.24999999999977
21
87.5
31
0
0
ARC
5
294
100
AcDbEntity
8
0
100
AcDbCircle
10
-154.24999999999977
20
87.75
30
0
40
0.25000000000000355
100
AcDbArc
50
-90
51
90
0
LINE
5
295
100
AcDbEntity
8
0
100
AcDbLine
10
-154.99999999999974
20
88
30
0
11
-154.24999999999977
21
88.000000000000028
31
0
0
ARC
5
296
100
AcDbEntity
8
0
100
AcDbCircle
10
-148.99999999999974
20
87.75
30
0
40
0.25000000000000355
100
AcDbArc
50
90
51
270
0
LINE
5
297
100
AcDbEntity
8
0
100
AcDbLine
10
-148.99999999999974
20
88
30
0
11
-148.99999999999974
21
87.5
31
0
0
LINE
5
298
100
AcDbEntity
8
0
100
AcDbLine
10
-148.99999999999974
20
87.5
30
0
11
-148.24999999999974
21
87.5
31
0
0
ARC
5
299
100
AcDbEntity
8
0
100
AcDbCircle
10
-148.24999999999974
20
87.75
30
0
40
0.25000000000000355
100
AcDbArc
50
-90
51
90
0
LINE
5
300
100
AcDbEntity
8
0
100
AcDbLine
10
-148.99999999999974
20
88
30
0
11
-148.24999999999974
21
88.000000000000028
31
0
0
ARC
5
301
100
AcDbEntity
8
0
100
AcDbCircle
10
-142.99999999999972
20
87.75
30
0
40
0.25000000000000355
100
AcDbArc
50
90
51
270
0
LINE
5
302
100
AcDbEntity
8
0
100
AcDbLine
10
-142.99999999999972
20
88
30
0
11
-142.99999999999972
21
87.5
31
0
0
LINE
5
303
100
AcDbEntity
8
0
100
AcDbLine
10
-142.99999999999972
20
87.5
30
0
11
-142.24999999999972
21
87.5
31
0
0
ARC
5
304
100
AcDbEntity
8
0
100
AcDbCircle
10
-142.24999999999972
20
87.75
30
0
40
0.25000000000000355
100
AcDbArc
50
-90
51
90
0
LINE
5
305
100
AcDbEntity
8
0
100
AcDbLine
10
-142.99999999999972
20
88
30
0
11
-142.24999999999972
21
88.000000000000028
31
0
0
ARC
5
306
100
AcDbEntity
8
0
100
AcDbCircle
10
-136.99999999999972
20
87.75
30
0
40
0.25000000000000355
100
AcDbArc
50
90
51
270
0
LINE
5
307
100
AcDbEntity
8
0
100
AcDbLine
10
-136.99999999999972
20
88
30
0
11
-136.99999999999972
21
87.5
31
0
0
LINE
5
308
100
AcDbEntity
8
0
100
AcDbLine
10
-136.99999999999972
20
87.5
30
0
11
-136.24999999999972
21
87.5
31
0
0
ARC
5
309
100
AcDbEntity
8
0
100
AcDbCircle
10
-136.24999999999972
20
87.75
30
0
40
0.25000000000000355
100
AcDbArc
50
-90
51
90
0
LINE
5
310
100
AcDbEntity
8
0
100
AcDbLine
10
-136.99999999999972
20
88
30
0
11
-136.24999999999972
21
88.000000000000028
31
0
0
LINE
5
311
100
AcDbEntity
8
0
100
AcDbLine
10
-295.75
20
87.500000000000014
30
0
11
-295
21
87.5
31
0
0
ARC
5
312
100
AcDbEntity
8
0
100
AcDbCircle
10
-295.75
20
87.75
30
0
40
0.25000000000000355
100
AcDbArc
50
90
51
270
0
ARC
5
313
100
AcDbEntity
8
0
100
AcDbCircle
10
-295
20
87.75
30
0
40
0.25000000000000355
100
AcDbArc
50
-90
51
90
0
LINE
5
314
100
AcDbEntity
8
0
100
AcDbLine
10
-295.75
20
88
30
0
11
-295
21
88.000000000000028
31
0
0
LINE
5
315
100
AcDbEntity
8
0
100
AcDbLine
10
-295.75
20
88
30
0
11
-295.75
21
87.500000000000014
31
0
0
LINE
5
316
100
AcDbEntity
8
0
100
AcDbLine
10
-301.75
20
88
30
0
11
-301.75
21
87.500000000000014
31
0
0
ARC
5
317
100
AcDbEntity
8
0
100
AcDbCircle
10
-301.75
20
87.75
30
0
40
0.25000000000000355
100
AcDbArc
50
90
51
270
0
LINE
5
318
100
AcDbEntity
8
0
100
AcDbLine
10
-301.75
20
88
30
0
11
-301
21
88.000000000000028
31
0
0
LINE
5
319
100
AcDbEntity
8
0
100
AcDbLine
10
-301.75
20
87.500000000000014
30
0
11
-301
21
87.5
31
0
0
ARC
5
320
100
AcDbEntity
8
0
100
AcDbCircle
10
-301
20
87.75
30
0
40
0.25000000000000355
100
AcDbArc
50
-90
51
90
0
LINE
5
321
100
AcDbEntity
8
0
100
AcDbLine
10
-307.75
20
88
30
0
11
-307.75
21
87.500000000000014
31
0
0
ARC
5
322
100
AcDbEntity
8
0
100
AcDbCircle
10
-307.75
20
87.75
30
0
40
0.25000000000000355
100
AcDbArc
50
90
51
270
0
LINE
5
323
100
AcDbEntity
8
0
100
AcDbLine
10
-307.75
20
88
30
0
11
-307
21
88.000000000000028
31
0
0
LINE
5
324
100
AcDbEntity
8
0
100
AcDbLine
10
-307.75
20
87.500000000000014
30
0
11
-307
21
87.5
31
0
0
ARC
5
325
100
AcDbEntity
8
0
100
AcDbCircle
10
-307
20
87.75
30
0
40
0.25000000000000355
100
AcDbArc
50
-90
51
90
0
LINE
5
326
100
AcDbEntity
8
0
100
AcDbLine
10
-313.75000000000006
20
88
30
0
11
-313.75000000000006
21
87.500000000000014
31
0
0
ARC
5
327
100
AcDbEntity
8
0
100
AcDbCircle
10
-313.75000000000006
20
87.75
30
0
40
0.25000000000000355
100
AcDbArc
50
90
51
270
0
LINE
5
328
100
AcDbEntity
8
0
100
AcDbLine
10
-313.75000000000006
20
88
30
0
11
-313.00000000000006
21
88.000000000000028
31
0
0
LINE
5
329
100
AcDbEntity
8
0
100
AcDbLine
10
-313.75000000000006
20
87.500000000000014
30
0
11
-313.00000000000006
21
87.5
31
0
0
ARC
5
330
100
AcDbEntity
8
0
100
AcDbCircle
10
-313.00000000000006
20
87.75
30
0
40
0.25000000000000355
100
AcDbArc
50
-90
51
90
0
LINE
5
331
100
AcDbEntity
8
0
100
AcDbLine
10
-319.75000000000006
20
88
30
0
11
-319.75000000000006
21
87.500000000000014
31
0
0
ARC
5
332
100
AcDbEntity
8
0
100
AcDbCircle
10
-319.75000000000006
20
87.75
30
0
40
0.25000000000000355
100
AcDbArc
50
90
51
270
0
LINE
5
333
100
AcDbEntity
8
0
100
AcDbLine
10
-319.75000000000006
20
88
30
0
11
-319.00000000000006
21
88.000000000000028
31
0
0
LINE
5
334
100
AcDbEntity
8
0
100
AcDbLine
10
-319.75000000000006
20
87.500000000000014
30
0
11
-319.00000000000006
21
87.5
31
0
0
ARC
5
335
100
AcDbEntity
8
0
100
AcDbCircle
10
-319.00000000000006
20
87.75
30
0
40
0.25000000000000355
100
AcDbArc
50
-90
51
90
0
LINE
5
336
100
AcDbEntity
8
0
100
AcDbLine
10
-325.75
20
88
30
0
11
-325.75
21
87.500000000000014
31
0
0
ARC
5
337
100
AcDbEntity
8
0
100
AcDbCircle
10
-325.75
20
87.75
30
0
40
0.25000000000000355
100
AcDbArc
50
90
51
270
0
LINE
5
338
100
AcDbEntity
8
0
100
AcDbLine
10
-325.75
20
88
30
0
11
-325.00000000000006
21
88.000000000000028
31
0
0
LINE
5
339
100
AcDbEntity
8
0
100
AcDbLine
10
-325.75
20
87.500000000000014
30
0
11
-325.00000000000006
21
87.5
31
0
0
ARC
5
340
100
AcDbEntity
8
0
100
AcDbCircle
10
-325.00000000000006
20
87.75
30
0
40
0.25000000000000355
100
AcDbArc
50
-90
51
90
0
LINE
5
341
100
AcDbEntity
8
0
100
AcDbLine
10
-331.75000000000011
20
88
30
0
11
-331.75000000000011
21
87.500000000000014
31
0
0
ARC
5
342
100
AcDbEntity
8
0
100
AcDbCircle
10
-331.75000000000011
20
87.75
30
0
40
0.25000000000000355
100
AcDbArc
50
90
51
270
0
LINE
5
343
100
AcDbEntity
8
0
100
AcDbLine
10
-331.75000000000011
20
88
30
0
11
-331.00000000000011
21
88.000000000000028
31
0
0
LINE
5
344
100
AcDbEntity
8
0
100
AcDbLine
10
-331.75000000000011
20
87.500000000000014
30
0
11
-331.00000000000011
21
87.5
31
0
0
ARC
5
345
100
AcDbEntity
8
0
100
AcDbCircle
10
-331.00000000000011
20
87.75
30
0
40
0.25000000000000355
100
AcDbArc
50
-90
51
90
0
LINE
5
346
100
AcDbEntity
8
0
100
AcDbLine
10
-337.75000000000006
20
88
30
0
11
-337.75000000000006
21
87.500000000000014
31
0
0
ARC
5
347
100
AcDbEntity
8
0
100
AcDbCircle
10
-337.75000000000006
20
87.75
30
0
40
0.25000000000000355
100
AcDbArc
50
90
51
270
0
LINE
5
348
100
AcDbEntity
8
0
100
AcDbLine
10
-337.75000000000006
20
88
30
0
11
-337.00000000000011
21
88.000000000000028
31
0
0
LINE
5
349
100
AcDbEntity
8
0
100
AcDbLine
10
-337.75000000000006
20
87.500000000000014
30
0
11
-337.00000000000011
21
87.5
31
0
0
ARC
5
350
100
AcDbEntity
8
0
100
AcDbCircle
10
-337.00000000000011
20
87.75
30
0
40
0.25000000000000355
100
AcDbArc
50
-90
51
90
0
LINE
5
351
100
AcDbEntity
8
0
100
AcDbLine
10
-343.75000000000011
20
88
30
0
11
-343.75000000000011
21
87.500000000000014
31
0
0
ARC
5
352
100
AcDbEntity
8
0
100
AcDbCircle
10
-343.75000000000011
20
87.75
30
0
40
0.25000000000000355
100
AcDbArc
50
90
51
270
0
LINE
5
353
100
AcDbEntity
8
0
100
AcDbLine
10
-343.75000000000011
20
88
30
0
11
-343.00000000000011
21
88.000000000000028
31
0
0
LINE
5
354
100
AcDbEntity
8
0
100
AcDbLine
10
-343.75000000000011
20
87.500000000000014
30
0
11
-343.00000000000011
21
87.5
31
0
0
ARC
5
355
100
AcDbEntity
8
0
100
AcDbCircle
10
-343.00000000000011
20
87.75
30
0
40
0.25000000000000355
100
AcDbArc
50
-90
51
90
0
LINE
5
356
100
AcDbEntity
8
0
100
AcDbLine
10
-349.75000000000011
20
88
30
0
11
-349.75000000000011
21
87.500000000000014
31
0
0
ARC
5
357
100
AcDbEntity
8
0
100
AcDbCircle
10
-349.75000000000011
20
87.75
30
0
40
0.25000000000000355
100
AcDbArc
50
90
51
270
0
LINE
5
358
100
AcDbEntity
8
0
100
AcDbLine
10
-349.75000000000011
20
88
30
0
11
-349.00000000000011
21
88.000000000000028
31
0
0
LINE
5
359
100
AcDbEntity
8
0
100
AcDbLine
10
-349.75000000000011
20
87.500000000000014
30
0
11
-349.00000000000011
21
87.5
31
0
0
ARC
5
360
100
AcDbEntity
8
0
100
AcDbCircle
10
-349.00000000000011
20
87.75
30
0
40
0.25000000000000355
100
AcDbArc
50
-90
51
90
0
LINE
5
361
100
AcDbEntity
8
0
100
AcDbLine
10
-355.75000000000017
20
88
30
0
11
-355.75000000000017
21
87.500000000000014
31
0
0
ARC
5
362
100
AcDbEntity
8
0
100
AcDbCircle
10
-355.75000000000017
20
87.75
30
0
40
0.25000000000000355
100
AcDbArc
50
90
51
270
0
LINE
5
363
100
AcDbEntity
8
0
100
AcDbLine
10
-355.75000000000017
20
88
30
0
11
-355.00000000000011
21
88.000000000000028
31
0
0
LINE
5
364
100
AcDbEntity
8
0
100
AcDbLine
10
-355.75000000000017
20
87.500000000000014
30
0
11
-355.00000000000011
21
87.5
31
0
0
ARC
5
365
100
AcDbEntity
8
0
100
AcDbCircle
10
-355.00000000000011
20
87.75
30
0
40
0.25000000000000355
100
AcDbArc
50
-90
51
90
0
LINE
5
366
100
AcDbEntity
8
0
100
AcDbLine
10
-361.75000000000011
20
88
30
0
11
-361.75000000000011
21
87.500000000000014
31
0
0
ARC
5
367
100
AcDbEntity
8
0
100
AcDbCircle
10
-361.75000000000011
20
87.75
30
0
40
0.25000000000000355
100
AcDbArc
50
90
51
270
0
LINE
5
368
100
AcDbEntity
8
0
100
AcDbLine
10
-361.75000000000011
20
88
30
0
11
-361.00000000000017
21
88.000000000000028
31
0
0
LINE
5
369
100
AcDbEntity
8
0
100
AcDbLine
10
-361.75000000000011
20
87.500000000000014
30
0
11
-361.00000000000017
21
87.5
31
0
0
ARC
5
370
100
AcDbEntity
8
0
100
AcDbCircle
10
-361.00000000000017
20
87.75
30
0
40
0.25000000000000355
100
AcDbArc
50
-90
51
90
0
LINE
5
371
100
AcDbEntity
8
0
100
AcDbLine
10
-367.75000000000023
20
88
30
0
11
-367.75000000000023
21
87.500000000000014
31
0
0
ARC
5
372
100
AcDbEntity
8
0
100
AcDbCircle
10
-367.75000000000023
20
87.75
30
0
40
0.25000000000000355
100
AcDbArc
50
90
51
270
0
LINE
5
373
100
AcDbEntity
8
0
100
AcDbLine
10
-367.75000000000023
20
88
30
0
11
-367.00000000000017
21
88.000000000000028
31
0
0
LINE
5
374
100
AcDbEntity
8
0
100
AcDbLine
10
-367.75000000000023
20
87.500000000000014
30
0
11
-367.00000000000017
21
87.5
31
0
0
ARC
5
375
100
AcDbEntity
8
0
100
AcDbCircle
10
-367.00000000000017
20
87.75
30
0
40
0.25000000000000355
100
AcDbArc
50
-90
51
90
0
LINE
5
376
100
AcDbEntity
8
0
100
AcDbLine
10
-373.75000000000011
20
88
30
0
11
-373.75000000000011
21
87.500000000000014
31
0
0
ARC
5
377
100
AcDbEntity
8
0
100
AcDbCircle
10
-373.75000000000011
20
87.75
30
0
40
0.25000000000000355
100
AcDbArc
50
90
51
270
0
LINE
5
378
100
AcDbEntity
8
0
100
AcDbLine
10
-373.75000000000011
20
88
30
0
11
-373.00000000000017
21
88.000000000000028
31
0
0
LINE
5
379
100
AcDbEntity
8
0
100
AcDbLine
10
-373.75000000000011
20
87.500000000000014
30
0
11
-373.00000000000017
21
87.5
31
0
0
ARC
5
380
100
AcDbEntity
8
0
100
AcDbCircle
10
-373.00000000000017
20
87.75
30
0
40
0.25000000000000355
100
AcDbArc
50
-90
51
90
0
LINE
5
381
100
AcDbEntity
8
0
100
AcDbLine
10
-379.75000000000023
20
88
30
0
11
-379.75000000000023
21
87.500000000000014
31
0
0
ARC
5
382
100
AcDbEntity
8
0
100
AcDbCircle
10
-379.75000000000023
20
87.75
30
0
40
0.25000000000000355
100
AcDbArc
50
90
51
270
0
LINE
5
383
100
AcDbEntity
8
0
100
AcDbLine
10
-379.75000000000023
20
88
30
0
11
-379.00000000000023
21
88.000000000000028
31
0
0
LINE
5
384
100
AcDbEntity
8
0
100
AcDbLine
10
-379.75000000000023
20
87.500000000000014
30
0
11
-379.00000000000023
21
87.5
31
0
0
ARC
5
385
100
AcDbEntity
8
0
100
AcDbCircle
10
-379.00000000000023
20
87.75
30
0
40
0.25000000000000355
100
AcDbArc
50
-90
51
90
0
LINE
5
386
100
AcDbEntity
8
0
100
AcDbLine
10
-385.75000000000017
20
88
30
0
11
-385.75000000000017
21
87.500000000000014
31
0
0
ARC
5
387
100
AcDbEntity
8
0
100
AcDbCircle
10
-385.75000000000017
20
87.75
30
0
40
0.25000000000000355
100
AcDbArc
50
90
51
270
0
LINE
5
388
100
AcDbEntity
8
0
100
AcDbLine
10
-385.75000000000017
20
88
30
0
11
-385.00000000000023
21
88.000000000000028
31
0
0
LINE
5
389
100
AcDbEntity
8
0
100
AcDbLine
10
-385.75000000000017
20
87.500000000000014
30
0
11
-385.00000000000023
21
87.5
31
0
0
ARC
5
390
100
AcDbEntity
8
0
100
AcDbCircle
10
-385.00000000000023
20
87.75
30
0
40
0.25000000000000355
100
AcDbArc
50
-90
51
90
0
LINE
5
391
100
AcDbEntity
8
0
100
AcDbLine
10
-391.75000000000023
20
88
30
0
11
-391.75000000000023
21
87.500000000000014
31
0
0
ARC
5
392
100
AcDbEntity
8
0
100
AcDbCircle
10
-391.75000000000023
20
87.75
30
0
40
0.25000000000000355
100
AcDbArc
50
90
51
270
0
LINE
5
393
100
AcDbEntity
8
0
100
AcDbLine
10
-391.75000000000023
20
88
30
0
11
-391.00000000000023
21
88.000000000000028
31
0
0
LINE
5
394
100
AcDbEntity
8
0
100
AcDbLine
10
-391.75000000000023
20
87.500000000000014
30
0
11
-391.00000000000023
21
87.5
31
0
0
ARC
5
395
100
AcDbEntity
8
0
100
AcDbCircle
10
-391.00000000000023
20
87.75
30
0
40
0.25000000000000355
100
AcDbArc
50
-90
51
90
0
LINE
5
396
100
AcDbEntity
8
0
100
AcDbLine
10
-397.75000000000023
20
88
30
0
11
-397.75000000000023
21
87.500000000000014
31
0
0
ARC
5
397
100
AcDbEntity
8
0
100
AcDbCircle
10
-397.75000000000023
20
87.75
30
0
40
0.25000000000000355
100
AcDbArc
50
90
51
270
0
LINE
5
398
100
AcDbEntity
8
0
100
AcDbLine
10
-397.75000000000023
20
88
30
0
11
-397.00000000000023
21
88.000000000000028
31
0
0
LINE
5
399
100
AcDbEntity
8
0
100
AcDbLine
10
-397.75000000000023
20
87.500000000000014
30
0
11
-397.00000000000023
21
87.5
31
0
0
ARC
5
400
100
AcDbEntity
8
0
100
AcDbCircle
10
-397.00000000000023
20
87.75
30
0
40
0.25000000000000355
100
AcDbArc
50
-90
51
90
0
LINE
5
401
100
AcDbEntity
8
0
100
AcDbLine
10
-403.75000000000028
20
88
30
0
11
-403.75000000000028
21
87.500000000000014
31
0
0
ARC
5
402
100
AcDbEntity
8
0
100
AcDbCircle
10
-403.75000000000028
20
87.75
30
0
40
0.25000000000000355
100
AcDbArc
50
90
51
270
0
LINE
5
403
100
AcDbEntity
8
0
100
AcDbLine
10
-403.75000000000028
20
88
30
0
11
-403.00000000000023
21
88.000000000000028
31
0
0
LINE
5
404
100
AcDbEntity
8
0
100
AcDbLine
10
-403.75000000000028
20
87.500000000000014
30
0
11
-403.00000000000023
21
87.5
31
0
0
ARC
5
405
100
AcDbEntity
8
0
100
AcDbCircle
10
-403.00000000000023
20
87.75
30
0
40
0.25000000000000355
100
AcDbArc
50
-90
51
90
0
LINE
5
406
100
AcDbEntity
8
0
100
AcDbLine
10
-409.75000000000023
20
88
30
0
11
-409.75000000000023
21
87.500000000000014
31
0
0
ARC
5
407
100
AcDbEntity
8
0
100
AcDbCircle
10
-409.75000000000023
20
87.75
30
0
40
0.25000000000000355
100
AcDbArc
50
90
51
270
0
LINE
5
408
100
AcDbEntity
8
0
100
AcDbLine
10
-409.75000000000023
20
88
30
0
11
-409.00000000000028
21
88.000000000000028
31
0
0
LINE
5
409
100
AcDbEntity
8
0
100
AcDbLine
10
-409.75000000000023
20
87.500000000000014
30
0
11
-409.00000000000028
21
87.5
31
0
0
ARC
5
410
100
AcDbEntity
8
0
100
AcDbCircle
10
-409.00000000000028
20
87.75
30
0
40
0.25000000000000355
100
AcDbArc
50
-90
51
90
0
LINE
5
411
100
AcDbEntity
8
0
100
AcDbLine
10
-415.75000000000034
20
88
30
0
11
-415.75000000000034
21
87.500000000000014
31
0
0
ARC
5
412
100
AcDbEntity
8
0
100
AcDbCircle
10
-415.75000000000034
20
87.75
30
0
40
0.25000000000000355
100
AcDbArc
50
90
51
270
0
LINE
5
413
100
AcDbEntity
8
0
100
AcDbLine
10
-415.75000000000034
20
88
30
0
11
-415.00000000000028
21
88.000000000000028
31
0
0
LINE
5
414
100
AcDbEntity
8
0
100
AcDbLine
10
-415.75000000000034
20
87.500000000000014
30
0
11
-415.00000000000028
21
87.5
31
0
0
ARC
5
415
100
AcDbEntity
8
0
100
AcDbCircle
10
-415.00000000000028
20
87.75
30
0
40
0.25000000000000355
100
AcDbArc
50
-90
51
90
0
LINE
5
416
100
AcDbEntity
8
0
100
AcDbLine
10
-421.75000000000023
20
88
30
0
11
-421.75000000000023
21
87.500000000000014
31
0
0
ARC
5
417
100
AcDbEntity
8
0
100
AcDbCircle
10
-421.75000000000023
20
87.75
30
0
40
0.25000000000000355
100
AcDbArc
50
90
51
270
0
LINE
5
418
100
AcDbEntity
8
0
100
AcDbLine
10
-421.75000000000023
20
88
30
0
11
-421.00000000000028
21
88.000000000000028
31
0
0
LINE
5
419
100
AcDbEntity
8
0
100
AcDbLine
10
-421.75000000000023
20
87.500000000000014
30
0
11
-421.00000000000028
21
87.5
31
0
0
ARC
5
420
100
AcDbEntity
8
0
100
AcDbCircle
10
-421.00000000000028
20
87.75
30
0
40
0.25000000000000355
100
AcDbArc
50
-90
51
90
0
LINE
5
421
100
AcDbEntity
8
0
100
AcDbLine
10
-24.999999999999996
20
37.25
30
0
11
-24.250000000000004
21
37.249999999999986
31
0
0
ARC
5
422
100
AcDbEntity
8
0
100
AcDbCircle
10
-24.999999999999996
20
37.5
30
0
40
0.25000000000000355
100
AcDbArc
50
90
51
270
0
ARC
5
423
100
AcDbEntity
8
0
100
AcDbCircle
10
-24.250000000000004
20
37.5
30
0
40
0.25000000000001243
100
AcDbArc
50
-90
51
90
0
LINE
5
424
100
AcDbEntity
8
0
100
AcDbLine
10
-24.999999999999996
20
37.75
30
0
11
-24.250000000000004
21
37.750000000000014
31
0
0
LINE
5
425
100
AcDbEntity
8
0
100
AcDbLine
10
-24.999999999999996
20
37.75
30
0
11
-24.999999999999996
21
37.25
31
0
0
LINE
5
426
100
AcDbEntity
8
0
100
AcDbLine
10
-16
20
37.75
30
0
11
-16
21
37.25
31
0
0
ARC
5
427
100
AcDbEntity
8
0
100
AcDbCircle
10
-16
20
37.5
30
0
40
0.25000000000000355
100
AcDbArc
50
90
51
270
0
LINE
5
428
100
AcDbEntity
8
0
100
AcDbLine
10
-16
20
37.25
30
0
11
-15.250000000000007
21
37.249999999999986
31
0
0
LINE
5
429
100
AcDbEntity
8
0
100
AcDbLine
10
-16
20
37.75
30
0
11
-15.250000000000007
21
37.750000000000014
31
0
0
ARC
5
430
100
AcDbEntity
8
0
100
AcDbCircle
10
-15.250000000000007
20
37.5
30
0
40
0.25000000000001243
100
AcDbArc
50
-90
51
90
0
LINE
5
431
100
AcDbEntity
8
0
100
AcDbLine
10
-25
20
52.75
30
0
11
-25
21
52.250000000000007
31
0
0
ARC
5
432
100
AcDbEntity
8
0
100
AcDbCircle
10
-24.250000000000007
20
52.5
30
0
40
0.25000000000001243
100
AcDbArc
50
-90
51
90
0
ARC
5
433
100
AcDbEntity
8
0
100
AcDbCircle
10
-25
20
52.5
30
0
40
0.25000000000000355
100
AcDbArc
50
90
51
270
0
LINE
5
434
100
AcDbEntity
8
0
100
AcDbLine
10
-25
20
52.250000000000007
30
0
11
-24.250000000000007
21
52.249999999999986
31
0
0
LINE
5
435
100
AcDbEntity
8
0
100
AcDbLine
10
-25
20
52.75
30
0
11
-24.250000000000007
21
52.750000000000014
31
0
0
LINE
5
436
100
AcDbEntity
8
0
100
AcDbLine
10
-25
20
52.5
30
0
11
-24.999999999999996
21
37.5
31
0
0
LINE
5
437
100
AcDbEntity
8
0
100
AcDbLine
10
-15.999999999999993
20
52.75
30
0
11
-15.999999999999993
21
52.250000000000007
31
0
0
LINE
5
438
100
AcDbEntity
8
0
100
AcDbLine
10
-15.999999999999993
20
52.75
30
0
11
-15.25
21
52.750000000000014
31
0
0
LINE
5
439
100
AcDbEntity
8
0
100
AcDbLine
10
-15.999999999999993
20
52.250000000000007
30
0
11
-15.25
21
52.249999999999986
31
0
0
ARC
5
440
100
AcDbEntity
8
0
100
AcDbCircle
10
-15.25
20
52.5
30
0
40
0.25000000000001243
100
AcDbArc
50
-90
51
90
0
ARC
5
441
100
AcDbEntity
8
0
100
AcDbCircle
10
-15.999999999999993
20
52.5
30
0
40
0.25000000000000355
100
AcDbArc
50
90
51
270
0
ARC
5
442
100
AcDbEntity
8
0
100
AcDbCircle
10
-25
20
49.5
30
0
40
0.25000000000001243
100
AcDbArc
50
0
51
180
0
LINE
5
443
100
AcDbEntity
8
0
100
AcDbLine
10
-25.250000000000004
20
48.750000000000007
30
0
11
-24.750000000000007
21
48.750000000000007
31
0
0
ARC
5
444
100
AcDbEntity
8
0
100
AcDbCircle
10
-25
20
49.5
30
0
40
0.25000000000000355
100
AcDbArc
50
90
51
180
0
ARC
5
445
100
AcDbEntity
8
0
100
AcDbCircle
10
-25
20
48.750000000000007
30
0
40
0.25000000000000355
100
AcDbArc
50
-180
51
0
0
LINE
5
446
100
AcDbEntity
8
0
100
AcDbLine
10
-25.250000000000004
20
48.750000000000007
30
0
11
-25.250000000000014
21
49.5
31
0
0
LINE
5
447
100
AcDbEntity
8
0
100
AcDbLine
10
-24.750000000000007
20
48.750000000000007
30
0
11
-24.749999999999986
21
49.5
31
0
0
ARC
5
448
100
AcDbEntity
8
0
100
AcDbCircle
10
-25
20
43.500000000000007
30
0
40
0.25000000000001243
100
AcDbArc
50
0
51
180
0
LINE
5
449
100
AcDbEntity
8
0
100
AcDbLine
10
-25.250000000000004
20
42.750000000000014
30
0
11
-24.750000000000007
21
42.750000000000014
31
0
0
ARC
5
450
100
AcDbEntity
8
0
100
AcDbCircle
10
-25
20
42.750000000000014
30
0
40
0.25000000000000355
100
AcDbArc
50
-180
51
0
0
LINE
5
451
100
AcDbEntity
8
0
100
AcDbLine
10
-25.250000000000004
20
42.750000000000014
30
0
11
-25.250000000000014
21
43.500000000000007
31
0
0
LINE
5
452
100
AcDbEntity
8
0
100
AcDbLine
10
-24.750000000000007
20
42.750000000000014
30
0
11
-24.749999999999986
21
43.500000000000007
31
0
0
ARC
5
453
100
AcDbEntity
8
0
100
AcDbCircle
10
-15.25
20
52.5
30
0
40
0.25000000000001243
100
AcDbArc
50
0
51
180
0
LINE
5
454
100
AcDbEntity
8
0
100
AcDbLine
10
-15.500000000000004
20
48.750000000000007
30
0
11
-15.000000000000004
21
48.750000000000007
31
0
0
LINE
5
455
100
AcDbEntity
8
0
100
AcDbLine
10
-15.500000000000004
20
48.750000000000007
30
0
11
-15.500000000000011
21
49.5
31
0
0
ARC
5
456
100
AcDbEntity
8
0
100
AcDbCircle
10
-15.25
20
49.5
30
0
40
0.25000000000001243
100
AcDbArc
50
0
51
180
0
ARC
5
457
100
AcDbEntity
8
0
100
AcDbCircle
10
-15.25
20
48.750000000000007
30
0
40
0.25000000000000355
100
AcDbArc
50
-180
51
0
0
LINE
5
458
100
AcDbEntity
8
0
100
AcDbLine
10
-15.000000000000004
20
48.750000000000007
30
0
11
-14.999999999999986
21
49.5
31
0
0
ARC
5
459
100
AcDbEntity
8
0
100
AcDbCircle
10
-15.25
20
49.5
30
0
40
0.25000000000001243
100
AcDbArc
50
-90
51
90
0
LINE
5
460
100
AcDbEntity
8
0
100
AcDbLine
10
-15.500000000000004
20
42.750000000000014
30
0
11
-15.000000000000004
21
42.750000000000014
31
0
0
LINE
5
461
100
AcDbEntity
8
0
100
AcDbLine
10
-15.500000000000004
20
42.750000000000014
30
0
11
-15.500000000000011
21
43.500000000000007
31
0
0
ARC
5
462
100
AcDbEntity
8
0
100
AcDbCircle
10
-15.25
20
43.500000000000007
30
0
40
0.25000000000001243
100
AcDbArc
50
0
51
180
0
ARC
5
463
100
AcDbEntity
8
0
100
AcDbCircle
10
-15.25
20
42.750000000000014
30
0
40
0.25000000000000355
100
AcDbArc
50
-180
51
0
0
LINE
5
464
100
AcDbEntity
8
0
100
AcDbLine
10
-15.000000000000004
20
42.750000000000014
30
0
11
-14.999999999999986
21
43.500000000000007
31
0
0
ARC
5
465
100
AcDbEntity
8
0
100
AcDbCircle
10
-15.25
20
43.500000000000007
30
0
40
0.25000000000001243
100
AcDbArc
50
-90
51
90
0
LINE
5
466
100
AcDbEntity
8
0
100
AcDbLine
10
-323
20
56.5
30
0
11
-323
21
33.5
31
0
0
ARC
5
467
100
AcDbEntity
8
0
100
AcDbCircle
10
-2.0000000000000595
20
78.645934077146165
30
0
40
2.0000000000000546
100
AcDbArc
50
0
51
68.198590513646835
0
ARC
5
468
100
AcDbEntity
8
0
100
AcDbCircle
10
-2.0000000000000004
20
11.354065922853803
30
0
40
2.0000000000000013
100
AcDbArc
50
-68.198590513648185
51
0
0
LWPOLYLINE
5
469
100
AcDbEntity
8
0
100
AcDbPolyline
90
4
70
1
43
0.0
10
-334.99999999999989
20
56.249999999999993
10
-335.74999999999989
20
56.25
42
-0.99999999999999989
10
-335.74999999999989
20
56.750000000000007
10
-334.99999999999989
20
56.750000000000014
42
-0.99999999999999989
0
LWPOLYLINE
5
470
100
AcDbEntity
8
0
100
AcDbPolyline
90
4
70
1
43
0.0
10
-334.99999999999989
20
33.750000000000007
42
-0.99999999999999989
10
-334.99999999999989
20
33.249999999999986
10
-335.74999999999989
20
33.249999999999993
42
-0.99999999999999989
10
-335.74999999999989
20
33.75
0
LINE
5
471
100
AcDbEntity
8
0
100
AcDbLine
10
-25
20
52.5
30
0
11
-15.25
21
52.5
31
0
0
ARC
5
472
100
AcDbEntity
8
0
100
AcDbCircle
10
-20.5
20
52.5
30
0
40
0.25000000000000355
100
AcDbArc
50
90
51
270
0
LINE
5
473
100
AcDbEntity
8
0
100
AcDbLine
10
-20.5
20
52.75
30
0
11
-19.750000000000007
21
52.750000000000014
31
0
0
LINE
5
474
100
AcDbEntity
8
0
100
AcDbLine
10
-20.5
20
52.250000000000007
30
0
11
-19.750000000000007
21
52.249999999999986
31
0
0
LINE
5
475
100
AcDbEntity
8
0
100
AcDbLine
10
-20.5
20
52.75
30
0
11
-20.5
21
52.250000000000007
31
0
0
ARC
5
476
100
AcDbEntity
8
0
100
AcDbCircle
10
-19.750000000000007
20
52.5
30
0
40
0.25000000000001243
100
AcDbArc
50
-90
51
90
0
LINE
5
477
100
AcDbEntity
8
0
100
AcDbLine
10
-20.499999999999993
20
37.75
30
0
11
-19.75
21
37.750000000000014
31
0
0
LINE
5
478
100
AcDbEntity
8
0
100
AcDbLine
10
-20.499999999999993
20
37.25
30
0
11
-19.75
21
37.249999999999986
31
0
0
ARC
5
479
100
AcDbEntity
8
0
100
AcDbCircle
10
-20.499999999999993
20
37.5
30
0
40
0.25000000000000355
100
AcDbArc
50
90
51
270
0
ARC
5
480
100
AcDbEntity
8
0
100
AcDbCircle
10
-19.75
20
37.5
30
0
40
0.25000000000001243
100
AcDbArc
50
-90
51
90
0
LINE
5
481
100
AcDbEntity
8
0
100
AcDbLine
10
-20.499999999999993
20
37.75
30
0
11
-20.499999999999993
21
37.25
31
0
0
ENDSEC
0
SECTION
2
OBJECTS
0
DICTIONARY
5
C
100
AcDbDictionary
3
ACAD_GROUP
350
D
3
ACAD_MLINESTYLE
350
17
0
DICTIONARY
5
D
100
AcDbDictionary
0
DICTIONARY
5
1A
330
C
100
AcDbDictionary
0
DICTIONARY
5
17
100
AcDbDictionary
0
ENDSEC
0
EOF
