0
SECTION
2
HEADER
9
$ACADVER
1
AC1014
9
$HANDSEED
5
FFFF
0
ENDSEC
0
SECTION
2
TABLES
0
TABLE
2
VPORT
5
8
100
AcDbSymbolTable
0
ENDTAB
0
TABLE
2
LTYPE
5
5
100
AcDbSymbolTable
0
LTYPE
5
14
100
AcDbSymbolTableRecord
100
AcDbLinetypeTableRecord
2
BYBLOCK
70
0
0
LTYPE
5
15
100
AcDbSymbolTableRecord
100
AcDbLinetypeTableRecord
2
BYLAYER
70
0
0
ENDTAB
0
TABLE
2
LAYER
5
2
100
AcDbSymbolTable
70
2
0
LAYER
5
50
100
AcDbSymbolTableRecord
100
AcDbLayerTableRecord
2
0
70
0
6
CONTINUOUS
0
ENDTAB
0
TABLE
2
STYLE
5
3
100
AcDbSymbolTable
70
1
0
STYLE
5
11
100
AcDbSymbolTableRecord
100
AcDbTextStyleTableRecord
2
STANDARD
70
0
0
ENDTAB
0
TABLE
2
VIEW
5
6
100
AcDbSymbolTable
70
0
0
ENDTAB
0
TABLE
2
UCS
5
7
100
AcDbSymbolTable
70
0
0
ENDTAB
0
TABLE
2
APPID
5
9
100
AcDbSymbolTable
70
2
0
APPID
5
12
100
AcDbSymbolTableRecord
100
AcDbRegAppTableRecord
2
ACAD
70
0
0
ENDTAB
0
TABLE
2
DIMSTYLE
5
A
100
AcDbSymbolTable
70
1
0
ENDTAB
0
TABLE
2
BLOCK_RECORD
5
1
100
AcDbSymbolTable
70
1
0
BLOCK_RECORD
5
1F
100
AcDbSymbolTableRecord
100
AcDbBlockTableRecord
2
*MODEL_SPACE
0
BLOCK_RECORD
5
1B
100
AcDbSymbolTableRecord
100
AcDbBlockTableRecord
2
*PAPER_SPACE
0
ENDTAB
0
ENDSEC
0
SECTION
2
BLOCKS
0
BLOCK
5
20
100
AcDbEntity
100
AcDbBlockBegin
2
*MODEL_SPACE
0
ENDBLK
5
21
100
AcDbEntity
100
AcDbBlockEnd
0
BLOCK
5
1C
100
AcDbEntity
100
AcDbBlockBegin
2
*PAPER_SPACE
0
ENDBLK
5
1D
100
AcDbEntity
100
AcDbBlockEnd
0
ENDSEC
0
SECTION
2
ENTITIES
0
LINE
5
100
100
AcDbEntity
8
0
100
AcDbLine
10
0
20
0
30
0
11
-25
21
0
31
0
0
LINE
5
101
100
AcDbEntity
8
0
100
AcDbLine
10
-425
20
-1.3404472412935162e-30
30
0
11
-425
21
45
31
0
0
LINE
5
102
100
AcDbEntity
8
0
100
AcDbLine
10
-425
20
45
30
0
11
0
21
45
31
0
0
LINE
5
103
100
AcDbEntity
8
0
100
AcDbLine
10
0
20
45
30
0
11
0
21
10
31
0
0
LINE
5
104
100
AcDbEntity
8
0
100
AcDbLine
10
-101.00000000000001
20
45
30
0
11
-101.00000000000001
21
0
31
0
0
LINE
5
105
100
AcDbEntity
8
0
100
AcDbLine
10
-295
20
45
30
0
11
-295
21
0
31
0
0
LINE
5
106
100
AcDbEntity
8
0
100
AcDbLine
10
-263
20
45
30
0
11
-263
21
0
31
0
0
LINE
5
107
100
AcDbEntity
8
0
100
AcDbLine
10
-133
20
45
30
0
11
-133
21
0
31
0
0
LINE
5
108
100
AcDbEntity
8
0
100
AcDbLine
10
-25
20
45
30
0
11
-25
21
0
31
0
0
LINE
5
109
100
AcDbEntity
8
0
100
AcDbLine
10
-295
20
0
30
0
11
-425
21
-1.3404472412935162e-30
31
0
0
LINE
5
110
100
AcDbEntity
8
0
100
AcDbLine
10
-263
20
0
30
0
11
-295
21
0
31
0
0
LINE
5
111
100
AcDbEntity
8
0
100
AcDbLine
10
-101.00000000000001
20
0
30
0
11
-133
21
0
31
0
0
LINE
5
112
100
AcDbEntity
8
0
100
AcDbLine
10
-133
20
0
30
0
11
-101.00000000000001
21
0
31
0
0
LINE
5
113
100
AcDbEntity
8
0
100
AcDbLine
10
-101.00000000000001
20
0
30
0
11
-133
21
0
31
0
0
LINE
5
114
100
AcDbEntity
8
0
100
AcDbLine
10
-133
20
0
30
0
11
-263
21
0
31
0
0
LINE
5
115
100
AcDbEntity
8
0
100
AcDbLine
10
-25
20
0
30
0
11
-101.00000000000001
21
0
31
0
0
LINE
5
116
100
AcDbEntity
8
0
100
AcDbLine
10
0
20
10
30
0
11
-25
21
0
31
0
0
LINE
5
117
100
AcDbEntity
8
0
100
AcDbLine
10
0
20
10
30
0
11
0
21
0
31
0
0
LINE
5
118
100
AcDbEntity
8
0
100
AcDbLine
10
-24.999999999999996
20
37.5
30
0
11
-15
21
37.5
31
0
0
LINE
5
119
100
AcDbEntity
8
0
100
AcDbLine
10
-15
20
37.5
30
0
11
-15
21
45
31
0
0
LINE
5
120
100
AcDbEntity
8
0
100
AcDbLine
10
-295
20
2.25
30
0
11
-422.75
21
2.25
31
0
0
CIRCLE
5
121
100
AcDbEntity
8
0
100
AcDbCircle
10
-422.75
20
2.25
30
0
40
0.25000000000000416
0
CIRCLE
5
122
100
AcDbEntity
8
0
100
AcDbCircle
10
-420.25
20
2.25
30
0
40
0.25000000000000416
0
CIRCLE
5
123
100
AcDbEntity
8
0
100
AcDbCircle
10
-417.75
20
2.25
30
0
40
0.25000000000000416
0
CIRCLE
5
124
100
AcDbEntity
8
0
100
AcDbCircle
10
-415.25
20
2.25
30
0
40
0.25000000000000416
0
CIRCLE
5
125
100
AcDbEntity
8
0
100
AcDbCircle
10
-412.75
20
2.25
30
0
40
0.25000000000000416
0
CIRCLE
5
126
100
AcDbEntity
8
0
100
AcDbCircle
10
-410.25
20
2.25
30
0
40
0.25000000000000416
0
CIRCLE
5
127
100
AcDbEntity
8
0
100
AcDbCircle
10
-407.75
20
2.25
30
0
40
0.25000000000000416
0
CIRCLE
5
128
100
AcDbEntity
8
0
100
AcDbCircle
10
-405.25
20
2.25
30
0
40
0.25000000000000416
0
CIRCLE
5
129
100
AcDbEntity
8
0
100
AcDbCircle
10
-402.75
20
2.25
30
0
40
0.25000000000000416
0
CIRCLE
5
130
100
AcDbEntity
8
0
100
AcDbCircle
10
-400.25
20
2.25
30
0
40
0.25000000000000416
0
CIRCLE
5
131
100
AcDbEntity
8
0
100
AcDbCircle
10
-397.75
20
2.25
30
0
40
0.25000000000000416
0
CIRCLE
5
132
100
AcDbEntity
8
0
100
AcDbCircle
10
-395.25
20
2.25
30
0
40
0.25000000000000416
0
CIRCLE
5
133
100
AcDbEntity
8
0
100
AcDbCircle
10
-392.75
20
2.25
30
0
40
0.25000000000000416
0
CIRCLE
5
134
100
AcDbEntity
8
0
100
AcDbCircle
10
-390.25
20
2.25
30
0
40
0.25000000000000416
0
CIRCLE
5
135
100
AcDbEntity
8
0
100
AcDbCircle
10
-387.75
20
2.25
30
0
40
0.25000000000000416
0
CIRCLE
5
136
100
AcDbEntity
8
0
100
AcDbCircle
10
-385.25
20
2.25
30
0
40
0.25000000000000416
0
CIRCLE
5
137
100
AcDbEntity
8
0
100
AcDbCircle
10
-382.75
20
2.25
30
0
40
0.25000000000000416
0
CIRCLE
5
138
100
AcDbEntity
8
0
100
AcDbCircle
10
-380.25
20
2.25
30
0
40
0.25000000000000416
0
CIRCLE
5
139
100
AcDbEntity
8
0
100
AcDbCircle
10
-377.75
20
2.25
30
0
40
0.25000000000000416
0
CIRCLE
5
140
100
AcDbEntity
8
0
100
AcDbCircle
10
-375.25
20
2.25
30
0
40
0.25000000000000416
0
CIRCLE
5
141
100
AcDbEntity
8
0
100
AcDbCircle
10
-372.75
20
2.25
30
0
40
0.25000000000000416
0
CIRCLE
5
142
100
AcDbEntity
8
0
100
AcDbCircle
10
-370.25
20
2.25
30
0
40
0.25000000000000416
0
CIRCLE
5
143
100
AcDbEntity
8
0
100
AcDbCircle
10
-367.75
20
2.25
30
0
40
0.25000000000000416
0
CIRCLE
5
144
100
AcDbEntity
8
0
100
AcDbCircle
10
-365.25
20
2.25
30
0
40
0.25000000000000416
0
CIRCLE
5
145
100
AcDbEntity
8
0
100
AcDbCircle
10
-362.75
20
2.25
30
0
40
0.25000000000000416
0
CIRCLE
5
146
100
AcDbEntity
8
0
100
AcDbCircle
10
-360.25
20
2.25
30
0
40
0.25000000000000416
0
CIRCLE
5
147
100
AcDbEntity
8
0
100
AcDbCircle
10
-357.75
20
2.25
30
0
40
0.25000000000000416
0
CIRCLE
5
148
100
AcDbEntity
8
0
100
AcDbCircle
10
-355.25
20
2.25
30
0
40
0.25000000000000416
0
CIRCLE
5
149
100
AcDbEntity
8
0
100
AcDbCircle
10
-352.75
20
2.25
30
0
40
0.25000000000000416
0
CIRCLE
5
150
100
AcDbEntity
8
0
100
AcDbCircle
10
-350.25
20
2.25
30
0
40
0.25000000000000416
0
CIRCLE
5
151
100
AcDbEntity
8
0
100
AcDbCircle
10
-347.75
20
2.25
30
0
40
0.25000000000000416
0
CIRCLE
5
152
100
AcDbEntity
8
0
100
AcDbCircle
10
-345.25
20
2.25
30
0
40
0.25000000000000416
0
CIRCLE
5
153
100
AcDbEntity
8
0
100
AcDbCircle
10
-342.75
20
2.25
30
0
40
0.25000000000000416
0
CIRCLE
5
154
100
AcDbEntity
8
0
100
AcDbCircle
10
-340.25
20
2.25
30
0
40
0.25000000000000416
0
CIRCLE
5
155
100
AcDbEntity
8
0
100
AcDbCircle
10
-337.75
20
2.25
30
0
40
0.25000000000000416
0
CIRCLE
5
156
100
AcDbEntity
8
0
100
AcDbCircle
10
-335.25
20
2.25
30
0
40
0.25000000000000416
0
CIRCLE
5
157
100
AcDbEntity
8
0
100
AcDbCircle
10
-332.75
20
2.25
30
0
40
0.25000000000000416
0
CIRCLE
5
158
100
AcDbEntity
8
0
100
AcDbCircle
10
-330.25
20
2.25
30
0
40
0.25000000000000416
0
CIRCLE
5
159
100
AcDbEntity
8
0
100
AcDbCircle
10
-327.75
20
2.25
30
0
40
0.25000000000000416
0
CIRCLE
5
160
100
AcDbEntity
8
0
100
AcDbCircle
10
-325.25
20
2.25
30
0
40
0.25000000000000416
0
CIRCLE
5
161
100
AcDbEntity
8
0
100
AcDbCircle
10
-322.75
20
2.25
30
0
40
0.25000000000000416
0
CIRCLE
5
162
100
AcDbEntity
8
0
100
AcDbCircle
10
-320.25
20
2.25
30
0
40
0.25000000000000416
0
CIRCLE
5
163
100
AcDbEntity
8
0
100
AcDbCircle
10
-317.75
20
2.25
30
0
40
0.25000000000000416
0
CIRCLE
5
164
100
AcDbEntity
8
0
100
AcDbCircle
10
-315.25
20
2.25
30
0
40
0.25000000000000416
0
CIRCLE
5
165
100
AcDbEntity
8
0
100
AcDbCircle
10
-312.75
20
2.25
30
0
40
0.25000000000000416
0
CIRCLE
5
166
100
AcDbEntity
8
0
100
AcDbCircle
10
-310.25
20
2.25
30
0
40
0.25000000000000416
0
CIRCLE
5
167
100
AcDbEntity
8
0
100
AcDbCircle
10
-307.75
20
2.25
30
0
40
0.25000000000000416
0
CIRCLE
5
168
100
AcDbEntity
8
0
100
AcDbCircle
10
-305.25
20
2.25
30
0
40
0.25000000000000416
0
CIRCLE
5
169
100
AcDbEntity
8
0
100
AcDbCircle
10
-302.75
20
2.25
30
0
40
0.25000000000000416
0
CIRCLE
5
170
100
AcDbEntity
8
0
100
AcDbCircle
10
-300.25
20
2.25
30
0
40
0.25000000000000416
0
CIRCLE
5
171
100
AcDbEntity
8
0
100
AcDbCircle
10
-297.75
20
2.25
30
0
40
0.25000000000000416
0
CIRCLE
5
172
100
AcDbEntity
8
0
100
AcDbCircle
10
-295.25
20
2.25
30
0
40
0.25000000000000416
0
LINE
5
173
100
AcDbEntity
8
0
100
AcDbLine
10
-279
20
0
30
0
11
-279
21
45
31
0
0
CIRCLE
5
174
100
AcDbEntity
8
0
100
AcDbCircle
10
-160.25
20
2.25
30
0
40
0.25000000000000416
0
CIRCLE
5
175
100
AcDbEntity
8
0
100
AcDbCircle
10
-157.75
20
2.25
30
0
40
0.25000000000000416
0
CIRCLE
5
176
100
AcDbEntity
8
0
100
AcDbCircle
10
-262.75
20
2.25
30
0
40
0.25000000000000416
0
CIRCLE
5
177
100
AcDbEntity
8
0
100
AcDbCircle
10
-172.75
20
2.25
30
0
40
0.25000000000000416
0
CIRCLE
5
178
100
AcDbEntity
8
0
100
AcDbCircle
10
-170.25
20
2.25
30
0
40
0.25000000000000416
0
CIRCLE
5
179
100
AcDbEntity
8
0
100
AcDbCircle
10
-167.75
20
2.25
30
0
40
0.25000000000000416
0
CIRCLE
5
180
100
AcDbEntity
8
0
100
AcDbCircle
10
-200.25
20
2.25
30
0
40
0.25000000000000416
0
CIRCLE
5
181
100
AcDbEntity
8
0
100
AcDbCircle
10
-197.75
20
2.25
30
0
40
0.25000000000000416
0
CIRCLE
5
182
100
AcDbEntity
8
0
100
AcDbCircle
10
-195.25
20
2.25
30
0
40
0.25000000000000416
0
CIRCLE
5
183
100
AcDbEntity
8
0
100
AcDbCircle
10
-192.75
20
2.25
30
0
40
0.25000000000000416
0
CIRCLE
5
184
100
AcDbEntity
8
0
100
AcDbCircle
10
-190.25
20
2.25
30
0
40
0.25000000000000416
0
CIRCLE
5
185
100
AcDbEntity
8
0
100
AcDbCircle
10
-187.75
20
2.25
30
0
40
0.25000000000000416
0
CIRCLE
5
186
100
AcDbEntity
8
0
100
AcDbCircle
10
-185.25
20
2.25
30
0
40
0.25000000000000416
0
CIRCLE
5
187
100
AcDbEntity
8
0
100
AcDbCircle
10
-182.75
20
2.25
30
0
40
0.25000000000000416
0
CIRCLE
5
188
100
AcDbEntity
8
0
100
AcDbCircle
10
-180.25
20
2.25
30
0
40
0.25000000000000416
0
CIRCLE
5
189
100
AcDbEntity
8
0
100
AcDbCircle
10
-177.75
20
2.25
30
0
40
0.25000000000000416
0
CIRCLE
5
190
100
AcDbEntity
8
0
100
AcDbCircle
10
-175.25
20
2.25
30
0
40
0.25000000000000416
0
CIRCLE
5
191
100
AcDbEntity
8
0
100
AcDbCircle
10
-155.25
20
2.25
30
0
40
0.25000000000000416
0
CIRCLE
5
192
100
AcDbEntity
8
0
100
AcDbCircle
10
-152.75
20
2.25
30
0
40
0.25000000000000416
0
CIRCLE
5
193
100
AcDbEntity
8
0
100
AcDbCircle
10
-150.25
20
2.25
30
0
40
0.25000000000000416
0
CIRCLE
5
194
100
AcDbEntity
8
0
100
AcDbCircle
10
-147.75
20
2.25
30
0
40
0.25000000000000416
0
CIRCLE
5
195
100
AcDbEntity
8
0
100
AcDbCircle
10
-145.25
20
2.25
30
0
40
0.25000000000000416
0
CIRCLE
5
196
100
AcDbEntity
8
0
100
AcDbCircle
10
-142.75
20
2.25
30
0
40
0.25000000000000416
0
CIRCLE
5
197
100
AcDbEntity
8
0
100
AcDbCircle
10
-140.25
20
2.25
30
0
40
0.25000000000000416
0
CIRCLE
5
198
100
AcDbEntity
8
0
100
AcDbCircle
10
-137.75
20
2.25
30
0
40
0.25000000000000416
0
CIRCLE
5
199
100
AcDbEntity
8
0
100
AcDbCircle
10
-135.25
20
2.25
30
0
40
0.25000000000000416
0
CIRCLE
5
200
100
AcDbEntity
8
0
100
AcDbCircle
10
-260.25
20
2.25
30
0
40
0.25000000000000416
0
CIRCLE
5
201
100
AcDbEntity
8
0
100
AcDbCircle
10
-257.75
20
2.25
30
0
40
0.25000000000000416
0
CIRCLE
5
202
100
AcDbEntity
8
0
100
AcDbCircle
10
-255.25
20
2.25
30
0
40
0.25000000000000416
0
CIRCLE
5
203
100
AcDbEntity
8
0
100
AcDbCircle
10
-252.75
20
2.25
30
0
40
0.25000000000000416
0
CIRCLE
5
204
100
AcDbEntity
8
0
100
AcDbCircle
10
-250.25
20
2.25
30
0
40
0.25000000000000416
0
CIRCLE
5
205
100
AcDbEntity
8
0
100
AcDbCircle
10
-247.75
20
2.25
30
0
40
0.25000000000000416
0
CIRCLE
5
206
100
AcDbEntity
8
0
100
AcDbCircle
10
-245.25
20
2.25
30
0
40
0.25000000000000416
0
CIRCLE
5
207
100
AcDbEntity
8
0
100
AcDbCircle
10
-165.25
20
2.25
30
0
40
0.25000000000000416
0
CIRCLE
5
208
100
AcDbEntity
8
0
100
AcDbCircle
10
-162.75
20
2.25
30
0
40
0.25000000000000416
0
CIRCLE
5
209
100
AcDbEntity
8
0
100
AcDbCircle
10
-222.75
20
2.25
30
0
40
0.25000000000000416
0
CIRCLE
5
210
100
AcDbEntity
8
0
100
AcDbCircle
10
-220.25
20
2.25
30
0
40
0.25000000000000416
0
CIRCLE
5
211
100
AcDbEntity
8
0
100
AcDbCircle
10
-217.75
20
2.25
30
0
40
0.25000000000000416
0
CIRCLE
5
212
100
AcDbEntity
8
0
100
AcDbCircle
10
-215.25
20
2.25
30
0
40
0.25000000000000416
0
CIRCLE
5
213
100
AcDbEntity
8
0
100
AcDbCircle
10
-212.75
20
2.25
30
0
40
0.25000000000000416
0
CIRCLE
5
214
100
AcDbEntity
8
0
100
AcDbCircle
10
-210.25
20
2.25
30
0
40
0.25000000000000416
0
CIRCLE
5
215
100
AcDbEntity
8
0
100
AcDbCircle
10
-207.75
20
2.25
30
0
40
0.25000000000000416
0
CIRCLE
5
216
100
AcDbEntity
8
0
100
AcDbCircle
10
-205.25
20
2.25
30
0
40
0.25000000000000416
0
CIRCLE
5
217
100
AcDbEntity
8
0
100
AcDbCircle
10
-202.75
20
2.25
30
0
40
0.25000000000000416
0
CIRCLE
5
218
100
AcDbEntity
8
0
100
AcDbCircle
10
-242.75
20
2.25
30
0
40
0.25000000000000416
0
CIRCLE
5
219
100
AcDbEntity
8
0
100
AcDbCircle
10
-240.25
20
2.25
30
0
40
0.25000000000000416
0
CIRCLE
5
220
100
AcDbEntity
8
0
100
AcDbCircle
10
-237.75
20
2.25
30
0
40
0.25000000000000416
0
CIRCLE
5
221
100
AcDbEntity
8
0
100
AcDbCircle
10
-235.25
20
2.25
30
0
40
0.25000000000000416
0
CIRCLE
5
222
100
AcDbEntity
8
0
100
AcDbCircle
10
-232.75
20
2.25
30
0
40
0.25000000000000416
0
CIRCLE
5
223
100
AcDbEntity
8
0
100
AcDbCircle
10
-230.25
20
2.25
30
0
40
0.25000000000000416
0
CIRCLE
5
224
100
AcDbEntity
8
0
100
AcDbCircle
10
-227.75
20
2.25
30
0
40
0.25000000000000416
0
CIRCLE
5
225
100
AcDbEntity
8
0
100
AcDbCircle
10
-225.25
20
2.25
30
0
40
0.25000000000000416
0
CIRCLE
5
226
100
AcDbEntity
8
0
100
AcDbCircle
10
-24.999999999999996
20
37.5
30
0
40
0.25000000000000011
0
CIRCLE
5
227
100
AcDbEntity
8
0
100
AcDbCircle
10
-22.499999999999996
20
37.5
30
0
40
0.25000000000000011
0
CIRCLE
5
228
100
AcDbEntity
8
0
100
AcDbCircle
10
-19.999999999999996
20
37.5
30
0
40
0.25000000000000011
0
CIRCLE
5
229
100
AcDbEntity
8
0
100
AcDbCircle
10
-17.499999999999996
20
37.5
30
0
40
0.25000000000000011
0
CIRCLE
5
230
100
AcDbEntity
8
0
100
AcDbCircle
10
-14.999999999999996
20
37.5
30
0
40
0.25000000000000011
0
CIRCLE
5
231
100
AcDbEntity
8
0
100
AcDbCircle
10
-24.999999999999996
20
40
30
0
40
0.25000000000000011
0
CIRCLE
5
232
100
AcDbEntity
8
0
100
AcDbCircle
10
-24.999999999999996
20
42.5
30
0
40
0.25000000000000011
0
CIRCLE
5
233
100
AcDbEntity
8
0
100
AcDbCircle
10
-24.999999999999996
20
45
30
0
40
0.25000000000000011
0
CIRCLE
5
234
100
AcDbEntity
8
0
100
AcDbCircle
10
-14.999999999999996
20
40
30
0
40
0.25000000000000011
0
CIRCLE
5
235
100
AcDbEntity
8
0
100
AcDbCircle
10
-14.999999999999996
20
42.5
30
0
40
0.25000000000000011
0
CIRCLE
5
236
100
AcDbEntity
8
0
100
AcDbCircle
10
-14.999999999999996
20
45
30
0
40
0.25000000000000011
0
LWPOLYLINE
5
237
100
AcDbEntity
8
0
100
AcDbPolyline
90
4
70
1
43
0.0
10
-328
20
45
10
-338
20
45
10
-338
20
33.5
10
-328
20
33.5
0
CIRCLE
5
238
100
AcDbEntity
8
0
100
AcDbCircle
10
-338
20
33.5
30
0
40
0.24999999999999245
0
CIRCLE
5
239
100
AcDbEntity
8
0
100
AcDbCircle
10
-335.5
20
33.5
30
0
40
0.24999999999999245
0
CIRCLE
5
240
100
AcDbEntity
8
0
100
AcDbCircle
10
-333
20
33.5
30
0
40
0.24999999999999245
0
CIRCLE
5
241
100
AcDbEntity
8
0
100
AcDbCircle
10
-330.5
20
33.5
30
0
40
0.24999999999999245
0
CIRCLE
5
242
100
AcDbEntity
8
0
100
AcDbCircle
10
-328
20
33.5
30
0
40
0.24999999999999245
0
LINE
5
243
100
AcDbEntity
8
0
100
AcDbLine
10
0
20
80
30
0
11
0
21
90
31
0
0
LINE
5
244
100
AcDbEntity
8
0
100
AcDbLine
10
-263
20
45
30
0
11
-263
21
90
31
0
0
LINE
5
245
100
AcDbEntity
8
0
100
AcDbLine
10
-133
20
45
30
0
11
-133
21
90
31
0
0
LINE
5
246
100
AcDbEntity
8
0
100
AcDbLine
10
0
20
45
30
0
11
0
21
80
31
0
0
LINE
5
247
100
AcDbEntity
8
0
100
AcDbLine
10
-25
20
45
30
0
11
-25
21
90
31
0
0
LINE
5
248
100
AcDbEntity
8
0
100
AcDbLine
10
-295
20
90
30
0
11
-425
21
90
31
0
0
LINE
5
249
100
AcDbEntity
8
0
100
AcDbLine
10
-263
20
90
30
0
11
-295
21
90
31
0
0
LINE
5
250
100
AcDbEntity
8
0
100
AcDbLine
10
-101.00000000000001
20
90
30
0
11
-133
21
90
31
0
0
LINE
5
251
100
AcDbEntity
8
0
100
AcDbLine
10
-133
20
90
30
0
11
-101.00000000000001
21
90
31
0
0
LINE
5
252
100
AcDbEntity
8
0
100
AcDbLine
10
-101.00000000000001
20
90
30
0
11
-133
21
90
31
0
0
LINE
5
253
100
AcDbEntity
8
0
100
AcDbLine
10
-133
20
90
30
0
11
-263
21
90
31
0
0
LINE
5
254
100
AcDbEntity
8
0
100
AcDbLine
10
-25
20
90
30
0
11
-101.00000000000001
21
90
31
0
0
LINE
5
255
100
AcDbEntity
8
0
100
AcDbLine
10
0
20
80
30
0
11
-25
21
90
31
0
0
LINE
5
256
100
AcDbEntity
8
0
100
AcDbLine
10
-25
20
52.5
30
0
11
-15
21
52.5
31
0
0
LINE
5
257
100
AcDbEntity
8
0
100
AcDbLine
10
-15
20
52.5
30
0
11
-15
21
45
31
0
0
LINE
5
258
100
AcDbEntity
8
0
100
AcDbLine
10
-295
20
87.75
30
0
11
-422.75
21
87.75
31
0
0
LINE
5
259
100
AcDbEntity
8
0
100
AcDbLine
10
-279
20
90
30
0
11
-279
21
45
31
0
0
LINE
5
260
100
AcDbEntity
8
0
100
AcDbLine
10
-295
20
45
30
0
11
-295
21
90
31
0
0
LWPOLYLINE
5
261
100
AcDbEntity
8
0
100
AcDbPolyline
90
4
70
1
43
0.0
10
-328
20
45
10
-338
20
45
10
-338
20
56.5
10
-328
20
56.5
0
CIRCLE
5
262
100
AcDbEntity
8
0
100
AcDbCircle
10
-328
20
56.5
30
0
40
0.24999999999999245
0
CIRCLE
5
263
100
AcDbEntity
8
0
100
AcDbCircle
10
-330.5
20
56.5
30
0
40
0.24999999999999245
0
CIRCLE
5
264
100
AcDbEntity
8
0
100
AcDbCircle
10
-333
20
56.5
30
0
40
0.24999999999999245
0
CIRCLE
5
265
100
AcDbEntity
8
0
100
AcDbCircle
10
-335.5
20
56.5
30
0
40
0.24999999999999245
0
CIRCLE
5
266
100
AcDbEntity
8
0
100
AcDbCircle
10
-338
20
56.5
30
0
40
0.24999999999999245
0
CIRCLE
5
267
100
AcDbEntity
8
0
100
AcDbCircle
10
-15
20
47.5
30
0
40
0.25000000000000011
0
CIRCLE
5
268
100
AcDbEntity
8
0
100
AcDbCircle
10
-15
20
50
30
0
40
0.25000000000000011
0
CIRCLE
5
269
100
AcDbEntity
8
0
100
AcDbCircle
10
-25
20
45
30
0
40
0.25000000000000011
0
CIRCLE
5
270
100
AcDbEntity
8
0
100
AcDbCircle
10
-25
20
47.5
30
0
40
0.25000000000000011
0
CIRCLE
5
271
100
AcDbEntity
8
0
100
AcDbCircle
10
-25
20
50
30
0
40
0.25000000000000011
0
CIRCLE
5
272
100
AcDbEntity
8
0
100
AcDbCircle
10
-15
20
52.5
30
0
40
0.25000000000000011
0
CIRCLE
5
273
100
AcDbEntity
8
0
100
AcDbCircle
10
-17.5
20
52.5
30
0
40
0.25000000000000011
0
CIRCLE
5
274
100
AcDbEntity
8
0
100
AcDbCircle
10
-20
20
52.5
30
0
40
0.25000000000000011
0
CIRCLE
5
275
100
AcDbEntity
8
0
100
AcDbCircle
10
-22.5
20
52.5
30
0
40
0.25000000000000011
0
CIRCLE
5
276
100
AcDbEntity
8
0
100
AcDbCircle
10
-25
20
52.5
30
0
40
0.25000000000000011
0
LINE
5
277
100
AcDbEntity
8
0
100
AcDbLine
10
-425
20
90
30
0
11
-425
21
45
31
0
0
CIRCLE
5
278
100
AcDbEntity
8
0
100
AcDbCircle
10
-225.25
20
87.75
30
0
40
0.25000000000000416
0
CIRCLE
5
279
100
AcDbEntity
8
0
100
AcDbCircle
10
-227.75
20
87.75
30
0
40
0.25000000000000416
0
CIRCLE
5
280
100
AcDbEntity
8
0
100
AcDbCircle
10
-230.25
20
87.75
30
0
40
0.25000000000000416
0
CIRCLE
5
281
100
AcDbEntity
8
0
100
AcDbCircle
10
-232.75
20
87.75
30
0
40
0.25000000000000416
0
CIRCLE
5
282
100
AcDbEntity
8
0
100
AcDbCircle
10
-235.25
20
87.75
30
0
40
0.25000000000000416
0
CIRCLE
5
283
100
AcDbEntity
8
0
100
AcDbCircle
10
-237.75
20
87.75
30
0
40
0.25000000000000416
0
CIRCLE
5
284
100
AcDbEntity
8
0
100
AcDbCircle
10
-240.25
20
87.75
30
0
40
0.25000000000000416
0
CIRCLE
5
285
100
AcDbEntity
8
0
100
AcDbCircle
10
-242.75
20
87.75
30
0
40
0.25000000000000416
0
CIRCLE
5
286
100
AcDbEntity
8
0
100
AcDbCircle
10
-202.75
20
87.75
30
0
40
0.25000000000000416
0
CIRCLE
5
287
100
AcDbEntity
8
0
100
AcDbCircle
10
-205.25
20
87.75
30
0
40
0.25000000000000416
0
CIRCLE
5
288
100
AcDbEntity
8
0
100
AcDbCircle
10
-207.75
20
87.75
30
0
40
0.25000000000000416
0
CIRCLE
5
289
100
AcDbEntity
8
0
100
AcDbCircle
10
-210.25
20
87.75
30
0
40
0.25000000000000416
0
CIRCLE
5
290
100
AcDbEntity
8
0
100
AcDbCircle
10
-212.75
20
87.75
30
0
40
0.25000000000000416
0
CIRCLE
5
291
100
AcDbEntity
8
0
100
AcDbCircle
10
-215.25
20
87.75
30
0
40
0.25000000000000416
0
CIRCLE
5
292
100
AcDbEntity
8
0
100
AcDbCircle
10
-217.75
20
87.75
30
0
40
0.25000000000000416
0
CIRCLE
5
293
100
AcDbEntity
8
0
100
AcDbCircle
10
-220.25
20
87.75
30
0
40
0.25000000000000416
0
CIRCLE
5
294
100
AcDbEntity
8
0
100
AcDbCircle
10
-222.75
20
87.75
30
0
40
0.25000000000000416
0
CIRCLE
5
295
100
AcDbEntity
8
0
100
AcDbCircle
10
-162.75
20
87.75
30
0
40
0.25000000000000416
0
CIRCLE
5
296
100
AcDbEntity
8
0
100
AcDbCircle
10
-165.25
20
87.75
30
0
40
0.25000000000000416
0
CIRCLE
5
297
100
AcDbEntity
8
0
100
AcDbCircle
10
-245.25
20
87.75
30
0
40
0.25000000000000416
0
CIRCLE
5
298
100
AcDbEntity
8
0
100
AcDbCircle
10
-247.75
20
87.75
30
0
40
0.25000000000000416
0
CIRCLE
5
299
100
AcDbEntity
8
0
100
AcDbCircle
10
-250.25
20
87.75
30
0
40
0.25000000000000416
0
CIRCLE
5
300
100
AcDbEntity
8
0
100
AcDbCircle
10
-252.75
20
87.75
30
0
40
0.25000000000000416
0
CIRCLE
5
301
100
AcDbEntity
8
0
100
AcDbCircle
10
-255.25
20
87.75
30
0
40
0.25000000000000416
0
CIRCLE
5
302
100
AcDbEntity
8
0
100
AcDbCircle
10
-257.75
20
87.75
30
0
40
0.25000000000000416
0
CIRCLE
5
303
100
AcDbEntity
8
0
100
AcDbCircle
10
-260.25
20
87.75
30
0
40
0.25000000000000416
0
CIRCLE
5
304
100
AcDbEntity
8
0
100
AcDbCircle
10
-135.25
20
87.75
30
0
40
0.25000000000000416
0
CIRCLE
5
305
100
AcDbEntity
8
0
100
AcDbCircle
10
-137.75
20
87.75
30
0
40
0.25000000000000416
0
CIRCLE
5
306
100
AcDbEntity
8
0
100
AcDbCircle
10
-140.25
20
87.75
30
0
40
0.25000000000000416
0
CIRCLE
5
307
100
AcDbEntity
8
0
100
AcDbCircle
10
-142.75
20
87.75
30
0
40
0.25000000000000416
0
CIRCLE
5
308
100
AcDbEntity
8
0
100
AcDbCircle
10
-145.25
20
87.75
30
0
40
0.25000000000000416
0
CIRCLE
5
309
100
AcDbEntity
8
0
100
AcDbCircle
10
-147.75
20
87.75
30
0
40
0.25000000000000416
0
CIRCLE
5
310
100
AcDbEntity
8
0
100
AcDbCircle
10
-150.25
20
87.75
30
0
40
0.25000000000000416
0
CIRCLE
5
311
100
AcDbEntity
8
0
100
AcDbCircle
10
-152.75
20
87.75
30
0
40
0.25000000000000416
0
CIRCLE
5
312
100
AcDbEntity
8
0
100
AcDbCircle
10
-155.25
20
87.75
30
0
40
0.25000000000000416
0
CIRCLE
5
313
100
AcDbEntity
8
0
100
AcDbCircle
10
-175.25
20
87.75
30
0
40
0.25000000000000416
0
CIRCLE
5
314
100
AcDbEntity
8
0
100
AcDbCircle
10
-177.75
20
87.75
30
0
40
0.25000000000000416
0
CIRCLE
5
315
100
AcDbEntity
8
0
100
AcDbCircle
10
-180.25
20
87.75
30
0
40
0.25000000000000416
0
CIRCLE
5
316
100
AcDbEntity
8
0
100
AcDbCircle
10
-182.75
20
87.75
30
0
40
0.25000000000000416
0
CIRCLE
5
317
100
AcDbEntity
8
0
100
AcDbCircle
10
-185.25
20
87.75
30
0
40
0.25000000000000416
0
CIRCLE
5
318
100
AcDbEntity
8
0
100
AcDbCircle
10
-187.75
20
87.75
30
0
40
0.25000000000000416
0
CIRCLE
5
319
100
AcDbEntity
8
0
100
AcDbCircle
10
-190.25
20
87.75
30
0
40
0.25000000000000416
0
CIRCLE
5
320
100
AcDbEntity
8
0
100
AcDbCircle
10
-192.75
20
87.75
30
0
40
0.25000000000000416
0
CIRCLE
5
321
100
AcDbEntity
8
0
100
AcDbCircle
10
-195.25
20
87.75
30
0
40
0.25000000000000416
0
CIRCLE
5
322
100
AcDbEntity
8
0
100
AcDbCircle
10
-197.75
20
87.75
30
0
40
0.25000000000000416
0
CIRCLE
5
323
100
AcDbEntity
8
0
100
AcDbCircle
10
-200.25
20
87.75
30
0
40
0.25000000000000416
0
CIRCLE
5
324
100
AcDbEntity
8
0
100
AcDbCircle
10
-167.75
20
87.75
30
0
40
0.25000000000000416
0
CIRCLE
5
325
100
AcDbEntity
8
0
100
AcDbCircle
10
-170.25
20
87.75
30
0
40
0.25000000000000416
0
CIRCLE
5
326
100
AcDbEntity
8
0
100
AcDbCircle
10
-172.75
20
87.75
30
0
40
0.25000000000000416
0
CIRCLE
5
327
100
AcDbEntity
8
0
100
AcDbCircle
10
-262.75
20
87.75
30
0
40
0.25000000000000416
0
CIRCLE
5
328
100
AcDbEntity
8
0
100
AcDbCircle
10
-157.75
20
87.75
30
0
40
0.25000000000000416
0
CIRCLE
5
329
100
AcDbEntity
8
0
100
AcDbCircle
10
-160.25
20
87.75
30
0
40
0.25000000000000416
0
CIRCLE
5
330
100
AcDbEntity
8
0
100
AcDbCircle
10
-295.25
20
87.75
30
0
40
0.25000000000000416
0
CIRCLE
5
331
100
AcDbEntity
8
0
100
AcDbCircle
10
-297.75
20
87.75
30
0
40
0.25000000000000416
0
CIRCLE
5
332
100
AcDbEntity
8
0
100
AcDbCircle
10
-300.25
20
87.75
30
0
40
0.25000000000000416
0
CIRCLE
5
333
100
AcDbEntity
8
0
100
AcDbCircle
10
-302.75
20
87.75
30
0
40
0.25000000000000416
0
CIRCLE
5
334
100
AcDbEntity
8
0
100
AcDbCircle
10
-305.25
20
87.75
30
0
40
0.25000000000000416
0
CIRCLE
5
335
100
AcDbEntity
8
0
100
AcDbCircle
10
-307.75
20
87.75
30
0
40
0.25000000000000416
0
CIRCLE
5
336
100
AcDbEntity
8
0
100
AcDbCircle
10
-310.25
20
87.75
30
0
40
0.25000000000000416
0
CIRCLE
5
337
100
AcDbEntity
8
0
100
AcDbCircle
10
-312.75
20
87.75
30
0
40
0.25000000000000416
0
CIRCLE
5
338
100
AcDbEntity
8
0
100
AcDbCircle
10
-315.25
20
87.75
30
0
40
0.25000000000000416
0
CIRCLE
5
339
100
AcDbEntity
8
0
100
AcDbCircle
10
-317.75
20
87.75
30
0
40
0.25000000000000416
0
CIRCLE
5
340
100
AcDbEntity
8
0
100
AcDbCircle
10
-320.25
20
87.75
30
0
40
0.25000000000000416
0
CIRCLE
5
341
100
AcDbEntity
8
0
100
AcDbCircle
10
-322.75
20
87.75
30
0
40
0.25000000000000416
0
CIRCLE
5
342
100
AcDbEntity
8
0
100
AcDbCircle
10
-325.25
20
87.75
30
0
40
0.25000000000000416
0
CIRCLE
5
343
100
AcDbEntity
8
0
100
AcDbCircle
10
-327.75
20
87.75
30
0
40
0.25000000000000416
0
LINE
5
344
100
AcDbEntity
8
0
100
AcDbLine
10
-101.00000000000001
20
45
30
0
11
-101.00000000000001
21
90
31
0
0
CIRCLE
5
345
100
AcDbEntity
8
0
100
AcDbCircle
10
-330.25
20
87.75
30
0
40
0.25000000000000416
0
CIRCLE
5
346
100
AcDbEntity
8
0
100
AcDbCircle
10
-332.75
20
87.75
30
0
40
0.25000000000000416
0
CIRCLE
5
347
100
AcDbEntity
8
0
100
AcDbCircle
10
-335.25
20
87.75
30
0
40
0.25000000000000416
0
CIRCLE
5
348
100
AcDbEntity
8
0
100
AcDbCircle
10
-337.75
20
87.75
30
0
40
0.25000000000000416
0
CIRCLE
5
349
100
AcDbEntity
8
0
100
AcDbCircle
10
-340.25
20
87.75
30
0
40
0.25000000000000416
0
CIRCLE
5
350
100
AcDbEntity
8
0
100
AcDbCircle
10
-342.75
20
87.75
30
0
40
0.25000000000000416
0
CIRCLE
5
351
100
AcDbEntity
8
0
100
AcDbCircle
10
-345.25
20
87.75
30
0
40
0.25000000000000416
0
CIRCLE
5
352
100
AcDbEntity
8
0
100
AcDbCircle
10
-347.75
20
87.75
30
0
40
0.25000000000000416
0
CIRCLE
5
353
100
AcDbEntity
8
0
100
AcDbCircle
10
-350.25
20
87.75
30
0
40
0.25000000000000416
0
CIRCLE
5
354
100
AcDbEntity
8
0
100
AcDbCircle
10
-352.75
20
87.75
30
0
40
0.25000000000000416
0
CIRCLE
5
355
100
AcDbEntity
8
0
100
AcDbCircle
10
-355.25
20
87.75
30
0
40
0.25000000000000416
0
CIRCLE
5
356
100
AcDbEntity
8
0
100
AcDbCircle
10
-357.75
20
87.75
30
0
40
0.25000000000000416
0
CIRCLE
5
357
100
AcDbEntity
8
0
100
AcDbCircle
10
-360.25
20
87.75
30
0
40
0.25000000000000416
0
CIRCLE
5
358
100
AcDbEntity
8
0
100
AcDbCircle
10
-362.75
20
87.75
30
0
40
0.25000000000000416
0
CIRCLE
5
359
100
AcDbEntity
8
0
100
AcDbCircle
10
-365.25
20
87.75
30
0
40
0.25000000000000416
0
CIRCLE
5
360
100
AcDbEntity
8
0
100
AcDbCircle
10
-367.75
20
87.75
30
0
40
0.25000000000000416
0
CIRCLE
5
361
100
AcDbEntity
8
0
100
AcDbCircle
10
-370.25
20
87.75
30
0
40
0.25000000000000416
0
CIRCLE
5
362
100
AcDbEntity
8
0
100
AcDbCircle
10
-372.75
20
87.75
30
0
40
0.25000000000000416
0
CIRCLE
5
363
100
AcDbEntity
8
0
100
AcDbCircle
10
-375.25
20
87.75
30
0
40
0.25000000000000416
0
CIRCLE
5
364
100
AcDbEntity
8
0
100
AcDbCircle
10
-377.75
20
87.75
30
0
40
0.25000000000000416
0
CIRCLE
5
365
100
AcDbEntity
8
0
100
AcDbCircle
10
-380.25
20
87.75
30
0
40
0.25000000000000416
0
CIRCLE
5
366
100
AcDbEntity
8
0
100
AcDbCircle
10
-382.75
20
87.75
30
0
40
0.25000000000000416
0
CIRCLE
5
367
100
AcDbEntity
8
0
100
AcDbCircle
10
-385.25
20
87.75
30
0
40
0.25000000000000416
0
CIRCLE
5
368
100
AcDbEntity
8
0
100
AcDbCircle
10
-387.75
20
87.75
30
0
40
0.25000000000000416
0
CIRCLE
5
369
100
AcDbEntity
8
0
100
AcDbCircle
10
-390.25
20
87.75
30
0
40
0.25000000000000416
0
CIRCLE
5
370
100
AcDbEntity
8
0
100
AcDbCircle
10
-392.75
20
87.75
30
0
40
0.25000000000000416
0
CIRCLE
5
371
100
AcDbEntity
8
0
100
AcDbCircle
10
-395.25
20
87.75
30
0
40
0.25000000000000416
0
CIRCLE
5
372
100
AcDbEntity
8
0
100
AcDbCircle
10
-397.75
20
87.75
30
0
40
0.25000000000000416
0
CIRCLE
5
373
100
AcDbEntity
8
0
100
AcDbCircle
10
-400.25
20
87.75
30
0
40
0.25000000000000416
0
CIRCLE
5
374
100
AcDbEntity
8
0
100
AcDbCircle
10
-402.75
20
87.75
30
0
40
0.25000000000000416
0
CIRCLE
5
375
100
AcDbEntity
8
0
100
AcDbCircle
10
-405.25
20
87.75
30
0
40
0.25000000000000416
0
CIRCLE
5
376
100
AcDbEntity
8
0
100
AcDbCircle
10
-407.75
20
87.75
30
0
40
0.25000000000000416
0
CIRCLE
5
377
100
AcDbEntity
8
0
100
AcDbCircle
10
-410.25
20
87.75
30
0
40
0.25000000000000416
0
CIRCLE
5
378
100
AcDbEntity
8
0
100
AcDbCircle
10
-412.75
20
87.75
30
0
40
0.25000000000000416
0
CIRCLE
5
379
100
AcDbEntity
8
0
100
AcDbCircle
10
-415.25
20
87.75
30
0
40
0.25000000000000416
0
CIRCLE
5
380
100
AcDbEntity
8
0
100
AcDbCircle
10
-417.75
20
87.75
30
0
40
0.25000000000000416
0
CIRCLE
5
381
100
AcDbEntity
8
0
100
AcDbCircle
10
-420.25
20
87.75
30
0
40
0.25000000000000416
0
CIRCLE
5
382
100
AcDbEntity
8
0
100
AcDbCircle
10
-422.75
20
87.75
30
0
40
0.25000000000000416
0
LINE
5
383
100
AcDbEntity
8
0
100
AcDbLine
10
0
20
90
30
0
11
-25
21
90
31
0
0
ENDSEC
0
SECTION
2
OBJECTS
0
DICTIONARY
5
C
100
AcDbDictionary
3
ACAD_GROUP
350
D
3
ACAD_MLINESTYLE
350
17
0
DICTIONARY
5
D
100
AcDbDictionary
0
DICTIONARY
5
1A
330
C
100
AcDbDictionary
0
DICTIONARY
5
17
100
AcDbDictionary
0
ENDSEC
0
EOF
