  0
SECTION
  2
HEADER
  9
$ACADVER
  1
AC1012
  9
$DWGCODEPAGE
  3
ansi_932
  9
$INSBASE
 10
0.0
 20
0.0
 30
0.0
  9
$EXTMIN
 10
1.000000000000000E+20
 20
1.000000000000000E+20
 30
1.000000000000000E+20
  9
$EXTMAX
 10
-1.000000000000000E+20
 20
-1.000000000000000E+20
 30
-1.000000000000000E+20
  9
$LIMMIN
 10
0.0
 20
0.0
  9
$LIMMAX
 10
12.0
 20
9.0
  9
$ORTHOMODE
 70
     0
  9
$REGENMODE
 70
     1
  9
$FILLMODE
 70
     1
  9
$QTEXTMODE
 70
     0
  9
$MIRRTEXT
 70
     1
  9
$DRAGMODE
 70
     2
  9
$LTSCALE
 40
1.0
  9
$OSMODE
 70
    37
  9
$ATTMODE
 70
     1
  9
$TEXTSIZE
 40
0.2
  9
$TRACEWID
 40
0.05
  9
$TEXTSTYLE
  7
STANDARD
  9
$CLAYER
  8
0
  9
$CELTYPE
  6
BYLAYER
  9
$CECOLOR
 62
   256
  9
$CELTSCALE
 40
1.0
  9
$DELOBJ
 70
     1
  9
$DISPSILH
 70
     0
  9
$DIMSCALE
 40
1.0
  9
$DIMASZ
 40
0.18
  9
$DIMEXO
 40
0.0625
  9
$DIMDLI
 40
0.38
  9
$DIMRND
 40
0.0
  9
$DIMDLE
 40
0.0
  9
$DIMEXE
 40
0.18
  9
$DIMTP
 40
0.0
  9
$DIMTM
 40
0.0
  9
$DIMTXT
 40
0.18
  9
$DIMCEN
 40
0.09
  9
$DIMTSZ
 40
0.0
  9
$DIMTOL
 70
     0
  9
$DIMLIM
 70
     0
  9
$DIMTIH
 70
     1
  9
$DIMTOH
 70
     1
  9
$DIMSE1
 70
     0
  9
$DIMSE2
 70
     0
  9
$DIMTAD
 70
     0
  9
$DIMZIN
 70
     0
  9
$DIMBLK
  1

  9
$DIMASO
 70
     1
  9
$DIMSHO
 70
     1
  9
$DIMPOST
  1

  9
$DIMAPOST
  1

  9
$DIMALT
 70
     0
  9
$DIMALTD
 70
     2
  9
$DIMALTF
 40
25.4
  9
$DIMLFAC
 40
1.0
  9
$DIMTOFL
 70
     0
  9
$DIMTVP
 40
0.0
  9
$DIMTIX
 70
     0
  9
$DIMSOXD
 70
     0
  9
$DIMSAH
 70
     0
  9
$DIMBLK1
  1

  9
$DIMBLK2
  1

  9
$DIMSTYLE
  2
STANDARD
  9
$DIMCLRD
 70
     0
  9
$DIMCLRE
 70
     0
  9
$DIMCLRT
 70
     0
  9
$DIMTFAC
 40
1.0
  9
$DIMGAP
 40
0.09
  9
$DIMJUST
 70
     0
  9
$DIMSD1
 70
     0
  9
$DIMSD2
 70
     0
  9
$DIMTOLJ
 70
     1
  9
$DIMTZIN
 70
     0
  9
$DIMALTZ
 70
     0
  9
$DIMALTTZ
 70
     0
  9
$DIMFIT
 70
     3
  9
$DIMUPT
 70
     0
  9
$DIMUNIT
 70
     2
  9
$DIMDEC
 70
     4
  9
$DIMTDEC
 70
     4
  9
$DIMALTU
 70
     2
  9
$DIMALTTD
 70
     2
  9
$DIMTXSTY
  7
STANDARD
  9
$DIMAUNIT
 70
     0
  9
$LUNITS
 70
     2
  9
$LUPREC
 70
     4
  9
$SKETCHINC
 40
0.1
  9
$FILLETRAD
 40
0.5
  9
$AUNITS
 70
     0
  9
$AUPREC
 70
     0
  9
$MENU
  1
.
  9
$ELEVATION
 40
0.0
  9
$PELEVATION
 40
0.0
  9
$THICKNESS
 40
0.0
  9
$LIMCHECK
 70
     0
  9
$CHAMFERA
 40
0.5
  9
$CHAMFERB
 40
0.5
  9
$CHAMFERC
 40
1.0
  9
$CHAMFERD
 40
0.0
  9
$SKPOLY
 70
     0
  9
$TDCREATE
 40
2457132.446886574
  9
$TDUPDATE
 40
2457132.446886586
  9
$TDINDWG
 40
0.0000000116
  9
$TDUSRTIMER
 40
0.0000000116
  9
$USRTIMER
 70
     1
  9
$ANGBASE
 50
0.0
  9
$ANGDIR
 70
     0
  9
$PDMODE
 70
     0
  9
$PDSIZE
 40
0.0
  9
$PLINEWID
 40
0.0
  9
$COORDS
 70
     1
  9
$SPLFRAME
 70
     0
  9
$SPLINETYPE
 70
     6
  9
$SPLINESEGS
 70
     8
  9
$ATTDIA
 70
     0
  9
$ATTREQ
 70
     1
  9
$HANDLING
 70
     1
  9
$HANDSEED
  5
B5
  9
$SURFTAB1
 70
     6
  9
$SURFTAB2
 70
     6
  9
$SURFTYPE
 70
     6
  9
$SURFU
 70
     6
  9
$SURFV
 70
     6
  9
$UCSNAME
  2

  9
$UCSORG
 10
0.0
 20
0.0
 30
0.0
  9
$UCSXDIR
 10
1.0
 20
0.0
 30
0.0
  9
$UCSYDIR
 10
0.0
 20
1.0
 30
0.0
  9
$PUCSNAME
  2

  9
$PUCSORG
 10
0.0
 20
0.0
 30
0.0
  9
$PUCSXDIR
 10
1.0
 20
0.0
 30
0.0
  9
$PUCSYDIR
 10
0.0
 20
1.0
 30
0.0
  9
$USERI1
 70
     0
  9
$USERI2
 70
     0
  9
$USERI3
 70
     0
  9
$USERI4
 70
     0
  9
$USERI5
 70
     0
  9
$USERR1
 40
0.0
  9
$USERR2
 40
0.0
  9
$USERR3
 40
0.0
  9
$USERR4
 40
0.0
  9
$USERR5
 40
0.0
  9
$WORLDVIEW
 70
     1
  9
$SHADEDGE
 70
     3
  9
$SHADEDIF
 70
    70
  9
$TILEMODE
 70
     1
  9
$MAXACTVP
 70
    64
  9
$PINSBASE
 10
0.0
 20
0.0
 30
0.0
  9
$PLIMCHECK
 70
     0
  9
$PEXTMIN
 10
1.000000000000000E+20
 20
1.000000000000000E+20
 30
1.000000000000000E+20
  9
$PEXTMAX
 10
-1.000000000000000E+20
 20
-1.000000000000000E+20
 30
-1.000000000000000E+20
  9
$PLIMMIN
 10
0.0
 20
0.0
  9
$PLIMMAX
 10
12.0
 20
9.0
  9
$UNITMODE
 70
     0
  9
$VISRETAIN
 70
     1
  9
$PLINEGEN
 70
     0
  9
$PSLTSCALE
 70
     1
  9
$TREEDEPTH
 70
  3020
  9
$PICKSTYLE
 70
     1
  9
$CMLSTYLE
  2
STANDARD
  9
$CMLJUST
 70
     0
  9
$CMLSCALE
 40
1.0
  9
$SAVEIMAGES
 70
     1
  0
ENDSEC
  0
SECTION
  2
CLASSES
  0
CLASS
  1
ACDBDICTIONARYWDFLT
  2
AcDbDictionaryWithDefault
  3
ObjectDBX Classes
 90
    32768
280
     0
281
     0
  0
CLASS
  1
VISUALSTYLE
  2
AcDbVisualStyle
  3
ObjectDBX Classes
 90
     4095
280
     0
281
     0
  0
CLASS
  1
XRECORD
  2
AcDbXrecord
  3
AutoCAD 2000
 90
    32768
280
     0
281
     0
  0
CLASS
  1
LWPOLYLINE
  2
AcDbPolyline
  3
AutoCAD 2000
 90
    32768
280
     0
281
     1
  0
CLASS
  1
HATCH
  2
AcDbHatch
  3
AutoCAD 2000
 90
    32768
280
     0
281
     1
  0
CLASS
  1
ACDBPLACEHOLDER
  2
AcDbPlaceHolder
  3
ObjectDBX Classes
 90
        0
280
     0
281
     0
  0
CLASS
  1
LAYOUT
  2
AcDbLayout
  3
ObjectDBX Classes
 90
        0
280
     0
281
     0
  0
ENDSEC
  0
SECTION
  2
TABLES
  0
TABLE
  2
VPORT
  5
8
330
0
100
AcDbSymbolTable
 70
     1
  0
VPORT
  5
29
330
8
100
AcDbSymbolTableRecord
100
AcDbViewportTableRecord
  2
*ACTIVE
 70
     0
 10
0.0
 20
0.0
 11
1.0
 21
1.0
 12
0.0
 22
0.0
 13
0.0
 23
0.0
 14
0.5
 24
0.5
 15
0.5
 25
0.5
 16
0.0
 26
0.0
 36
1.0
 17
9.0
 27
-6.0
 37
0.0
 40
12.0
 41
1.5
 42
50.0
 43
0.0
 44
0.0
 50
0.0
 51
0.0
 71
     0
 72
   100
 73
     1
 74
     3
 75
     0
 76
     0
 77
     0
 78
     0
  0
ENDTAB
  0
TABLE
  2
LTYPE
  5
5
330
0
100
AcDbSymbolTable
 70
     1
  0
LTYPE
  5
14
330
5
100
AcDbSymbolTableRecord
100
AcDbLinetypeTableRecord
  2
BYBLOCK
 70
     0
  3

 72
    65
 73
     0
 40
0.0
  0
LTYPE
  5
15
330
5
100
AcDbSymbolTableRecord
100
AcDbLinetypeTableRecord
  2
BYLAYER
 70
     0
  3

 72
    65
 73
     0
 40
0.0
  0
LTYPE
  5
16
330
5
100
AcDbSymbolTableRecord
100
AcDbLinetypeTableRecord
  2
CONTINUOUS
 70
     0
  3
Solid line
 72
    65
 73
     0
 40
0.0
  0
ENDTAB
  0
TABLE
  2
LAYER
  5
2
330
0
100
AcDbSymbolTable
 70
     2
  0
LAYER
  5
10
330
2
100
AcDbSymbolTableRecord
100
AcDbLayerTableRecord
  2
0
 70
     0
 62
     7
  6
CONTINUOUS
  0
LAYER
  5
3B
330
2
100
AcDbSymbolTableRecord
100
AcDbLayerTableRecord
  2
LAYER_1
 70
     0
 62
     7
  6
CONTINUOUS
  0
ENDTAB
  0
TABLE
  2
STYLE
  5
3
330
0
100
AcDbSymbolTable
 70
     1
  0
STYLE
  5
11
330
3
100
AcDbSymbolTableRecord
100
AcDbTextStyleTableRecord
  2
STANDARD
 70
     0
 40
0.0
 41
1.0
 50
0.0
 71
     0
 42
0.2
  3
txt
  4

  0
ENDTAB
  0
TABLE
  2
VIEW
  5
6
330
0
100
AcDbSymbolTable
 70
     0
  0
ENDTAB
  0
TABLE
  2
UCS
  5
7
330
0
100
AcDbSymbolTable
 70
     0
  0
ENDTAB
  0
TABLE
  2
APPID
  5
9
330
0
100
AcDbSymbolTable
 70
     1
  0
APPID
  5
12
330
9
100
AcDbSymbolTableRecord
100
AcDbRegAppTableRecord
  2
ACAD
 70
     0
  0
ENDTAB
  0
TABLE
  2
DIMSTYLE
  5
A
330
0
100
AcDbSymbolTable
 70
     1
  0
DIMSTYLE
105
27
330
A
100
AcDbSymbolTableRecord
100
AcDbDimStyleTableRecord
  2
STANDARD
 70
     0
  3

  4

  5

  6

  7

 40
1.0
 41
0.18
 42
0.0625
 43
0.38
 44
0.18
 45
0.0
 46
0.0
 47
0.0
 48
0.0
140
0.18
141
0.09
142
0.0
143
25.4
144
1.0
145
0.0
146
1.0
147
0.09
 71
     0
 72
     0
 73
     1
 74
     1
 75
     0
 76
     0
 77
     0
 78
     0
170
     0
171
     2
172
     0
173
     0
174
     0
175
     0
176
     0
177
     0
178
     0
270
     2
271
     4
272
     4
273
     2
274
     2
340
11
275
     0
280
     0
281
     0
282
     0
283
     1
284
     0
285
     0
286
     0
287
     3
288
     0
  0
ENDTAB
  0
TABLE
  2
BLOCK_RECORD
  5
1
330
0
100
AcDbSymbolTable
 70
    17
  0
BLOCK_RECORD
  5
1F
330
1
100
AcDbSymbolTableRecord
100
AcDbBlockTableRecord
  2
*MODEL_SPACE
  0
BLOCK_RECORD
  5
1B
330
1
100
AcDbSymbolTableRecord
100
AcDbBlockTableRecord
  2
*PAPER_SPACE
  0
BLOCK_RECORD
  5
3C
330
1
100
AcDbSymbolTableRecord
100
AcDbBlockTableRecord
  2
BLOCK_2
  0
BLOCK_RECORD
  5
47
330
1
100
AcDbSymbolTableRecord
100
AcDbBlockTableRecord
  2
BLOCK_3
  0
BLOCK_RECORD
  5
4B
330
1
100
AcDbSymbolTableRecord
100
AcDbBlockTableRecord
  2
BLOCK_4
  0
BLOCK_RECORD
  5
4F
330
1
100
AcDbSymbolTableRecord
100
AcDbBlockTableRecord
  2
BLOCK_5
  0
BLOCK_RECORD
  5
5C
330
1
100
AcDbSymbolTableRecord
100
AcDbBlockTableRecord
  2
BLOCK_6
  0
BLOCK_RECORD
  5
63
330
1
100
AcDbSymbolTableRecord
100
AcDbBlockTableRecord
  2
BLOCK_7
  0
BLOCK_RECORD
  5
67
330
1
100
AcDbSymbolTableRecord
100
AcDbBlockTableRecord
  2
BLOCK_8
  0
BLOCK_RECORD
  5
70
330
1
100
AcDbSymbolTableRecord
100
AcDbBlockTableRecord
  2
BLOCK_9
  0
BLOCK_RECORD
  5
74
330
1
100
AcDbSymbolTableRecord
100
AcDbBlockTableRecord
  2
BLOCK_10
  0
BLOCK_RECORD
  5
7E
330
1
100
AcDbSymbolTableRecord
100
AcDbBlockTableRecord
  2
BLOCK_11
  0
BLOCK_RECORD
  5
88
330
1
100
AcDbSymbolTableRecord
100
AcDbBlockTableRecord
  2
BLOCK_12
  0
BLOCK_RECORD
  5
8C
330
1
100
AcDbSymbolTableRecord
100
AcDbBlockTableRecord
  2
BLOCK_13
  0
BLOCK_RECORD
  5
94
330
1
100
AcDbSymbolTableRecord
100
AcDbBlockTableRecord
  2
BLOCK_14
  0
BLOCK_RECORD
  5
98
330
1
100
AcDbSymbolTableRecord
100
AcDbBlockTableRecord
  2
BLOCK_15
  0
BLOCK_RECORD
  5
A3
330
1
100
AcDbSymbolTableRecord
100
AcDbBlockTableRecord
  2
BLOCK_16
  0
BLOCK_RECORD
  5
AD
330
1
100
AcDbSymbolTableRecord
100
AcDbBlockTableRecord
  2
BLOCK_17
  0
ENDTAB
  0
ENDSEC
  0
SECTION
  2
BLOCKS
  0
BLOCK
  5
20
330
1F
100
AcDbEntity
  8
0
100
AcDbBlockBegin
  2
*MODEL_SPACE
 70
     0
 71
     0
 10
0.0
 20
0.0
 30
0.0
  3
*MODEL_SPACE
  1

  0
ENDBLK
  5
21
330
1F
100
AcDbEntity
  8
0
100
AcDbBlockEnd
  0
BLOCK
  5
1C
330
1B
100
AcDbEntity
 67
     1
  8
0
100
AcDbBlockBegin
  2
*PAPER_SPACE
 70
     0
 71
     0
 10
0.0
 20
0.0
 30
0.0
  3
*PAPER_SPACE
  1

  0
ENDBLK
  5
1D
330
1B
100
AcDbEntity
 67
     1
  8
0
100
AcDbBlockEnd
  0
BLOCK
  5
3E
330
3C
100
AcDbEntity
  8
0
100
AcDbBlockBegin
  2
BLOCK_2
 70
     0
 71
     0
 10
0.0
 20
0.0
 30
0.0
  3
BLOCK_2
  1

  0
SPLINE
  5
40
330
3C
100
AcDbEntity
  8
LAYER_1
 62
   250
100
AcDbSpline
210
0.0
220
0.0
230
1.0
 70
    11
 71
     3
 72
    71
 73
    67
 74
     0
 42
0.0000000001
 43
0.0000000001
 40
0.0
 40
0.0
 40
0.0
 40
0.0
 40
1.0
 40
1.0
 40
1.0
 40
2.0
 40
2.0
 40
2.0
 40
3.0
 40
3.0
 40
3.0
 40
4.0
 40
4.0
 40
4.0
 40
5.0
 40
5.0
 40
5.0
 40
6.0
 40
6.0
 40
6.0
 40
7.0
 40
7.0
 40
7.0
 40
8.0
 40
8.0
 40
8.0
 40
9.0
 40
9.0
 40
9.0
 40
10.0
 40
10.0
 40
10.0
 40
11.0
 40
11.0
 40
11.0
 40
12.0
 40
12.0
 40
12.0
 40
13.0
 40
13.0
 40
13.0
 40
14.0
 40
14.0
 40
14.0
 40
15.0
 40
15.0
 40
15.0
 40
16.0
 40
16.0
 40
16.0
 40
17.0
 40
17.0
 40
17.0
 40
18.0
 40
18.0
 40
18.0
 40
19.0
 40
19.0
 40
19.0
 40
20.0
 40
20.0
 40
20.0
 40
21.0
 40
21.0
 40
21.0
 40
22.0
 40
22.0
 40
22.0
 40
22.0
 10
9.938395182291666
 20
-5.560960557725694
 30
0.0
 10
9.876817491319445
 20
-5.642205132378472
 30
0.0
 10
9.802978515625
 20
-5.691413031684028
 30
0.0
 10
9.714518229166666
 20
-5.72369384765625
 30
0.0
 10
9.473822699652777
 20
-5.811475965711805
 30
0.0
 10
9.235215928819445
 20
-5.906568739149305
 30
0.0
 10
8.98214382595486
 20
-5.953213161892361
 30
0.0
 10
8.597703721788195
 20
-6.024115668402778
 30
0.0
 10
8.226399739583332
 20
-5.971048990885416
 30
0.0
 10
7.858717176649305
 20
-5.842725965711805
 30
0.0
 10
7.612969292534721
 20
-5.756924099392361
 30
0.0
 10
7.3984375
 20
-5.620368109809028
 30
0.0
 10
7.17987060546875
 20
-5.486741807725694
 30
0.0
 10
6.728434244791666
 20
-5.210890028211805
 30
0.0
 10
6.247694227430555
 20
-5.007113986545138
 30
0.0
 10
5.731119791666666
 20
-4.883917914496528
 30
0.0
 10
5.507954915364583
 20
-4.830708821614583
 30
0.0
 10
5.283209906684028
 20
-4.804002549913194
 30
0.0
 10
5.056857638888888
 20
-4.780836317274305
 30
0.0
 10
4.572475857204861
 20
-4.75518798828125
 30
0.0
 10
4.015326605902778
 20
-4.842441134982638
 30
0.0
 10
3.955546061197917
 20
-4.848951551649305
 30
0.0
 10
3.858350965711805
 20
-4.859598795572916
 30
0.0
 10
3.766581217447917
 20
-4.892530653211805
 30
0.0
 10
3.673204210069444
 20
-4.926194932725694
 30
0.0
 10
3.561964246961805
 20
-4.966301812065972
 30
0.0
 10
3.348375108506944
 20
-5.047736273871528
 30
0.0
 10
3.320244683159722
 20
-5.017327202690972
 30
0.0
 10
3.291965060763889
 20
-4.970791286892361
 30
0.0
 10
3.2271728515625
 20
-4.832146538628472
 30
0.0
 10
3.190816243489583
 20
-4.737419976128472
 30
0.0
 10
3.044209798177083
 20
-4.355014377170138
 30
0.0
 10
2.904025607638889
 20
-3.97015380859375
 30
0.0
 10
2.758558485243055
 20
-3.587287055121528
 30
0.0
 10
2.668897840711805
 20
-3.351182725694444
 30
0.0
 10
2.573289659288194
 20
-3.117357042100694
 30
0.0
 10
2.481953938802083
 20
-2.8818359375
 30
0.0
 10
2.440016004774305
 20
-2.773579915364583
 30
0.0
 10
2.367207845052083
 20
-2.654439290364583
 30
0.0
 10
2.522508409288194
 20
-2.637363009982639
 30
0.0
 10
2.874803331163194
 20
-2.570332845052083
 30
0.0
 10
3.232964409722222
 20
-2.516676161024305
 30
0.0
 10
3.596842447916667
 20
-2.502251519097222
 30
0.0
 10
4.274753146701388
 20
-2.475429958767361
 30
0.0
 10
4.9508056640625
 20
-2.516038682725694
 30
0.0
 10
5.626146104600694
 20
-2.561170789930555
 30
0.0
 10
6.057400173611111
 20
-2.590006510416667
 30
0.0
 10
6.488606770833333
 20
-2.620456271701389
 30
0.0
 10
6.919474283854166
 20
-2.653971354166667
 30
0.0
 10
7.147250705295138
 20
-2.671685112847222
 30
0.0
 10
7.375162760416666
 20
-2.688727484809028
 30
0.0
 10
7.602918836805555
 20
-2.706753200954861
 30
0.0
 10
7.738511827256944
 20
-2.717461480034722
 30
0.0
 10
7.844448513454861
 20
-2.77252197265625
 30
0.0
 10
7.930250379774305
 20
-2.882073296440972
 30
0.0
 10
8.17612033420139
 20
-3.195807562934028
 30
0.0
 10
8.426506890190971
 20
-3.505974663628472
 30
0.0
 10
8.677625868055555
 20
-3.815450032552083
 30
0.0
 10
8.93575710720486
 20
-4.133497450086805
 30
0.0
 10
9.197238498263888
 20
-4.448737250434028
 30
0.0
 10
9.45632595486111
 20
-4.765916612413194
 30
0.0
 10
9.592610677083332
 20
-4.932773166232638
 30
0.0
 10
9.728325737847221
 20
-5.100267198350694
 30
0.0
 10
9.861911349826388
 20
-5.269361707899305
 30
0.0
 10
9.950629340277777
 20
-5.381693522135416
 30
0.0
 10
9.975450303819445
 20
-5.419345431857638
 30
0.0
 10
9.938395182291666
 20
-5.560960557725694
 30
0.0
  0
SPLINE
  5
41
330
3C
100
AcDbEntity
  8
LAYER_1
 62
   255
100
AcDbSpline
210
0.0
220
0.0
230
1.0
 70
    11
 71
     3
 72
    29
 73
    25
 74
     0
 42
0.0000000001
 43
0.0000000001
 40
0.0
 40
0.0
 40
0.0
 40
0.0
 40
1.0
 40
1.0
 40
1.0
 40
2.0
 40
2.0
 40
2.0
 40
3.0
 40
3.0
 40
3.0
 40
4.0
 40
4.0
 40
4.0
 40
5.0
 40
5.0
 40
5.0
 40
6.0
 40
6.0
 40
6.0
 40
7.0
 40
7.0
 40
7.0
 40
8.0
 40
8.0
 40
8.0
 40
8.0
 10
8.49416775173611
 20
-3.949239095052083
 30
0.0
 10
8.538506401909721
 20
-3.913011338975694
 30
0.0
 10
8.548807779947916
 20
-3.852274576822917
 30
0.0
 10
8.517232259114582
 20
-3.813618977864583
 30
0.0
 10
8.517232259114582
 20
-3.813618977864583
 30
0.0
 10
8.400010850694445
 20
-3.670118543836805
 30
0.0
 10
8.400010850694445
 20
-3.670118543836805
 30
0.0
 10
8.368428548177082
 20
-3.631462944878472
 30
0.0
 10
8.30685085720486
 20
-3.629462348090278
 30
0.0
 10
8.26251220703125
 20
-3.665690104166667
 30
0.0
 10
8.26251220703125
 20
-3.665690104166667
 30
0.0
 10
8.26251220703125
 20
-3.665690104166667
 30
0.0
 10
8.26251220703125
 20
-3.665690104166667
 30
0.0
 10
8.218187120225695
 20
-3.701897515190972
 30
0.0
 10
8.20785183376736
 20
-3.762627495659722
 30
0.0
 10
8.239427354600695
 20
-3.801289876302083
 30
0.0
 10
8.239427354600695
 20
-3.801289876302083
 30
0.0
 10
8.356675889756945
 20
-3.944803873697917
 30
0.0
 10
8.356675889756945
 20
-3.944803873697917
 30
0.0
 10
8.388258192274305
 20
-3.98345947265625
 30
0.0
 10
8.449849446614582
 20
-3.985439724392361
 30
0.0
 10
8.49416775173611
 20
-3.949239095052083
 30
0.0
 10
8.49416775173611
 20
-3.949239095052083
 30
0.0
 10
8.49416775173611
 20
-3.949239095052083
 30
0.0
 10
8.49416775173611
 20
-3.949239095052083
 30
0.0
  0
SPLINE
  5
42
330
3C
100
AcDbEntity
  8
LAYER_1
 62
   255
100
AcDbSpline
210
0.0
220
0.0
230
1.0
 70
    11
 71
     3
 72
    29
 73
    25
 74
     0
 42
0.0000000001
 43
0.0000000001
 40
0.0
 40
0.0
 40
0.0
 40
0.0
 40
1.0
 40
1.0
 40
1.0
 40
2.0
 40
2.0
 40
2.0
 40
3.0
 40
3.0
 40
3.0
 40
4.0
 40
4.0
 40
4.0
 40
5.0
 40
5.0
 40
5.0
 40
6.0
 40
6.0
 40
6.0
 40
7.0
 40
7.0
 40
7.0
 40
8.0
 40
8.0
 40
8.0
 40
8.0
 10
9.7061767578125
 20
-5.533074273003472
 30
0.0
 10
9.686740451388888
 20
-5.479241265190972
 30
0.0
 10
9.63283962673611
 20
-5.449361165364583
 30
0.0
 10
9.585883246527777
 20
-5.466342502170138
 30
0.0
 10
9.585883246527777
 20
-5.466342502170138
 30
0.0
 10
9.411661783854166
 20
-5.52935791015625
 30
0.0
 10
9.411661783854166
 20
-5.52935791015625
 30
0.0
 10
9.364691840277777
 20
-5.546339246961805
 30
0.0
 10
9.342393663194445
 20
-5.603780110677083
 30
0.0
 10
9.361870659722221
 20
-5.657613118489583
 30
0.0
 10
9.361870659722221
 20
-5.657613118489583
 30
0.0
 10
9.361870659722221
 20
-5.657613118489583
 30
0.0
 10
9.361870659722221
 20
-5.657613118489583
 30
0.0
 10
9.381361219618055
 20
-5.711459689670138
 30
0.0
 10
9.43520779079861
 20
-5.741339789496528
 30
0.0
 10
9.482191297743055
 20
-5.724317762586805
 30
0.0
 10
9.482191297743055
 20
-5.724317762586805
 30
0.0
 10
9.656412760416666
 20
-5.66131591796875
 30
0.0
 10
9.656412760416666
 20
-5.66131591796875
 30
0.0
 10
9.703369140625
 20
-5.644321017795138
 30
0.0
 10
9.725667317708332
 20
-5.586920844184028
 30
0.0
 10
9.7061767578125
 20
-5.533074273003472
 30
0.0
 10
9.7061767578125
 20
-5.533074273003472
 30
0.0
 10
9.7061767578125
 20
-5.533074273003472
 30
0.0
 10
9.7061767578125
 20
-5.533074273003472
 30
0.0
  0
SPLINE
  5
43
330
3C
100
AcDbEntity
  8
LAYER_1
 62
   255
100
AcDbSpline
210
0.0
220
0.0
230
1.0
 70
    11
 71
     3
 72
    29
 73
    25
 74
     0
 42
0.0000000001
 43
0.0000000001
 40
0.0
 40
0.0
 40
0.0
 40
0.0
 40
1.0
 40
1.0
 40
1.0
 40
2.0
 40
2.0
 40
2.0
 40
3.0
 40
3.0
 40
3.0
 40
4.0
 40
4.0
 40
4.0
 40
5.0
 40
5.0
 40
5.0
 40
6.0
 40
6.0
 40
6.0
 40
7.0
 40
7.0
 40
7.0
 40
8.0
 40
8.0
 40
8.0
 40
8.0
 10
4.278971354166666
 20
-4.570834689670138
 30
0.0
 10
4.2677001953125
 20
-4.51470947265625
 30
0.0
 10
4.218878851996528
 20
-4.477166069878472
 30
0.0
 10
4.169915093315972
 20
-4.48699951171875
 30
0.0
 10
4.169915093315972
 20
-4.48699951171875
 30
0.0
 10
3.988267686631944
 20
-4.523457845052083
 30
0.0
 10
3.988267686631944
 20
-4.523457845052083
 30
0.0
 10
3.939297146267361
 20
-4.533291286892361
 30
0.0
 10
3.908725314670139
 20
-4.586758083767361
 30
0.0
 10
3.919989691840278
 20
-4.642923990885416
 30
0.0
 10
3.919989691840278
 20
-4.642923990885416
 30
0.0
 10
3.919989691840278
 20
-4.642923990885416
 30
0.0
 10
3.919989691840278
 20
-4.642923990885416
 30
0.0
 10
3.9312744140625
 20
-4.699022081163194
 30
0.0
 10
3.980116102430555
 20
-4.736565483940972
 30
0.0
 10
4.029073079427083
 20
-4.726732042100694
 30
0.0
 10
4.029073079427083
 20
-4.726732042100694
 30
0.0
 10
4.210734049479166
 20
-4.690273708767361
 30
0.0
 10
4.210734049479166
 20
-4.690273708767361
 30
0.0
 10
4.259684244791666
 20
-4.680440266927083
 30
0.0
 10
4.290242513020833
 20
-4.626946343315972
 30
0.0
 10
4.278971354166666
 20
-4.570834689670138
 30
0.0
 10
4.278971354166666
 20
-4.570834689670138
 30
0.0
 10
4.278971354166666
 20
-4.570834689670138
 30
0.0
 10
4.278971354166666
 20
-4.570834689670138
 30
0.0
  0
SPLINE
  5
44
330
3C
100
AcDbEntity
  8
LAYER_1
 62
   255
100
AcDbSpline
210
0.0
220
0.0
230
1.0
 70
    11
 71
     3
 72
    29
 73
    25
 74
     0
 42
0.0000000001
 43
0.0000000001
 40
0.0
 40
0.0
 40
0.0
 40
0.0
 40
1.0
 40
1.0
 40
1.0
 40
2.0
 40
2.0
 40
2.0
 40
3.0
 40
3.0
 40
3.0
 40
4.0
 40
4.0
 40
4.0
 40
5.0
 40
5.0
 40
5.0
 40
6.0
 40
6.0
 40
6.0
 40
7.0
 40
7.0
 40
7.0
 40
8.0
 40
8.0
 40
8.0
 40
8.0
 10
3.950080023871528
 20
-2.714362250434028
 30
0.0
 10
3.950066460503472
 20
-2.657090928819444
 30
0.0
 10
3.909559461805555
 20
-2.610690646701389
 30
0.0
 10
3.859625922309028
 20
-2.610704210069444
 30
0.0
 10
3.859625922309028
 20
-2.610704210069444
 30
0.0
 10
3.674350314670139
 20
-2.610765245225694
 30
0.0
 10
3.674350314670139
 20
-2.610765245225694
 30
0.0
 10
3.624416775173611
 20
-2.61077880859375
 30
0.0
 10
3.58392333984375
 20
-2.657199435763889
 30
0.0
 10
3.583936903211805
 20
-2.714457194010417
 30
0.0
 10
3.583936903211805
 20
-2.714457194010417
 30
0.0
 10
3.583936903211805
 20
-2.714457194010417
 30
0.0
 10
3.583936903211805
 20
-2.714457194010417
 30
0.0
 10
3.583957248263889
 20
-2.771701388888889
 30
0.0
 10
3.624443901909722
 20
-2.818101671006944
 30
0.0
 10
3.674404568142361
 20
-2.818108452690972
 30
0.0
 10
3.674404568142361
 20
-2.818108452690972
 30
0.0
 10
3.85968017578125
 20
-2.818047417534722
 30
0.0
 10
3.85968017578125
 20
-2.818047417534722
 30
0.0
 10
3.909620496961805
 20
-2.818047417534722
 30
0.0
 10
3.950093587239583
 20
-2.771592881944444
 30
0.0
 10
3.950080023871528
 20
-2.714362250434028
 30
0.0
 10
3.950080023871528
 20
-2.714362250434028
 30
0.0
 10
3.950080023871528
 20
-2.714362250434028
 30
0.0
 10
3.950080023871528
 20
-2.714362250434028
 30
0.0
  0
SPLINE
  5
45
330
3C
100
AcDbEntity
  8
LAYER_1
 62
   255
100
AcDbSpline
210
0.0
220
0.0
230
1.0
 70
    11
 71
     3
 72
    17
 73
    13
 74
     0
 42
0.0000000001
 43
0.0000000001
 40
0.0
 40
0.0
 40
0.0
 40
0.0
 40
1.0
 40
1.0
 40
1.0
 40
2.0
 40
2.0
 40
2.0
 40
3.0
 40
3.0
 40
3.0
 40
4.0
 40
4.0
 40
4.0
 40
4.0
 10
6.356987847222221
 20
-3.166219075520833
 30
0.0
 10
6.323316786024305
 20
-3.193732367621528
 30
0.0
 10
6.273688422309028
 20
-3.188727484809028
 30
0.0
 10
6.246188693576388
 20
-3.155056423611111
 30
0.0
 10
6.218661838107638
 20
-3.121378580729167
 30
0.0
 10
6.223673502604166
 20
-3.071763780381944
 30
0.0
 10
6.257344563802083
 20
-3.04425048828125
 30
0.0
 10
6.291042751736111
 20
-3.016743977864583
 30
0.0
 10
6.340643988715278
 20
-3.021742078993055
 30
0.0
 10
6.368170844184028
 20
-3.055419921875
 30
0.0
 10
6.395663791232638
 20
-3.089097764756944
 30
0.0
 10
6.390658908420138
 20
-3.138705783420139
 30
0.0
 10
6.356987847222221
 20
-3.166219075520833
 30
0.0
  0
SPLINE
  5
46
330
3C
100
AcDbEntity
  8
LAYER_1
 62
   255
100
AcDbSpline
210
0.0
220
0.0
230
1.0
 70
    11
 71
     3
 72
    17
 73
    13
 74
     0
 42
0.0000000001
 43
0.0000000001
 40
0.0
 40
0.0
 40
0.0
 40
0.0
 40
1.0
 40
1.0
 40
1.0
 40
2.0
 40
2.0
 40
2.0
 40
3.0
 40
3.0
 40
3.0
 40
4.0
 40
4.0
 40
4.0
 40
4.0
 10
6.0147705078125
 20
-4.73406982421875
 30
0.0
 10
5.981072319878472
 20
-4.761576334635416
 30
0.0
 10
5.931471082899305
 20
-4.756571451822916
 30
0.0
 10
5.903964572482638
 20
-4.722920735677083
 30
0.0
 10
5.876437717013888
 20
-4.689229329427083
 30
0.0
 10
5.881449381510416
 20
-4.639628092447916
 30
0.0
 10
5.915120442708333
 20
-4.612108018663194
 30
0.0
 10
5.948811848958333
 20
-4.584615071614583
 30
0.0
 10
5.998399522569444
 20
-4.589579264322916
 30
0.0
 10
6.025926378038194
 20
-4.623257107204861
 30
0.0
 10
6.053439670138888
 20
-4.656948513454861
 30
0.0
 10
6.048441569010416
 20
-4.706549750434028
 30
0.0
 10
6.0147705078125
 20
-4.73406982421875
 30
0.0
  0
ENDBLK
  5
3F
330
3C
100
AcDbEntity
  8
0
100
AcDbBlockEnd
  0
BLOCK
  5
49
330
47
100
AcDbEntity
  8
0
100
AcDbBlockBegin
  2
BLOCK_3
 70
     0
 71
     0
 10
0.0
 20
0.0
 30
0.0
  3
BLOCK_3
  1

  0
INSERT
  5
4C
330
47
100
AcDbEntity
  8
LAYER_1
100
AcDbBlockReference
  2
BLOCK_4
 10
0.0
 20
0.0
 30
0.0
  0
POLYLINE
  5
58
330
47
100
AcDbEntity
  8
LAYER_1
100
AcDb2dPolyline
 66
     1
 10
0.0
 20
0.0
 30
0.0
  0
VERTEX
  5
59
330
58
100
AcDbEntity
  8
LAYER_1
100
AcDbVertex
100
AcDb2dVertex
 10
10.65645345052083
 20
-2.394605848524305
 30
0.0
  0
VERTEX
  5
5A
330
58
100
AcDbEntity
  8
LAYER_1
100
AcDbVertex
100
AcDb2dVertex
 10
10.84693739149306
 20
-2.068101671006944
 30
0.0
  0
SEQEND
  5
5B
330
58
100
AcDbEntity
  8
LAYER_1
  0
ENDBLK
  5
4A
330
47
100
AcDbEntity
  8
0
100
AcDbBlockEnd
  0
BLOCK
  5
4D
330
4B
100
AcDbEntity
  8
0
100
AcDbBlockBegin
  2
BLOCK_4
 70
     0
 71
     0
 10
0.0
 20
0.0
 30
0.0
  3
BLOCK_4
  1

  0
INSERT
  5
50
330
4B
100
AcDbEntity
  8
LAYER_1
100
AcDbBlockReference
  2
BLOCK_5
 10
0.0
 20
0.0
 30
0.0
  0
SPLINE
  5
54
330
4B
100
AcDbEntity
  8
LAYER_1
 62
   251
100
AcDbSpline
210
0.0
220
0.0
230
1.0
 70
    11
 71
     3
 72
    29
 73
    25
 74
     0
 42
0.0000000001
 43
0.0000000001
 40
0.0
 40
0.0
 40
0.0
 40
0.0
 40
1.0
 40
1.0
 40
1.0
 40
2.0
 40
2.0
 40
2.0
 40
3.0
 40
3.0
 40
3.0
 40
4.0
 40
4.0
 40
4.0
 40
5.0
 40
5.0
 40
5.0
 40
6.0
 40
6.0
 40
6.0
 40
7.0
 40
7.0
 40
7.0
 40
8.0
 40
8.0
 40
8.0
 40
8.0
 10
3.138041178385417
 20
-2.199266221788194
 30
0.0
 10
3.1383056640625
 20
-2.255974663628472
 30
0.0
 10
3.092515733506944
 20
-2.302239312065972
 30
0.0
 10
3.035780164930555
 20
-2.302497016059028
 30
0.0
 10
3.035780164930555
 20
-2.302497016059028
 30
0.0
 10
2.840616861979167
 20
-2.303419325086805
 30
0.0
 10
2.840616861979167
 20
-2.303419325086805
 30
0.0
 10
2.783806694878472
 20
-2.303677029079861
 30
0.0
 10
2.737643771701389
 20
-2.257846408420139
 30
0.0
 10
2.73736572265625
 20
-2.201137966579861
 30
0.0
 10
2.73736572265625
 20
-2.201137966579861
 30
0.0
 10
2.73736572265625
 20
-2.201137966579861
 30
0.0
 10
2.73736572265625
 20
-2.201137966579861
 30
0.0
 10
2.737108018663194
 20
-2.144293891059028
 30
0.0
 10
2.782857259114583
 20
-2.098042805989583
 30
0.0
 10
2.839647081163194
 20
-2.097785101996528
 30
0.0
 10
2.839647081163194
 20
-2.097785101996528
 30
0.0
 10
3.034817165798611
 20
-2.09686279296875
 30
0.0
 10
3.034817165798611
 20
-2.09686279296875
 30
0.0
 10
3.091566297743055
 20
-2.096605088975694
 30
0.0
 10
3.137776692708333
 20
-2.142422146267361
 30
0.0
 10
3.138041178385417
 20
-2.199266221788194
 30
0.0
 10
3.138041178385417
 20
-2.199266221788194
 30
0.0
 10
3.138041178385417
 20
-2.199266221788194
 30
0.0
 10
3.138041178385417
 20
-2.199266221788194
 30
0.0
  0
SPLINE
  5
55
330
4B
100
AcDbEntity
  8
LAYER_1
 62
   251
100
AcDbSpline
210
0.0
220
0.0
230
1.0
 70
    11
 71
     3
 72
    29
 73
    25
 74
     0
 42
0.0000000001
 43
0.0000000001
 40
0.0
 40
0.0
 40
0.0
 40
0.0
 40
1.0
 40
1.0
 40
1.0
 40
2.0
 40
2.0
 40
2.0
 40
3.0
 40
3.0
 40
3.0
 40
4.0
 40
4.0
 40
4.0
 40
5.0
 40
5.0
 40
5.0
 40
6.0
 40
6.0
 40
6.0
 40
7.0
 40
7.0
 40
7.0
 40
8.0
 40
8.0
 40
8.0
 40
8.0
 10
1.233873155381944
 20
-0.6753607855902778
 30
0.0
 10
1.234130859375
 20
-0.7321302625868055
 30
0.0
 10
1.188374837239583
 20
-0.7782999674479166
 30
0.0
 10
1.131605360243056
 20
-0.7785576714409722
 30
0.0
 10
1.131605360243056
 20
-0.7785576714409722
 30
0.0
 10
0.9363878038194444
 20
-0.77947998046875
 30
0.0
 10
0.9363878038194444
 20
-0.77947998046875
 30
0.0
 10
0.8796454535590277
 20
-0.7797444661458333
 30
0.0
 10
0.8334147135416666
 20
-0.7339952256944444
 30
0.0
 10
0.8331502278645833
 20
-0.6772189670138888
 30
0.0
 10
0.8331502278645833
 20
-0.6772189670138888
 30
0.0
 10
0.8331502278645833
 20
-0.6772189670138888
 30
0.0
 10
0.8331502278645833
 20
-0.6772189670138888
 30
0.0
 10
0.8328789605034722
 20
-0.6204833984375
 30
0.0
 10
0.8786824544270833
 20
-0.5742594401041666
 30
0.0
 10
0.9354248046875
 20
-0.5739881727430555
 30
0.0
 10
0.9354248046875
 20
-0.5739881727430555
 30
0.0
 10
1.130642361111111
 20
-0.5730794270833333
 30
0.0
 10
1.130642361111111
 20
-0.5730794270833333
 30
0.0
 10
1.187418619791667
 20
-0.5728081597222222
 30
0.0
 10
1.233608669704861
 20
-0.6186048719618055
 30
0.0
 10
1.233873155381944
 20
-0.6753607855902778
 30
0.0
 10
1.233873155381944
 20
-0.6753607855902778
 30
0.0
 10
1.233873155381944
 20
-0.6753607855902778
 30
0.0
 10
1.233873155381944
 20
-0.6753607855902778
 30
0.0
  0
SPLINE
  5
56
330
4B
100
AcDbEntity
  8
LAYER_1
 62
   251
100
AcDbSpline
210
0.0
220
0.0
230
1.0
 70
    11
 71
     3
 72
    29
 73
    25
 74
     0
 42
0.0000000001
 43
0.0000000001
 40
0.0
 40
0.0
 40
0.0
 40
0.0
 40
1.0
 40
1.0
 40
1.0
 40
2.0
 40
2.0
 40
2.0
 40
3.0
 40
3.0
 40
3.0
 40
4.0
 40
4.0
 40
4.0
 40
5.0
 40
5.0
 40
5.0
 40
6.0
 40
6.0
 40
6.0
 40
7.0
 40
7.0
 40
7.0
 40
8.0
 40
8.0
 40
8.0
 40
8.0
 10
9.938340928819445
 20
-0.8412339952256944
 30
0.0
 10
9.922960069444445
 20
-0.89581298828125
 30
0.0
 10
9.866102430555555
 20
-0.9275851779513888
 30
0.0
 10
9.811509874131945
 20
-0.9120212131076388
 30
0.0
 10
9.811509874131945
 20
-0.9120212131076388
 30
0.0
 10
9.62368435329861
 20
-0.85870361328125
 30
0.0
 10
9.62368435329861
 20
-0.85870361328125
 30
0.0
 10
9.569091796875
 20
-0.8433024088541666
 30
0.0
 10
9.537434895833332
 20
-0.7864244249131944
 30
0.0
 10
9.552964952256945
 20
-0.73187255859375
 30
0.0
 10
9.552964952256945
 20
-0.73187255859375
 30
0.0
 10
9.552964952256945
 20
-0.73187255859375
 30
0.0
 10
9.552964952256945
 20
-0.73187255859375
 30
0.0
 10
9.568440755208332
 20
-0.6772800021701388
 30
0.0
 10
9.625217013888888
 20
-0.6455485026041666
 30
0.0
 10
9.679755316840277
 20
-0.6610446506076388
 30
0.0
 10
9.679755316840277
 20
-0.6610446506076388
 30
0.0
 10
9.867594401041666
 20
-0.7143351236979166
 30
0.0
 10
9.867594401041666
 20
-0.7143351236979166
 30
0.0
 10
9.922200520833332
 20
-0.729824490017361
 30
0.0
 10
9.953870985243055
 20
-0.7866685655381944
 30
0.0
 10
9.938340928819445
 20
-0.8412339952256944
 30
0.0
 10
9.938340928819445
 20
-0.8412339952256944
 30
0.0
 10
9.938340928819445
 20
-0.8412339952256944
 30
0.0
 10
9.938340928819445
 20
-0.8412339952256944
 30
0.0
  0
SPLINE
  5
57
330
4B
100
AcDbEntity
  8
LAYER_1
 62
   251
100
AcDbSpline
210
0.0
220
0.0
230
1.0
 70
    11
 71
     3
 72
    29
 73
    25
 74
     0
 42
0.0000000001
 43
0.0000000001
 40
0.0
 40
0.0
 40
0.0
 40
0.0
 40
1.0
 40
1.0
 40
1.0
 40
2.0
 40
2.0
 40
2.0
 40
3.0
 40
3.0
 40
3.0
 40
4.0
 40
4.0
 40
4.0
 40
5.0
 40
5.0
 40
5.0
 40
6.0
 40
6.0
 40
6.0
 40
7.0
 40
7.0
 40
7.0
 40
8.0
 40
8.0
 40
8.0
 40
8.0
 10
9.454644097222221
 20
-2.954542371961805
 30
0.0
 10
9.43911404079861
 20
-3.00909423828125
 30
0.0
 10
9.382364908854166
 20
-3.04083251953125
 30
0.0
 10
9.327745225694445
 20
-3.025316026475694
 30
0.0
 10
9.327745225694445
 20
-3.025316026475694
 30
0.0
 10
9.139946831597221
 20
-2.972011990017361
 30
0.0
 10
9.139946831597221
 20
-2.972011990017361
 30
0.0
 10
9.085394965277777
 20
-2.956549750434028
 30
0.0
 10
9.053683810763888
 20
-2.89971923828125
 30
0.0
 10
9.069173177083332
 20
-2.845167371961805
 30
0.0
 10
9.069173177083332
 20
-2.845167371961805
 30
0.0
 10
9.069173177083332
 20
-2.845167371961805
 30
0.0
 10
9.069173177083332
 20
-2.845167371961805
 30
0.0
 10
9.084716796875
 20
-2.790479871961805
 30
0.0
 10
9.141425238715277
 20
-2.758795844184028
 30
0.0
 10
9.196085611979166
 20
-2.774339463975694
 30
0.0
 10
9.196085611979166
 20
-2.774339463975694
 30
0.0
 10
9.383856879340277
 20
-2.827643500434028
 30
0.0
 10
9.383856879340277
 20
-2.827643500434028
 30
0.0
 10
9.438422309027777
 20
-2.843092176649305
 30
0.0
 10
9.4700927734375
 20
-2.899936252170139
 30
0.0
 10
9.454644097222221
 20
-2.954542371961805
 30
0.0
 10
9.454644097222221
 20
-2.954542371961805
 30
0.0
 10
9.454644097222221
 20
-2.954542371961805
 30
0.0
 10
9.454644097222221
 20
-2.954542371961805
 30
0.0
  0
ENDBLK
  5
4E
330
4B
100
AcDbEntity
  8
0
100
AcDbBlockEnd
  0
BLOCK
  5
51
330
4F
100
AcDbEntity
  8
0
100
AcDbBlockBegin
  2
BLOCK_5
 70
     0
 71
     0
 10
0.0
 20
0.0
 30
0.0
  3
BLOCK_5
  1

  0
SPLINE
  5
53
330
4F
100
AcDbEntity
  8
LAYER_1
 62
     7
100
AcDbSpline
210
0.0
220
0.0
230
1.0
 70
    11
 71
     3
 72
   110
 73
   106
 74
     0
 42
0.0000000001
 43
0.0000000001
 40
0.0
 40
0.0
 40
0.0
 40
0.0
 40
1.0
 40
1.0
 40
1.0
 40
2.0
 40
2.0
 40
2.0
 40
3.0
 40
3.0
 40
3.0
 40
4.0
 40
4.0
 40
4.0
 40
5.0
 40
5.0
 40
5.0
 40
6.0
 40
6.0
 40
6.0
 40
7.0
 40
7.0
 40
7.0
 40
8.0
 40
8.0
 40
8.0
 40
9.0
 40
9.0
 40
9.0
 40
10.0
 40
10.0
 40
10.0
 40
11.0
 40
11.0
 40
11.0
 40
12.0
 40
12.0
 40
12.0
 40
13.0
 40
13.0
 40
13.0
 40
14.0
 40
14.0
 40
14.0
 40
15.0
 40
15.0
 40
15.0
 40
16.0
 40
16.0
 40
16.0
 40
17.0
 40
17.0
 40
17.0
 40
18.0
 40
18.0
 40
18.0
 40
19.0
 40
19.0
 40
19.0
 40
20.0
 40
20.0
 40
20.0
 40
21.0
 40
21.0
 40
21.0
 40
22.0
 40
22.0
 40
22.0
 40
23.0
 40
23.0
 40
23.0
 40
24.0
 40
24.0
 40
24.0
 40
25.0
 40
25.0
 40
25.0
 40
26.0
 40
26.0
 40
26.0
 40
27.0
 40
27.0
 40
27.0
 40
28.0
 40
28.0
 40
28.0
 40
29.0
 40
29.0
 40
29.0
 40
30.0
 40
30.0
 40
30.0
 40
31.0
 40
31.0
 40
31.0
 40
32.0
 40
32.0
 40
32.0
 40
33.0
 40
33.0
 40
33.0
 40
34.0
 40
34.0
 40
34.0
 40
35.0
 40
35.0
 40
35.0
 40
35.0
 10
12.55409071180556
 20
-2.051839192708333
 30
0.0
 10
12.55419921875
 20
-2.076938205295139
 30
0.0
 10
12.48918999565972
 20
-2.176032172309028
 30
0.0
 10
12.46074761284722
 20
-2.204610188802083
 30
0.0
 10
12.15882703993056
 20
-2.508592393663194
 30
0.0
 10
11.85786946614583
 20
-2.813564724392361
 30
0.0
 10
11.55654568142361
 20
-3.118116590711805
 30
0.0
 10
11.46153428819444
 20
-3.213996039496528
 30
0.0
 10
11.35190158420139
 20
-3.269972059461805
 30
0.0
 10
11.21137152777778
 20
-3.254238552517361
 30
0.0
 10
11.18650987413194
 20
-3.251430935329861
 30
0.0
 10
9.852023654513888
 20
-3.242560492621528
 30
0.0
 10
9.428439670138888
 20
-3.239291720920139
 30
0.0
 10
9.36865234375
 20
-3.238844129774305
 30
0.0
 10
9.303846571180555
 20
-3.224778917100694
 30
0.0
 10
9.25027126736111
 20
-3.198859320746528
 30
0.0
 10
8.73016357421875
 20
-2.947882758246528
 30
0.0
 10
8.198323567708332
 20
-2.727288140190972
 30
0.0
 10
7.636176215277778
 20
-2.590772840711805
 30
0.0
 10
7.39111328125
 20
-2.531256781684028
 30
0.0
 10
7.141832139756944
 20
-2.475687662760417
 30
0.0
 10
6.89154052734375
 20
-2.45697021484375
 30
0.0
 10
6.534396701388888
 20
-2.43023681640625
 30
0.0
 10
6.174614800347222
 20
-2.43585205078125
 30
0.0
 10
5.81591796875
 20
-2.433207194010417
 30
0.0
 10
4.927144368489583
 20
-2.426791720920139
 30
0.0
 10
4.038330078125
 20
-2.423238118489583
 30
0.0
 10
3.149549696180555
 20
-2.419033474392361
 30
0.0
 10
2.945176866319444
 20
-2.417961968315972
 30
0.0
 10
2.740797254774305
 20
-2.419670952690972
 30
0.0
 10
2.536431206597222
 20
-2.418328179253472
 30
0.0
 10
2.460618760850694
 20
-2.41790771484375
 30
0.0
 10
2.399122450086805
 20
-2.445400661892361
 30
0.0
 10
2.347941080729167
 20
-2.499613444010417
 30
0.0
 10
2.153408474392361
 20
-2.705546061197917
 30
0.0
 10
1.953301323784722
 20
-2.90655517578125
 30
0.0
 10
1.767239040798611
 20
-3.119852701822917
 30
0.0
 10
1.692450629340278
 20
-3.205586751302083
 30
0.0
 10
1.617214626736111
 20
-3.281758626302083
 30
0.0
 10
1.515157063802083
 20
-3.330546061197917
 30
0.0
 10
1.248026529947917
 20
-3.331807454427083
 30
0.0
 10
0.1398857964409722
 20
-3.359707302517361
 30
0.0
 10
0.0625678168402778
 20
-3.337327745225694
 30
0.0
 10
0.0623236762152778
 20
-3.28729248046875
 30
0.0
 10
0.0652398003472222
 20
-2.120775010850694
 30
0.0
 10
0.0567220052083333
 20
-2.085184733072917
 30
0.0
 10
0.05633544921875
 20
-2.001702202690972
 30
0.0
 10
0.0559421115451389
 20
-1.918212890625
 30
0.0
 10
0.0555555555555556
 20
-1.834730360243055
 30
0.0
 10
0.0661146375868056
 20
-1.830763075086805
 30
0.0
 10
0.0766465928819444
 20
-1.826917860243055
 30
0.0
 10
0.0872260199652778
 20
-1.8232421875
 30
0.0
 10
0.2136433919270833
 20
-1.780314127604167
 30
0.0
 10
0.5467597113715278
 20
-1.807895236545139
 30
0.0
 10
0.5761922200520833
 20
-1.798163519965278
 30
0.0
 10
0.630520290798611
 20
-1.779873318142361
 30
0.0
 10
0.66925048828125
 20
-1.731452094184028
 30
0.0
 10
0.6835055881076388
 20
-1.66064453125
 30
0.0
 10
0.693359375
 20
-1.612033420138889
 30
0.0
 10
0.7031792534722222
 20
-1.562032063802083
 30
0.0
 10
0.702785915798611
 20
-1.512661404079861
 30
0.0
 10
0.6999104817708333
 20
-1.141506618923611
 30
0.0
 10
0.7016194661458333
 20
-0.7701144748263888
 30
0.0
 10
0.686550564236111
 20
-0.3994140625
 30
0.0
 10
0.6797349717881944
 20
-0.2318250868055556
 30
0.0
 10
0.7586873372395833
 20
-0.1522284613715278
 30
0.0
 10
0.9171210394965277
 20
-0.1545206705729167
 30
0.0
 10
1.29248046875
 20
-0.1600341796875
 30
0.0
 10
3.922431098090278
 20
-0.1482340494791667
 30
0.0
 10
4.067308213975695
 20
-0.1515028211805556
 30
0.0
 10
4.346523708767361
 20
-0.1578369140625
 30
0.0
 10
7.315239800347221
 20
-0.1512247721354167
 30
0.0
 10
7.795077853732638
 20
-0.1486477322048611
 30
0.0
 10
7.828396267361111
 20
-0.1484849717881944
 30
0.0
 10
7.86212158203125
 20
-0.1488308376736111
 30
0.0
 10
7.894972059461805
 20
-0.1538153754340278
 30
0.0
 10
8.190327962239582
 20
-0.1993611653645833
 30
0.0
 10
8.485758463541666
 20
-0.2436184353298611
 30
0.0
 10
8.780442979600695
 20
-0.2928195529513889
 30
0.0
 10
9.533528645833332
 20
-0.4184705946180555
 30
0.0
 10
10.25360785590278
 20
-0.6481187608506944
 30
0.0
 10
10.93570963541667
 20
-0.9919908311631944
 30
0.0
 10
11.10135904947917
 20
-1.075581868489583
 30
0.0
 10
11.2596435546875
 20
-1.173489040798611
 30
0.0
 10
11.42601182725694
 20
-1.267550998263889
 30
0.0
 10
11.39683702256944
 20
-1.329216851128472
 30
0.0
 10
11.37641059027778
 20
-1.386040581597222
 30
0.0
 10
11.34483506944444
 20
-1.436014811197917
 30
0.0
 10
11.29665798611111
 20
-1.51202392578125
 30
0.0
 10
11.21780056423611
 20
-1.575656467013889
 30
0.0
 10
11.27438693576389
 20
-1.688374837239583
 30
0.0
 10
11.38270399305556
 20
-1.764472113715278
 30
0.0
 10
11.50307888454861
 20
-1.842352973090278
 30
0.0
 10
11.61539713541667
 20
-1.930440266927083
 30
0.0
 10
11.7186279296875
 20
-2.011617024739583
 30
0.0
 10
11.77406141493056
 20
-2.0185546875
 30
0.0
 10
11.87284342447917
 20
-1.931742350260417
 30
0.0
 10
11.95700412326389
 20
-1.857774522569444
 30
0.0
 10
12.03797743055556
 20
-1.780049641927083
 30
0.0
 10
12.12801106770833
 20
-1.697021484375
 30
0.0
 10
12.21503363715278
 20
-1.756679958767361
 30
0.0
 10
12.29926215277778
 20
-1.816569010416667
 30
0.0
 10
12.38555230034722
 20
-1.872999403211805
 30
0.0
 10
12.45644802517361
 20
-1.919440375434028
 30
0.0
 10
12.5281982421875
 20
-1.963548448350694
 30
0.0
 10
12.55409071180556
 20
-2.051839192708333
 30
0.0
  0
ENDBLK
  5
52
330
4F
100
AcDbEntity
  8
0
100
AcDbBlockEnd
  0
BLOCK
  5
5E
330
5C
100
AcDbEntity
  8
0
100
AcDbBlockBegin
  2
BLOCK_6
 70
     0
 71
     0
 10
0.0
 20
0.0
 30
0.0
  3
BLOCK_6
  1

  0
SPLINE
  5
60
330
5C
100
AcDbEntity
  8
LAYER_1
 62
     7
100
AcDbSpline
210
0.0
220
0.0
230
1.0
 70
    11
 71
     3
 72
   245
 73
   241
 74
     0
 42
0.0000000001
 43
0.0000000001
 40
0.0
 40
0.0
 40
0.0
 40
0.0
 40
1.0
 40
1.0
 40
1.0
 40
2.0
 40
2.0
 40
2.0
 40
3.0
 40
3.0
 40
3.0
 40
4.0
 40
4.0
 40
4.0
 40
5.0
 40
5.0
 40
5.0
 40
6.0
 40
6.0
 40
6.0
 40
7.0
 40
7.0
 40
7.0
 40
8.0
 40
8.0
 40
8.0
 40
9.0
 40
9.0
 40
9.0
 40
10.0
 40
10.0
 40
10.0
 40
11.0
 40
11.0
 40
11.0
 40
12.0
 40
12.0
 40
12.0
 40
13.0
 40
13.0
 40
13.0
 40
14.0
 40
14.0
 40
14.0
 40
15.0
 40
15.0
 40
15.0
 40
16.0
 40
16.0
 40
16.0
 40
17.0
 40
17.0
 40
17.0
 40
18.0
 40
18.0
 40
18.0
 40
19.0
 40
19.0
 40
19.0
 40
20.0
 40
20.0
 40
20.0
 40
21.0
 40
21.0
 40
21.0
 40
22.0
 40
22.0
 40
22.0
 40
23.0
 40
23.0
 40
23.0
 40
24.0
 40
24.0
 40
24.0
 40
25.0
 40
25.0
 40
25.0
 40
26.0
 40
26.0
 40
26.0
 40
27.0
 40
27.0
 40
27.0
 40
28.0
 40
28.0
 40
28.0
 40
29.0
 40
29.0
 40
29.0
 40
30.0
 40
30.0
 40
30.0
 40
31.0
 40
31.0
 40
31.0
 40
32.0
 40
32.0
 40
32.0
 40
33.0
 40
33.0
 40
33.0
 40
34.0
 40
34.0
 40
34.0
 40
35.0
 40
35.0
 40
35.0
 40
36.0
 40
36.0
 40
36.0
 40
37.0
 40
37.0
 40
37.0
 40
38.0
 40
38.0
 40
38.0
 40
39.0
 40
39.0
 40
39.0
 40
40.0
 40
40.0
 40
40.0
 40
41.0
 40
41.0
 40
41.0
 40
42.0
 40
42.0
 40
42.0
 40
43.0
 40
43.0
 40
43.0
 40
44.0
 40
44.0
 40
44.0
 40
45.0
 40
45.0
 40
45.0
 40
46.0
 40
46.0
 40
46.0
 40
47.0
 40
47.0
 40
47.0
 40
48.0
 40
48.0
 40
48.0
 40
49.0
 40
49.0
 40
49.0
 40
50.0
 40
50.0
 40
50.0
 40
51.0
 40
51.0
 40
51.0
 40
52.0
 40
52.0
 40
52.0
 40
53.0
 40
53.0
 40
53.0
 40
54.0
 40
54.0
 40
54.0
 40
55.0
 40
55.0
 40
55.0
 40
56.0
 40
56.0
 40
56.0
 40
57.0
 40
57.0
 40
57.0
 40
58.0
 40
58.0
 40
58.0
 40
59.0
 40
59.0
 40
59.0
 40
60.0
 40
60.0
 40
60.0
 40
61.0
 40
61.0
 40
61.0
 40
62.0
 40
62.0
 40
62.0
 40
63.0
 40
63.0
 40
63.0
 40
64.0
 40
64.0
 40
64.0
 40
65.0
 40
65.0
 40
65.0
 40
66.0
 40
66.0
 40
66.0
 40
67.0
 40
67.0
 40
67.0
 40
68.0
 40
68.0
 40
68.0
 40
69.0
 40
69.0
 40
69.0
 40
70.0
 40
70.0
 40
70.0
 40
71.0
 40
71.0
 40
71.0
 40
72.0
 40
72.0
 40
72.0
 40
73.0
 40
73.0
 40
73.0
 40
74.0
 40
74.0
 40
74.0
 40
75.0
 40
75.0
 40
75.0
 40
76.0
 40
76.0
 40
76.0
 40
77.0
 40
77.0
 40
77.0
 40
78.0
 40
78.0
 40
78.0
 40
79.0
 40
79.0
 40
79.0
 40
80.0
 40
80.0
 40
80.0
 40
80.0
 10
10.83075629340278
 20
-7.635267469618055
 30
0.0
 10
10.82956271701389
 20
-7.6370849609375
 30
0.0
 10
10.77956814236111
 20
-7.698757595486111
 30
0.0
 10
10.7769775390625
 20
-7.70458984375
 30
0.0
 10
10.7608642578125
 20
-7.704779730902778
 30
0.0
 10
10.65428331163194
 20
-7.714708116319444
 30
0.0
 10
10.64286295572917
 20
-7.7130126953125
 30
0.0
 10
10.63962131076389
 20
-7.712551540798611
 30
0.0
 10
10.45750596788194
 20
-7.707858615451388
 30
0.0
 10
10.45193142361111
 20
-7.708333333333333
 30
0.0
 10
10.44775390625
 20
-7.708658854166666
 30
0.0
 10
10.22736273871528
 20
-7.695244683159721
 30
0.0
 10
10.22300889756944
 20
-7.6947021484375
 30
0.0
 10
10.20865885416667
 20
-7.692925347222221
 30
0.0
 10
10.08683268229167
 20
-7.688001844618055
 30
0.0
 10
10.06578233506944
 20
-7.684231228298611
 30
0.0
 10
10.05513509114583
 20
-7.682291666666666
 30
0.0
 10
9.917941623263888
 20
-7.670233832465278
 30
0.0
 10
9.917046440972221
 20
-7.670003255208333
 30
0.0
 10
9.868055555555555
 20
-7.65771484375
 30
0.0
 10
9.629408094618055
 20
-7.616197374131944
 30
0.0
 10
9.57326931423611
 20
-7.604193793402778
 30
0.0
 10
9.548828125
 20
-7.599297417534721
 30
0.0
 10
9.536376953125
 20
-7.586073133680555
 30
0.0
 10
9.524373372395832
 20
-7.568264431423611
 30
0.0
 10
9.515001085069445
 20
-7.554524739583333
 30
0.0
 10
9.514105902777777
 20
-7.543782552083333
 30
0.0
 10
9.516045464409721
 20
-7.535359700520833
 30
0.0
 10
9.521091037326388
 20
-7.513359917534721
 30
0.0
 10
9.525689019097221
 20
-7.491278754340278
 30
0.0
 10
9.531480577256945
 20
-7.469468858506944
 30
0.0
 10
9.53955078125
 20
-7.439154730902778
 30
0.0
 10
9.548448350694445
 20
-7.409125434027778
 30
0.0
 10
9.557088216145832
 20
-7.379001193576388
 30
0.0
 10
9.561143663194445
 20
-7.364895290798611
 30
0.0
 10
9.565470377604166
 20
-7.350816514756944
 30
0.0
 10
9.569580078125
 20
-7.336697048611111
 30
0.0
 10
9.57522243923611
 20
-7.317328559027778
 30
0.0
 10
9.63454861111111
 20
-7.150851779513888
 30
0.0
 10
9.639662000868055
 20
-7.136583116319444
 30
0.0
 10
9.641710069444445
 20
-7.130859375
 30
0.0
 10
9.729383680555555
 20
-6.908610026041666
 30
0.0
 10
9.805433485243055
 20
-6.626898871527778
 30
0.0
 10
9.84326171875
 20
-6.485826280381944
 30
0.0
 10
9.89809841579861
 20
-6.263807508680555
 30
0.0
 10
9.91811794704861
 20
-6.170071072048611
 30
0.0
 10
9.940565321180555
 20
-6.065049913194444
 30
0.0
 10
9.962510850694445
 20
-5.959933810763888
 30
0.0
 10
9.984551323784721
 20
-5.854804144965278
 30
0.0
 10
9.988294813368055
 20
-5.837049696180555
 30
0.0
 10
10.00499131944444
 20
-5.722425672743055
 30
0.0
 10
10.00606282552083
 20
-5.695773654513888
 30
0.0
 10
10.00752766927083
 20
-5.659722222222222
 30
0.0
 10
10.05314127604167
 20
-5.2052001953125
 30
0.0
 10
10.05592176649306
 20
-5.185614691840278
 30
0.0
 10
10.06012641059028
 20
-5.156155056423611
 30
0.0
 10
10.0625
 20
-5.12646484375
 30
0.0
 10
10.06591796875
 20
-5.096889919704861
 30
0.0
 10
10.06666395399306
 20
-5.090352376302083
 30
0.0
 10
10.07084147135417
 20
-5.041049533420138
 30
0.0
 10
10.07108561197917
 20
-5.039435492621528
 30
0.0
 10
10.07526312934028
 20
-5.013027615017361
 30
0.0
 10
10.09787326388889
 20
-4.784328884548611
 30
0.0
 10
10.0938720703125
 20
-4.781385633680555
 30
0.0
 10
10.09554036458333
 20
-4.773600260416666
 30
0.0
 10
10.12230088975694
 20
-4.411566840277778
 30
0.0
 10
10.12255859375
 20
-4.407741970486111
 30
0.0
 10
10.12451171875
 20
-4.377339680989583
 30
0.0
 10
10.12544759114583
 20
-4.346754286024305
 30
0.0
 10
10.1292724609375
 20
-4.316521538628472
 30
0.0
 10
10.13121202256944
 20
-4.301018608940972
 30
0.0
 10
10.12966579861111
 20
-4.286661783854166
 30
0.0
 10
10.12814670138889
 20
-4.271409776475695
 30
0.0
 10
10.12623426649306
 20
-4.252109103732638
 30
0.0
 10
10.13133409288194
 20
-4.232177734375
 30
0.0
 10
10.13255479600694
 20
-4.212476942274305
 30
0.0
 10
10.13313802083333
 20
-4.202263726128472
 30
0.0
 10
10.13160536024306
 20
-4.191901312934028
 30
0.0
 10
10.13149685329861
 20
-4.181660970052083
 30
0.0
 10
10.13138834635417
 20
-4.172383626302083
 30
0.0
 10
10.13092719184028
 20
-4.163004557291666
 30
0.0
 10
10.13228352864583
 20
-4.153937445746528
 30
0.0
 10
10.13468424479167
 20
-4.137498643663195
 30
0.0
 10
10.14016384548611
 20
-4.121832953559028
 30
0.0
 10
10.13559299045139
 20
-4.104390462239583
 30
0.0
 10
10.12900119357639
 20
-4.079427083333333
 30
0.0
 10
10.13780381944444
 20
-4.054389105902778
 30
0.0
 10
10.13861762152778
 20
-4.029303656684028
 30
0.0
 10
10.13918728298611
 20
-4.011671278211805
 30
0.0
 10
10.13916015625
 20
-3.87255859375
 30
0.0
 10
10.14058430989583
 20
-3.86236572265625
 30
0.0
 10
10.14232042100694
 20
-3.849880642361111
 30
0.0
 10
10.14344618055556
 20
-3.820475260416667
 30
0.0
 10
10.14112684461806
 20
-3.818461100260417
 30
0.0
 10
10.14095052083333
 20
-3.817301432291667
 30
0.0
 10
10.14053005642361
 20
-3.816196017795139
 30
0.0
 10
10.14069281684028
 20
-3.815171983506944
 30
0.0
 10
10.1505126953125
 20
-3.753648546006944
 30
0.0
 10
10.156494140625
 20
-3.691453721788194
 30
0.0
 10
10.1728515625
 20
-3.631062825520833
 30
0.0
 10
10.17441134982639
 20
-3.625339084201389
 30
0.0
 10
10.18777126736111
 20
-3.613193088107639
 30
0.0
 10
10.19306098090278
 20
-3.613233778211805
 30
0.0
 10
10.19565158420139
 20
-3.602681477864583
 30
0.0
 10
10.19793023003472
 20
-3.592278374565972
 30
0.0
 10
10.21092393663194
 20
-3.590115017361111
 30
0.0
 10
10.21351453993056
 20
-3.589694552951389
 30
0.0
 10
10.21603732638889
 20
-3.585890028211805
 30
0.0
 10
10.21756998697917
 20
-3.58306884765625
 30
0.0
 10
10.22683376736111
 20
-3.566623263888889
 30
0.0
 10
10.24449327256944
 20
-3.561767578125
 30
0.0
 10
10.25977918836806
 20
-3.550950792100694
 30
0.0
 10
10.26163736979167
 20
-3.546617296006944
 30
0.0
 10
10.30050998263889
 20
-3.53118896484375
 30
0.0
 10
10.31894259982639
 20
-3.529622395833333
 30
0.0
 10
10.31995985243056
 20
-3.527967664930555
 30
0.0
 10
11.91102430555556
 20
-3.176683213975694
 30
0.0
 10
11.91427951388889
 20
-3.172722710503472
 30
0.0
 10
12.06108940972222
 20
-3.140903049045139
 30
0.0
 10
12.05685763888889
 20
-3.169942220052083
 30
0.0
 10
12.09605577256944
 20
-3.211581759982639
 30
0.0
 10
12.09714084201389
 20
-3.226372612847222
 30
0.0
 10
12.29671223958333
 20
-3.494486490885417
 30
0.0
 10
12.4635009765625
 20
-3.626749674479167
 30
0.0
 10
12.63027615017361
 20
-3.759033203125
 30
0.0
 10
13.14430067274306
 20
-3.867621527777778
 30
0.0
 10
13.15690104166667
 20
-3.870327419704861
 30
0.0
 10
13.20045301649306
 20
-3.8896484375
 30
0.0
 10
13.23654513888889
 20
-3.908311631944444
 30
0.0
 10
13.2557373046875
 20
-3.937757703993055
 30
0.0
 10
13.27236599392361
 20
-3.963277180989583
 30
0.0
 10
13.27932400173611
 20
-3.971957736545139
 30
0.0
 10
13.26902940538194
 20
-4.075771755642361
 30
0.0
 10
13.25846354166667
 20
-4.181986490885416
 30
0.0
 10
12.54667154947917
 20
-5.457790798611111
 30
0.0
 10
12.52760145399306
 20
-5.473239474826388
 30
0.0
 10
12.51043023003472
 20
-5.534003363715278
 30
0.0
 10
12.51460774739583
 20
-5.578748914930555
 30
0.0
 10
12.52079264322917
 20
-5.629204644097222
 30
0.0
 10
12.52701822916667
 20
-5.679673936631944
 30
0.0
 10
12.52532280815972
 20
-5.676364474826388
 30
0.0
 10
12.52719455295139
 20
-5.690036349826388
 30
0.0
 10
12.53076171875
 20
-5.716227213541666
 30
0.0
 10
12.54224989149306
 20
-5.782647026909722
 30
0.0
 10
12.54203287760417
 20
-5.786810980902778
 30
0.0
 10
12.54475911458333
 20
-5.795477973090278
 30
0.0
 10
12.56833224826389
 20
-5.943861219618055
 30
0.0
 10
12.57162814670139
 20
-5.960137261284722
 30
0.0
 10
12.57640245225694
 20
-5.983778211805555
 30
0.0
 10
12.72894965277778
 20
-6.76708984375
 30
0.0
 10
12.7371826171875
 20
-6.7900390625
 30
0.0
 10
12.73963758680556
 20
-6.796820746527778
 30
0.0
 10
12.73703342013889
 20
-6.805257161458333
 30
0.0
 10
12.73750813802083
 20
-6.812920464409721
 30
0.0
 10
12.73879665798611
 20
-6.834011501736111
 30
0.0
 10
12.73981391059028
 20
-6.855129665798611
 30
0.0
 10
12.742431640625
 20
-6.876071506076388
 30
0.0
 10
12.7430419921875
 20
-6.881022135416666
 30
0.0
 10
12.74072265625
 20
-6.908854166666666
 30
0.0
 10
12.73276095920139
 20
-6.917670355902778
 30
0.0
 10
12.73140462239583
 20
-6.922200520833333
 30
0.0
 10
12.72995334201389
 20
-6.926920572916666
 30
0.0
 10
12.72843424479167
 20
-6.9320068359375
 30
0.0
 10
12.708251953125
 20
-6.961208767361111
 30
0.0
 10
12.68976508246528
 20
-6.981906467013888
 30
0.0
 10
12.67405870225694
 20
-7.000745985243055
 30
0.0
 10
12.65947808159722
 20
-7.013834635416666
 30
0.0
 10
12.42195638020833
 20
-7.230645073784721
 30
0.0
 10
12.41158040364583
 20
-7.239935980902778
 30
0.0
 10
12.4051513671875
 20
-7.245659722222221
 30
0.0
 10
12.34665256076389
 20
-7.300469292534721
 30
0.0
 10
12.33468967013889
 20
-7.313503689236111
 30
0.0
 10
12.3299560546875
 20
-7.317369249131944
 30
0.0
 10
12.31122504340278
 20
-7.32958984375
 30
0.0
 10
12.30670844184028
 20
-7.331298828125
 30
0.0
 10
12.28961859809028
 20
-7.337510850694444
 30
0.0
 10
12.233154296875
 20
-7.354383680555555
 30
0.0
 10
12.22021484375
 20
-7.358194986979166
 30
0.0
 10
12.19962565104167
 20
-7.364217122395833
 30
0.0
 10
12.17811414930556
 20
-7.374091254340278
 30
0.0
 10
12.15709092881944
 20
-7.369574652777778
 30
0.0
 10
12.14013671875
 20
-7.367594401041666
 30
0.0
 10
12.121337890625
 20
-7.361612955729166
 30
0.0
 10
12.09474012586806
 20
-7.353271484375
 30
0.0
 10
12.08397081163194
 20
-7.349853515625
 30
0.0
 10
12.04734971788194
 20
-7.334648980034721
 30
0.0
 10
12.03763834635417
 20
-7.32861328125
 30
0.0
 10
12.03460015190972
 20
-7.326755099826388
 30
0.0
 10
11.99381510416667
 20
-7.291978624131944
 30
0.0
 10
11.99355740017361
 20
-7.2904052734375
 30
0.0
 10
11.97847493489583
 20
-7.276584201388888
 30
0.0
 10
11.88254123263889
 20
-7.147637261284721
 30
0.0
 10
11.87400987413194
 20
-7.140163845486111
 30
0.0
 10
11.87391493055556
 20
-7.139187282986111
 30
0.0
 10
11.83502875434028
 20
-7.091864691840278
 30
0.0
 10
11.82736545138889
 20
-7.086181640625
 30
0.0
 10
11.81358506944444
 20
-7.075981987847221
 30
0.0
 10
11.79909939236111
 20
-7.066731770833333
 30
0.0
 10
11.78481716579861
 20
-7.057156032986111
 30
0.0
 10
11.77879503038194
 20
-7.053059895833333
 30
0.0
 10
11.772705078125
 20
-7.049167209201388
 30
0.0
 10
11.76513671875
 20
-7.046739366319444
 30
0.0
 10
11.76268174913194
 20
-7.042032877604166
 30
0.0
 10
11.72789171006944
 20
-7.025417751736111
 30
0.0
 10
11.7159423828125
 20
-7.012071397569444
 30
0.0
 10
11.70968967013889
 20
-7.005099826388888
 30
0.0
 10
11.65030924479167
 20
-6.994439019097221
 30
0.0
 10
11.63400607638889
 20
-6.991902669270833
 30
0.0
 10
11.62296549479167
 20
-6.990193684895833
 30
0.0
 10
11.61150444878472
 20
-6.990776909722221
 30
0.0
 10
11.60024685329861
 20
-6.990627712673611
 30
0.0
 10
11.58784993489583
 20
-6.990464952256944
 30
0.0
 10
11.54153103298611
 20
-6.986097547743055
 30
0.0
 10
11.53118218315972
 20
-6.986870659722221
 30
0.0
 10
11.52010091145833
 20
-6.989569769965278
 30
0.0
 10
11.47618272569444
 20
-6.993665907118055
 30
0.0
 10
11.46533203125
 20
-6.993638780381944
 30
0.0
 10
11.45944552951389
 20
-6.993611653645833
 30
0.0
 10
11.45343695746528
 20
-6.994249131944444
 30
0.0
 10
11.44771321614583
 20
-6.995537651909721
 30
0.0
 10
11.43843587239583
 20
-6.997612847222221
 30
0.0
 10
11.41452365451389
 20
-7.008612738715278
 30
0.0
 10
11.412353515625
 20
-7.0130615234375
 30
0.0
 10
11.40779622395833
 20
-7.0120849609375
 30
0.0
 10
11.30575900607639
 20
-7.067952473958333
 30
0.0
 10
11.29569498697917
 20
-7.080362955729166
 30
0.0
 10
11.28716362847222
 20
-7.090861002604166
 30
0.0
 10
11.27666558159722
 20
-7.098497178819444
 30
0.0
 10
11.26749674479167
 20
-7.107828776041666
 30
0.0
 10
11.25828721788194
 20
-7.117173936631944
 30
0.0
 10
11.18935818142361
 20
-7.182237413194444
 30
0.0
 10
11.17705620659722
 20
-7.198621961805555
 30
0.0
 10
11.17206488715278
 20
-7.205335828993055
 30
0.0
 10
10.96756998697917
 20
-7.444851345486111
 30
0.0
 10
10.95916069878472
 20
-7.455512152777778
 30
0.0
 10
10.9569091796875
 20
-7.4583740234375
 30
0.0
 10
10.95499674479167
 20
-7.461480034722221
 30
0.0
 10
10.95277235243056
 20
-7.464409722222221
 30
0.0
 10
10.94816080729167
 20
-7.470404730902778
 30
0.0
 10
10.84138997395833
 20
-7.618408203125
 30
0.0
 10
10.83075629340278
 20
-7.635267469618055
 30
0.0
  0
SPLINE
  5
61
330
5C
100
AcDbEntity
  8
LAYER_1
 62
   250
100
AcDbSpline
210
0.0
220
0.0
230
1.0
 70
    11
 71
     3
 72
    29
 73
    25
 74
     0
 42
0.0000000001
 43
0.0000000001
 40
0.0
 40
0.0
 40
0.0
 40
0.0
 40
1.0
 40
1.0
 40
1.0
 40
2.0
 40
2.0
 40
2.0
 40
3.0
 40
3.0
 40
3.0
 40
4.0
 40
4.0
 40
4.0
 40
5.0
 40
5.0
 40
5.0
 40
6.0
 40
6.0
 40
6.0
 40
7.0
 40
7.0
 40
7.0
 40
8.0
 40
8.0
 40
8.0
 40
8.0
 10
12.35743543836806
 20
-5.480278862847222
 30
0.0
 10
12.37301974826389
 20
-5.54443359375
 30
0.0
 10
12.33770073784722
 20
-5.608045789930555
 30
0.0
 10
12.27857801649306
 20
-5.622395833333333
 30
0.0
 10
12.27857801649306
 20
-5.622395833333333
 30
0.0
 10
12.27857801649306
 20
-5.622395833333333
 30
0.0
 10
12.27857801649306
 20
-5.622395833333333
 30
0.0
 10
12.21946885850694
 20
-5.636759440104166
 30
0.0
 10
12.15888129340278
 20
-5.596381293402778
 30
0.0
 10
12.14332411024306
 20
-5.532280815972222
 30
0.0
 10
12.14332411024306
 20
-5.532280815972222
 30
0.0
 10
12.115478515625
 20
-5.417548285590278
 30
0.0
 10
12.115478515625
 20
-5.417548285590278
 30
0.0
 10
12.09992133246528
 20
-5.353434244791666
 30
0.0
 10
12.13525390625
 20
-5.289835611979166
 30
0.0
 10
12.19434950086806
 20
-5.275458441840278
 30
0.0
 10
12.19434950086806
 20
-5.275458441840278
 30
0.0
 10
12.19434950086806
 20
-5.275458441840278
 30
0.0
 10
12.19434950086806
 20
-5.275458441840278
 30
0.0
 10
12.25349934895833
 20
-5.261135525173611
 30
0.0
 10
12.31404622395833
 20
-5.301445855034722
 30
0.0
 10
12.32961697048611
 20
-5.3656005859375
 30
0.0
 10
12.32961697048611
 20
-5.3656005859375
 30
0.0
 10
12.35743543836806
 20
-5.480278862847222
 30
0.0
 10
12.35743543836806
 20
-5.480278862847222
 30
0.0
  0
SPLINE
  5
62
330
5C
100
AcDbEntity
  8
LAYER_1
 62
   250
100
AcDbSpline
210
0.0
220
0.0
230
1.0
 70
    11
 71
     3
 72
    29
 73
    25
 74
     0
 42
0.0000000001
 43
0.0000000001
 40
0.0
 40
0.0
 40
0.0
 40
0.0
 40
1.0
 40
1.0
 40
1.0
 40
2.0
 40
2.0
 40
2.0
 40
3.0
 40
3.0
 40
3.0
 40
4.0
 40
4.0
 40
4.0
 40
5.0
 40
5.0
 40
5.0
 40
6.0
 40
6.0
 40
6.0
 40
7.0
 40
7.0
 40
7.0
 40
8.0
 40
8.0
 40
8.0
 40
8.0
 10
12.55825466579861
 20
-6.730794270833333
 30
0.0
 10
12.57381184895833
 20
-6.794949001736111
 30
0.0
 10
12.53849283854167
 20
-6.858547634548611
 30
0.0
 10
12.47938368055556
 20
-6.8729248046875
 30
0.0
 10
12.47938368055556
 20
-6.8729248046875
 30
0.0
 10
12.47938368055556
 20
-6.8729248046875
 30
0.0
 10
12.47938368055556
 20
-6.8729248046875
 30
0.0
 10
12.42024739583333
 20
-6.887247721354166
 30
0.0
 10
12.35970052083333
 20
-6.846896701388888
 30
0.0
 10
12.34412977430556
 20
-6.782755533854166
 30
0.0
 10
12.34412977430556
 20
-6.782755533854166
 30
0.0
 10
12.31629774305556
 20
-6.668063693576388
 30
0.0
 10
12.31629774305556
 20
-6.668063693576388
 30
0.0
 10
12.30075412326389
 20
-6.603908962673611
 30
0.0
 10
12.33603244357639
 20
-6.540310329861111
 30
0.0
 10
12.39516872829861
 20
-6.525960286458333
 30
0.0
 10
12.39516872829861
 20
-6.525960286458333
 30
0.0
 10
12.39516872829861
 20
-6.525960286458333
 30
0.0
 10
12.39516872829861
 20
-6.525960286458333
 30
0.0
 10
12.45430501302083
 20
-6.511610243055555
 30
0.0
 10
12.51482476128472
 20
-6.551961263020833
 30
0.0
 10
12.53040907118056
 20
-6.616075303819444
 30
0.0
 10
12.53040907118056
 20
-6.616075303819444
 30
0.0
 10
12.55825466579861
 20
-6.730794270833333
 30
0.0
 10
12.55825466579861
 20
-6.730794270833333
 30
0.0
  0
ENDBLK
  5
5F
330
5C
100
AcDbEntity
  8
0
100
AcDbBlockEnd
  0
BLOCK
  5
65
330
63
100
AcDbEntity
  8
0
100
AcDbBlockBegin
  2
BLOCK_7
 70
     0
 71
     0
 10
0.0
 20
0.0
 30
0.0
  3
BLOCK_7
  1

  0
INSERT
  5
68
330
63
100
AcDbEntity
  8
LAYER_1
100
AcDbBlockReference
  2
BLOCK_8
 10
0.0
 20
0.0
 30
0.0
  0
ENDBLK
  5
66
330
63
100
AcDbEntity
  8
0
100
AcDbBlockEnd
  0
BLOCK
  5
69
330
67
100
AcDbEntity
  8
0
100
AcDbBlockBegin
  2
BLOCK_8
 70
     0
 71
     0
 10
0.0
 20
0.0
 30
0.0
  3
BLOCK_8
  1

  0
SPLINE
  5
6B
330
67
100
AcDbEntity
  8
LAYER_1
 62
   250
100
AcDbSpline
210
0.0
220
0.0
230
1.0
 70
    11
 71
     3
 72
    59
 73
    55
 74
     0
 42
0.0000000001
 43
0.0000000001
 40
0.0
 40
0.0
 40
0.0
 40
0.0
 40
1.0
 40
1.0
 40
1.0
 40
2.0
 40
2.0
 40
2.0
 40
3.0
 40
3.0
 40
3.0
 40
4.0
 40
4.0
 40
4.0
 40
5.0
 40
5.0
 40
5.0
 40
6.0
 40
6.0
 40
6.0
 40
7.0
 40
7.0
 40
7.0
 40
8.0
 40
8.0
 40
8.0
 40
9.0
 40
9.0
 40
9.0
 40
10.0
 40
10.0
 40
10.0
 40
11.0
 40
11.0
 40
11.0
 40
12.0
 40
12.0
 40
12.0
 40
13.0
 40
13.0
 40
13.0
 40
14.0
 40
14.0
 40
14.0
 40
15.0
 40
15.0
 40
15.0
 40
16.0
 40
16.0
 40
16.0
 40
17.0
 40
17.0
 40
17.0
 40
18.0
 40
18.0
 40
18.0
 40
18.0
 10
12.76787651909722
 20
-0.1038072374131944
 30
0.0
 10
13.04385036892361
 20
-0.1208157009548611
 30
0.0
 10
13.03831651475694
 20
-0.1153361002604167
 30
0.0
 10
13.10480414496528
 20
-0.1488918728298611
 30
0.0
 10
13.1212158203125
 20
-0.1571926540798611
 30
0.0
 10
13.13985188802083
 20
-0.1681315104166667
 30
0.0
 10
13.1531982421875
 20
-0.1795518663194444
 30
0.0
 10
13.17308213975694
 20
-0.204345703125
 30
0.0
 10
13.18740505642361
 20
-0.2138129340277778
 30
0.0
 10
13.20720757378472
 20
-0.2438083224826389
 30
0.0
 10
13.23270670572917
 20
-0.28253173828125
 30
0.0
 10
13.25149197048611
 20
-0.3319295247395833
 30
0.0
 10
13.26695421006944
 20
-0.3756849500868055
 30
0.0
 10
13.27970377604167
 20
-0.4176093207465277
 30
0.0
 10
13.28389485677083
 20
-0.4576348198784722
 30
0.0
 10
13.28321668836806
 20
-0.4984876844618055
 30
0.0
 10
13.28221299913194
 20
-0.5560777452256944
 30
0.0
 10
13.26832411024306
 20
-0.613857693142361
 30
0.0
 10
13.25710720486111
 20
-0.6806844075520833
 30
0.0
 10
13.25059678819444
 20
-0.7195841471354166
 30
0.0
 10
12.99917263454861
 20
-1.857760959201389
 30
0.0
 10
12.98238118489583
 20
-1.913384331597222
 30
0.0
 10
12.97641330295139
 20
-1.933336046006944
 30
0.0
 10
12.96729871961806
 20
-1.952616373697917
 30
0.0
 10
12.95381673177083
 20
-1.969733344184028
 30
0.0
 10
12.95018174913194
 20
-1.974344889322917
 30
0.0
 10
12.93132866753472
 20
-1.986334906684028
 30
0.0
 10
12.91585286458333
 20
-1.990675184461805
 30
0.0
 10
12.90134006076389
 20
-1.994771321614583
 30
0.0
 10
12.87532552083333
 20
-2.000169542100694
 30
0.0
 10
12.85324435763889
 20
-1.995578342013889
 30
0.0
 10
12.81480577256944
 20
-1.987630208333333
 30
0.0
 10
12.77857801649306
 20
-1.967251247829861
 30
0.0
 10
12.74263509114583
 20
-1.949537489149305
 30
0.0
 10
12.7049560546875
 20
-1.930955674913194
 30
0.0
 10
9.966362847222221
 20
-0.3376600477430555
 30
0.0
 10
9.931803385416666
 20
-0.3127305772569444
 30
0.0
 10
9.92138671875
 20
-0.3029581705729166
 30
0.0
 10
9.914957682291666
 20
-0.2951456705729166
 30
0.0
 10
9.908393012152777
 20
-0.2831285264756944
 30
0.0
 10
9.894273546006945
 20
-0.2574395073784722
 30
0.0
 10
9.884575737847221
 20
-0.2329033745659722
 30
0.0
 10
9.88442654079861
 20
-0.20123291015625
 30
0.0
 10
9.884236653645832
 20
-0.1562025282118056
 30
0.0
 10
9.898084852430555
 20
-0.1029798719618056
 30
0.0
 10
9.942396375868055
 20
-0.0705430772569444
 30
0.0
 10
9.957451714409721
 20
-0.0595567491319444
 30
0.0
 10
9.986490885416666
 20
-0.0405137803819444
 30
0.0
 10
10.00264485677083
 20
-0.03741455078125
 30
0.0
 10
10.04111056857639
 20
-0.0301038953993056
 30
0.0
 10
10.08104112413194
 20
-0.0272284613715278
 30
0.0
 10
10.12026638454861
 20
-0.0278591579861111
 30
0.0
 10
10.22855631510417
 20
-0.0295613606770833
 30
0.0
 10
12.75345865885417
 20
-0.1063571506076389
 30
0.0
 10
12.76787651909722
 20
-0.1038072374131944
 30
0.0
  0
SPLINE
  5
6C
330
67
100
AcDbEntity
  8
LAYER_1
 62
   254
100
AcDbSpline
210
0.0
220
0.0
230
1.0
 70
    11
 71
     3
 72
    17
 73
    13
 74
     0
 42
0.0000000001
 43
0.0000000001
 40
0.0
 40
0.0
 40
0.0
 40
0.0
 40
1.0
 40
1.0
 40
1.0
 40
2.0
 40
2.0
 40
2.0
 40
3.0
 40
3.0
 40
3.0
 40
4.0
 40
4.0
 40
4.0
 40
4.0
 10
10.87862141927083
 20
-0.2721150716145833
 30
0.0
 10
10.87253146701389
 20
-0.3365410698784722
 30
0.0
 10
10.81537543402778
 20
-0.3838433159722222
 30
0.0
 10
10.7509765625
 20
-0.3777601453993055
 30
0.0
 10
10.68653700086806
 20
-0.3716566297743055
 30
0.0
 10
10.63925509982639
 20
-0.3144666883680555
 30
0.0
 10
10.64531792534722
 20
-0.2500678168402778
 30
0.0
 10
10.65146213107639
 20
-0.1856825086805556
 30
0.0
 10
10.7086181640625
 20
-0.1383802625868056
 30
0.0
 10
10.77301703559028
 20
-0.1444634331597222
 30
0.0
 10
10.83744303385417
 20
-0.1505601671006944
 30
0.0
 10
10.88472493489583
 20
-0.20770263671875
 30
0.0
 10
10.87862141927083
 20
-0.2721150716145833
 30
0.0
  0
SPLINE
  5
6D
330
67
100
AcDbEntity
  8
LAYER_1
 62
   254
100
AcDbSpline
210
0.0
220
0.0
230
1.0
 70
    11
 71
     3
 72
    17
 73
    13
 74
     0
 42
0.0000000001
 43
0.0000000001
 40
0.0
 40
0.0
 40
0.0
 40
0.0
 40
1.0
 40
1.0
 40
1.0
 40
2.0
 40
2.0
 40
2.0
 40
3.0
 40
3.0
 40
3.0
 40
4.0
 40
4.0
 40
4.0
 40
4.0
 10
12.0687255859375
 20
-0.47454833984375
 30
0.0
 10
12.06267632378472
 20
-0.5389472113715278
 30
0.0
 10
12.00554741753472
 20
-0.5862358940972222
 30
0.0
 10
11.94109429253472
 20
-0.580166286892361
 30
0.0
 10
11.87666829427083
 20
-0.574062771267361
 30
0.0
 10
11.82938639322917
 20
-0.5168999565972222
 30
0.0
 10
11.83548990885417
 20
-0.4524739583333333
 30
0.0
 10
11.84160698784722
 20
-0.3880886501736111
 30
0.0
 10
11.89876302083333
 20
-0.3407864040798611
 30
0.0
 10
11.963134765625
 20
-0.3468831380208333
 30
0.0
 10
12.02761501736111
 20
-0.3529934353298611
 30
0.0
 10
12.07486979166667
 20
-0.4101223415798611
 30
0.0
 10
12.0687255859375
 20
-0.47454833984375
 30
0.0
  0
SPLINE
  5
6E
330
67
100
AcDbEntity
  8
LAYER_1
 62
   142
100
AcDbSpline
210
0.0
220
0.0
230
1.0
 70
    11
 71
     3
 72
    17
 73
    13
 74
     0
 42
0.0000000001
 43
0.0000000001
 40
0.0
 40
0.0
 40
0.0
 40
0.0
 40
1.0
 40
1.0
 40
1.0
 40
2.0
 40
2.0
 40
2.0
 40
3.0
 40
3.0
 40
3.0
 40
4.0
 40
4.0
 40
4.0
 40
4.0
 10
11.44448513454861
 20
-0.5624525282118055
 30
0.0
 10
11.43946668836806
 20
-0.61590576171875
 30
0.0
 10
11.39200846354167
 20
-0.6551852756076388
 30
0.0
 10
11.33856879340278
 20
-0.6500786675347222
 30
0.0
 10
11.28507486979167
 20
-0.6450737847222222
 30
0.0
 10
11.24586317274306
 20
-0.5976087782118055
 30
0.0
 10
11.25090874565972
 20
-0.5441691080729166
 30
0.0
 10
11.25595431857639
 20
-0.4906751844618055
 30
0.0
 10
11.30339898003472
 20
-0.4514567057291666
 30
0.0
 10
11.35683865017361
 20
-0.4565090603298611
 30
0.0
 10
11.41030544704861
 20
-0.4615681966145833
 30
0.0
 10
11.44955783420139
 20
-0.5089789496527778
 30
0.0
 10
11.44448513454861
 20
-0.5624525282118055
 30
0.0
  0
SPLINE
  5
6F
330
67
100
AcDbEntity
  8
LAYER_1
 62
   142
100
AcDbSpline
210
0.0
220
0.0
230
1.0
 70
    11
 71
     3
 72
    17
 73
    13
 74
     0
 42
0.0000000001
 43
0.0000000001
 40
0.0
 40
0.0
 40
0.0
 40
0.0
 40
1.0
 40
1.0
 40
1.0
 40
2.0
 40
2.0
 40
2.0
 40
3.0
 40
3.0
 40
3.0
 40
4.0
 40
4.0
 40
4.0
 40
4.0
 10
13.00287543402778
 20
-1.059461805555556
 30
0.0
 10
12.997802734375
 20
-1.112887912326389
 30
0.0
 10
12.95034450954861
 20
-1.152106391059028
 30
0.0
 10
12.89690483940972
 20
-1.147074381510417
 30
0.0
 10
12.84346516927083
 20
-1.142022026909722
 30
0.0
 10
12.80422634548611
 20
-1.094590928819444
 30
0.0
 10
12.80927191840278
 20
-1.041151258680556
 30
0.0
 10
12.81431749131944
 20
-0.9877115885416666
 30
0.0
 10
12.86177571614583
 20
-0.9484456380208333
 30
0.0
 10
12.91521538628472
 20
-0.9535251193576388
 30
0.0
 10
12.96868218315972
 20
-0.958584255642361
 30
0.0
 10
13.00792100694444
 20
-1.006008572048611
 30
0.0
 10
13.00287543402778
 20
-1.059461805555556
 30
0.0
  0
ENDBLK
  5
6A
330
67
100
AcDbEntity
  8
0
100
AcDbBlockEnd
  0
BLOCK
  5
72
330
70
100
AcDbEntity
  8
0
100
AcDbBlockBegin
  2
BLOCK_9
 70
     0
 71
     0
 10
0.0
 20
0.0
 30
0.0
  3
BLOCK_9
  1

  0
INSERT
  5
75
330
70
100
AcDbEntity
  8
LAYER_1
100
AcDbBlockReference
  2
BLOCK_10
 10
0.0
 20
0.0
 30
0.0
  0
SPLINE
  5
7A
330
70
100
AcDbEntity
  8
LAYER_1
 62
   251
100
AcDbSpline
210
0.0
220
0.0
230
1.0
 70
    11
 71
     3
 72
    17
 73
    13
 74
     0
 42
0.0000000001
 43
0.0000000001
 40
0.0
 40
0.0
 40
0.0
 40
0.0
 40
1.0
 40
1.0
 40
1.0
 40
2.0
 40
2.0
 40
2.0
 40
3.0
 40
3.0
 40
3.0
 40
4.0
 40
4.0
 40
4.0
 40
4.0
 10
4.699578179253472
 20
-8.938666449652777
 30
0.0
 10
4.682752821180555
 20
-8.997938368055555
 30
0.0
 10
4.719509548611111
 20
-9.060343424479166
 30
0.0
 10
4.781670464409722
 20
-9.077962239583332
 30
0.0
 10
4.843831380208333
 20
-9.095621744791666
 30
0.0
 10
4.90789794921875
 20
-9.061848958333332
 30
0.0
 10
4.924709743923611
 20
-9.00259060329861
 30
0.0
 10
4.941521538628472
 20
-8.943332248263888
 30
0.0
 10
4.904839409722222
 20
-8.880995008680555
 30
0.0
 10
4.842658148871528
 20
-8.863294813368055
 30
0.0
 10
4.780449761284722
 20
-8.845648871527777
 30
0.0
 10
4.716417100694444
 20
-8.879408094618055
 30
0.0
 10
4.699578179253472
 20
-8.938666449652777
 30
0.0
  0
SPLINE
  5
7B
330
70
100
AcDbEntity
  8
LAYER_1
 62
   251
100
AcDbSpline
210
0.0
220
0.0
230
1.0
 70
    11
 71
     3
 72
    17
 73
    13
 74
     0
 42
0.0000000001
 43
0.0000000001
 40
0.0
 40
0.0
 40
0.0
 40
0.0
 40
1.0
 40
1.0
 40
1.0
 40
2.0
 40
2.0
 40
2.0
 40
3.0
 40
3.0
 40
3.0
 40
4.0
 40
4.0
 40
4.0
 40
4.0
 10
4.083387586805555
 20
-8.95876736111111
 30
0.0
 10
4.066569010416666
 20
-9.017998589409721
 30
0.0
 10
4.103285047743055
 20
-9.08034939236111
 30
0.0
 10
4.165452745225695
 20
-9.0980224609375
 30
0.0
 10
4.227620442708333
 20
-9.115681966145832
 30
0.0
 10
4.291680230034722
 20
-9.081949869791666
 30
0.0
 10
4.308525933159722
 20
-9.022718641493055
 30
0.0
 10
4.325371636284722
 20
-8.96340603298611
 30
0.0
 10
4.288608127170138
 20
-8.90102810329861
 30
0.0
 10
4.226433648003472
 20
-8.883368598090277
 30
0.0
 10
4.164265950520833
 20
-8.865736219618055
 30
0.0
 10
4.100233289930555
 20
-8.899468315972221
 30
0.0
 10
4.083387586805555
 20
-8.95876736111111
 30
0.0
  0
SPLINE
  5
7C
330
70
100
AcDbEntity
  8
LAYER_1
 62
   251
100
AcDbSpline
210
0.0
220
0.0
230
1.0
 70
    11
 71
     3
 72
    17
 73
    13
 74
     0
 42
0.0000000001
 43
0.0000000001
 40
0.0
 40
0.0
 40
0.0
 40
0.0
 40
1.0
 40
1.0
 40
1.0
 40
2.0
 40
2.0
 40
2.0
 40
3.0
 40
3.0
 40
3.0
 40
4.0
 40
4.0
 40
4.0
 40
4.0
 10
3.188612196180555
 20
-8.998752170138888
 30
0.0
 10
3.173312717013889
 20
-9.052585177951388
 30
0.0
 10
3.204603407118055
 20
-9.108615451388888
 30
0.0
 10
3.258463541666667
 20
-9.12392849392361
 30
0.0
 10
3.312296549479167
 20
-9.139200846354166
 30
0.0
 10
3.368326822916667
 20
-9.107977973090277
 30
0.0
 10
3.383633083767361
 20
-9.054172092013888
 30
0.0
 10
3.398912217881944
 20
-9.00027126736111
 30
0.0
 10
3.367702907986111
 20
-8.944227430555555
 30
0.0
 10
3.313808865017361
 20
-8.928968641493055
 30
0.0
 10
3.259955512152778
 20
-8.913655598958332
 30
0.0
 10
3.203938802083333
 20
-8.944892035590277
 30
0.0
 10
3.188612196180555
 20
-8.998752170138888
 30
0.0
  0
SPLINE
  5
7D
330
70
100
AcDbEntity
  8
LAYER_1
 62
   251
100
AcDbSpline
210
0.0
220
0.0
230
1.0
 70
    11
 71
     3
 72
    17
 73
    13
 74
     0
 42
0.0000000001
 43
0.0000000001
 40
0.0
 40
0.0
 40
0.0
 40
0.0
 40
1.0
 40
1.0
 40
1.0
 40
2.0
 40
2.0
 40
2.0
 40
3.0
 40
3.0
 40
3.0
 40
4.0
 40
4.0
 40
4.0
 40
4.0
 10
3.706529405381944
 20
-8.860093858506945
 30
0.0
 10
3.69122314453125
 20
-8.913994683159721
 30
0.0
 10
3.722459581163194
 20
-8.970038519965277
 30
0.0
 10
3.776353624131944
 20
-8.985297309027777
 30
0.0
 10
3.830159505208333
 20
-9.000623914930555
 30
0.0
 10
3.886189778645833
 20
-8.969346788194445
 30
0.0
 10
3.901523166232639
 20
-8.915513780381945
 30
0.0
 10
3.916802300347222
 20
-8.8616943359375
 30
0.0
 10
3.885531955295139
 20
-8.805650499131945
 30
0.0
 10
3.831705729166667
 20
-8.790364583333332
 30
0.0
 10
3.777872721354167
 20
-8.775037977430555
 30
0.0
 10
3.721781412760417
 20
-8.8062744140625
 30
0.0
 10
3.706529405381944
 20
-8.860093858506945
 30
0.0
  0
ENDBLK
  5
73
330
70
100
AcDbEntity
  8
0
100
AcDbBlockEnd
  0
BLOCK
  5
76
330
74
100
AcDbEntity
  8
0
100
AcDbBlockBegin
  2
BLOCK_10
 70
     0
 71
     0
 10
0.0
 20
0.0
 30
0.0
  3
BLOCK_10
  1

  0
SPLINE
  5
78
330
74
100
AcDbEntity
  8
LAYER_1
 62
     7
100
AcDbSpline
210
0.0
220
0.0
230
1.0
 70
    11
 71
     3
 72
    47
 73
    43
 74
     0
 42
0.0000000001
 43
0.0000000001
 40
0.0
 40
0.0
 40
0.0
 40
0.0
 40
1.0
 40
1.0
 40
1.0
 40
2.0
 40
2.0
 40
2.0
 40
3.0
 40
3.0
 40
3.0
 40
4.0
 40
4.0
 40
4.0
 40
5.0
 40
5.0
 40
5.0
 40
6.0
 40
6.0
 40
6.0
 40
7.0
 40
7.0
 40
7.0
 40
8.0
 40
8.0
 40
8.0
 40
9.0
 40
9.0
 40
9.0
 40
10.0
 40
10.0
 40
10.0
 40
11.0
 40
11.0
 40
11.0
 40
12.0
 40
12.0
 40
12.0
 40
13.0
 40
13.0
 40
13.0
 40
14.0
 40
14.0
 40
14.0
 40
14.0
 10
4.198377821180555
 20
-8.722615559895832
 30
0.0
 10
4.069736056857638
 20
-8.721598307291666
 30
0.0
 10
3.941541883680555
 20
-8.722479926215277
 30
0.0
 10
3.812825520833333
 20
-8.713433159722221
 30
0.0
 10
3.598042805989583
 20
-8.698350694444445
 30
0.0
 10
3.430046929253472
 20
-8.601847330729166
 30
0.0
 10
3.2911376953125
 20
-8.44375271267361
 30
0.0
 10
3.259243435329861
 20
-8.407430013020832
 30
0.0
 10
3.2332763671875
 20
-8.356119791666666
 30
0.0
 10
3.17022705078125
 20
-8.37277560763889
 30
0.0
 10
3.106309678819444
 20
-8.389539930555555
 30
0.0
 10
3.1065673828125
 20
-8.449625651041666
 30
0.0
 10
3.100233289930555
 20
-8.495808919270832
 30
0.0
 10
3.064649793836805
 20
-8.756429036458332
 30
0.0
 10
3.031751844618055
 20
-9.017550998263888
 30
0.0
 10
3.003228081597222
 20
-9.279106987847221
 30
0.0
 10
2.992987738715278
 20
-9.372395833333332
 30
0.0
 10
3.053385416666667
 20
-9.414740668402777
 30
0.0
 10
3.173963758680555
 20
-9.398939344618055
 30
0.0
 10
3.348551432291667
 20
-9.376017252604166
 30
0.0
 10
3.522318522135417
 20
-9.346774631076388
 30
0.0
 10
3.696356879340278
 20
-9.31936306423611
 30
0.0
 10
4.134799533420138
 20
-9.250298394097221
 30
0.0
 10
4.574381510416666
 20
-9.192803276909721
 30
0.0
 10
5.018927680121528
 20
-9.1812744140625
 30
0.0
 10
5.1610107421875
 20
-9.177503797743055
 30
0.0
 10
5.303181966145833
 20
-9.171671549479166
 30
0.0
 10
5.445081922743055
 20
-9.162353515625
 30
0.0
 10
5.485765245225694
 20
-9.159762912326388
 30
0.0
 10
5.527960883246528
 20
-9.151380750868055
 30
0.0
 10
5.564704047309028
 20
-9.127183702256945
 30
0.0
 10
5.610249837239583
 20
-9.097113715277777
 30
0.0
 10
5.641065809461805
 20
-9.058485243055555
 30
0.0
 10
5.634928385416666
 20
-9.002251519097221
 30
0.0
 10
5.629163953993055
 20
-8.949625651041666
 30
0.0
 10
5.591213650173611
 20
-8.924275716145832
 30
0.0
 10
5.542880588107638
 20
-8.911363389756945
 30
0.0
 10
5.498012966579861
 20
-8.899359809027777
 30
0.0
 10
5.453484429253472
 20
-8.886176215277777
 30
0.0
 10
5.408759223090278
 20
-8.873453776041666
 30
0.0
 10
5.011474609375
 20
-8.77365451388889
 30
0.0
 10
4.60748291015625
 20
-8.725626627604166
 30
0.0
 10
4.198377821180555
 20
-8.722615559895832
 30
0.0
  0
SPLINE
  5
79
330
74
100
AcDbEntity
  8
LAYER_1
 62
     7
100
AcDbSpline
210
0.0
220
0.0
230
1.0
 70
    11
 71
     3
 72
    47
 73
    43
 74
     0
 42
0.0000000001
 43
0.0000000001
 40
0.0
 40
0.0
 40
0.0
 40
0.0
 40
1.0
 40
1.0
 40
1.0
 40
2.0
 40
2.0
 40
2.0
 40
3.0
 40
3.0
 40
3.0
 40
4.0
 40
4.0
 40
4.0
 40
5.0
 40
5.0
 40
5.0
 40
6.0
 40
6.0
 40
6.0
 40
7.0
 40
7.0
 40
7.0
 40
8.0
 40
8.0
 40
8.0
 40
9.0
 40
9.0
 40
9.0
 40
10.0
 40
10.0
 40
10.0
 40
11.0
 40
11.0
 40
11.0
 40
12.0
 40
12.0
 40
12.0
 40
13.0
 40
13.0
 40
13.0
 40
14.0
 40
14.0
 40
14.0
 40
14.0
 10
5.542880588107638
 20
-8.911363389756945
 30
0.0
 10
5.591213650173611
 20
-8.924275716145832
 30
0.0
 10
5.629163953993055
 20
-8.949625651041666
 30
0.0
 10
5.634928385416666
 20
-9.002251519097221
 30
0.0
 10
5.641065809461805
 20
-9.058485243055555
 30
0.0
 10
5.610249837239583
 20
-9.097113715277777
 30
0.0
 10
5.564704047309028
 20
-9.127183702256945
 30
0.0
 10
5.527960883246528
 20
-9.151380750868055
 30
0.0
 10
5.485765245225694
 20
-9.159762912326388
 30
0.0
 10
5.445081922743055
 20
-9.162353515625
 30
0.0
 10
5.303181966145833
 20
-9.171671549479166
 30
0.0
 10
5.1610107421875
 20
-9.177503797743055
 30
0.0
 10
5.018927680121528
 20
-9.1812744140625
 30
0.0
 10
4.574381510416666
 20
-9.192803276909721
 30
0.0
 10
4.134799533420138
 20
-9.250298394097221
 30
0.0
 10
3.696356879340278
 20
-9.31936306423611
 30
0.0
 10
3.522318522135417
 20
-9.346774631076388
 30
0.0
 10
3.348551432291667
 20
-9.376017252604166
 30
0.0
 10
3.173963758680555
 20
-9.398939344618055
 30
0.0
 10
3.053385416666667
 20
-9.414740668402777
 30
0.0
 10
2.992987738715278
 20
-9.372395833333332
 30
0.0
 10
3.003228081597222
 20
-9.279106987847221
 30
0.0
 10
3.031751844618055
 20
-9.017550998263888
 30
0.0
 10
3.064649793836805
 20
-8.756429036458332
 30
0.0
 10
3.100233289930555
 20
-8.495808919270832
 30
0.0
 10
3.1065673828125
 20
-8.449625651041666
 30
0.0
 10
3.106309678819444
 20
-8.389539930555555
 30
0.0
 10
3.17022705078125
 20
-8.37277560763889
 30
0.0
 10
3.2332763671875
 20
-8.356119791666666
 30
0.0
 10
3.259243435329861
 20
-8.407430013020832
 30
0.0
 10
3.2911376953125
 20
-8.44375271267361
 30
0.0
 10
3.430046929253472
 20
-8.601847330729166
 30
0.0
 10
3.598042805989583
 20
-8.698350694444445
 30
0.0
 10
3.812825520833333
 20
-8.713433159722221
 30
0.0
 10
3.941541883680555
 20
-8.722479926215277
 30
0.0
 10
4.069736056857638
 20
-8.721598307291666
 30
0.0
 10
4.198377821180555
 20
-8.722615559895832
 30
0.0
 10
4.60748291015625
 20
-8.725626627604166
 30
0.0
 10
5.011474609375
 20
-8.77365451388889
 30
0.0
 10
5.408759223090278
 20
-8.873453776041666
 30
0.0
 10
5.453484429253472
 20
-8.886176215277777
 30
0.0
 10
5.498012966579861
 20
-8.899359809027777
 30
0.0
 10
5.542880588107638
 20
-8.911363389756945
 30
0.0
  0
ENDBLK
  5
77
330
74
100
AcDbEntity
  8
0
100
AcDbBlockEnd
  0
BLOCK
  5
80
330
7E
100
AcDbEntity
  8
0
100
AcDbBlockBegin
  2
BLOCK_11
 70
     0
 71
     0
 10
0.0
 20
0.0
 30
0.0
  3
BLOCK_11
  1

  0
SPLINE
  5
82
330
7E
100
AcDbEntity
  8
LAYER_1
 62
     7
100
AcDbSpline
210
0.0
220
0.0
230
1.0
 70
    11
 71
     3
 72
   233
 73
   229
 74
     0
 42
0.0000000001
 43
0.0000000001
 40
0.0
 40
0.0
 40
0.0
 40
0.0
 40
1.0
 40
1.0
 40
1.0
 40
2.0
 40
2.0
 40
2.0
 40
3.0
 40
3.0
 40
3.0
 40
4.0
 40
4.0
 40
4.0
 40
5.0
 40
5.0
 40
5.0
 40
6.0
 40
6.0
 40
6.0
 40
7.0
 40
7.0
 40
7.0
 40
8.0
 40
8.0
 40
8.0
 40
9.0
 40
9.0
 40
9.0
 40
10.0
 40
10.0
 40
10.0
 40
11.0
 40
11.0
 40
11.0
 40
12.0
 40
12.0
 40
12.0
 40
13.0
 40
13.0
 40
13.0
 40
14.0
 40
14.0
 40
14.0
 40
15.0
 40
15.0
 40
15.0
 40
16.0
 40
16.0
 40
16.0
 40
17.0
 40
17.0
 40
17.0
 40
18.0
 40
18.0
 40
18.0
 40
19.0
 40
19.0
 40
19.0
 40
20.0
 40
20.0
 40
20.0
 40
21.0
 40
21.0
 40
21.0
 40
22.0
 40
22.0
 40
22.0
 40
23.0
 40
23.0
 40
23.0
 40
24.0
 40
24.0
 40
24.0
 40
25.0
 40
25.0
 40
25.0
 40
26.0
 40
26.0
 40
26.0
 40
27.0
 40
27.0
 40
27.0
 40
28.0
 40
28.0
 40
28.0
 40
29.0
 40
29.0
 40
29.0
 40
30.0
 40
30.0
 40
30.0
 40
31.0
 40
31.0
 40
31.0
 40
32.0
 40
32.0
 40
32.0
 40
33.0
 40
33.0
 40
33.0
 40
34.0
 40
34.0
 40
34.0
 40
35.0
 40
35.0
 40
35.0
 40
36.0
 40
36.0
 40
36.0
 40
37.0
 40
37.0
 40
37.0
 40
38.0
 40
38.0
 40
38.0
 40
39.0
 40
39.0
 40
39.0
 40
40.0
 40
40.0
 40
40.0
 40
41.0
 40
41.0
 40
41.0
 40
42.0
 40
42.0
 40
42.0
 40
43.0
 40
43.0
 40
43.0
 40
44.0
 40
44.0
 40
44.0
 40
45.0
 40
45.0
 40
45.0
 40
46.0
 40
46.0
 40
46.0
 40
47.0
 40
47.0
 40
47.0
 40
48.0
 40
48.0
 40
48.0
 40
49.0
 40
49.0
 40
49.0
 40
50.0
 40
50.0
 40
50.0
 40
51.0
 40
51.0
 40
51.0
 40
52.0
 40
52.0
 40
52.0
 40
53.0
 40
53.0
 40
53.0
 40
54.0
 40
54.0
 40
54.0
 40
55.0
 40
55.0
 40
55.0
 40
56.0
 40
56.0
 40
56.0
 40
57.0
 40
57.0
 40
57.0
 40
58.0
 40
58.0
 40
58.0
 40
59.0
 40
59.0
 40
59.0
 40
60.0
 40
60.0
 40
60.0
 40
61.0
 40
61.0
 40
61.0
 40
62.0
 40
62.0
 40
62.0
 40
63.0
 40
63.0
 40
63.0
 40
64.0
 40
64.0
 40
64.0
 40
65.0
 40
65.0
 40
65.0
 40
66.0
 40
66.0
 40
66.0
 40
67.0
 40
67.0
 40
67.0
 40
68.0
 40
68.0
 40
68.0
 40
69.0
 40
69.0
 40
69.0
 40
70.0
 40
70.0
 40
70.0
 40
71.0
 40
71.0
 40
71.0
 40
72.0
 40
72.0
 40
72.0
 40
73.0
 40
73.0
 40
73.0
 40
74.0
 40
74.0
 40
74.0
 40
75.0
 40
75.0
 40
75.0
 40
76.0
 40
76.0
 40
76.0
 40
76.0
 10
8.150282118055555
 20
-10.04755316840278
 30
0.0
 10
8.161919487847221
 20
-10.06715223524306
 30
0.0
 10
8.173502604166666
 20
-10.08680555555556
 30
0.0
 10
8.18511962890625
 20
-10.10641818576389
 30
0.0
 10
8.189229329427082
 20
-10.1134033203125
 30
0.0
 10
8.193589952256945
 20
-10.1202392578125
 30
0.0
 10
8.197285970052082
 20
-10.12742784288194
 30
0.0
 10
8.200873480902777
 20
-10.13441297743056
 30
0.0
 10
8.206414116753471
 20
-10.14191351996528
 30
0.0
 10
8.206013997395832
 20
-10.14892578125
 30
0.0
 10
8.205742730034721
 20
-10.15409342447917
 30
0.0
 10
8.19808620876736
 20
-10.16183810763889
 30
0.0
 10
8.192389594184027
 20
-10.16328938802083
 30
0.0
 10
8.16891140407986
 20
-10.16929796006944
 30
0.0
 10
8.145148383246527
 20
-10.17522515190972
 30
0.0
 10
8.121134440104166
 20
-10.17772081163194
 30
0.0
 10
8.05233425564236
 20
-10.18480088975694
 30
0.0
 10
3.638231065538194
 20
-10.61333550347222
 30
0.0
 10
3.587741427951389
 20
-10.62080891927083
 30
0.0
 10
3.580247667100694
 20
-10.62190755208333
 30
0.0
 10
3.560675726996528
 20
-10.62567816840278
 30
0.0
 10
3.558736165364583
 20
-10.62407769097222
 30
0.0
 10
3.537204318576389
 20
-10.60651312934028
 30
0.0
 10
3.515645345052083
 20
-10.58648003472222
 30
0.0
 10
3.487596299913194
 20
-10.56563313802083
 30
0.0
 10
3.467902289496528
 20
-10.55099826388889
 30
0.0
 10
3.425957573784722
 20
-10.5218505859375
 30
0.0
 10
3.395460340711805
 20
-10.50689019097222
 30
0.0
 10
3.389912923177083
 20
-10.50263129340278
 30
0.0
 10
3.328572591145833
 20
-10.47334798177083
 30
0.0
 10
3.326178656684028
 20
-10.47230360243056
 30
0.0
 10
3.310004340277778
 20
-10.46541341145833
 30
0.0
 10
3.271891276041667
 20
-10.45235188802083
 30
0.0
 10
3.269151475694444
 20
-10.45205349392361
 30
0.0
 10
3.263665093315972
 20
-10.45148383246528
 30
0.0
 10
3.073655870225694
 20
-10.40428331163194
 30
0.0
 10
3.065388997395833
 20
-10.40241156684028
 30
0.0
 10
3.041388617621528
 20
-10.39689127604167
 30
0.0
 10
2.884121365017361
 20
-10.37387424045139
 30
0.0
 10
2.876600477430555
 20
-10.37306043836806
 30
0.0
 10
2.856845431857639
 20
-10.37090386284722
 30
0.0
 10
2.836961534288194
 20
-10.37006293402778
 30
0.0
 10
2.817179361979167
 20
-10.36832682291667
 30
0.0
 10
2.804612901475694
 20
-10.36724175347222
 30
0.0
 10
2.792161729600694
 20
-10.36481391059028
 30
0.0
 10
2.779568142361111
 20
-10.3642578125
 30
0.0
 10
2.761542426215278
 20
-10.36347113715278
 30
0.0
 10
2.683912489149305
 20
-10.36093478732639
 30
0.0
 10
2.663777669270833
 20
-10.36408148871528
 30
0.0
 10
2.599873860677083
 20
-10.37409125434028
 30
0.0
 10
2.536159939236111
 20
-10.38540310329861
 30
0.0
 10
2.472690158420139
 20
-10.39780002170139
 30
0.0
 10
2.462816026475694
 20
-10.39971245659722
 30
0.0
 10
2.288642035590278
 20
-10.451904296875
 30
0.0
 10
2.275912814670139
 20
-10.45639377170139
 30
0.0
 10
2.270880805121528
 20
-10.45818413628472
 30
0.0
 10
2.265231662326389
 20
-10.45903862847222
 30
0.0
 10
2.260965983072917
 20
-10.46188693576389
 30
0.0
 10
2.254909939236111
 20
-10.46592881944444
 30
0.0
 10
2.157877604166667
 20
-10.51018608940972
 30
0.0
 10
2.105977376302083
 20
-10.54250759548611
 30
0.0
 10
2.096794976128472
 20
-10.54824490017361
 30
0.0
 10
2.043016221788194
 20
-10.58620876736111
 30
0.0
 10
2.029920789930555
 20
-10.59943305121528
 30
0.0
 10
2.021775987413194
 20
-10.60765245225694
 30
0.0
 10
1.916476779513889
 20
-10.68443467881944
 30
0.0
 10
1.909111870659722
 20
-10.69146050347222
 30
0.0
 10
1.893561469184028
 20
-10.70632595486111
 30
0.0
 10
1.879014756944444
 20
-10.72218153211806
 30
0.0
 10
1.864013671875
 20
-10.73763020833333
 30
0.0
 10
1.858384874131944
 20
-10.74229600694444
 30
0.0
 10
1.853346082899305
 20
-10.74690755208333
 30
0.0
 10
1.848470052083333
 20
-10.751708984375
 30
0.0
 10
1.837429470486111
 20
-10.76254611545139
 30
0.0
 10
1.802069769965278
 20
-10.77585177951389
 30
0.0
 10
1.795966254340278
 20
-10.77646213107639
 30
0.0
 10
1.742282443576389
 20
-10.78196885850694
 30
0.0
 10
1.688605414496528
 20
-10.78765190972222
 30
0.0
 10
1.635030110677083
 20
-10.79423014322917
 30
0.0
 10
1.605936686197917
 20
-10.79778374565972
 30
0.0
 10
1.576924641927083
 20
-10.8023681640625
 30
0.0
 10
1.548136393229167
 20
-10.807861328125
 30
0.0
 10
1.507486979166667
 20
-10.81560601128472
 30
0.0
 10
1.467095269097222
 20
-10.82499186197917
 30
0.0
 10
1.426466200086806
 20
-10.83298068576389
 30
0.0
 10
1.397983127170139
 20
-10.838623046875
 30
0.0
 10
1.368950737847222
 20
-10.84186469184028
 30
0.0
 10
1.340684678819444
 20
-10.84855143229167
 30
0.0
 10
1.319993760850694
 20
-10.85343424479167
 30
0.0
 10
1.300394694010417
 20
-10.86283365885417
 30
0.0
 10
1.27996826171875
 20
-10.86912706163194
 30
0.0
 10
1.247355143229167
 20
-10.87917751736111
 30
0.0
 10
1.170701768663194
 20
-10.89990234375
 30
0.0
 10
1.165764702690972
 20
-10.90219455295139
 30
0.0
 10
1.133538140190972
 20
-10.91718207465278
 30
0.0
 10
0.9927503797743055
 20
-10.96987575954861
 30
0.0
 10
0.9823133680555555
 20
-10.97979058159722
 30
0.0
 10
0.96820068359375
 20
-10.99321831597222
 30
0.0
 10
0.9516940646701388
 20
-11.004150390625
 30
0.0
 10
0.9363199869791666
 20
-11.01631673177083
 30
0.0
 10
0.9308810763888888
 20
-11.02064344618056
 30
0.0
 10
0.9257676866319444
 20
-11.02540418836806
 30
0.0
 10
0.9205050998263888
 20
-11.02997504340278
 30
0.0
 10
0.9120958116319444
 20
-11.03506130642361
 30
0.0
 10
0.9049275716145833
 20
-11.04206000434028
 30
0.0
 10
0.8964301215277777
 20
-11.0465087890625
 30
0.0
 10
0.88494873046875
 20
-11.05250379774306
 30
0.0
 10
0.87646484375
 20
-11.06133355034722
 30
0.0
 10
0.8668958875868055
 20
-11.069580078125
 30
0.0
 10
0.8452690972222222
 20
-11.08822970920139
 30
0.0
 10
0.8210923936631944
 20
-11.10394965277778
 30
0.0
 10
0.7984822591145833
 20
-11.12150065104167
 30
0.0
 10
0.7868516710069444
 20
-11.1304931640625
 30
0.0
 10
0.776611328125
 20
-11.14126247829861
 30
0.0
 10
0.76513671875
 20
-11.15045844184028
 30
0.0
 10
0.753173828125
 20
-11.16008843315972
 30
0.0
 10
0.7404649522569444
 20
-11.16879611545139
 30
0.0
 10
0.7281087239583333
 20
-11.17793782552083
 30
0.0
 10
0.7277357313368055
 20
-11.17822265625
 30
0.0
 10
0.6717868381076388
 20
-11.23739963107639
 30
0.0
 10
0.6660902235243055
 20
-11.24334038628472
 30
0.0
 10
0.638427734375
 20
-11.27220323350694
 30
0.0
 10
0.5522867838541666
 20
-11.36813693576389
 30
0.0
 10
0.5434977213541666
 20
-11.37913682725694
 30
0.0
 10
0.5399576822916666
 20
-11.38351779513889
 30
0.0
 10
0.5363498263888888
 20
-11.38783094618056
 30
0.0
 10
0.5340983072916666
 20
-11.39055718315972
 30
0.0
 10
0.5291002061631944
 20
-11.39769151475694
 30
0.0
 10
0.5260213216145833
 20
-11.40226236979167
 30
0.0
 10
0.5227796766493056
 20
-11.40668402777778
 30
0.0
 10
0.5209147135416666
 20
-11.40920681423611
 30
0.0
 10
0.5187445746527778
 20
-11.41153971354167
 30
0.0
 10
0.5166829427083333
 20
-11.41392686631944
 30
0.0
 10
0.5069647894965278
 20
-11.42514377170139
 30
0.0
 10
0.4968397352430555
 20
-11.43600802951389
 30
0.0
 10
0.4876641167534722
 20
-11.4476318359375
 30
0.0
 10
0.4742024739583333
 20
-11.46469455295139
 30
0.0
 10
0.4614393446180555
 20
-11.48235405815972
 30
0.0
 10
0.4482828776041666
 20
-11.49966091579861
 30
0.0
 10
0.446044921875
 20
-11.50257703993056
 30
0.0
 10
0.4427286783854166
 20
-11.50473361545139
 30
0.0
 10
0.4407823350694444
 20
-11.5078125
 30
0.0
 10
0.4243231879340277
 20
-11.53361002604167
 30
0.0
 10
0.4096883138020833
 20
-11.56073676215278
 30
0.0
 10
0.3913167317708333
 20
-11.58509657118056
 30
0.0
 10
0.3716295030381944
 20
-11.61113823784722
 30
0.0
 10
0.3477376302083333
 20
-11.63401963975694
 30
0.0
 10
0.3272772894965277
 20
-11.65957302517361
 30
0.0
 10
0.2579006618923611
 20
-11.71653917100694
 30
0.0
 10
0.2029283311631944
 20
-11.71466742621528
 30
0.0
 10
0.1909925672743056
 20
-11.71586100260417
 30
0.0
 10
0.1830105251736111
 20
-11.71663411458333
 30
0.0
 10
0.1743299696180556
 20
-11.71565755208333
 30
0.0
 10
0.1666802300347222
 20
-11.71324327256944
 30
0.0
 10
0.15826416015625
 20
-11.71058485243056
 30
0.0
 10
0.0797593858506944
 20
-11.68937174479167
 30
0.0
 10
0.1167195638020833
 20
-11.61060926649306
 30
0.0
 10
0.1201036241319444
 20
-11.60498046875
 30
0.0
 10
1.206875271267361
 20
-9.638007269965277
 30
0.0
 10
1.246554904513889
 20
-9.561319986979166
 30
0.0
 10
1.264655219184028
 20
-9.547905815972221
 30
0.0
 10
1.261705186631944
 20
-9.547661675347221
 30
0.0
 10
1.287061903211806
 20
-9.537027994791666
 30
0.0
 10
1.32525634765625
 20
-9.52102322048611
 30
0.0
 10
1.3692626953125
 20
-9.516791449652777
 30
0.0
 10
1.409010145399306
 20
-9.541191948784721
 30
0.0
 10
1.420023600260417
 20
-9.547919379340277
 30
0.0
 10
1.431477864583333
 20
-9.553927951388888
 30
0.0
 10
1.442376030815972
 20
-9.560804578993055
 30
0.0
 10
1.462938096788194
 20
-9.573811848958332
 30
0.0
 10
1.483547634548611
 20
-9.58681911892361
 30
0.0
 10
1.503628200954861
 20
-9.6005859375
 30
0.0
 10
1.516269259982639
 20
-9.609320746527777
 30
0.0
 10
1.675896538628472
 20
-9.705498589409721
 30
0.0
 10
1.755228678385417
 20
-9.733696831597221
 30
0.0
 10
1.782118055555555
 20
-9.743259006076388
 30
0.0
 10
1.857354058159722
 20
-9.755425347222221
 30
0.0
 10
1.866326226128472
 20
-9.75613064236111
 30
0.0
 10
1.886223687065972
 20
-9.757703993055555
 30
0.0
 10
1.906324598524305
 20
-9.757161458333332
 30
0.0
 10
1.926310221354167
 20
-9.756781684027777
 30
0.0
 10
1.996568467881944
 20
-9.755479600694445
 30
0.0
 10
2.066942003038194
 20
-9.755832248263888
 30
0.0
 10
2.137037489149305
 20
-9.751885308159721
 30
0.0
 10
2.227728949652778
 20
-9.746771918402777
 30
0.0
 10
2.318264431423611
 20
-9.7388916015625
 30
0.0
 10
2.408772786458333
 20
-9.730780707465277
 30
0.0
 10
2.496222601996528
 20
-9.722941080729166
 30
0.0
 10
2.931796603732639
 20
-9.67739529079861
 30
0.0
 10
3.062228732638889
 20
-9.663818359375
 30
0.0
 10
3.091403537326389
 20
-9.66079372829861
 30
0.0
 10
8.043253580729166
 20
-9.16567654079861
 30
0.0
 10
8.071431477864582
 20
-9.166110568576388
 30
0.0
 10
8.0804443359375
 20
-9.166259765625
 30
0.0
 10
8.09646267361111
 20
-9.171671549479166
 30
0.0
 10
8.097052680121527
 20
-9.176255967881945
 30
0.0
 10
8.100396050347221
 20
-9.20156521267361
 30
0.0
 10
8.100748697916666
 20
-9.227376302083332
 30
0.0
 10
8.100409613715277
 20
-9.252970377604166
 30
0.0
 10
8.100206163194445
 20
-9.26736111111111
 30
0.0
 10
8.096937391493055
 20
-9.28173828125
 30
0.0
 10
8.094740125868055
 20
-9.296101888020832
 30
0.0
 10
8.093858506944445
 20
-9.301893446180555
 30
0.0
 10
8.093031141493055
 20
-9.307874891493055
 30
0.0
 10
8.0908203125
 20
-9.313205295138888
 30
0.0
 10
8.087076822916666
 20
-9.322116427951388
 30
0.0
 10
8.082234700520832
 20
-9.330579969618055
 30
0.0
 10
8.077880859375
 20
-9.339246961805555
 30
0.0
 10
8.071038140190971
 20
-9.352959526909721
 30
0.0
 10
8.00259060329861
 20
-9.468858506944445
 30
0.0
 10
7.996900770399305
 20
-9.501844618055555
 30
0.0
 10
7.988945855034721
 20
-9.535074869791666
 30
0.0
 10
7.990044487847221
 20
-9.566541883680555
 30
0.0
 10
7.988057454427083
 20
-9.598727756076388
 30
0.0
 10
7.98760986328125
 20
-9.624972873263888
 30
0.0
 10
7.985120985243055
 20
-9.64504665798611
 30
0.0
 10
7.989596896701388
 20
-9.67715115017361
 30
0.0
 10
7.993069118923611
 20
-9.701904296875
 30
0.0
 10
7.997972276475694
 20
-9.717814127604166
 30
0.0
 10
8.005866156684027
 20
-9.75439453125
 30
0.0
 10
8.01418728298611
 20
-9.793768988715277
 30
0.0
 10
8.00997585720486
 20
-9.783460828993055
 30
0.0
 10
8.021382649739582
 20
-9.826158311631945
 30
0.0
 10
8.03903537326389
 20
-9.882798936631945
 30
0.0
 10
8.03170437282986
 20
-9.856214735243055
 30
0.0
 10
8.055135091145832
 20
-9.906467013888888
 30
0.0
 10
8.085489908854166
 20
-9.9454345703125
 30
0.0
 10
8.145392523871527
 20
-10.03936089409722
 30
0.0
 10
8.150282118055555
 20
-10.04755316840278
 30
0.0
  0
SPLINE
  5
83
330
7E
100
AcDbEntity
  8
LAYER_1
 62
   252
100
AcDbSpline
210
0.0
220
0.0
230
1.0
 70
    11
 71
     3
 72
    17
 73
    13
 74
     0
 42
0.0000000001
 43
0.0000000001
 40
0.0
 40
0.0
 40
0.0
 40
0.0
 40
1.0
 40
1.0
 40
1.0
 40
2.0
 40
2.0
 40
2.0
 40
3.0
 40
3.0
 40
3.0
 40
4.0
 40
4.0
 40
4.0
 40
4.0
 10
7.447713216145833
 20
-9.648383246527777
 30
0.0
 10
7.384996202256944
 20
-9.655368381076388
 30
0.0
 10
7.339803059895833
 20
-9.711398654513888
 30
0.0
 10
7.346727159288194
 20
-9.773518880208332
 30
0.0
 10
7.353624131944444
 20
-9.835652669270832
 30
0.0
 10
7.410074869791666
 20
-9.880357530381945
 30
0.0
 10
7.472785101996528
 20
-9.873385959201388
 30
0.0
 10
7.535495334201388
 20
-9.866387261284721
 30
0.0
 10
7.580729166666666
 20
-9.810356987847221
 30
0.0
 10
7.573798285590278
 20
-9.748236762152777
 30
0.0
 10
7.566867404513888
 20
-9.686102973090277
 30
0.0
 10
7.510423448350694
 20
-9.641398111979166
 30
0.0
 10
7.447713216145833
 20
-9.648383246527777
 30
0.0
  0
SPLINE
  5
84
330
7E
100
AcDbEntity
  8
LAYER_1
 62
   252
100
AcDbSpline
210
0.0
220
0.0
230
1.0
 70
    11
 71
     3
 72
    17
 73
    13
 74
     0
 42
0.0000000001
 43
0.0000000001
 40
0.0
 40
0.0
 40
0.0
 40
0.0
 40
1.0
 40
1.0
 40
1.0
 40
2.0
 40
2.0
 40
2.0
 40
3.0
 40
3.0
 40
3.0
 40
4.0
 40
4.0
 40
4.0
 40
4.0
 10
5.967780219184028
 20
-9.773003472222221
 30
0.0
 10
5.905069986979166
 20
-9.779988606770832
 30
0.0
 10
5.859842936197916
 20
-9.836018880208332
 30
0.0
 10
5.866767035590278
 20
-9.898139105902777
 30
0.0
 10
5.873697916666666
 20
-9.960272894965277
 30
0.0
 10
5.93011474609375
 20
-10.00496419270833
 30
0.0
 10
5.992824978298611
 20
-9.997992621527777
 30
0.0
 10
6.0555419921875
 20
-9.99099392361111
 30
0.0
 10
6.100796169704861
 20
-9.934977213541666
 30
0.0
 10
6.093865288628472
 20
-9.872843424479166
 30
0.0
 10
6.086934407552083
 20
-9.810709635416666
 30
0.0
 10
6.030463324652778
 20
-9.76601833767361
 30
0.0
 10
5.967780219184028
 20
-9.773003472222221
 30
0.0
  0
SPLINE
  5
85
330
7E
100
AcDbEntity
  8
LAYER_1
 62
   252
100
AcDbSpline
210
0.0
220
0.0
230
1.0
 70
    11
 71
     3
 72
    17
 73
    13
 74
     0
 42
0.0000000001
 43
0.0000000001
 40
0.0
 40
0.0
 40
0.0
 40
0.0
 40
1.0
 40
1.0
 40
1.0
 40
2.0
 40
2.0
 40
2.0
 40
3.0
 40
3.0
 40
3.0
 40
4.0
 40
4.0
 40
4.0
 40
4.0
 10
4.455925835503472
 20
-9.934421115451388
 30
0.0
 10
4.393242730034722
 20
-9.94140625
 30
0.0
 10
4.348008897569445
 20
-9.997422960069445
 30
0.0
 10
4.354939778645833
 20
-10.05955674913194
 30
0.0
 10
4.361870659722222
 20
-10.12169053819444
 30
0.0
 10
4.418307834201388
 20
-10.16636827256944
 30
0.0
 10
4.480970594618055
 20
-10.15939670138889
 30
0.0
 10
4.543680826822916
 20
-10.15239800347222
 30
0.0
 10
4.588907877604166
 20
-10.09638129340278
 30
0.0
 10
4.582010904947916
 20
-10.03426106770833
 30
0.0
 10
4.575080023871528
 20
-9.972113715277777
 30
0.0
 10
4.518636067708333
 20
-9.927435980902777
 30
0.0
 10
4.455925835503472
 20
-9.934421115451388
 30
0.0
  0
SPLINE
  5
86
330
7E
100
AcDbEntity
  8
LAYER_1
 62
   252
100
AcDbSpline
210
0.0
220
0.0
230
1.0
 70
    11
 71
     3
 72
    17
 73
    13
 74
     0
 42
0.0000000001
 43
0.0000000001
 40
0.0
 40
0.0
 40
0.0
 40
0.0
 40
1.0
 40
1.0
 40
1.0
 40
2.0
 40
2.0
 40
2.0
 40
3.0
 40
3.0
 40
3.0
 40
4.0
 40
4.0
 40
4.0
 40
4.0
 10
2.980502658420139
 20
-10.07965766059028
 30
0.0
 10
2.91778564453125
 20
-10.08664279513889
 30
0.0
 10
2.872585720486111
 20
-10.14265950520833
 30
0.0
 10
2.8795166015625
 20
-10.20479329427083
 30
0.0
 10
2.886420355902778
 20
-10.26692708333333
 30
0.0
 10
2.942864312065972
 20
-10.31163194444444
 30
0.0
 10
3.005560980902778
 20
-10.30464680989583
 30
0.0
 10
3.068277994791667
 20
-10.29767523871528
 30
0.0
 10
3.113511827256944
 20
-10.24161783854167
 30
0.0
 10
3.106587727864583
 20
-10.17951117621528
 30
0.0
 10
3.099656846788194
 20
-10.11737738715278
 30
0.0
 10
3.043212890625
 20
-10.07267252604167
 30
0.0
 10
2.980502658420139
 20
-10.07965766059028
 30
0.0
  0
SPLINE
  5
87
330
7E
100
AcDbEntity
  8
LAYER_1
 62
   252
100
AcDbSpline
210
0.0
220
0.0
230
1.0
 70
    11
 71
     3
 72
    17
 73
    13
 74
     0
 42
0.0000000001
 43
0.0000000001
 40
0.0
 40
0.0
 40
0.0
 40
0.0
 40
1.0
 40
1.0
 40
1.0
 40
2.0
 40
2.0
 40
2.0
 40
3.0
 40
3.0
 40
3.0
 40
4.0
 40
4.0
 40
4.0
 40
4.0
 10
1.471320258246528
 20
-10.20525444878472
 30
0.0
 10
1.408623589409722
 20
-10.21223958333333
 30
0.0
 10
1.363369411892361
 20
-10.26826985677083
 30
0.0
 10
1.370293511284722
 20
-10.33039008246528
 30
0.0
 10
1.377224392361111
 20
-10.39252387152778
 30
0.0
 10
1.433668348524306
 20
-10.43721516927083
 30
0.0
 10
1.496385362413194
 20
-10.43024359809028
 30
0.0
 10
1.559068467881944
 20
-10.42324490017361
 30
0.0
 10
1.604295518663194
 20
-10.36722819010417
 30
0.0
 10
1.597384982638889
 20
-10.30510796440972
 30
0.0
 10
1.590467664930555
 20
-10.24296061197917
 30
0.0
 10
1.534010145399306
 20
-10.19828287760417
 30
0.0
 10
1.471320258246528
 20
-10.20525444878472
 30
0.0
  0
ENDBLK
  5
81
330
7E
100
AcDbEntity
  8
0
100
AcDbBlockEnd
  0
BLOCK
  5
8A
330
88
100
AcDbEntity
  8
0
100
AcDbBlockBegin
  2
BLOCK_12
 70
     0
 71
     0
 10
0.0
 20
0.0
 30
0.0
  3
BLOCK_12
  1

  0
INSERT
  5
8D
330
88
100
AcDbEntity
  8
LAYER_1
100
AcDbBlockReference
  2
BLOCK_13
 10
0.0
 20
0.0
 30
0.0
  0
SPLINE
  5
91
330
88
100
AcDbEntity
  8
LAYER_1
 62
   253
100
AcDbSpline
210
0.0
220
0.0
230
1.0
 70
    11
 71
     3
 72
    29
 73
    25
 74
     0
 42
0.0000000001
 43
0.0000000001
 40
0.0
 40
0.0
 40
0.0
 40
0.0
 40
1.0
 40
1.0
 40
1.0
 40
2.0
 40
2.0
 40
2.0
 40
3.0
 40
3.0
 40
3.0
 40
4.0
 40
4.0
 40
4.0
 40
5.0
 40
5.0
 40
5.0
 40
6.0
 40
6.0
 40
6.0
 40
7.0
 40
7.0
 40
7.0
 40
8.0
 40
8.0
 40
8.0
 40
8.0
 10
8.9080810546875
 20
-7.432942708333333
 30
0.0
 10
8.86783175998264
 20
-7.387830946180555
 30
0.0
 10
8.86600070529514
 20
-7.323784722222221
 30
0.0
 10
8.90395779079861
 20
-7.289984809027778
 30
0.0
 10
8.90395779079861
 20
-7.289984809027778
 30
0.0
 10
9.024875217013888
 20
-7.182264539930555
 30
0.0
 10
9.024875217013888
 20
-7.182264539930555
 30
0.0
 10
9.0628662109375
 20
-7.1484375
 30
0.0
 10
9.126234266493055
 20
-7.157633463541666
 30
0.0
 10
9.166476779513888
 20
-7.202799479166666
 30
0.0
 10
9.166476779513888
 20
-7.202799479166666
 30
0.0
 10
9.166476779513888
 20
-7.202799479166666
 30
0.0
 10
9.166476779513888
 20
-7.202799479166666
 30
0.0
 10
9.206705729166666
 20
-7.247938368055555
 30
0.0
 10
9.208536783854166
 20
-7.311957465277778
 30
0.0
 10
9.170572916666666
 20
-7.345757378472221
 30
0.0
 10
9.170572916666666
 20
-7.345757378472221
 30
0.0
 10
9.049628363715277
 20
-7.453531901041666
 30
0.0
 10
9.049628363715277
 20
-7.453531901041666
 30
0.0
 10
9.011664496527777
 20
-7.487331814236111
 30
0.0
 10
8.948296440972221
 20
-7.478108723958333
 30
0.0
 10
8.9080810546875
 20
-7.432942708333333
 30
0.0
 10
8.9080810546875
 20
-7.432942708333333
 30
0.0
 10
8.9080810546875
 20
-7.432942708333333
 30
0.0
 10
8.9080810546875
 20
-7.432942708333333
 30
0.0
  0
SPLINE
  5
92
330
88
100
AcDbEntity
  8
LAYER_1
 62
   253
100
AcDbSpline
210
0.0
220
0.0
230
1.0
 70
    11
 71
     3
 72
    29
 73
    25
 74
     0
 42
0.0000000001
 43
0.0000000001
 40
0.0
 40
0.0
 40
0.0
 40
0.0
 40
1.0
 40
1.0
 40
1.0
 40
2.0
 40
2.0
 40
2.0
 40
3.0
 40
3.0
 40
3.0
 40
4.0
 40
4.0
 40
4.0
 40
5.0
 40
5.0
 40
5.0
 40
6.0
 40
6.0
 40
6.0
 40
7.0
 40
7.0
 40
7.0
 40
8.0
 40
8.0
 40
8.0
 40
8.0
 10
5.187201605902778
 20
-5.596157497829861
 30
0.0
 10
5.200642903645833
 20
-5.540737575954861
 30
0.0
 10
5.253268771701388
 20
-5.505906846788194
 30
0.0
 10
5.304836697048611
 20
-5.518412272135416
 30
0.0
 10
5.304836697048611
 20
-5.518412272135416
 30
0.0
 10
5.469095865885416
 20
-5.558180067274305
 30
0.0
 10
5.469095865885416
 20
-5.558180067274305
 30
0.0
 10
5.520643446180555
 20
-5.570671929253472
 30
0.0
 10
5.551506890190972
 20
-5.625739203559028
 30
0.0
 10
5.538038465711805
 20
-5.681172688802083
 30
0.0
 10
5.538038465711805
 20
-5.681172688802083
 30
0.0
 10
5.538038465711805
 20
-5.681172688802083
 30
0.0
 10
5.538038465711805
 20
-5.681172688802083
 30
0.0
 10
5.524624294704861
 20
-5.736660427517361
 30
0.0
 10
5.471998426649305
 20
-5.771450466579861
 30
0.0
 10
5.420430501302083
 20
-5.758958604600694
 30
0.0
 10
5.420430501302083
 20
-5.758958604600694
 30
0.0
 10
5.256171332465278
 20
-5.719204372829861
 30
0.0
 10
5.256171332465278
 20
-5.719204372829861
 30
0.0
 10
5.20465087890625
 20
-5.706671820746528
 30
0.0
 10
5.173787434895833
 20
-5.651658799913194
 30
0.0
 10
5.187201605902778
 20
-5.596157497829861
 30
0.0
 10
5.187201605902778
 20
-5.596157497829861
 30
0.0
 10
5.187201605902778
 20
-5.596157497829861
 30
0.0
 10
5.187201605902778
 20
-5.596157497829861
 30
0.0
  0
SPLINE
  5
93
330
88
100
AcDbEntity
  8
LAYER_1
 62
   253
100
AcDbSpline
210
0.0
220
0.0
230
1.0
 70
    11
 71
     3
 72
    29
 73
    25
 74
     0
 42
0.0000000001
 43
0.0000000001
 40
0.0
 40
0.0
 40
0.0
 40
0.0
 40
1.0
 40
1.0
 40
1.0
 40
2.0
 40
2.0
 40
2.0
 40
3.0
 40
3.0
 40
3.0
 40
4.0
 40
4.0
 40
4.0
 40
5.0
 40
5.0
 40
5.0
 40
6.0
 40
6.0
 40
6.0
 40
7.0
 40
7.0
 40
7.0
 40
8.0
 40
8.0
 40
8.0
 40
8.0
 10
3.083123101128472
 20
-7.346327039930555
 30
0.0
 10
3.126458062065972
 20
-7.310438368055555
 30
0.0
 10
3.190212673611111
 20
-7.315809461805555
 30
0.0
 10
3.225450303819444
 20
-7.3583984375
 30
0.0
 10
3.225450303819444
 20
-7.3583984375
 30
0.0
 10
3.3377685546875
 20
-7.494086371527778
 30
0.0
 10
3.3377685546875
 20
-7.494086371527778
 30
0.0
 10
3.373033311631944
 20
-7.536648220486111
 30
0.0
 10
3.366461859809028
 20
-7.600260416666666
 30
0.0
 10
3.323126898871528
 20
-7.636176215277778
 30
0.0
 10
3.323126898871528
 20
-7.636176215277778
 30
0.0
 10
3.323126898871528
 20
-7.636176215277778
 30
0.0
 10
3.323126898871528
 20
-7.636176215277778
 30
0.0
 10
3.279737684461805
 20
-7.672119140625
 30
0.0
 10
3.216037326388889
 20
-7.666666666666666
 30
0.0
 10
3.180772569444444
 20
-7.624077690972221
 30
0.0
 10
3.180772569444444
 20
-7.624077690972221
 30
0.0
 10
3.068400065104167
 20
-7.488416883680555
 30
0.0
 10
3.068400065104167
 20
-7.488416883680555
 30
0.0
 10
3.033162434895833
 20
-7.445827907986111
 30
0.0
 10
3.039699978298611
 20
-7.382269965277778
 30
0.0
 10
3.083123101128472
 20
-7.346327039930555
 30
0.0
 10
3.083123101128472
 20
-7.346327039930555
 30
0.0
 10
3.083123101128472
 20
-7.346327039930555
 30
0.0
 10
3.083123101128472
 20
-7.346327039930555
 30
0.0
  0
ENDBLK
  5
8B
330
88
100
AcDbEntity
  8
0
100
AcDbBlockEnd
  0
BLOCK
  5
8E
330
8C
100
AcDbEntity
  8
0
100
AcDbBlockBegin
  2
BLOCK_13
 70
     0
 71
     0
 10
0.0
 20
0.0
 30
0.0
  3
BLOCK_13
  1

  0
SPLINE
  5
90
330
8C
100
AcDbEntity
  8
LAYER_1
 62
   250
100
AcDbSpline
210
0.0
220
0.0
230
1.0
 70
    11
 71
     3
 72
    44
 73
    40
 74
     0
 42
0.0000000001
 43
0.0000000001
 40
0.0
 40
0.0
 40
0.0
 40
0.0
 40
1.0
 40
1.0
 40
1.0
 40
2.0
 40
2.0
 40
2.0
 40
3.0
 40
3.0
 40
3.0
 40
4.0
 40
4.0
 40
4.0
 40
5.0
 40
5.0
 40
5.0
 40
6.0
 40
6.0
 40
6.0
 40
7.0
 40
7.0
 40
7.0
 40
8.0
 40
8.0
 40
8.0
 40
9.0
 40
9.0
 40
9.0
 40
10.0
 40
10.0
 40
10.0
 40
11.0
 40
11.0
 40
11.0
 40
12.0
 40
12.0
 40
12.0
 40
13.0
 40
13.0
 40
13.0
 40
13.0
 10
7.468804253472221
 20
-5.759989420572916
 30
0.0
 10
7.744873046875
 20
-5.959520128038194
 30
0.0
 10
9.095784505208332
 20
-7.028130425347221
 30
0.0
 10
9.191107855902777
 20
-7.114366319444444
 30
0.0
 10
9.2618408203125
 20
-7.178358289930555
 30
0.0
 10
9.321885850694445
 20
-7.253146701388888
 30
0.0
 10
9.3157958984375
 20
-7.368869357638888
 30
0.0
 10
8.897847493489582
 20
-7.794460720486111
 30
0.0
 10
8.4234619140625
 20
-8.15890842013889
 30
0.0
 10
7.928765190972221
 20
-8.491075303819445
 30
0.0
 10
7.572882758246528
 20
-8.499457465277777
 30
0.0
 10
4.207349989149305
 20
-8.46628146701389
 30
0.0
 10
4.046196831597222
 20
-8.468343098958332
 30
0.0
 10
4.007609049479166
 20
-8.451253255208332
 30
0.0
 10
3.964430067274305
 20
-8.434434678819445
 30
0.0
 10
3.930107964409722
 20
-8.402967664930555
 30
0.0
 10
3.651448567708333
 20
-8.170762803819445
 30
0.0
 10
3.358846028645833
 20
-7.957655164930555
 30
0.0
 10
3.086534288194444
 20
-7.718505859375
 30
0.0
 10
3.046257866753472
 20
-7.682562934027778
 30
0.0
 10
2.960408528645833
 20
-7.623263888888888
 30
0.0
 10
2.958136664496528
 20
-7.596381293402778
 30
0.0
 10
2.968716091579861
 20
-7.321370442708333
 30
0.0
 10
2.968580457899305
 20
-7.192681206597221
 30
0.0
 10
2.973476833767361
 20
-6.833902994791666
 30
0.0
 10
3.132731119791667
 20
-6.668240017361111
 30
0.0
 10
4.401679144965278
 20
-5.507914225260416
 30
0.0
 10
4.534491644965278
 20
-5.370069715711805
 30
0.0
 10
4.609368218315972
 20
-5.292378743489583
 30
0.0
 10
4.699239095052083
 20
-5.264994303385416
 30
0.0
 10
4.814378526475694
 20
-5.282613118489583
 30
0.0
 10
4.886454264322916
 20
-5.293613009982638
 30
0.0
 10
4.940761990017361
 20
-5.302741156684028
 30
0.0
 10
5.001376681857638
 20
-5.320224338107638
 30
0.0
 10
5.120137532552083
 20
-5.354512532552083
 30
0.0
 10
6.485005696614583
 20
-5.59161376953125
 30
0.0
 10
7.04632568359375
 20
-5.684956868489583
 30
0.0
 10
7.189744737413194
 20
-5.708814832899305
 30
0.0
 10
7.332689073350694
 20
-5.735710991753472
 30
0.0
 10
7.468804253472221
 20
-5.759989420572916
 30
0.0
  0
ENDBLK
  5
8F
330
8C
100
AcDbEntity
  8
0
100
AcDbBlockEnd
  0
BLOCK
  5
96
330
94
100
AcDbEntity
  8
0
100
AcDbBlockBegin
  2
BLOCK_14
 70
     0
 71
     0
 10
0.0
 20
0.0
 30
0.0
  3
BLOCK_14
  1

  0
INSERT
  5
99
330
94
100
AcDbEntity
  8
LAYER_1
100
AcDbBlockReference
  2
BLOCK_15
 10
0.0
 20
0.0
 30
0.0
  0
ENDBLK
  5
97
330
94
100
AcDbEntity
  8
0
100
AcDbBlockEnd
  0
BLOCK
  5
9A
330
98
100
AcDbEntity
  8
0
100
AcDbBlockBegin
  2
BLOCK_15
 70
     0
 71
     0
 10
0.0
 20
0.0
 30
0.0
  3
BLOCK_15
  1

  0
SPLINE
  5
9C
330
98
100
AcDbEntity
  8
LAYER_1
 62
   251
100
AcDbSpline
210
0.0
220
0.0
230
1.0
 70
    11
 71
     3
 72
    80
 73
    76
 74
     0
 42
0.0000000001
 43
0.0000000001
 40
0.0
 40
0.0
 40
0.0
 40
0.0
 40
1.0
 40
1.0
 40
1.0
 40
2.0
 40
2.0
 40
2.0
 40
3.0
 40
3.0
 40
3.0
 40
4.0
 40
4.0
 40
4.0
 40
5.0
 40
5.0
 40
5.0
 40
6.0
 40
6.0
 40
6.0
 40
7.0
 40
7.0
 40
7.0
 40
8.0
 40
8.0
 40
8.0
 40
9.0
 40
9.0
 40
9.0
 40
10.0
 40
10.0
 40
10.0
 40
11.0
 40
11.0
 40
11.0
 40
12.0
 40
12.0
 40
12.0
 40
13.0
 40
13.0
 40
13.0
 40
14.0
 40
14.0
 40
14.0
 40
15.0
 40
15.0
 40
15.0
 40
16.0
 40
16.0
 40
16.0
 40
17.0
 40
17.0
 40
17.0
 40
18.0
 40
18.0
 40
18.0
 40
19.0
 40
19.0
 40
19.0
 40
20.0
 40
20.0
 40
20.0
 40
21.0
 40
21.0
 40
21.0
 40
22.0
 40
22.0
 40
22.0
 40
23.0
 40
23.0
 40
23.0
 40
24.0
 40
24.0
 40
24.0
 40
25.0
 40
25.0
 40
25.0
 40
25.0
 10
3.250081380208333
 20
-5.382792154947916
 30
0.0
 10
3.250081380208333
 20
-5.382792154947916
 30
0.0
 10
2.141486273871528
 20
-9.551323784722221
 30
0.0
 10
2.141486273871528
 20
-9.551323784722221
 30
0.0
 10
2.141228569878472
 20
-9.555772569444445
 30
0.0
 10
2.140231662326389
 20
-9.56032986111111
 30
0.0
 10
2.138705783420139
 20
-9.564453125
 30
0.0
 10
2.137763129340278
 20
-9.567030164930555
 30
0.0
 10
2.135565863715278
 20
-9.570285373263888
 30
0.0
 10
2.133212619357639
 20
-9.570936414930555
 30
0.0
 10
2.119113498263889
 20
-9.575168185763888
 30
0.0
 10
2.106194390190972
 20
-9.581759982638888
 30
0.0
 10
2.090833875868055
 20
-9.584065755208332
 30
0.0
 10
2.090833875868055
 20
-9.584065755208332
 30
0.0
 10
0.1828274197048611
 20
-9.054796006944445
 30
0.0
 10
0.1828274197048611
 20
-9.054796006944445
 30
0.0
 10
0.1828138563368056
 20
-9.054633246527777
 30
0.0
 10
0.1817966037326389
 20
-9.054443359375
 30
0.0
 10
0.1812472873263889
 20
-9.05447048611111
 30
0.0
 10
0.16448974609375
 20
-9.055230034722221
 30
0.0
 10
0.1648695203993056
 20
-9.04372829861111
 30
0.0
 10
0.1652018229166667
 20
-9.032172309027777
 30
0.0
 10
0.1656155056423611
 20
-9.01833767361111
 30
0.0
 10
0.1646185980902778
 20
-9.00439453125
 30
0.0
 10
0.1664632161458333
 20
-8.990804036458332
 30
0.0
 10
0.1664632161458333
 20
-8.990804036458332
 30
0.0
 10
0.3154025607638889
 20
-8.458984375
 30
0.0
 10
0.3154025607638889
 20
-8.458984375
 30
0.0
 10
0.3154025607638889
 20
-8.458984375
 30
0.0
 10
0.1296725802951389
 20
-3.61346435546875
 30
0.0
 10
0.1296725802951389
 20
-3.61346435546875
 30
0.0
 10
0.1304728190104167
 20
-3.603956434461805
 30
0.0
 10
0.1314697265625
 20
-3.594468858506944
 30
0.0
 10
0.1323920355902778
 20
-3.584940592447917
 30
0.0
 10
0.1335313585069444
 20
-3.573208279079861
 30
0.0
 10
0.1339586046006944
 20
-3.561347113715278
 30
0.0
 10
0.1360066731770833
 20
-3.549770779079861
 30
0.0
 10
0.13336181640625
 20
-3.437744140625
 30
0.0
 10
0.2335137261284722
 20
-3.453497992621528
 30
0.0
 10
0.2335137261284722
 20
-3.453497992621528
 30
0.0
 10
0.2335137261284722
 20
-3.453497992621528
 30
0.0
 10
1.802910698784722
 20
-3.450446234809028
 30
0.0
 10
1.802910698784722
 20
-3.450446234809028
 30
0.0
 10
1.804606119791667
 20
-3.450534396701389
 30
0.0
 10
1.806728786892361
 20
-3.451321072048611
 30
0.0
 10
1.807874891493055
 20
-3.450575086805555
 30
0.0
 10
1.807874891493055
 20
-3.450575086805555
 30
0.0
 10
2.000935872395833
 20
-3.431098090277778
 30
0.0
 10
1.90814208984375
 20
-3.645460340711805
 30
0.0
 10
1.901075575086805
 20
-3.661736382378472
 30
0.0
 10
1.904893663194444
 20
-3.680413140190972
 30
0.0
 10
1.897074381510417
 20
-3.698018391927083
 30
0.0
 10
1.897074381510417
 20
-3.698018391927083
 30
0.0
 10
1.688259548611111
 20
-4.455132378472222
 30
0.0
 10
1.688259548611111
 20
-4.455132378472222
 30
0.0
 10
1.678914388020833
 20
-4.51129150390625
 30
0.0
 10
1.672024197048611
 20
-4.567843967013888
 30
0.0
 10
1.6641845703125
 20
-4.624220106336805
 30
0.0
 10
1.663479275173611
 20
-4.629231770833333
 30
0.0
 10
1.663153754340278
 20
-4.634297688802083
 30
0.0
 10
1.6624755859375
 20
-4.639309353298611
 30
0.0
 10
1.659288194444444
 20
-4.662502712673611
 30
0.0
 10
1.654873318142361
 20
-4.685648600260416
 30
0.0
 10
1.653205023871528
 20
-4.708977593315972
 30
0.0
 10
1.652255588107639
 20
-4.722513834635416
 30
0.0
 10
1.655354817708333
 20
-4.732869466145833
 30
0.0
 10
1.675557454427083
 20
-4.73626708984375
 30
0.0
 10
1.679375542534722
 20
-4.7369384765625
 30
0.0
 10
1.68341064453125
 20
-4.736958821614583
 30
0.0
 10
1.687065972222222
 20
-4.738186306423611
 30
0.0
 10
1.687065972222222
 20
-4.738186306423611
 30
0.0
 10
3.2108154296875
 20
-5.185133192274305
 30
0.0
 10
3.2108154296875
 20
-5.185133192274305
 30
0.0
 10
3.311360677083333
 20
-5.211378309461805
 30
0.0
 10
3.272976345486111
 20
-5.288655598958333
 30
0.0
 10
3.250081380208333
 20
-5.382792154947916
 30
0.0
  0
SPLINE
  5
9D
330
98
100
AcDbEntity
  8
LAYER_1
 62
   251
100
AcDbSpline
210
0.0
220
0.0
230
1.0
 70
    11
 71
     3
 72
    29
 73
    25
 74
     0
 42
0.0000000001
 43
0.0000000001
 40
0.0
 40
0.0
 40
0.0
 40
0.0
 40
1.0
 40
1.0
 40
1.0
 40
2.0
 40
2.0
 40
2.0
 40
3.0
 40
3.0
 40
3.0
 40
4.0
 40
4.0
 40
4.0
 40
5.0
 40
5.0
 40
5.0
 40
6.0
 40
6.0
 40
6.0
 40
7.0
 40
7.0
 40
7.0
 40
8.0
 40
8.0
 40
8.0
 40
8.0
 10
0.7477620442708333
 20
-7.436252170138888
 30
0.0
 10
0.7581244574652778
 20
-7.384331597222221
 30
0.0
 10
0.8086073133680555
 20
-7.350640190972221
 30
0.0
 10
0.8605211046006944
 20
-7.361029730902778
 30
0.0
 10
0.8605211046006944
 20
-7.361029730902778
 30
0.0
 10
0.8605211046006944
 20
-7.361029730902778
 30
0.0
 10
0.8605211046006944
 20
-7.361029730902778
 30
0.0
 10
0.9124348958333333
 20
-7.371392144097221
 30
0.0
 10
0.9460991753472222
 20
-7.421902126736111
 30
0.0
 10
0.9357028537326388
 20
-7.473795572916666
 30
0.0
 10
0.9357028537326388
 20
-7.473795572916666
 30
0.0
 10
0.9030083550347222
 20
-7.637505425347221
 30
0.0
 10
0.9030083550347222
 20
-7.637505425347221
 30
0.0
 10
0.89263916015625
 20
-7.689398871527778
 30
0.0
 10
0.8421427408854166
 20
-7.723063151041666
 30
0.0
 10
0.790249294704861
 20
-7.712727864583333
 30
0.0
 10
0.790249294704861
 20
-7.712727864583333
 30
0.0
 10
0.790249294704861
 20
-7.712727864583333
 30
0.0
 10
0.790249294704861
 20
-7.712727864583333
 30
0.0
 10
0.7383355034722222
 20
-7.702338324652778
 30
0.0
 10
0.7046644422743055
 20
-7.65185546875
 30
0.0
 10
0.715053982204861
 20
-7.599962022569444
 30
0.0
 10
0.715053982204861
 20
-7.599962022569444
 30
0.0
 10
0.7477620442708333
 20
-7.436252170138888
 30
0.0
 10
0.7477620442708333
 20
-7.436252170138888
 30
0.0
  0
SPLINE
  5
9E
330
98
100
AcDbEntity
  8
LAYER_1
 62
   251
100
AcDbSpline
210
0.0
220
0.0
230
1.0
 70
    11
 71
     3
 72
    29
 73
    25
 74
     0
 42
0.0000000001
 43
0.0000000001
 40
0.0
 40
0.0
 40
0.0
 40
0.0
 40
1.0
 40
1.0
 40
1.0
 40
2.0
 40
2.0
 40
2.0
 40
3.0
 40
3.0
 40
3.0
 40
4.0
 40
4.0
 40
4.0
 40
5.0
 40
5.0
 40
5.0
 40
6.0
 40
6.0
 40
6.0
 40
7.0
 40
7.0
 40
7.0
 40
8.0
 40
8.0
 40
8.0
 40
8.0
 10
0.4051378038194444
 20
-8.597819010416666
 30
0.0
 10
0.4155069986979166
 20
-8.5458984375
 30
0.0
 10
0.4659830729166666
 20
-8.51223415798611
 30
0.0
 10
0.5178968641493056
 20
-8.522596571180555
 30
0.0
 10
0.5178968641493056
 20
-8.522596571180555
 30
0.0
 10
0.5178968641493056
 20
-8.522596571180555
 30
0.0
 10
0.5178968641493056
 20
-8.522596571180555
 30
0.0
 10
0.5698106553819444
 20
-8.532958984375
 30
0.0
 10
0.6034884982638888
 20
-8.583441840277777
 30
0.0
 10
0.5931125217013888
 20
-8.635389539930555
 30
0.0
 10
0.5931125217013888
 20
-8.635389539930555
 30
0.0
 10
0.5604112413194444
 20
-8.799072265625
 30
0.0
 10
0.5604112413194444
 20
-8.799072265625
 30
0.0
 10
0.5500556098090278
 20
-8.850965711805555
 30
0.0
 10
0.49957275390625
 20
-8.884657118055555
 30
0.0
 10
0.4476657443576388
 20
-8.874267578125
 30
0.0
 10
0.4476657443576388
 20
-8.874267578125
 30
0.0
 10
0.4476657443576388
 20
-8.874267578125
 30
0.0
 10
0.4476657443576388
 20
-8.874267578125
 30
0.0
 10
0.3957451714409722
 20
-8.863905164930555
 30
0.0
 10
0.3620808919270833
 20
-8.813422309027777
 30
0.0
 10
0.3724365234375
 20
-8.761528862847221
 30
0.0
 10
0.3724365234375
 20
-8.761528862847221
 30
0.0
 10
0.4051378038194444
 20
-8.597819010416666
 30
0.0
 10
0.4051378038194444
 20
-8.597819010416666
 30
0.0
  0
SPLINE
  5
9F
330
98
100
AcDbEntity
  8
LAYER_1
 62
   251
100
AcDbSpline
210
0.0
220
0.0
230
1.0
 70
    11
 71
     3
 72
    17
 73
    13
 74
     0
 42
0.0000000001
 43
0.0000000001
 40
0.0
 40
0.0
 40
0.0
 40
0.0
 40
1.0
 40
1.0
 40
1.0
 40
2.0
 40
2.0
 40
2.0
 40
3.0
 40
3.0
 40
3.0
 40
4.0
 40
4.0
 40
4.0
 40
4.0
 10
0.549160427517361
 20
-6.731825086805555
 30
0.0
 10
0.6038411458333333
 20
-6.737087673611111
 30
0.0
 10
0.6439073350694444
 20
-6.785725911458333
 30
0.0
 10
0.6386311848958333
 20
-6.840440538194444
 30
0.0
 10
0.6333550347222222
 20
-6.895128038194444
 30
0.0
 10
0.584716796875
 20
-6.935167100694444
 30
0.0
 10
0.5300360785590278
 20
-6.929877387152778
 30
0.0
 10
0.4753485785590277
 20
-6.924614800347221
 30
0.0
 10
0.4352823893229166
 20
-6.876003689236111
 30
0.0
 10
0.4405585394965277
 20
-6.8212890625
 30
0.0
 10
0.4458279079861111
 20
-6.766628689236111
 30
0.0
 10
0.4944797092013888
 20
-6.726535373263888
 30
0.0
 10
0.549160427517361
 20
-6.731825086805555
 30
0.0
  0
SPLINE
  5
A0
330
98
100
AcDbEntity
  8
LAYER_1
 62
   251
100
AcDbSpline
210
0.0
220
0.0
230
1.0
 70
    11
 71
     3
 72
    17
 73
    13
 74
     0
 42
0.0000000001
 43
0.0000000001
 40
0.0
 40
0.0
 40
0.0
 40
0.0
 40
1.0
 40
1.0
 40
1.0
 40
2.0
 40
2.0
 40
2.0
 40
3.0
 40
3.0
 40
3.0
 40
4.0
 40
4.0
 40
4.0
 40
4.0
 10
0.4206000434027777
 20
-5.542399088541666
 30
0.0
 10
0.4752943250868055
 20
-5.547709147135416
 30
0.0
 10
0.5153401692708333
 20
-5.596320258246528
 30
0.0
 10
0.5100775824652778
 20
-5.6510009765625
 30
0.0
 10
0.5048014322916666
 20
-5.7056884765625
 30
0.0
 10
0.4561564127604166
 20
-5.745747884114583
 30
0.0
 10
0.4015028211805555
 20
-5.740492078993055
 30
0.0
 10
0.3467881944444444
 20
-5.735209147135416
 30
0.0
 10
0.3067287868923611
 20
-5.686557345920138
 30
0.0
 10
0.3120252821180555
 20
-5.631890190972222
 30
0.0
 10
0.3172946506076389
 20
-5.577202690972222
 30
0.0
 10
0.3659125434027777
 20
-5.537136501736111
 30
0.0
 10
0.4206000434027777
 20
-5.542399088541666
 30
0.0
  0
SPLINE
  5
A1
330
98
100
AcDbEntity
  8
LAYER_1
 62
   251
100
AcDbSpline
210
0.0
220
0.0
230
1.0
 70
    11
 71
     3
 72
    17
 73
    13
 74
     0
 42
0.0000000001
 43
0.0000000001
 40
0.0
 40
0.0
 40
0.0
 40
0.0
 40
1.0
 40
1.0
 40
1.0
 40
2.0
 40
2.0
 40
2.0
 40
3.0
 40
3.0
 40
3.0
 40
4.0
 40
4.0
 40
4.0
 40
4.0
 10
0.3627387152777777
 20
-4.29046630859375
 30
0.0
 10
0.4174397786458333
 20
-4.295756022135416
 30
0.0
 10
0.4574856228298611
 20
-4.344373914930555
 30
0.0
 10
0.4522162543402777
 20
-4.399068196614583
 30
0.0
 10
0.4469401041666666
 20
-4.453748914930555
 30
0.0
 10
0.3983222113715277
 20
-4.493821885850694
 30
0.0
 10
0.3436143663194444
 20
-4.488532172309028
 30
0.0
 10
0.2889336480034722
 20
-4.483242458767361
 30
0.0
 10
0.2488674587673611
 20
-4.434644911024305
 30
0.0
 10
0.2541571723090278
 20
-4.37994384765625
 30
0.0
 10
0.2594197591145833
 20
-4.325249565972222
 30
0.0
 10
0.3080647786458333
 20
-4.285183376736111
 30
0.0
 10
0.3627387152777777
 20
-4.29046630859375
 30
0.0
  0
SPLINE
  5
A2
330
98
100
AcDbEntity
  8
LAYER_1
100
AcDbSpline
210
0.0
220
0.0
230
1.0
 70
    11
 71
     3
 72
    23
 73
    19
 74
     0
 42
0.0000000001
 43
0.0000000001
 40
0.0
 40
0.0
 40
0.0
 40
0.0
 40
1.0
 40
1.0
 40
1.0
 40
2.0
 40
2.0
 40
2.0
 40
3.0
 40
3.0
 40
3.0
 40
4.0
 40
4.0
 40
4.0
 40
5.0
 40
5.0
 40
5.0
 40
6.0
 40
6.0
 40
6.0
 40
6.0
 10
0.4270968967013888
 20
-5.729560004340278
 30
0.0
 10
0.4449598524305555
 20
-5.728895399305555
 30
0.0
 10
0.4738633897569444
 20
-5.71112060546875
 30
0.0
 10
0.4704250759548611
 20
-5.69036865234375
 30
0.0
 10
0.4697197808159722
 20
-5.686143663194444
 30
0.0
 10
0.4656643337673611
 20
-5.6824951171875
 30
0.0
 10
0.4631144205729166
 20
-5.678561740451388
 30
0.0
 10
0.4612087673611111
 20
-5.681891547309028
 30
0.0
 10
0.4584011501736111
 20
-5.68499755859375
 30
0.0
 10
0.4574856228298611
 20
-5.6885986328125
 30
0.0
 10
0.4534369574652777
 20
-5.704155815972222
 30
0.0
 10
0.4407212999131944
 20
-5.711161295572916
 30
0.0
 10
0.42864990234375
 20
-5.718878851996528
 30
0.0
 10
0.4259372287326388
 20
-5.720601399739583
 30
0.0
 10
0.4232516818576388
 20
-5.72235107421875
 30
0.0
 10
0.4205525716145833
 20
-5.724107530381944
 30
0.0
 10
0.4232313368055555
 20
-5.726338704427083
 30
0.0
 10
0.4259033203125
 20
-5.728529188368055
 30
0.0
 10
0.4270968967013888
 20
-5.729560004340278
 30
0.0
  0
ENDBLK
  5
9B
330
98
100
AcDbEntity
  8
0
100
AcDbBlockEnd
  0
BLOCK
  5
A5
330
A3
100
AcDbEntity
  8
0
100
AcDbBlockBegin
  2
BLOCK_16
 70
     0
 71
     0
 10
0.0
 20
0.0
 30
0.0
  3
BLOCK_16
  1

  0
SPLINE
  5
A7
330
A3
100
AcDbEntity
  8
LAYER_1
 62
     7
100
AcDbSpline
210
0.0
220
0.0
230
1.0
 70
    11
 71
     3
 72
   263
 73
   259
 74
     0
 42
0.0000000001
 43
0.0000000001
 40
0.0
 40
0.0
 40
0.0
 40
0.0
 40
1.0
 40
1.0
 40
1.0
 40
2.0
 40
2.0
 40
2.0
 40
3.0
 40
3.0
 40
3.0
 40
4.0
 40
4.0
 40
4.0
 40
5.0
 40
5.0
 40
5.0
 40
6.0
 40
6.0
 40
6.0
 40
7.0
 40
7.0
 40
7.0
 40
8.0
 40
8.0
 40
8.0
 40
9.0
 40
9.0
 40
9.0
 40
10.0
 40
10.0
 40
10.0
 40
11.0
 40
11.0
 40
11.0
 40
12.0
 40
12.0
 40
12.0
 40
13.0
 40
13.0
 40
13.0
 40
14.0
 40
14.0
 40
14.0
 40
15.0
 40
15.0
 40
15.0
 40
16.0
 40
16.0
 40
16.0
 40
17.0
 40
17.0
 40
17.0
 40
18.0
 40
18.0
 40
18.0
 40
19.0
 40
19.0
 40
19.0
 40
20.0
 40
20.0
 40
20.0
 40
21.0
 40
21.0
 40
21.0
 40
22.0
 40
22.0
 40
22.0
 40
23.0
 40
23.0
 40
23.0
 40
24.0
 40
24.0
 40
24.0
 40
25.0
 40
25.0
 40
25.0
 40
26.0
 40
26.0
 40
26.0
 40
27.0
 40
27.0
 40
27.0
 40
28.0
 40
28.0
 40
28.0
 40
29.0
 40
29.0
 40
29.0
 40
30.0
 40
30.0
 40
30.0
 40
31.0
 40
31.0
 40
31.0
 40
32.0
 40
32.0
 40
32.0
 40
33.0
 40
33.0
 40
33.0
 40
34.0
 40
34.0
 40
34.0
 40
35.0
 40
35.0
 40
35.0
 40
36.0
 40
36.0
 40
36.0
 40
37.0
 40
37.0
 40
37.0
 40
38.0
 40
38.0
 40
38.0
 40
39.0
 40
39.0
 40
39.0
 40
40.0
 40
40.0
 40
40.0
 40
41.0
 40
41.0
 40
41.0
 40
42.0
 40
42.0
 40
42.0
 40
43.0
 40
43.0
 40
43.0
 40
44.0
 40
44.0
 40
44.0
 40
45.0
 40
45.0
 40
45.0
 40
46.0
 40
46.0
 40
46.0
 40
47.0
 40
47.0
 40
47.0
 40
48.0
 40
48.0
 40
48.0
 40
49.0
 40
49.0
 40
49.0
 40
50.0
 40
50.0
 40
50.0
 40
51.0
 40
51.0
 40
51.0
 40
52.0
 40
52.0
 40
52.0
 40
53.0
 40
53.0
 40
53.0
 40
54.0
 40
54.0
 40
54.0
 40
55.0
 40
55.0
 40
55.0
 40
56.0
 40
56.0
 40
56.0
 40
57.0
 40
57.0
 40
57.0
 40
58.0
 40
58.0
 40
58.0
 40
59.0
 40
59.0
 40
59.0
 40
60.0
 40
60.0
 40
60.0
 40
61.0
 40
61.0
 40
61.0
 40
62.0
 40
62.0
 40
62.0
 40
63.0
 40
63.0
 40
63.0
 40
64.0
 40
64.0
 40
64.0
 40
65.0
 40
65.0
 40
65.0
 40
66.0
 40
66.0
 40
66.0
 40
67.0
 40
67.0
 40
67.0
 40
68.0
 40
68.0
 40
68.0
 40
69.0
 40
69.0
 40
69.0
 40
70.0
 40
70.0
 40
70.0
 40
71.0
 40
71.0
 40
71.0
 40
72.0
 40
72.0
 40
72.0
 40
73.0
 40
73.0
 40
73.0
 40
74.0
 40
74.0
 40
74.0
 40
75.0
 40
75.0
 40
75.0
 40
76.0
 40
76.0
 40
76.0
 40
77.0
 40
77.0
 40
77.0
 40
78.0
 40
78.0
 40
78.0
 40
79.0
 40
79.0
 40
79.0
 40
80.0
 40
80.0
 40
80.0
 40
81.0
 40
81.0
 40
81.0
 40
82.0
 40
82.0
 40
82.0
 40
83.0
 40
83.0
 40
83.0
 40
84.0
 40
84.0
 40
84.0
 40
85.0
 40
85.0
 40
85.0
 40
86.0
 40
86.0
 40
86.0
 40
86.0
 10
2.21466064453125
 20
-10.81647406684028
 30
0.0
 10
2.221713595920139
 20
-10.80380588107639
 30
0.0
 10
2.227912055121528
 20
-10.79054090711806
 30
0.0
 10
2.236063639322917
 20
-10.77861870659722
 30
0.0
 10
2.245123969184028
 20
-10.76534016927083
 30
0.0
 10
2.259039984809028
 20
-10.75465223524306
 30
0.0
 10
2.265401204427083
 20
-10.74041069878472
 30
0.0
 10
2.275316026475694
 20
-10.71808539496528
 30
0.0
 10
2.288418240017361
 20
-10.7056884765625
 30
0.0
 10
2.313835991753472
 20
-10.70745171440972
 30
0.0
 10
2.328742133246528
 20
-10.70848253038194
 30
0.0
 10
2.343851725260417
 20
-10.70753309461806
 30
0.0
 10
2.358798556857639
 20
-10.70661078559028
 30
0.0
 10
2.379781087239583
 20
-10.70528157552083
 30
0.0
 10
6.647806803385416
 20
-10.59583875868056
 30
0.0
 10
6.77777099609375
 20
-10.59259711371528
 30
0.0
 10
6.782192654079861
 20
-10.59247504340278
 30
0.0
 10
6.786668565538194
 20
-10.59187825520833
 30
0.0
 10
6.791090223524305
 20
-10.59229871961806
 30
0.0
 10
6.805413140190971
 20
-10.5936279296875
 30
0.0
 10
6.820522732204861
 20
-10.59311252170139
 30
0.0
 10
6.833841959635416
 20
-10.59766981336806
 30
0.0
 10
6.842766655815971
 20
-10.60074869791667
 30
0.0
 10
6.849575466579861
 20
-10.61088053385417
 30
0.0
 10
6.856736924913194
 20
-10.618408203125
 30
0.0
 10
6.872090657552083
 20
-10.63456217447917
 30
0.0
 10
6.942104763454861
 20
-10.67942979600694
 30
0.0
 10
6.95916748046875
 20
-10.68873426649306
 30
0.0
 10
6.959221733940971
 20
-10.68794759114583
 30
0.0
 10
7.098626030815971
 20
-10.76718478732639
 30
0.0
 10
7.102803548177083
 20
-10.76962619357639
 30
0.0
 10
7.111402723524305
 20
-10.77461751302083
 30
0.0
 10
7.119432237413194
 20
-10.78047688802083
 30
0.0
 10
7.127841525607638
 20
-10.7857666015625
 30
0.0
 10
7.144063313802083
 20
-10.79604763454861
 30
0.0
 10
7.206129286024305
 20
-10.82103135850694
 30
0.0
 10
7.219122992621528
 20
-10.82626681857639
 30
0.0
 10
7.240227593315971
 20
-10.83482530381944
 30
0.0
 10
7.261983235677083
 20
-10.84181043836806
 30
0.0
 10
7.283494737413194
 20
-10.84932454427083
 30
0.0
 10
7.29168701171875
 20
-10.85219997829861
 30
0.0
 10
7.300096299913194
 20
-10.85447862413194
 30
0.0
 10
7.308234320746528
 20
-10.85744900173611
 30
0.0
 10
7.314663357204861
 20
-10.85982259114583
 30
0.0
 10
7.496927897135416
 20
-10.89511447482639
 30
0.0
 10
7.512797037760416
 20
-10.89755588107639
 30
0.0
 10
7.543558756510416
 20
-10.90234375
 30
0.0
 10
7.571933322482638
 20
-10.91575792100694
 30
0.0
 10
7.604756673177083
 20
-10.91524251302083
 30
0.0
 10
7.645094129774305
 20
-10.91461859809028
 30
0.0
 10
7.685594346788194
 20
-10.92552354600694
 30
0.0
 10
7.725986056857638
 20
-10.92521158854167
 30
0.0
 10
7.788947211371528
 20
-10.92470974392361
 30
0.0
 10
7.956353081597221
 20
-10.90837944878472
 30
0.0
 10
7.974663628472221
 20
-10.90505642361111
 30
0.0
 10
7.983832465277778
 20
-10.90338812934028
 30
0.0
 10
8.045111762152777
 20
-10.8905029296875
 30
0.0
 10
8.066569010416666
 20
-10.88559299045139
 30
0.0
 10
8.089152018229166
 20
-10.88041178385417
 30
0.0
 10
8.11269802517361
 20
-10.87900119357639
 30
0.0
 10
8.13510470920139
 20
-10.87319607204861
 30
0.0
 10
8.164293077256945
 20
-10.8656005859375
 30
0.0
 10
8.251261393229166
 20
-10.8289794921875
 30
0.0
 10
8.254814995659721
 20
-10.82832845052083
 30
0.0
 10
8.284193250868055
 20
-10.82284884982639
 30
0.0
 10
8.31088595920139
 20
-10.81004503038194
 30
0.0
 10
8.3380126953125
 20
-10.79823133680556
 30
0.0
 10
8.356024848090277
 20
-10.79037814670139
 30
0.0
 10
8.374769422743055
 20
-10.78422037760417
 30
0.0
 10
8.39272732204861
 20
-10.77619086371528
 30
0.0
 10
8.4129638671875
 20
-10.76714409722222
 30
0.0
 10
8.5521240234375
 20
-10.68062337239583
 30
0.0
 10
8.56704372829861
 20
-10.66612413194444
 30
0.0
 10
8.584214952256945
 20
-10.64942762586806
 30
0.0
 10
8.615166558159721
 20
-10.60313585069444
 30
0.0
 10
8.61703830295139
 20
-10.60289171006944
 30
0.0
 10
8.63686794704861
 20
-10.60043674045139
 30
0.0
 10
8.647284613715277
 20
-10.5999755859375
 30
0.0
 10
8.66201443142361
 20
-10.59962293836806
 30
0.0
 10
8.782511393229166
 20
-10.59654405381944
 30
0.0
 10
8.903035481770832
 20
-10.59449598524306
 30
0.0
 10
9.0235595703125
 20
-10.59163411458333
 30
0.0
 10
9.048407660590277
 20
-10.59103732638889
 30
0.0
 10
9.073174370659721
 20
-10.58822970920139
 30
0.0
 10
9.0980224609375
 20
-10.58676486545139
 30
0.0
 10
9.118720160590277
 20
-10.58554416232639
 30
0.0
 10
9.138875325520832
 20
-10.58494737413194
 30
0.0
 10
9.159464518229166
 20
-10.5782470703125
 30
0.0
 10
9.179456922743055
 20
-10.57176378038194
 30
0.0
 10
9.2022705078125
 20
-10.57453070746528
 30
0.0
 10
9.223564995659721
 20
-10.57119411892361
 30
0.0
 10
9.24892849392361
 20
-10.56723361545139
 30
0.0
 10
9.273993598090277
 20
-10.56110297309028
 30
0.0
 10
9.299140082465277
 20
-10.55586751302083
 30
0.0
 10
9.30068630642361
 20
-10.5555419921875
 30
0.0
 10
9.30215115017361
 20
-10.55483669704861
 30
0.0
 10
9.303561740451388
 20
-10.55413140190972
 30
0.0
 10
9.316908094618055
 20
-10.54762098524306
 30
0.0
 10
9.329847547743055
 20
-10.5401611328125
 30
0.0
 10
9.3436279296875
 20
-10.53474934895833
 30
0.0
 10
9.36977810329861
 20
-10.52444118923611
 30
0.0
 10
9.3963623046875
 20
-10.51523166232639
 30
0.0
 10
9.422865125868055
 20
-10.50579155815972
 30
0.0
 10
9.429999457465277
 20
-10.50326877170139
 30
0.0
 10
9.467624240451388
 20
-10.48417154947917
 30
0.0
 10
9.469957139756945
 20
-10.48305935329861
 30
0.0
 10
9.49380154079861
 20
-10.47166612413194
 30
0.0
 10
9.51748318142361
 20
-10.45997450086806
 30
0.0
 10
9.541598849826388
 20
-10.44919162326389
 30
0.0
 10
9.54946560329861
 20
-10.4456787109375
 30
0.0
 10
9.625474717881945
 20
-10.4027099609375
 30
0.0
 10
9.626939561631945
 20
-10.40205891927083
 30
0.0
 10
9.647203233506945
 20
-10.39301215277778
 30
0.0
 10
9.66787380642361
 20
-10.38486056857639
 30
0.0
 10
9.6876220703125
 20
-10.37476942274306
 30
0.0
 10
9.707505967881945
 20
-10.36463758680556
 30
0.0
 10
9.726413302951388
 20
-10.3525390625
 30
0.0
 10
9.745781792534721
 20
-10.34140353732639
 30
0.0
 10
9.753106011284721
 20
-10.33719889322917
 30
0.0
 10
9.760945638020832
 20
-10.33378092447917
 30
0.0
 10
9.767808702256945
 20
-10.32900661892361
 30
0.0
 10
9.777384440104166
 20
-10.3223876953125
 30
0.0
 10
9.786607530381945
 20
-10.31517198350694
 30
0.0
 10
9.795450846354166
 20
-10.30757649739583
 30
0.0
 10
9.812350802951388
 20
-10.29306369357639
 30
0.0
 10
9.829115125868055
 20
-10.27833387586806
 30
0.0
 10
9.845499674479166
 20
-10.26323784722222
 30
0.0
 10
9.86489529079861
 20
-10.24537489149306
 30
0.0
 10
9.883748372395832
 20
-10.2269287109375
 30
0.0
 10
9.903035481770832
 20
-10.20894368489583
 30
0.0
 10
9.913533528645832
 20
-10.19912380642361
 30
0.0
 10
9.9266357421875
 20
-10.19121636284722
 30
0.0
 10
9.934611002604166
 20
-10.17972819010417
 30
0.0
 10
9.943318684895832
 20
-10.16724989149306
 30
0.0
 10
10.08218044704861
 20
-10.02149793836806
 30
0.0
 10
10.09804958767361
 20
-9.9969482421875
 30
0.0
 10
10.11147732204861
 20
-9.976087782118055
 30
0.0
 10
10.13062879774306
 20
-9.958808051215277
 30
0.0
 10
10.14801703559028
 20
-9.940660264756945
 30
0.0
 10
10.17359754774306
 20
-9.913926866319445
 30
0.0
 10
10.20368109809028
 20
-9.890570746527777
 30
0.0
 10
10.22478569878472
 20
-9.860785590277777
 30
0.0
 10
10.24911838107639
 20
-9.826416015625
 30
0.0
 10
10.28142632378472
 20
-9.822998046875
 30
0.0
 10
10.31715223524306
 20
-9.822211371527777
 30
0.0
 10
10.32217068142361
 20
-9.822102864583332
 30
0.0
 10
10.32716200086806
 20
-9.821424696180555
 30
0.0
 10
10.3321533203125
 20
-9.821723090277777
 30
0.0
 10
10.34775119357639
 20
-9.822618272569445
 30
0.0
 10
10.39326985677083
 20
-9.845052083333332
 30
0.0
 10
10.39302571614583
 20
-9.853773328993055
 30
0.0
 10
10.39223904079861
 20
-9.882419162326388
 30
0.0
 10
10.39164225260417
 20
-9.911051432291666
 30
0.0
 10
10.39082845052083
 20
-9.939710828993055
 30
0.0
 10
10.39039442274306
 20
-9.954549153645832
 30
0.0
 10
10.38979763454861
 20
-9.969441731770832
 30
0.0
 10
10.38890245225694
 20
-9.98428005642361
 30
0.0
 10
10.38865831163194
 20
-9.988471137152777
 30
0.0
 10
10.38760036892361
 20
-9.992784288194445
 30
0.0
 10
10.38605414496528
 20
-9.996649848090277
 30
0.0
 10
10.3834228515625
 20
-10.00309244791667
 30
0.0
 10
10.37417263454861
 20
-10.02488878038194
 30
0.0
 10
10.37156846788194
 20
-10.02878146701389
 30
0.0
 10
10.36494954427083
 20
-10.03870985243056
 30
0.0
 10
9.126993815104166
 20
-11.87810601128472
 30
0.0
 10
9.118584526909721
 20
-11.88958062065972
 30
0.0
 10
9.110148111979166
 20
-11.90102810329861
 30
0.0
 10
9.093248155381945
 20
-11.92140028211806
 30
0.0
 10
9.054782443576388
 20
-11.92154947916667
 30
0.0
 10
9.027601453993055
 20
-11.92294650607639
 30
0.0
 10
8.973158094618055
 20
-11.92374674479167
 30
0.0
 10
8.973158094618055
 20
-11.92374674479167
 30
0.0
 10
8.973158094618055
 20
-11.92374674479167
 30
0.0
 10
8.963717990451388
 20
-11.92074924045139
 30
0.0
 10
8.959187825520832
 20
-11.91868760850694
 30
0.0
 10
8.939737955729166
 20
-11.90924750434028
 30
0.0
 10
8.9139404296875
 20
-11.88503689236111
 30
0.0
 10
8.8892822265625
 20
-11.86261664496528
 30
0.0
 10
8.883748372395832
 20
-11.85751681857639
 30
0.0
 10
8.876152886284721
 20
-11.84853786892361
 30
0.0
 10
8.869669596354166
 20
-11.84075249565972
 30
0.0
 10
8.8568115234375
 20
-11.82534450954861
 30
0.0
 10
8.842814127604166
 20
-11.80942111545139
 30
0.0
 10
8.829277886284721
 20
-11.79473198784722
 30
0.0
 10
8.819051106770832
 20
-11.78443739149306
 30
0.0
 10
8.7979736328125
 20
-11.76626247829861
 30
0.0
 10
8.784166124131945
 20
-11.75336371527778
 30
0.0
 10
8.76571994357639
 20
-11.73539225260417
 30
0.0
 10
8.753974066840277
 20
-11.72591145833333
 30
0.0
 10
8.726847330729166
 20
-11.70658365885417
 30
0.0
 10
8.7239990234375
 20
-11.70514594184028
 30
0.0
 10
8.713555230034721
 20
-11.69795735677083
 30
0.0
 10
8.710896809895832
 20
-11.69605848524306
 30
0.0
 10
8.70132107204861
 20
-11.68919542100694
 30
0.0
 10
8.692206488715277
 20
-11.6815185546875
 30
0.0
 10
8.6820068359375
 20
-11.67584906684028
 30
0.0
 10
8.667792426215277
 20
-11.66798231336806
 30
0.0
 10
8.66415744357639
 20
-11.66312662760417
 30
0.0
 10
8.640692816840277
 20
-11.65211317274306
 30
0.0
 10
8.639092339409721
 20
-11.65132649739583
 30
0.0
 10
8.62094455295139
 20
-11.64253743489583
 30
0.0
 10
8.5994873046875
 20
-11.63506401909722
 30
0.0
 10
8.553154839409721
 20
-11.61839463975694
 30
0.0
 10
8.5296630859375
 20
-11.6138916015625
 30
0.0
 10
8.494832356770832
 20
-11.60309516059028
 30
0.0
 10
8.482652452256945
 20
-11.59932454427083
 30
0.0
 10
8.4708251953125
 20
-11.59273274739583
 30
0.0
 10
8.458455403645832
 20
-11.59163411458333
 30
0.0
 10
8.432142469618055
 20
-11.58928765190972
 30
0.0
 10
8.357489691840277
 20
-11.57952202690972
 30
0.0
 10
8.352796766493055
 20
-11.57952202690972
 30
0.0
 10
8.29672580295139
 20
-11.57958984375
 30
0.0
 10
8.240654839409721
 20
-11.57979329427083
 30
0.0
 10
8.184583875868055
 20
-11.58100043402778
 30
0.0
 10
8.053602430555555
 20
-11.58379448784722
 30
0.0
 10
2.410773383246528
 20
-11.71445041232639
 30
0.0
 10
2.328755696614583
 20
-11.71396213107639
 30
0.0
 10
2.324306911892361
 20
-11.71393500434028
 30
0.0
 10
2.319871690538194
 20
-11.71420627170139
 30
0.0
 10
2.315436469184028
 20
-11.71421983506944
 30
0.0
 10
2.307108561197917
 20
-11.71424696180556
 30
0.0
 10
2.295905219184028
 20
-11.71754286024306
 30
0.0
 10
2.291130913628472
 20
-11.71343315972222
 30
0.0
 10
2.282260470920139
 20
-11.70576985677083
 30
0.0
 10
2.277214898003472
 20
-11.71792263454861
 30
0.0
 10
2.258443196614583
 20
-11.70674641927083
 30
0.0
 10
2.241109212239583
 20
-11.69643825954861
 30
0.0
 10
2.245503743489583
 20
-11.69768608940972
 30
0.0
 10
2.233567979600694
 20
-11.64202202690972
 30
0.0
 10
2.249925401475694
 20
-11.58076985677083
 30
0.0
 10
2.253696017795139
 20
-11.58828396267361
 30
0.0
 10
2.260152180989583
 20
-11.57126193576389
 30
0.0
 10
2.267842610677083
 20
-11.55101182725694
 30
0.0
 10
2.346876356336805
 20
-11.34130859375
 30
0.0
 10
2.347256130642361
 20
-11.33915201822917
 30
0.0
 10
2.350185818142361
 20
-11.32203504774306
 30
0.0
 10
2.372890896267361
 20
-11.2760009765625
 30
0.0
 10
2.371453179253472
 20
-11.22174750434028
 30
0.0
 10
2.370151095920139
 20
-11.17351616753472
 30
0.0
 10
2.345818413628472
 20
-11.12636990017361
 30
0.0
 10
2.342074924045139
 20
-11.11201985677083
 30
0.0
 10
2.334587944878472
 20
-11.08340115017361
 30
0.0
 10
2.322638617621528
 20
-11.05045572916667
 30
0.0
 10
2.321431477864583
 20
-11.04869249131944
 30
0.0
 10
2.316480848524305
 20
-11.04143608940972
 30
0.0
 10
2.311150444878472
 20
-11.03439670138889
 30
0.0
 10
2.30694580078125
 20
-11.02671983506944
 30
0.0
 10
2.302035861545139
 20
-11.01775444878472
 30
0.0
 10
2.29791259765625
 20
-11.00831434461806
 30
0.0
 10
2.293870713975694
 20
-10.99888780381944
 30
0.0
 10
2.286058213975694
 20
-10.98050944010417
 30
0.0
 10
2.277608235677083
 20
-10.96233452690972
 30
0.0
 10
2.271260579427083
 20
-10.9434814453125
 30
0.0
 10
2.268181694878472
 20
-10.93431260850694
 30
0.0
 10
2.230014377170139
 20
-10.86714680989583
 30
0.0
 10
2.215311686197917
 20
-10.84647623697917
 30
0.0
 10
2.215121799045139
 20
-10.83646647135417
 30
0.0
 10
2.214877658420139
 20
-10.82648383246528
 30
0.0
 10
2.21466064453125
 20
-10.81647406684028
 30
0.0
  0
SPLINE
  5
A8
330
A3
100
AcDbEntity
  8
LAYER_1
 62
   253
100
AcDbSpline
210
0.0
220
0.0
230
1.0
 70
    11
 71
     3
 72
    17
 73
    13
 74
     0
 42
0.0000000001
 43
0.0000000001
 40
0.0
 40
0.0
 40
0.0
 40
0.0
 40
1.0
 40
1.0
 40
1.0
 40
2.0
 40
2.0
 40
2.0
 40
3.0
 40
3.0
 40
3.0
 40
4.0
 40
4.0
 40
4.0
 40
4.0
 10
3.026292588975694
 20
-11.30272081163194
 30
0.0
 10
3.08880615234375
 20
-11.30136447482639
 30
0.0
 10
3.138380262586805
 20
-11.24957953559028
 30
0.0
 10
3.136996799045139
 20
-11.18709309895833
 30
0.0
 10
3.135640462239583
 20
-11.12460666232639
 30
0.0
 10
3.083882649739583
 20
-11.07504611545139
 30
0.0
 10
3.021382649739583
 20
-11.07638888888889
 30
0.0
 10
2.958882649739583
 20
-11.07774522569444
 30
0.0
 10
2.909349229600694
 20
-11.1295166015625
 30
0.0
 10
2.910692003038194
 20
-11.1920166015625
 30
0.0
 10
2.91204833984375
 20
-11.2545166015625
 30
0.0
 10
2.963819715711805
 20
-11.3040771484375
 30
0.0
 10
3.026292588975694
 20
-11.30272081163194
 30
0.0
  0
SPLINE
  5
A9
330
A3
100
AcDbEntity
  8
LAYER_1
 62
   253
100
AcDbSpline
210
0.0
220
0.0
230
1.0
 70
    11
 71
     3
 72
    17
 73
    13
 74
     0
 42
0.0000000001
 43
0.0000000001
 40
0.0
 40
0.0
 40
0.0
 40
0.0
 40
1.0
 40
1.0
 40
1.0
 40
2.0
 40
2.0
 40
2.0
 40
3.0
 40
3.0
 40
3.0
 40
4.0
 40
4.0
 40
4.0
 40
4.0
 10
4.527174207899305
 20
-11.26859537760417
 30
0.0
 10
4.58966064453125
 20
-11.26723904079861
 30
0.0
 10
4.639234754774305
 20
-11.21548122829861
 30
0.0
 10
4.637891981336805
 20
-11.1529541015625
 30
0.0
 10
4.636522081163194
 20
-11.09049479166667
 30
0.0
 10
4.584750705295138
 20
-11.04090711805556
 30
0.0
 10
4.522250705295138
 20
-11.04226345486111
 30
0.0
 10
4.459750705295138
 20
-11.04363335503472
 30
0.0
 10
4.410190158420138
 20
-11.09539116753472
 30
0.0
 10
4.411546495225695
 20
-11.15789116753472
 30
0.0
 10
4.41290283203125
 20
-11.22039116753472
 30
0.0
 10
4.464674207899305
 20
-11.26995171440972
 30
0.0
 10
4.527174207899305
 20
-11.26859537760417
 30
0.0
  0
SPLINE
  5
AA
330
A3
100
AcDbEntity
  8
LAYER_1
 62
   253
100
AcDbSpline
210
0.0
220
0.0
230
1.0
 70
    11
 71
     3
 72
    17
 73
    13
 74
     0
 42
0.0000000001
 43
0.0000000001
 40
0.0
 40
0.0
 40
0.0
 40
0.0
 40
1.0
 40
1.0
 40
1.0
 40
2.0
 40
2.0
 40
2.0
 40
3.0
 40
3.0
 40
3.0
 40
4.0
 40
4.0
 40
4.0
 40
4.0
 10
6.041781955295138
 20
-11.22421603732639
 30
0.0
 10
6.104281955295138
 20
-11.22285970052083
 30
0.0
 10
6.153842502170138
 20
-11.17110188802083
 30
0.0
 10
6.152486165364583
 20
-11.10858832465278
 30
0.0
 10
6.151129828559028
 20
-11.04610188802083
 30
0.0
 10
6.099372016059028
 20
-10.99654134114583
 30
0.0
 10
6.036872016059028
 20
-10.99789767795139
 30
0.0
 10
5.974372016059028
 20
-10.99925401475694
 30
0.0
 10
5.924784342447916
 20
-11.05101182725694
 30
0.0
 10
5.926140679253472
 20
-11.11351182725694
 30
0.0
 10
5.927524142795138
 20
-11.17601182725694
 30
0.0
 10
5.979281955295138
 20
-11.22557237413194
 30
0.0
 10
6.041781955295138
 20
-11.22421603732639
 30
0.0
  0
SPLINE
  5
AB
330
A3
100
AcDbEntity
  8
LAYER_1
 62
   253
100
AcDbSpline
210
0.0
220
0.0
230
1.0
 70
    11
 71
     3
 72
    17
 73
    13
 74
     0
 42
0.0000000001
 43
0.0000000001
 40
0.0
 40
0.0
 40
0.0
 40
0.0
 40
1.0
 40
1.0
 40
1.0
 40
2.0
 40
2.0
 40
2.0
 40
3.0
 40
3.0
 40
3.0
 40
4.0
 40
4.0
 40
4.0
 40
4.0
 10
7.532925075954861
 20
-11.20332845052083
 30
0.0
 10
7.595425075954861
 20
-11.20195855034722
 30
0.0
 10
7.644985622829861
 20
-11.15021430121528
 30
0.0
 10
7.643629286024305
 20
-11.08771430121528
 30
0.0
 10
7.64227294921875
 20
-11.02520073784722
 30
0.0
 10
7.59051513671875
 20
-10.97565375434028
 30
0.0
 10
7.52801513671875
 20
-10.97701009114583
 30
0.0
 10
7.46551513671875
 20
-10.97835286458333
 30
0.0
 10
7.41595458984375
 20
-11.0301513671875
 30
0.0
 10
7.417310926649305
 20
-11.09262424045139
 30
0.0
 10
7.418667263454861
 20
-11.15512424045139
 30
0.0
 10
7.470425075954861
 20
-11.20469835069444
 30
0.0
 10
7.532925075954861
 20
-11.20332845052083
 30
0.0
  0
SPLINE
  5
AC
330
A3
100
AcDbEntity
  8
LAYER_1
 62
   253
100
AcDbSpline
210
0.0
220
0.0
230
1.0
 70
    11
 71
     3
 72
    17
 73
    13
 74
     0
 42
0.0000000001
 43
0.0000000001
 40
0.0
 40
0.0
 40
0.0
 40
0.0
 40
1.0
 40
1.0
 40
1.0
 40
2.0
 40
2.0
 40
2.0
 40
3.0
 40
3.0
 40
3.0
 40
4.0
 40
4.0
 40
4.0
 40
4.0
 10
9.057902018229166
 20
-11.15871853298611
 30
0.0
 10
9.120402018229166
 20
-11.1573486328125
 30
0.0
 10
9.169962565104166
 20
-11.10560438368056
 30
0.0
 10
9.16860622829861
 20
-11.04311794704861
 30
0.0
 10
9.167249891493055
 20
-10.98060438368056
 30
0.0
 10
9.115492078993055
 20
-10.93104383680556
 30
0.0
 10
9.052964952256945
 20
-10.93241373697917
 30
0.0
 10
8.990464952256945
 20
-10.93377007378472
 30
0.0
 10
8.940904405381945
 20
-10.98554144965278
 30
0.0
 10
8.94228786892361
 20
-11.04800075954861
 30
0.0
 10
8.943617078993055
 20
-11.11052788628472
 30
0.0
 10
8.995402018229166
 20
-11.16007486979167
 30
0.0
 10
9.057902018229166
 20
-11.15871853298611
 30
0.0
  0
ENDBLK
  5
A6
330
A3
100
AcDbEntity
  8
0
100
AcDbBlockEnd
  0
BLOCK
  5
AF
330
AD
100
AcDbEntity
  8
0
100
AcDbBlockBegin
  2
BLOCK_17
 70
     0
 71
     0
 10
0.0
 20
0.0
 30
0.0
  3
BLOCK_17
  1

  0
SPLINE
  5
B1
330
AD
100
AcDbEntity
  8
LAYER_1
 62
   250
100
AcDbSpline
210
0.0
220
0.0
230
1.0
 70
    11
 71
     3
 72
    29
 73
    25
 74
     0
 42
0.0000000001
 43
0.0000000001
 40
0.0
 40
0.0
 40
0.0
 40
0.0
 40
1.0
 40
1.0
 40
1.0
 40
2.0
 40
2.0
 40
2.0
 40
3.0
 40
3.0
 40
3.0
 40
4.0
 40
4.0
 40
4.0
 40
5.0
 40
5.0
 40
5.0
 40
6.0
 40
6.0
 40
6.0
 40
7.0
 40
7.0
 40
7.0
 40
8.0
 40
8.0
 40
8.0
 40
8.0
 10
11.52143012152778
 20
-8.789360894097221
 30
0.0
 10
11.62833658854167
 20
-9.0672607421875
 30
0.0
 10
11.66848415798611
 20
-9.048095703125
 30
0.0
 10
11.32571072048611
 20
-9.19521755642361
 30
0.0
 10
10.98297797309028
 20
-9.34231228298611
 30
0.0
 10
9.16860622829861
 20
-10.06449381510417
 30
0.0
 10
9.16860622829861
 20
-10.06449381510417
 30
0.0
 10
8.8798828125
 20
-10.17111545138889
 30
0.0
 10
8.87375217013889
 20
-10.20917426215278
 30
0.0
 10
8.746175130208332
 20
-9.907755533854166
 30
0.0
 10
8.618577745225695
 20
-9.606296115451388
 30
0.0
 10
8.514946831597221
 20
-9.3466796875
 30
0.0
 10
8.39898681640625
 20
-9.046223958333332
 30
0.0
 10
8.283013237847221
 20
-8.745741102430555
 30
0.0
 10
8.300469292534721
 20
-8.761176215277777
 30
0.0
 10
8.59469265407986
 20
-8.64035373263889
 30
0.0
 10
8.59469265407986
 20
-8.64035373263889
 30
0.0
 10
10.42701551649306
 20
-7.899698893229166
 30
0.0
 10
10.75177680121528
 20
-7.771077473958333
 30
0.0
 10
11.07659233940972
 20
-7.642428927951388
 30
0.0
 10
11.05078125
 20
-7.634114583333333
 30
0.0
 10
11.17424858940972
 20
-7.927842881944444
 30
0.0
 10
11.17424858940972
 20
-7.927842881944444
 30
0.0
 10
11.52143012152778
 20
-8.789360894097221
 30
0.0
 10
11.52143012152778
 20
-8.789360894097221
 30
0.0
  0
SPLINE
  5
B2
330
AD
100
AcDbEntity
  8
LAYER_1
 62
     7
100
AcDbSpline
210
0.0
220
0.0
230
1.0
 70
    11
 71
     3
 72
    17
 73
    13
 74
     0
 42
0.0000000001
 43
0.0000000001
 40
0.0
 40
0.0
 40
0.0
 40
0.0
 40
1.0
 40
1.0
 40
1.0
 40
2.0
 40
2.0
 40
2.0
 40
3.0
 40
3.0
 40
3.0
 40
4.0
 40
4.0
 40
4.0
 40
4.0
 10
11.02533637152778
 20
-9.136189778645832
 30
0.0
 10
11.04973687065972
 20
-9.196695963541666
 30
0.0
 10
11.02042643229167
 20
-9.2655029296875
 30
0.0
 10
10.95994737413194
 20
-9.289889865451388
 30
0.0
 10
10.89942762586806
 20
-9.314276801215277
 30
0.0
 10
10.83064778645833
 20
-9.284993489583332
 30
0.0
 10
10.80624728732639
 20
-9.2244873046875
 30
0.0
 10
10.78187391493056
 20
-9.163994683159721
 30
0.0
 10
10.81114366319444
 20
-9.095160590277777
 30
0.0
 10
10.87164984809028
 20
-9.070773654513888
 30
0.0
 10
10.93214246961806
 20
-9.046400282118055
 30
0.0
 10
11.0009765625
 20
-9.075697157118055
 30
0.0
 10
11.02533637152778
 20
-9.136189778645832
 30
0.0
  0
SPLINE
  5
B3
330
AD
100
AcDbEntity
  8
LAYER_1
 62
     7
100
AcDbSpline
210
0.0
220
0.0
230
1.0
 70
    11
 71
     3
 72
    17
 73
    13
 74
     0
 42
0.0000000001
 43
0.0000000001
 40
0.0
 40
0.0
 40
0.0
 40
0.0
 40
1.0
 40
1.0
 40
1.0
 40
2.0
 40
2.0
 40
2.0
 40
3.0
 40
3.0
 40
3.0
 40
4.0
 40
4.0
 40
4.0
 40
4.0
 10
9.58095974392361
 20
-9.727620442708332
 30
0.0
 10
9.6053466796875
 20
-9.788126627604166
 30
0.0
 10
9.576036241319445
 20
-9.856947157118055
 30
0.0
 10
9.515543619791666
 20
-9.881320529513888
 30
0.0
 10
9.455050998263888
 20
-9.905707465277777
 30
0.0
 10
9.386244032118055
 20
-9.876410590277777
 30
0.0
 10
9.361857096354166
 20
-9.815904405381945
 30
0.0
 10
9.337483723958332
 20
-9.755425347222221
 30
0.0
 10
9.366753472222221
 20
-9.686604817708332
 30
0.0
 10
9.427259657118055
 20
-9.662217881944445
 30
0.0
 10
9.487752278645832
 20
-9.63784450954861
 30
0.0
 10
9.556586371527777
 20
-9.667127821180555
 30
0.0
 10
9.58095974392361
 20
-9.727620442708332
 30
0.0
  0
ENDBLK
  5
B0
330
AD
100
AcDbEntity
  8
0
100
AcDbBlockEnd
  0
ENDSEC
  0
SECTION
  2
ENTITIES
  0
INSERT
  5
3D
330
1F
100
AcDbEntity
  8
LAYER_1
100
AcDbBlockReference
  2
BLOCK_2
 10
0.0
 20
0.0
 30
0.0
  0
INSERT
  5
48
330
1F
100
AcDbEntity
  8
LAYER_1
100
AcDbBlockReference
  2
BLOCK_3
 10
0.0
 20
0.0
 30
0.0
  0
INSERT
  5
5D
330
1F
100
AcDbEntity
  8
LAYER_1
100
AcDbBlockReference
  2
BLOCK_6
 10
0.0
 20
0.0
 30
0.0
  0
INSERT
  5
64
330
1F
100
AcDbEntity
  8
LAYER_1
100
AcDbBlockReference
  2
BLOCK_7
 10
0.0
 20
0.0
 30
0.0
  0
INSERT
  5
71
330
1F
100
AcDbEntity
  8
LAYER_1
100
AcDbBlockReference
  2
BLOCK_9
 10
0.0
 20
0.0
 30
0.0
  0
INSERT
  5
7F
330
1F
100
AcDbEntity
  8
LAYER_1
100
AcDbBlockReference
  2
BLOCK_11
 10
0.0
 20
0.0
 30
0.0
  0
INSERT
  5
89
330
1F
100
AcDbEntity
  8
LAYER_1
100
AcDbBlockReference
  2
BLOCK_12
 10
0.0
 20
0.0
 30
0.0
  0
INSERT
  5
95
330
1F
100
AcDbEntity
  8
LAYER_1
100
AcDbBlockReference
  2
BLOCK_14
 10
0.0
 20
0.0
 30
0.0
  0
INSERT
  5
A4
330
1F
100
AcDbEntity
  8
LAYER_1
100
AcDbBlockReference
  2
BLOCK_16
 10
0.0
 20
0.0
 30
0.0
  0
INSERT
  5
AE
330
1F
100
AcDbEntity
  8
LAYER_1
100
AcDbBlockReference
  2
BLOCK_17
 10
0.0
 20
0.0
 30
0.0
  0
ENDSEC
  0
SECTION
  2
OBJECTS
  0
DICTIONARY
  5
C
330
0
100
AcDbDictionary
  3
ACAD_GROUP
350
D
  3
ACAD_LAYOUT
350
1A
  3
ACAD_MLINESTYLE
350
17
  3
ACAD_PLOTSETTINGS
350
19
  3
ACAD_TABLESTYLE
350
B4
  3
ACAD_VISUALSTYLE
350
2A
1001
ACAD
1000
TREAT_AS_HARD
1070
     0
  0
DICTIONARY
  5
D
102
{ACAD_REACTORS
330
C
102
}
330
C
100
AcDbDictionary
1001
ACAD
1000
TREAT_AS_HARD
1070
     0
  0
DICTIONARY
  5
1A
102
{ACAD_REACTORS
330
C
102
}
330
C
100
AcDbDictionary
1001
ACAD
1000
TREAT_AS_HARD
1070
     0
  0
DICTIONARY
  5
17
102
{ACAD_REACTORS
330
C
102
}
330
C
100
AcDbDictionary
  3
STANDARD
350
18
1001
ACAD
1000
TREAT_AS_HARD
1070
     0
  0
DICTIONARY
  5
19
102
{ACAD_REACTORS
330
C
102
}
330
C
100
AcDbDictionary
1001
ACAD
1000
TREAT_AS_HARD
1070
     0
  0
DICTIONARY
  5
B4
102
{ACAD_REACTORS
330
C
102
}
330
C
100
AcDbDictionary
1001
ACAD
1000
TREAT_AS_HARD
1070
     0
  0
DICTIONARY
  5
2A
102
{ACAD_REACTORS
330
C
102
}
330
C
100
AcDbDictionary
  3
2DWIREFRAME
350
2F
  3
3DWIREFRAME
350
30
  3
3D_HIDDEN
350
31
  3
BASIC
350
32
  3
BRIGHTEN
350
36
  3
COLORCHANGE
350
3A
  3
CONCEPTUAL
350
34
  3
DIM
350
35
  3
FACEPATTERN
350
39
  3
FLAT
350
2B
  3
FLATWITHEDGES
350
2C
  3
GOURAUD
350
2D
  3
GOURAUDWITHEDGES
350
2E
  3
LINEPATTERN
350
38
  3
REALISTIC
350
33
  3
THICKEN
350
37
1001
ACAD
1000
TREAT_AS_HARD
1070
     0
  0
MLINESTYLE
  5
18
102
{ACAD_REACTORS
330
17
102
}
330
17
100
AcDbMlineStyle
  2
Standard
 70
     0
  3

 62
   256
 51
90.0
 52
90.0
 71
     2
 49
0.5
 62
   256
  6
BYLAYER
 49
-0.5
 62
   256
  6
BYLAYER
  0
VISUALSTYLE
  5
2F
102
{ACAD_REACTORS
330
2A
102
}
330
2A
100
AcDbVisualStyle
  2
2dWireframe
 70
     4
 71
     0
 72
     2
 73
     0
 90
        0
 40
-0.6
 41
-30.0
 62
     5
 63
     7
 74
     1
 91
        4
 64
     7
 65
   257
 75
     1
175
     1
 42
1.0
 92
        0
 66
   257
 43
1.0
 76
     1
 77
     6
 78
     2
 67
     7
 79
     5
170
     0
171
     0
290
     0
174
     0
 93
        1
 44
0.0
173
     0
291
     0
 45
0.0
1001
ACAD
1000
AcDbSavedByObjectVersion
1070
     0
  0
VISUALSTYLE
  5
30
102
{ACAD_REACTORS
330
2A
102
}
330
2A
100
AcDbVisualStyle
  2
3dWireframe
 70
     5
 71
     0
 72
     2
 73
     0
 90
        0
 40
-0.6
 41
-30.0
 62
     5
 63
     7
 74
     1
 91
        4
 64
     7
 65
   257
 75
     1
175
     1
 42
1.0
 92
        0
 66
   257
 43
1.0
 76
     1
 77
     6
 78
     2
 67
     7
 79
     5
170
     0
171
     0
290
     0
174
     0
 93
        1
 44
0.0
173
     0
291
     0
 45
0.0
1001
ACAD
1000
AcDbSavedByObjectVersion
1070
     0
  0
VISUALSTYLE
  5
31
102
{ACAD_REACTORS
330
2A
102
}
330
2A
100
AcDbVisualStyle
  2
3D Hidden
 70
     6
 71
     1
 72
     2
 73
     2
 90
        0
 40
-0.6
 41
-30.0
 62
     5
 63
     7
 74
     2
 91
        2
 64
     7
 65
   257
 75
     2
175
     1
 42
40.0
 92
        0
 66
   257
 43
1.0
 76
     1
 77
     6
 78
     2
 67
     7
 79
     3
170
     0
171
     0
290
     0
174
     0
 93
        1
 44
0.0
173
     0
291
     0
 45
0.0
1001
ACAD
1000
AcDbSavedByObjectVersion
1070
     0
  0
VISUALSTYLE
  5
32
102
{ACAD_REACTORS
330
2A
102
}
330
2A
100
AcDbVisualStyle
  2
Basic
 70
     7
 71
     1
 72
     0
 73
     1
 90
        0
 40
-0.6
 41
-30.0
 62
     5
 63
     7
 74
     0
 91
        4
 64
     7
 65
   257
 75
     1
175
     1
 42
1.0
 92
        8
 66
     7
 43
1.0
 76
     1
 77
     6
 78
     2
 67
     7
 79
     5
170
     0
171
     0
290
     0
174
     0
 93
        1
 44
0.0
173
     0
291
     1
 45
0.0
1001
ACAD
1000
AcDbSavedByObjectVersion
1070
     0
  0
VISUALSTYLE
  5
36
102
{ACAD_REACTORS
330
2A
102
}
330
2A
100
AcDbVisualStyle
  2
Brighten
 70
    12
 71
     2
 72
     2
 73
     0
 90
        0
 40
-0.6
 41
-30.0
 62
     5
 63
     7
 74
     1
 91
        4
 64
     7
 65
   257
 75
     1
175
     1
 42
1.0
 92
        8
 66
     7
 43
1.0
 76
     1
 77
     6
 78
     2
 67
     7
 79
     5
170
     0
171
     0
290
     0
174
     0
 93
        1
 44
50.0
173
     0
291
     1
 45
0.0
1001
ACAD
1000
AcDbSavedByObjectVersion
1070
     0
  0
VISUALSTYLE
  5
3A
102
{ACAD_REACTORS
330
2A
102
}
330
2A
100
AcDbVisualStyle
  2
ColorChange
 70
    16
 71
     2
 72
     2
 73
     3
 90
        0
 40
-0.6
 41
-30.0
 62
     5
 63
     8
 74
     1
 91
        4
 64
     7
 65
   257
 75
     1
175
     1
 42
1.0
 92
        8
 66
     8
 43
1.0
 76
     1
 77
     6
 78
     2
 67
     7
 79
     5
170
     0
171
     0
290
     0
174
     0
 93
        1
 44
0.0
173
     0
291
     1
 45
0.0
1001
ACAD
1000
AcDbSavedByObjectVersion
1070
     0
  0
VISUALSTYLE
  5
34
102
{ACAD_REACTORS
330
2A
102
}
330
2A
100
AcDbVisualStyle
  2
Conceptual
 70
     9
 71
     3
 72
     2
 73
     0
 90
        0
 40
-0.6
 41
-30.0
 62
     5
 63
     7
 74
     2
 91
        2
 64
     7
 65
   257
 75
     1
175
     1
 42
40.0
 92
        8
 66
     7
 43
1.0
 76
     1
 77
     6
 78
     2
 67
     7
 79
     3
170
     0
171
     0
290
     0
174
     0
 93
        1
 44
0.0
173
     0
291
     0
 45
0.0
1001
ACAD
1000
AcDbSavedByObjectVersion
1070
     0
  0
VISUALSTYLE
  5
35
102
{ACAD_REACTORS
330
2A
102
}
330
2A
100
AcDbVisualStyle
  2
Dim
 70
    11
 71
     2
 72
     2
 73
     0
 90
        0
 40
-0.6
 41
-30.0
 62
     5
 63
     7
 74
     1
 91
        4
 64
     7
 65
   257
 75
     1
175
     1
 42
1.0
 92
        8
 66
     7
 43
1.0
 76
     1
 77
     6
 78
     2
 67
     7
 79
     5
170
     0
171
     0
290
     0
174
     0
 93
        1
 44
-50.0
173
     0
291
     1
 45
0.0
1001
ACAD
1000
AcDbSavedByObjectVersion
1070
     0
  0
VISUALSTYLE
  5
39
102
{ACAD_REACTORS
330
2A
102
}
330
2A
100
AcDbVisualStyle
  2
Facepattern
 70
    15
 71
     2
 72
     2
 73
     0
 90
        0
 40
-0.6
 41
-30.0
 62
     5
 63
     7
 74
     1
 91
        4
 64
     7
 65
   257
 75
     1
175
     1
 42
1.0
 92
        8
 66
     7
 43
1.0
 76
     1
 77
     6
 78
     2
 67
     7
 79
     5
170
     0
171
     0
290
     0
174
     0
 93
        1
 44
0.0
173
     0
291
     1
 45
0.0
1001
ACAD
1000
AcDbSavedByObjectVersion
1070
     0
  0
VISUALSTYLE
  5
2B
102
{ACAD_REACTORS
330
2A
102
}
330
2A
100
AcDbVisualStyle
  2
Flat
 70
     0
 71
     2
 72
     1
 73
     1
 90
        2
 40
-0.6
 41
30.0
 62
     5
 63
     7
 74
     0
 91
        4
 64
     7
 65
   257
 75
     1
175
     1
 42
1.0
 92
        8
 66
     7
 43
1.0
 76
     1
 77
     6
 78
     2
 67
     7
 79
     5
170
     0
171
     0
290
     0
174
     0
 93
       13
 44
0.0
173
     0
291
     1
 45
0.0
1001
ACAD
1000
AcDbSavedByObjectVersion
1070
     0
  0
VISUALSTYLE
  5
2C
102
{ACAD_REACTORS
330
2A
102
}
330
2A
100
AcDbVisualStyle
  2
FlatWithEdges
 70
     1
 71
     2
 72
     1
 73
     1
 90
        2
 40
-0.6
 41
30.0
 62
     5
 63
     7
 74
     1
 91
        4
 64
     7
 65
   257
 75
     1
175
     1
 42
1.0
 92
        0
 66
   257
 43
1.0
 76
     1
 77
     6
 78
     2
 67
     7
 79
     5
170
     0
171
     0
290
     0
174
     0
 93
       13
 44
0.0
173
     0
291
     1
 45
0.0
1001
ACAD
1000
AcDbSavedByObjectVersion
1070
     0
  0
VISUALSTYLE
  5
2D
102
{ACAD_REACTORS
330
2A
102
}
330
2A
100
AcDbVisualStyle
  2
Gouraud
 70
     2
 71
     2
 72
     2
 73
     1
 90
        2
 40
-0.6
 41
30.0
 62
     5
 63
     7
 74
     0
 91
        4
 64
     7
 65
   257
 75
     1
175
     1
 42
1.0
 92
        0
 66
     7
 43
1.0
 76
     1
 77
     6
 78
     2
 67
     7
 79
     5
170
     0
171
     0
290
     0
174
     0
 93
       13
 44
0.0
173
     0
291
     1
 45
0.0
1001
ACAD
1000
AcDbSavedByObjectVersion
1070
     0
  0
VISUALSTYLE
  5
2E
102
{ACAD_REACTORS
330
2A
102
}
330
2A
100
AcDbVisualStyle
  2
GouraudWithEdges
 70
     3
 71
     2
 72
     2
 73
     1
 90
        2
 40
-0.6
 41
30.0
 62
     5
 63
     7
 74
     1
 91
        4
 64
     7
 65
   257
 75
     1
175
     1
 42
1.0
 92
        0
 66
   257
 43
1.0
 76
     1
 77
     6
 78
     2
 67
     7
 79
     5
170
     0
171
     0
290
     0
174
     0
 93
       13
 44
0.0
173
     0
291
     1
 45
0.0
1001
ACAD
1000
AcDbSavedByObjectVersion
1070
     0
  0
VISUALSTYLE
  5
38
102
{ACAD_REACTORS
330
2A
102
}
330
2A
100
AcDbVisualStyle
  2
Linepattern
 70
    14
 71
     2
 72
     2
 73
     0
 90
        0
 40
-0.6
 41
-30.0
 62
     5
 63
     7
 74
     1
 91
        4
 64
     7
 65
   257
 75
     7
175
     7
 42
1.0
 92
        8
 66
     7
 43
1.0
 76
     1
 77
     6
 78
     2
 67
     7
 79
     5
170
     0
171
     0
290
     0
174
     0
 93
        1
 44
0.0
173
     0
291
     1
 45
0.0
1001
ACAD
1000
AcDbSavedByObjectVersion
1070
     0
  0
VISUALSTYLE
  5
33
102
{ACAD_REACTORS
330
2A
102
}
330
2A
100
AcDbVisualStyle
  2
Realistic
 70
     8
 71
     2
 72
     2
 73
     0
 90
        0
 40
-0.6
 41
-30.0
 62
     5
 63
     7
 74
     1
 91
        0
 64
     7
 65
   257
 75
     1
175
     1
 42
1.0
 92
        8
 66
     8
 43
1.0
 76
     1
 77
     6
 78
     2
 67
     7
 79
     5
170
     0
171
     0
290
     0
174
     0
 93
       13
 44
0.0
173
     0
291
     0
 45
0.0
1001
ACAD
1000
AcDbSavedByObjectVersion
1070
     0
  0
VISUALSTYLE
  5
37
102
{ACAD_REACTORS
330
2A
102
}
330
2A
100
AcDbVisualStyle
  2
Thicken
 70
    13
 71
     2
 72
     2
 73
     0
 90
        0
 40
-0.6
 41
-30.0
 62
     5
 63
     7
 74
     1
 91
        4
 64
     7
 65
   257
 75
     1
175
     1
 42
1.0
 92
       12
 66
     7
 43
1.0
 76
     1
 77
     6
 78
     2
 67
     7
 79
     5
170
     0
171
     0
290
     0
174
     0
 93
        1
 44
0.0
173
     0
291
     1
 45
0.0
1001
ACAD
1000
AcDbSavedByObjectVersion
1070
     0
  0
ENDSEC
  0
EOF
