<?xml version="1.0" encoding="utf-8"?>
<!-- Generator: Adobe Illustrator 16.0.0, SVG Export Plug-In . SVG Version: 6.00 Build 0)  -->
<!DOCTYPE svg PUBLIC "-//W3C//DTD SVG 1.1//EN" "http://www.w3.org/Graphics/SVG/1.1/DTD/svg11.dtd">
<svg version="1.1" id="Layer_1" xmlns="http://www.w3.org/2000/svg" xmlns:xlink="http://www.w3.org/1999/xlink" x="0px" y="0px"
	 width="1296px" height="864px" viewBox="0 0 1296 864" enable-background="new 0 0 1296 864" xml:space="preserve">
<g>
	<path fill-rule="evenodd" clip-rule="evenodd" fill="none" stroke="#000000" stroke-miterlimit="10" d="M715.564,400.389
		c-4.434,5.85-9.75,9.393-16.119,11.717c-17.33,6.32-34.51,13.167-52.731,16.525c-27.68,5.105-54.414,1.284-80.887-7.955
		c-17.694-6.178-33.14-16.01-48.877-25.631c-32.503-19.861-67.117-34.533-104.31-43.403c-16.068-3.831-32.25-5.754-48.547-7.422
		c-34.875-1.847-74.99,4.436-79.294,4.904c-6.998,0.767-13.605,3.138-20.329,5.562c-8.009,2.888-23.388,8.751-25.413,6.562
		c-2.036-3.351-6.701-13.333-9.319-20.153c-10.556-27.533-20.649-55.243-31.123-82.81c-6.456-17-13.339-33.835-19.916-50.792
		c-3.02-7.794-8.262-16.373,2.92-17.602c25.365-4.826,51.153-8.689,77.352-9.728c48.81-1.931,97.485,0.993,146.11,4.242
		c31.05,2.076,62.097,4.269,93.12,6.682c16.4,1.275,32.81,2.502,49.208,3.8c9.763,0.771,17.39,4.735,23.568,12.623
		c17.703,22.589,35.73,44.921,53.811,67.203c18.585,22.899,37.412,45.597,56.066,68.434c9.812,12.014,19.584,24.073,29.202,36.248
		C716.445,387.482,718.232,390.193,715.564,400.389z"/>
	<path fill-rule="evenodd" clip-rule="evenodd" fill="none" stroke="#AEC0E3" stroke-miterlimit="10" d="M611.58,284.345
		c3.192-2.608,3.934-6.981,1.661-9.765l-8.44-10.332c-2.274-2.783-6.708-2.927-9.9-0.319l0,0c-3.191,2.607-3.936,6.979-1.662,9.763
		l8.442,10.333C603.955,286.809,608.389,286.952,611.58,284.345L611.58,284.345z"/>
	<path fill-rule="evenodd" clip-rule="evenodd" fill="none" stroke="#AEC0E3" stroke-miterlimit="10" d="M698.845,398.381
		c-1.399-3.876-5.28-6.027-8.661-4.805l-12.544,4.537c-3.382,1.223-4.987,5.358-3.585,9.234l0,0c1.403,3.877,5.28,6.028,8.663,4.803
		l12.544-4.536C698.643,406.391,700.248,402.258,698.845,398.381L698.845,398.381z"/>
	<path fill-rule="evenodd" clip-rule="evenodd" fill="none" stroke="#AEC0E3" stroke-miterlimit="10" d="M308.086,329.1
		c-0.812-4.041-4.327-6.744-7.852-6.036l-13.079,2.625c-3.526,0.708-5.727,4.558-4.916,8.602l0,0
		c0.812,4.039,4.329,6.742,7.854,6.034l13.08-2.625C306.697,336.992,308.897,333.14,308.086,329.1L308.086,329.1z"/>
	<path fill-rule="evenodd" clip-rule="evenodd" fill="none" stroke="#AEC0E3" stroke-miterlimit="10" d="M284.406,195.434
		c-0.001-4.124-2.917-7.464-6.513-7.463l-13.34,0.004c-3.595,0.001-6.511,3.343-6.51,7.466l0,0c0.001,4.122,2.917,7.462,6.514,7.463
		l13.34-0.004C281.493,202.899,284.407,199.555,284.406,195.434L284.406,195.434z"/>
	
		<circle fill-rule="evenodd" clip-rule="evenodd" fill="none" stroke="#AEC0E3" stroke-miterlimit="10" cx="454.116" cy="223.577" r="5.67"/>
	
		<circle fill-rule="evenodd" clip-rule="evenodd" fill="none" stroke="#AEC0E3" stroke-miterlimit="10" cx="429.476" cy="336.462" r="5.67"/>
</g>
<g>
	<g id="Llsxzl_1_">
		<g>
			<path fill="none" stroke="#020202" stroke-miterlimit="10" d="M903.895,147.732c0.008,1.807-4.673,8.942-6.721,11
				c-21.738,21.887-43.407,43.845-65.103,65.772c-6.841,6.903-14.734,10.934-24.853,9.801c-1.79-0.202-97.873-0.841-128.371-1.076
				c-4.305-0.032-8.971-1.045-12.828-2.911c-37.448-18.07-75.74-33.953-116.215-43.782c-17.645-4.285-35.593-8.286-53.614-9.634
				c-25.714-1.925-51.619-1.521-77.445-1.711c-63.992-0.462-127.986-0.718-191.979-1.021c-14.715-0.077-29.43,0.046-44.145-0.051
				c-5.458-0.03-9.886,1.949-13.571,5.853c-14.006,14.827-28.414,29.3-41.811,44.657c-5.385,6.173-10.802,11.657-18.15,15.17
				c-19.233,0.091-99.02,2.1-104.586,0.488c-0.018-3.603,0.192-87.592-0.421-90.154C4.056,144.123,4.028,138.111,4,132.101
				c0.76-0.286,1.519-0.562,2.28-0.827c9.102-3.091,33.086-1.105,35.206-1.806c3.912-1.317,6.7-4.803,7.727-9.901
				c0.709-3.5,1.417-7.1,1.388-10.655c-0.207-26.723-0.084-53.463-1.169-80.154c-0.491-12.066,5.194-17.797,16.601-17.632
				c27.026,0.397,216.382-0.453,226.813-0.217c20.104,0.456,233.851-0.02,268.399-0.206c2.399-0.012,4.827,0.013,7.192,0.372
				c21.266,3.279,42.537,6.466,63.754,10.008c54.222,9.047,106.068,25.582,155.179,50.34c11.927,6.019,23.323,13.068,35.302,19.84
				c-2.101,4.44-3.571,8.531-5.845,12.129c-3.469,5.473-9.146,10.054-5.072,18.17c7.799,5.479,16.466,11.086,24.553,17.429
				c7.433,5.845,11.424,6.344,18.536,0.094c6.06-5.326,11.89-10.922,18.372-16.9c6.266,4.295,12.33,8.607,18.543,12.67
				C896.864,138.2,902.03,141.375,903.895,147.732z"/>
		</g>
		<path fill="none" stroke="#3C3C3C" stroke-miterlimit="10" d="M225.939,158.347c0.019,4.083-3.278,7.414-7.363,7.433
			l-14.052,0.066c-4.09,0.019-7.414-3.281-7.434-7.364l0,0c-0.019-4.093,3.275-7.423,7.364-7.441l14.052-0.066
			C222.593,150.956,225.92,154.254,225.939,158.347L225.939,158.347z"/>
		<path fill="none" stroke="#3C3C3C" stroke-miterlimit="10" d="M88.839,48.626c0.019,4.087-3.276,7.412-7.363,7.43L67.42,56.123
			c-4.085,0.019-7.414-3.275-7.433-7.363l0,0c-0.02-4.085,3.278-7.413,7.364-7.433l14.056-0.065
			C85.494,41.242,88.82,44.54,88.839,48.626L88.839,48.626z"/>
		<path fill="none" stroke="#3C3C3C" stroke-miterlimit="10" d="M715.561,60.569c-1.107,3.93-5.201,6.217-9.132,5.097l-13.523-3.839
			c-3.931-1.109-6.21-5.204-5.092-9.132l0,0c1.114-3.931,5.202-6.215,9.129-5.1l13.524,3.837
			C714.398,52.547,716.679,56.64,715.561,60.569L715.561,60.569z"/>
		<path fill="none" stroke="#3C3C3C" stroke-miterlimit="10" d="M680.734,212.727c-1.118,3.928-5.204,6.213-9.137,5.096
			l-13.521-3.838c-3.928-1.113-6.211-5.205-5.096-9.133l0,0c1.119-3.938,5.202-6.219,9.138-5.1l13.52,3.838
			C679.566,204.703,681.847,208.795,680.734,212.727L680.734,212.727z"/>
	</g>
	<line fill="none" x1="767.265" y1="172.412" x2="780.979" y2="148.903"/>
</g>
<g>
	<path fill-rule="evenodd" clip-rule="evenodd" fill="none" stroke="#000000" stroke-miterlimit="10" d="M779.814,549.739
		c-0.086,0.131-3.686,4.571-3.872,4.991c-1.16,0.014-8.834,0.729-9.656,0.606c-0.233-0.033-13.346-0.371-13.747-0.337
		c-0.301,0.023-16.169-0.942-16.482-0.981c-1.033-0.128-9.805-0.482-11.32-0.754c-0.767-0.14-10.645-1.008-10.709-1.024
		c-3.527-0.885-20.71-3.874-24.752-4.738c-1.76-0.353-2.656-1.305-3.521-2.587c-0.675-0.989-0.739-1.763-0.6-2.369
		c0.363-1.584,0.694-3.174,1.111-4.744c0.581-2.183,1.222-4.345,1.844-6.514c0.292-1.016,0.604-2.029,0.899-3.046
		c0.406-1.395,4.678-13.381,5.046-14.408c0.147-0.412,6.46-16.414,11.936-36.697c2.724-10.157,6.672-26.143,8.113-32.892
		c1.616-7.562,3.196-15.13,4.783-22.699c0.27-1.278,1.472-9.531,1.549-11.45c0.105-2.596,3.39-35.321,3.59-36.731
		c0.303-2.121,0.474-4.259,0.72-6.388c0.054-0.471,0.354-4.021,0.372-4.137c0.301-1.901,1.929-18.368,1.641-18.58
		c0.12-0.561,2.047-26.627,2.065-26.902c0.141-2.189,0.208-4.391,0.483-6.568c0.14-1.116,0.028-2.15-0.081-3.248
		c-0.138-1.39,0.229-2.825,0.317-4.243c0.042-0.735-0.068-1.481-0.076-2.219c-0.008-0.668-0.041-1.343,0.057-1.996
		c0.173-1.184,0.567-2.312,0.238-3.567c-0.475-1.797,0.159-3.6,0.218-5.406c0.041-1.27,0.039-11.286,0.142-12.02
		c0.125-0.899,0.206-3.016,0.039-3.161c-0.013-0.083-0.043-0.163-0.031-0.237c0.707-4.43,1.138-8.908,2.315-13.256
		c0.112-0.412,1.074-1.287,1.455-1.284c0.187-0.76,0.351-1.509,1.286-1.665c0.187-0.03,0.368-0.304,0.479-0.507
		c0.667-1.184,1.938-1.534,3.039-2.312c0.134-0.312,2.933-1.423,4.26-1.536c0.073-0.119,114.63-25.412,114.864-25.697
		c10.57-2.291,10.266-0.2,13.088,2.798c0.078,1.065,14.447,20.369,26.456,29.892c12.008,9.524,49.018,17.343,49.925,17.538
		c3.136,1.391,5.734,2.735,7.116,4.855c1.197,1.837,1.698,2.462,0.957,9.937c-0.761,7.647-52.01,99.505-53.383,100.618
		c-1.236,4.375-0.936,7.597-0.49,11.229c0.448,3.634,0.326,3.396,0.461,4.38c0.257,1.886,1.084,6.668,1.068,6.968
		c0.196,0.624,1.894,11.308,2.131,12.479c0.344,1.702,11.327,58.101,11.92,59.753c0.177,0.488-0.011,1.096,0.023,1.647
		c0.093,1.519,0.166,3.039,0.354,4.547c0.044,0.356-0.123,2.36-0.696,2.995c-0.098,0.326-0.202,0.666-0.312,1.032
		c-1.453,2.103-2.784,3.593-3.915,4.949c-1.05,0.942-18.151,16.553-18.898,17.222c-0.463,0.412-4.675,4.358-5.536,5.297
		c-0.341,0.278-1.689,1.158-2.015,1.281c-1.23,0.447-5.296,1.662-6.228,1.937c-1.482,0.434-3.031,1.145-4.545,0.819
		c-1.221-0.143-2.574-0.573-4.489-1.174c-0.775-0.246-3.412-1.341-4.111-1.775c-0.219-0.134-3.155-2.638-3.174-2.751
		c-1.086-0.995-7.993-10.279-8.607-10.817c-0.007-0.07-2.807-3.478-3.358-3.887c-0.992-0.734-2.035-1.4-3.063-2.09
		c-0.434-0.295-0.872-0.575-1.417-0.75c-0.177-0.339-2.682-1.535-3.542-2.496c-0.45-0.502-4.726-1.27-5.899-1.452
		c-0.795-0.123-1.62-0.081-2.431-0.092c-0.893-0.012-4.228-0.326-4.973-0.271c-0.798,0.194-3.96,0.489-4.741,0.487
		c-0.424-0.002-0.856,0.044-1.269,0.137c-0.668,0.149-2.39,0.941-2.546,1.262c-0.328-0.07-7.675,3.952-8.399,4.846
		c-0.614,0.756-1.37,1.306-2.03,1.978c-0.663,0.673-5.626,5.357-6.512,6.537c-0.359,0.483-15.083,17.729-15.688,18.496
		c-0.162,0.206-0.3,0.43-0.46,0.641C788.268,537.869,780.58,548.525,779.814,549.739z"/>
	<path fill-rule="evenodd" clip-rule="evenodd" fill="none" stroke="#373737" stroke-miterlimit="10" d="M889.735,394.58
		c1.122,4.619-1.421,9.199-5.678,10.232l0,0c-4.256,1.034-8.618-1.873-9.738-6.488l-2.005-8.261
		c-1.12-4.616,1.424-9.195,5.679-10.23l0,0c4.259-1.031,8.618,1.871,9.739,6.49L889.735,394.58z"/>
	<path fill-rule="evenodd" clip-rule="evenodd" fill="none" stroke="#373737" stroke-miterlimit="10" d="M904.194,484.617
		c1.12,4.619-1.423,9.198-5.679,10.233l0,0c-4.258,1.031-8.617-1.874-9.738-6.492l-2.004-8.258
		c-1.119-4.619,1.421-9.198,5.679-10.231l0,0c4.258-1.033,8.615,1.872,9.737,6.488L904.194,484.617z"/>
</g>
<g>
	<g>
		<path fill="none" stroke="#000000" stroke-miterlimit="10" d="M919.287,7.474c19.87,1.225,19.472,0.83,24.259,3.246
			c1.182,0.598,2.523,1.385,3.484,2.208c1.432,1.785,2.463,2.467,3.889,4.626c1.836,2.788,3.188,6.345,4.302,9.495
			c0.918,3.019,1.22,5.9,1.171,8.842c-0.072,4.146-1.072,8.307-1.88,13.118c-0.469,2.801-18.571,84.75-19.78,88.754
			c-0.43,1.437-1.086,2.825-2.057,4.057c-0.262,0.332-1.619,1.195-2.733,1.508c-1.045,0.295-2.918,0.684-4.508,0.353
			c-2.768-0.572-5.376-2.04-7.964-3.315c-2.713-1.338-199.892-116.055-202.38-117.85c-0.75-0.704-1.213-1.266-1.686-2.131
			c-1.017-1.85-1.715-3.616-1.726-5.896c-0.014-3.242,0.983-7.074,4.174-9.41c1.084-0.791,3.175-2.162,4.338-2.385
			c2.77-0.526,5.645-0.733,8.469-0.688C736.456,2.128,918.249,7.658,919.287,7.474z"/>
		<path fill-rule="evenodd" clip-rule="evenodd" fill="none" stroke="#A5A5A5" stroke-miterlimit="10" d="M783.261,19.592
			c-0.438,4.639-4.554,8.044-9.19,7.606c-4.64-0.439-8.044-4.557-7.607-9.194c0.442-4.636,4.558-8.042,9.194-7.604
			C780.296,10.84,783.7,14.955,783.261,19.592z"/>
		<path fill-rule="evenodd" clip-rule="evenodd" fill="none" stroke="#A5A5A5" stroke-miterlimit="10" d="M868.948,34.167
			c-0.436,4.637-4.549,8.042-9.189,7.604c-4.639-0.439-8.043-4.555-7.604-9.194c0.44-4.636,4.556-8.042,9.19-7.603
			C865.988,25.416,869.391,29.529,868.948,34.167z"/>
		<path fill-rule="evenodd" clip-rule="evenodd" fill="none" stroke="#009CBF" stroke-miterlimit="10" d="M824.003,40.497
			c-0.361,3.849-3.778,6.677-7.626,6.309c-3.852-0.36-6.675-3.778-6.312-7.625c0.363-3.852,3.779-6.675,7.627-6.312
			C821.542,33.233,824.368,36.646,824.003,40.497z"/>
		
			<circle fill-rule="evenodd" clip-rule="evenodd" fill="none" stroke="#009CBF" stroke-miterlimit="10" cx="929.237" cy="75.622" r="7.001"/>
	</g>
</g>
<g>
	<g>
		<path fill="none" stroke="#000000" stroke-miterlimit="10" d="M302.283,628.028c-9.262-0.073-18.492-0.01-27.76-0.661
			c-15.464-1.086-27.56-8.034-37.562-19.417c-2.296-2.615-4.166-6.31-8.706-5.11c-4.602,1.207-4.583,5.533-5.04,8.858
			c-2.562,18.765-4.931,37.565-6.984,56.397c-0.737,6.717,3.611,9.766,12.293,8.628c12.57-1.65,25.082-3.756,37.612-5.729
			c31.568-4.973,63.218-9.112,95.225-9.942c10.23-0.271,20.466-0.691,30.683-1.362c2.929-0.187,5.967-0.79,8.613-2.532
			c3.279-2.165,5.498-4.946,5.056-8.995c-0.415-3.789-3.147-5.614-6.627-6.544c-3.23-0.864-6.437-1.813-9.657-2.729
			C360.826,631.703,331.739,628.245,302.283,628.028z"/>
		<path fill-rule="evenodd" clip-rule="evenodd" fill="none" stroke="#000000" stroke-miterlimit="10" d="M399.087,641.618
			c3.48,0.93,6.212,2.755,6.627,6.544c0.442,4.049-1.777,6.83-5.056,8.995c-2.646,1.742-5.684,2.346-8.613,2.532
			c-10.217,0.671-20.453,1.091-30.683,1.362c-32.007,0.83-63.657,4.97-95.225,9.942c-12.531,1.974-25.042,4.079-37.612,5.729
			c-8.682,1.138-13.03-1.911-12.293-8.628c2.054-18.832,4.422-37.633,6.984-56.397c0.456-3.325,0.438-7.651,5.04-8.858
			c4.54-1.199,6.409,2.495,8.706,5.11c10.001,11.383,22.097,18.331,37.562,19.417c9.268,0.651,18.498,0.588,27.76,0.661
			c29.456,0.217,58.543,3.675,87.147,10.86C392.651,639.805,395.857,640.754,399.087,641.618z"/>
	</g>
	<path fill="none" stroke="#3C3C3C" stroke-miterlimit="10" d="M338.37,643.584c-1.211,4.268,1.435,8.761,5.911,10.029
		c4.476,1.271,9.088-1.16,10.299-5.427s-1.431-8.755-5.908-10.029C344.192,636.887,339.582,639.317,338.37,643.584z"/>
	<path fill="none" stroke="#3C3C3C" stroke-miterlimit="10" d="M294.004,645.031c-1.211,4.265,1.433,8.754,5.909,10.026
		c4.476,1.271,9.088-1.157,10.301-5.422c1.213-4.271-1.434-8.762-5.911-10.033C299.827,638.333,295.217,640.762,294.004,645.031z"/>
	<path fill="none" stroke="#3C3C3C" stroke-miterlimit="10" d="M229.58,647.91c-1.102,3.876,1.151,7.91,5.029,9.013
		c3.876,1.1,7.91-1.148,9.012-5.022c1.1-3.881-1.147-7.916-5.027-9.015C234.717,641.783,230.684,644.032,229.58,647.91z"/>
	<path fill="none" stroke="#3C3C3C" stroke-miterlimit="10" d="M266.87,637.927c-1.102,3.881,1.147,7.916,5.027,9.015
		c3.874,1.104,7.908-1.148,9.012-5.024c1.1-3.875-1.151-7.91-5.027-9.011C272.007,631.803,267.968,634.052,266.87,637.927z"/>
</g>
<g>
	<path fill-rule="evenodd" clip-rule="evenodd" fill="none" stroke="#000000" stroke-miterlimit="10" d="M586.82,723.424
		c0.838,1.411,1.672,2.826,2.508,4.238c0.296,0.503,0.61,0.995,0.876,1.513c0.258,0.503,0.657,1.043,0.628,1.548
		c-0.02,0.372-0.571,0.93-0.981,1.034c-1.69,0.433-3.401,0.859-5.13,1.039c-4.954,0.51-322.769,31.364-326.404,31.902
		c-0.54,0.079-1.949,0.351-2.088,0.235c-1.55-1.265-3.103-2.707-5.122-4.208c-1.418-1.054-4.438-3.152-6.634-4.229
		c-0.399-0.307-4.816-2.415-4.988-2.49c-1.165-0.496-3.909-1.437-4.106-1.458c-0.395-0.041-14.076-3.439-14.671-3.574
		c-1.728-0.397-13.051-2.055-13.593-2.113c-1.422-0.155-2.854-0.216-4.278-0.341c-0.905-0.078-1.801-0.253-2.708-0.293
		c-1.298-0.057-6.887-0.239-8.337-0.013c-4.601,0.721-9.188,1.535-13.758,2.428c-0.711,0.138-13.251,3.896-14.168,4.219
		c-0.362,0.129-0.769,0.19-1.076,0.396c-0.436,0.291-7.422,3.478-11.159,5.805c-0.661,0.413-4.533,3.146-5.476,4.099
		c-0.586,0.592-8.168,6.12-8.698,6.626c-1.12,1.07-2.167,2.212-3.247,3.324c-0.405,0.336-0.768,0.668-1.119,1.014
		c-0.795,0.78-3.341,1.738-3.78,1.782c-3.865,0.396-7.73,0.806-11.587,1.279c-2.095,0.256-4.184,0.586-6.256,0.981
		c-2.927,0.558-5.835,1.233-8.76,1.809c-2.051,0.406-4.141,0.64-6.176,1.121c-1.49,0.352-2.901,1.028-4.372,1.481
		c-2.348,0.724-7.867,2.216-8.223,2.381c-2.32,1.079-12.457,4.873-13.208,5.587c-1.016,0.967-2.205,1.754-3.312,2.63
		c-0.392,0.312-0.76,0.654-1.139,0.983c-0.605,0.366-1.122,0.87-1.733,1.19c-0.827,0.432-1.438,1.067-2.126,1.661
		c-1.557,1.343-3.298,2.475-4.926,3.738c-0.837,0.647-1.575,1.423-2.401,2.085c-0.861,0.693-1.776,1.32-2.666,1.979
		c-0.027,0.021-4.055,4.281-4.465,4.709c-1.992,2.078-8.194,8.985-8.827,9.777c-0.255,0.315-0.515,0.626-0.677,0.822
		c-0.36,0.514-0.582,0.843-0.815,1.161c-0.134,0.182-0.291,0.35-0.439,0.521c-0.7,0.808-1.429,1.59-2.089,2.427
		c-0.969,1.229-1.888,2.5-2.835,3.746c-0.161,0.21-0.4,0.365-0.54,0.587c-1.185,1.857-2.239,3.811-3.562,5.564
		c-1.417,1.875-3.138,3.522-4.611,5.362c-4.995,4.102-8.953,3.967-9.812,4.053c-0.575,0.056-1.2-0.015-1.75-0.188
		c-0.606-0.191-6.258-1.719-3.597-7.39c0.244-0.405,78.491-142.027,81.348-147.549c1.303-0.966,1.091-0.983,2.917-1.749
		c2.75-1.152,5.918-1.457,8.78,0.3c0.793,0.484,1.618,0.917,2.402,1.412c1.48,0.937,2.964,1.873,4.41,2.864
		c0.91,0.629,12.403,7.554,18.115,9.584c1.936,0.688,7.353,1.564,7.999,1.615c1.433,0.113,2.88,0.074,4.319,0.047
		c5.059-0.094,10.125-0.068,15.172-0.353c6.53-0.368,13.048-0.936,19.565-1.52c6.296-0.564,37.658-3.844,47.049-4.821
		c2.101-0.218,358.634-35.866,360.663-35.835c0.649,0.011,1.802,0.4,1.845,0.73c0.241,1.822,0.266,3.681,0.242,5.523
		c-0.015,1.036-0.25,2.071-0.408,3.105c-0.063,0.417-0.123,0.848-0.282,1.231c-0.27,0.642-0.618,1.251-0.932,1.875
		c-0.493,0.987-5.421,9.332-5.831,11.707c-0.573,2.393-0.494,4.658-0.637,6.976c-0.032,1.89-0.211,3.335,0.111,5.646
		c0.25,1.782,0.603,2.928,1.171,5.562c0.599,2.835,0.296,2.093,1.117,5.167c1.271,4.078,0.743,2.164,2.43,5.782
		C582.155,716.071,586.468,722.834,586.82,723.424z"/>
	
		<ellipse transform="matrix(-0.1107 -0.9938 0.9938 -0.1107 -101.8382 1314.4467)" fill-rule="evenodd" clip-rule="evenodd" fill="none" stroke="#6E6E6E" stroke-miterlimit="10" cx="537.138" cy="702.784" rx="8.15" ry="8.224"/>
	
		<ellipse transform="matrix(-0.1106 -0.9939 0.9939 -0.1106 -229.1688 1218.4375)" fill-rule="evenodd" clip-rule="evenodd" fill="none" stroke="#6E6E6E" stroke-miterlimit="10" cx="430.582" cy="711.756" rx="8.15" ry="8.225"/>
	
		<ellipse transform="matrix(-0.1106 -0.9939 0.9939 -0.1106 -361.6125 1123.1641)" fill-rule="evenodd" clip-rule="evenodd" fill="none" stroke="#6E6E6E" stroke-miterlimit="10" cx="321.728" cy="723.377" rx="8.149" ry="8.223"/>
	
		<ellipse transform="matrix(-0.1107 -0.9939 0.9939 -0.1107 -489.9734 1029.238)" fill-rule="evenodd" clip-rule="evenodd" fill="none" stroke="#6E6E6E" stroke-miterlimit="10" cx="215.498" cy="733.835" rx="8.15" ry="8.224"/>
	
		<ellipse transform="matrix(-0.1107 -0.9939 0.9939 -0.1107 -619.6438 931.3105)" fill-rule="evenodd" clip-rule="evenodd" fill="none" stroke="#6E6E6E" stroke-miterlimit="10" cx="106.837" cy="742.878" rx="8.15" ry="8.227"/>
</g>
<g>
	<g>
		<path fill-rule="evenodd" clip-rule="evenodd" fill="none" stroke="#303030" stroke-miterlimit="10" d="M537.754,414.719
			c19.877,14.366,117.143,91.306,124.006,97.515c5.093,4.607,9.416,9.992,8.978,18.324c-30.092,30.643-64.248,56.883-99.866,80.799
			c-25.624,0.604-267.942-1.785-279.545-1.637c-2.778-1.23-5.887-2.441-8.358-4.707c-20.063-16.719-41.131-32.062-60.737-49.281
			c-2.9-2.588-9.081-6.857-9.245-8.793c0.762-19.801,0.752-29.066,1.104-54.898c11.466-11.928,102.831-95.471,112.393-105.396
			c5.391-5.594,11.862-7.565,20.152-6.297c5.189,0.792,9.1,1.449,13.464,2.708c8.551,2.469,106.821,19.54,147.236,26.261
			C517.662,411.035,527.954,412.971,537.754,414.719z"/>
	</g>
	<path fill-rule="evenodd" clip-rule="evenodd" fill="none" stroke="#919191" stroke-miterlimit="10" d="M641.382,535.172
		c-2.898-3.248-3.03-7.859-0.297-10.293l8.706-7.756c2.735-2.436,7.298-1.773,10.195,1.479l0,0c2.896,3.25,3.028,7.859,0.295,10.293
		l-8.708,7.76C648.84,539.088,644.277,538.424,641.382,535.172L641.382,535.172z"/>
	<path fill-rule="evenodd" clip-rule="evenodd" fill="none" stroke="#919191" stroke-miterlimit="10" d="M373.479,402.923
		c0.968-3.99,4.757-6.498,8.47-5.598l11.827,2.863c3.711,0.899,5.934,4.864,4.964,8.855l0,0c-0.966,3.995-4.755,6.5-8.468,5.601
		l-11.827-2.862C374.735,410.88,372.513,406.919,373.479,402.923L373.479,402.923z"/>
	<path fill-rule="evenodd" clip-rule="evenodd" fill="none" stroke="#919191" stroke-miterlimit="10" d="M221.985,528.936
		c3.12-2.584,7.71-2.197,10.248,0.869l8.087,9.77c2.539,3.064,2.066,7.645-1.054,10.23l0,0c-3.124,2.588-7.71,2.195-10.25-0.871
		l-8.091-9.768C218.388,536.1,218.858,531.523,221.985,528.936L221.985,528.936z"/>
</g>
<g>
	<g>
		<path fill-rule="evenodd" clip-rule="evenodd" fill="none" stroke="#414141" stroke-miterlimit="10" d="M234.006,387.561
			l-79.819,300.134c-0.019,0.32-0.09,0.648-0.2,0.945c-0.068,0.186-0.226,0.42-0.396,0.467c-1.015,0.305-1.945,0.779-3.051,0.945
			L13.164,651.945c-0.001-0.012-0.074-0.025-0.114-0.023c-1.207,0.055-1.179-0.773-1.155-1.605c0.03-0.996-0.042-2,0.091-2.979
			l10.724-38.291L9.336,260.169c0.058-0.685,0.129-1.368,0.196-2.054c0.082-0.845,0.113-1.699,0.26-2.532
			c-0.19-8.066,7.021-6.932,7.021-6.932l112.997-0.22c0.122,0.006,0.275,0.063,0.357,0.009c0,0,13.9-1.402,7.219,14.032
			c-0.509,1.172-0.234,2.517-0.797,3.784l-15.035,54.512c-0.673,4.043-1.169,8.115-1.733,12.174
			c-0.051,0.361-0.074,0.726-0.123,1.086c-0.229,1.67-0.547,3.336-0.667,5.016c-0.068,0.975,0.155,1.72,1.609,1.965
			c0.275,0.048,0.565,0.05,0.829,0.138l109.71,32.18C238.418,375.219,235.654,380.783,234.006,387.561z M53.839,535.41
			c0.746-3.738,4.381-6.164,8.119-5.416l0,0c3.738,0.746,6.162,4.383,5.413,8.119L65.017,549.9c-0.747,3.736-4.382,6.16-8.119,5.416
			l0,0c-3.738-0.748-6.162-4.383-5.414-8.119L53.839,535.41z M29.17,619.043c0.747-3.738,4.381-6.162,8.119-5.416l0,0
			c3.738,0.746,6.163,4.381,5.416,8.121l-2.354,11.785c-0.746,3.736-4.38,6.162-8.118,5.414l0,0
			c-3.738-0.746-6.162-4.381-5.417-8.117L29.17,619.043z M39.54,484.691c3.937,0.379,6.822,3.881,6.442,7.82
			c-0.38,3.938-3.882,6.82-7.819,6.439c-3.938-0.379-6.822-3.879-6.442-7.818C32.1,487.197,35.603,484.311,39.54,484.691z
			 M30.283,399.053c3.938,0.382,6.821,3.882,6.442,7.819c-0.38,3.938-3.882,6.822-7.817,6.443c-3.939-0.38-6.824-3.883-6.442-7.819
			C22.845,401.559,26.346,398.674,30.283,399.053z M26.117,308.914c3.938,0.381,6.822,3.881,6.442,7.819
			c-0.38,3.937-3.88,6.822-7.819,6.441c-3.937-0.381-6.822-3.88-6.441-7.818C18.678,311.418,22.181,308.533,26.117,308.914z"/>
		<path fill-rule="evenodd" clip-rule="evenodd" fill="none" d="M30.751,412.528c1.286-0.048,3.367-1.328,3.12-2.822
			c-0.051-0.304-0.343-0.567-0.526-0.85c-0.137,0.24-0.339,0.463-0.405,0.723c-0.292,1.12-1.207,1.625-2.076,2.18
			c-0.195,0.124-0.389,0.25-0.583,0.376C30.473,412.296,30.665,412.454,30.751,412.528z"/>
	</g>
</g>
<g>
	<path fill-rule="evenodd" clip-rule="evenodd" fill="none" stroke="#000000" stroke-miterlimit="10" d="M159.456,778.786
		c0.508-0.912,0.954-1.867,1.541-2.726c0.652-0.956,1.654-1.726,2.112-2.751c0.714-1.607,1.657-2.5,3.487-2.373
		c1.073,0.074,2.161,0.006,3.237-0.061c1.511-0.096,308.809-7.976,318.166-8.209c0.318-0.009,0.641-0.052,0.959-0.021
		c1.031,0.096,2.119,0.059,3.078,0.387c0.643,0.222,1.133,0.951,1.648,1.493c1.105,1.163,6.146,4.394,7.375,5.063
		c0.004-0.057,10.041,5.648,10.342,5.824c0.619,0.359,1.197,0.781,1.803,1.162c1.168,0.74,5.637,2.539,6.572,2.916
		c1.52,0.616,3.086,1.119,4.635,1.66c0.59,0.207,1.195,0.371,1.781,0.585c0.463,0.171,13.586,2.712,14.729,2.888
		c2.215,0.345,4.258,1.311,6.621,1.273c2.904-0.045,5.82,0.74,8.729,0.718c4.533-0.036,16.586-1.212,17.905-1.451
		c0.66-0.12,5.072-1.048,6.617-1.401c1.626-0.373,3.321-0.475,4.935-0.893c2.102-0.547,8.363-3.184,8.619-3.23
		c2.115-0.395,4.037-1.316,5.99-2.167c1.297-0.565,2.646-1.009,3.939-1.587c1.457-0.651,11.477-6.881,12.551-7.925
		c1.236-1.202,3.465-4.535,3.6-4.553c1.428-0.177,2.178-0.21,3.238-0.235c8.676-0.222,17.354-0.369,26.031-0.575
		c1.789-0.043,3.572-0.245,5.361-0.351c1.49-0.088,2.941-0.131,4.424-0.613c1.439-0.467,3.082-0.268,4.615-0.508
		c1.826-0.285,3.631-0.727,5.441-1.104c0.111-0.023,0.217-0.074,0.318-0.125c0.961-0.469,1.893-1.006,2.885-1.396
		c1.883-0.742,3.797-1.405,5.705-2.085c0.514-0.182,3.223-1.557,3.391-1.637c1.717-0.82,3.422-1.662,5.158-2.438
		c0.566-0.253,6.039-3.347,6.145-3.394c1.459-0.651,2.947-1.238,4.369-1.965c1.432-0.729,2.793-1.601,4.188-2.402
		c0.527-0.303,1.092-0.549,1.586-0.893c0.689-0.477,1.354-0.996,1.99-1.543c1.217-1.045,2.424-2.105,3.604-3.192
		c1.396-1.286,2.754-2.614,4.143-3.909c0.756-0.707,1.699-1.276,2.273-2.104c0.627-0.898,10.625-11.393,11.768-13.16
		c0.967-1.502,2.346-2.746,3.598-4.053c1.842-1.925,4.008-3.606,5.527-5.751c1.752-2.475,4.078-2.721,6.65-2.777
		c0.361-0.008,0.721-0.057,1.08-0.035c1.123,0.064,4.4,1.68,4.383,2.308c-0.057,2.062-0.1,4.124-0.158,6.188
		c-0.031,1.068-0.074,2.141-0.139,3.209c-0.018,0.302-0.094,0.612-0.205,0.891c-0.189,0.464-0.855,2.033-1.043,2.313
		c-0.477,0.715-89.609,133.151-90.215,133.978c-0.607,0.824-1.824,2.291-4.594,2.302c-1.957,0.101-5.877,0.158-5.877,0.158
		s-0.68-0.216-1.006-0.364c-1.4-0.68-3.258-2.423-5.033-4.037c-0.398-0.367-0.945-1.014-1.412-1.574
		c-0.926-1.109-1.934-2.256-2.908-3.313c-0.736-0.741-2.254-2.05-3.248-2.979c-1.328-1.294-2.174-1.977-4.127-3.368
		c-0.205-0.104-0.957-0.621-1.148-0.758c-0.689-0.494-1.346-1.047-2.08-1.455c-1.023-0.566-1.285-0.916-2.975-1.709
		c-0.115-0.057-1.422-0.689-2.967-1.228c-3.336-1.2-5.027-1.524-7.535-2.302c-0.877-0.271-1.729-0.746-2.619-0.825
		c-1.895-0.169-7.27-0.872-7.607-0.872c-4.037,0.005-8.074,0.02-12.111,0.106c-9.431,0.201-415.714,9.608-421.62,9.573
		c-0.32-0.002-0.64,0.018-0.959,0.019c-0.6,0.002-1.406,0.239-1.75-0.057c-0.639-0.552-1.002,0.323-2.354-0.481
		c-1.248-0.742-0.932-0.652-1.791-4.66c1.178-4.41,1.449-3.869,1.914-5.095c0.554-1.458,6.244-16.557,6.271-16.712
		c0.211-1.232,1.846-4.547,1.742-8.453c-0.094-3.473-1.846-6.867-2.115-7.9c-0.539-2.061-1.399-4.433-1.486-4.56
		c-0.356-0.522-0.74-1.029-1.043-1.582c-0.354-0.646-0.65-1.325-0.941-2.004c-0.562-1.323-1.171-2.632-1.628-3.989
		c-0.222-0.66-2.97-5.496-4.028-6.984C159.489,780.226,159.471,779.507,159.456,778.786z"/>
	<circle fill="none" stroke="#A3A3A3" stroke-miterlimit="10" cx="217.716" cy="805.648" r="8.15"/>
	<path fill="none" stroke="#A3A3A3" stroke-miterlimit="10" d="M325.957,811.339c4.499-0.098,8.068-3.824,7.972-8.326
		c-0.099-4.497-3.826-8.067-8.326-7.97c-4.5,0.099-8.068,3.825-7.971,8.325S321.457,811.437,325.957,811.339z"/>
	<circle fill="none" stroke="#A3A3A3" stroke-miterlimit="10" cx="434.832" cy="799.996" r="8.149"/>
	<circle fill="none" stroke="#A3A3A3" stroke-miterlimit="10" cx="542.194" cy="798.492" r="8.149"/>
	<circle fill="none" stroke="#A3A3A3" stroke-miterlimit="10" cx="651.991" cy="795.281" r="8.149"/>
</g>
<g>
	<path fill="none" stroke="#000000" stroke-miterlimit="10" d="M829.543,632.834c7.697,20.009,10.588,18.629-14.092,29.222
		c-24.677,10.591-155.312,62.588-155.312,62.588c-20.788,7.677-21.229,10.417-30.415-11.285
		c-9.187-21.705-16.648-40.397-24.998-62.03c-8.35-21.635-7.093-20.523,14.091-29.223c0,0,131.927-53.327,155.31-62.588
		c23.387-9.263,21.528-9.861,30.418,11.287L829.543,632.834z"/>
	<circle fill="none" stroke="#C2DBF2" stroke-miterlimit="10" cx="785.937" cy="660.984" r="8.504"/>
	<circle fill="none" stroke="#C2DBF2" stroke-miterlimit="10" cx="681.941" cy="703.567" r="8.504"/>
</g>
</svg>
