0
SECTION
2
HEADER
9
$INSUNITS
70
4
9
$ACADVER
1
AC1014
9
$HANDSEED
5
FFFF
0
ENDSEC
0
SECTION
2
TABLES
0
TABLE
2
VPORT
5
8
100
AcDbSymbolTable
0
ENDTAB
0
TABLE
2
LTYPE
5
5
100
AcDbSymbolTable
0
LTYPE
5
14
100
AcDbSymbolTableRecord
100
AcDbLinetypeTableRecord
2
BYBLOCK
70
0
0
LTYPE
5
15
100
AcDbSymbolTableRecord
100
AcDbLinetypeTableRecord
2
BYLAYER
70
0
0
ENDTAB
0
TABLE
2
LAYER
5
2
100
AcDbSymbolTable
70
2
0
LAYER
5
50
100
AcDbSymbolTableRecord
100
AcDbLayerTableRecord
2
0
70
0
6
CONTINUOUS
0
ENDTAB
0
TABLE
2
STYLE
5
3
100
AcDbSymbolTable
70
1
0
STYLE
5
11
100
AcDbSymbolTableRecord
100
AcDbTextStyleTableRecord
2
STANDARD
70
0
0
ENDTAB
0
TABLE
2
VIEW
5
6
100
AcDbSymbolTable
70
0
0
ENDTAB
0
TABLE
2
UCS
5
7
100
AcDbSymbolTable
70
0
0
ENDTAB
0
TABLE
2
APPID
5
9
100
AcDbSymbolTable
70
2
0
APPID
5
12
100
AcDbSymbolTableRecord
100
AcDbRegAppTableRecord
2
ACAD
70
0
0
ENDTAB
0
TABLE
2
DIMSTYLE
5
A
100
AcDbSymbolTable
70
1
0
ENDTAB
0
TABLE
2
BLOCK_RECORD
5
1
100
AcDbSymbolTable
70
1
0
BLOCK_RECORD
5
1F
100
AcDbSymbolTableRecord
100
AcDbBlockTableRecord
2
*MODEL_SPACE
0
BLOCK_RECORD
5
1B
100
AcDbSymbolTableRecord
100
AcDbBlockTableRecord
2
*PAPER_SPACE
0
ENDTAB
0
ENDSEC
0
SECTION
2
BLOCKS
0
BLOCK
5
20
100
AcDbEntity
100
AcDbBlockBegin
2
*MODEL_SPACE
0
ENDBLK
5
21
100
AcDbEntity
100
AcDbBlockEnd
0
BLOCK
5
1C
100
AcDbEntity
100
AcDbBlockBegin
2
*PAPER_SPACE
0
ENDBLK
5
1D
100
AcDbEntity
100
AcDbBlockEnd
0
ENDSEC
0
SECTION
2
ENTITIES
0
LWPOLYLINE
5
100
100
AcDbEntity
8
0
100
AcDbPolyline
90
8
70
1
43
0.0
10
-192.5
20
0.07428728722680937
10
-7.5000000000000338
20
0.07428728722679856
42
0.41421356237309503
10
2.4999999999999583
20
10.074287287226795
10
2.4999999999999645
20
125.0742872872268
42
0.41421356237309515
10
-7.5000000000000355
20
135.07428728722681
10
-192.50000000000003
20
135.07428728722678
42
0.41421356237309509
10
-202.50000000000003
20
125.07428728722678
10
-202.50000000000003
20
10.074287287226847
42
0.41421356237309509
0
LINE
5
101
100
AcDbEntity
8
0
100
AcDbLine
10
-100.00000000000001
20
135.07428728722681
30
0
11
-100
21
0.074287287226803708
31
0
0
LWPOLYLINE
5
102
100
AcDbEntity
8
0
100
AcDbPolyline
90
10
70
1
43
0.0
10
-192.50000000000006
20
-31.125609489654565
10
-112.50000000000007
20
-31.125609489654558
10
-112.50000000000007
20
-166.12560948965452
10
-100.00000000000001
20
-166.12560948965452
10
-100.00000000000001
20
-31.125609489654565
10
-112.50000000000011
20
-31.125609489654551
42
0.14814814814814842
10
-112.50000000000007
20
-166.12560948965452
10
-192.50000000000003
20
-166.12560948965452
42
-0.41421356237309509
10
-202.50000000000006
20
-156.12560948965452
10
-202.50000000000011
20
-41.125609489654586
42
-0.41421356237309476
0
LINE
5
103
100
AcDbEntity
8
0
100
AcDbLine
10
-137.5
20
-231.65213947667016
30
0
11
-192.5
21
-231.65213947667016
31
0
0
LINE
5
104
100
AcDbEntity
8
0
100
AcDbLine
10
-202.5
20
-241.65213947667016
30
0
11
-202.5
21
-356.65213947667013
31
0
0
LINE
5
105
100
AcDbEntity
8
0
100
AcDbLine
10
-192.5
20
-366.65213947667013
30
0
11
-137.5
21
-366.6521394766703
31
0
0
LINE
5
106
100
AcDbEntity
8
0
100
AcDbLine
10
-137.5
20
-366.6521394766703
30
0
11
-137.5
21
-231.65213947667016
31
0
0
ARC
5
107
100
AcDbEntity
8
0
100
AcDbCircle
10
-192.49999999999997
20
-241.65213947667019
30
0
40
10.000000000000036
100
AcDbArc
50
90.000000000000171
51
180
0
ARC
5
108
100
AcDbEntity
8
0
100
AcDbCircle
10
-192.49999999999997
20
-356.65213947667013
30
0
40
10.000000000000036
100
AcDbArc
50
180
51
269.99999999999983
0
LINE
5
109
100
AcDbEntity
8
0
100
AcDbLine
10
-122.50000000000007
20
-31.125609489654565
30
0
11
-122.50000000000007
21
-166.12560948965452
31
0
0
LINE
5
110
100
AcDbEntity
8
0
100
AcDbLine
10
-147.49999999999997
20
-231.65213947667016
30
0
11
-147.49999999999997
21
-366.6521394766703
31
0
0
ARC
5
111
100
AcDbEntity
8
0
100
AcDbCircle
10
85.31249999999234
20
-299.1521394766703
30
0
40
232.81249999999267
100
AcDbArc
50
163.14606195703809
51
196.85393804296189
0
LINE
5
112
100
AcDbEntity
8
0
100
AcDbLine
10
-9.9999999999999414
20
-31.125609489654575
30
0
11
-89.999999999999929
21
-31.125609489654572
31
0
0
LINE
5
113
100
AcDbEntity
8
0
100
AcDbLine
10
-89.999999999999929
20
-31.125609489654572
30
0
11
-89.999999999999943
21
-166.12560948965455
31
0
0
LINE
5
114
100
AcDbEntity
8
0
100
AcDbLine
10
-89.999999999999943
20
-166.12560948965455
30
0
11
-9.9999999999999361
21
-166.12560948965461
31
0
0
LINE
5
115
100
AcDbEntity
8
0
100
AcDbLine
10
6.4745712939771124e-14
20
-156.12560948965458
30
0
11
5.7467107711688817e-14
21
-41.125609489654579
31
0
0
ARC
5
116
100
AcDbEntity
8
0
100
AcDbCircle
10
-9.9999999999999432
20
-41.125609489654579
30
0
40
10
100
AcDbArc
50
0
51
89.999999999999986
0
ARC
5
117
100
AcDbEntity
8
0
100
AcDbCircle
10
-9.9999999999999361
20
-156.12560948965458
30
0
40
10.000000000000018
100
AcDbArc
50
-90
51
0
0
LINE
5
118
100
AcDbEntity
8
0
100
AcDbLine
10
-79.999999999999943
20
-31.125609489654572
30
0
11
-79.999999999999943
21
-166.12560948965455
31
0
0
ARC
5
119
100
AcDbEntity
8
0
100
AcDbCircle
10
-312.81250000000068
20
-98.625609489654508
30
0
40
232.81250000000071
100
AcDbArc
50
-16.853938042961321
51
16.853938042961282
0
LINE
5
120
100
AcDbEntity
8
0
100
AcDbLine
10
-192.50000000000006
20
-31.125609489654558
30
0
11
-192.50000000000006
21
-166.12560948965452
31
0
0
LINE
5
121
100
AcDbEntity
8
0
100
AcDbLine
10
-192.50000000000006
20
-98.625609489654551
30
0
11
-157.50000000000006
21
-98.625609489669358
31
0
0
LWPOLYLINE
5
122
100
AcDbEntity
8
0
100
AcDbPolyline
90
8
70
1
43
0.0
10
-9.7500000000000497
20
132.82428728722678
10
-190.25
20
132.82428728722678
42
0.41421356237309603
10
-200.25000000000003
20
122.82428728722677
10
-200.25000000000006
20
12.324287287226843
42
0.41421356237309503
10
-190.25000000000003
20
2.3242872872268117
10
-9.7500000000000426
20
2.3242872872267983
42
0.41421356237309526
10
0.24999999999995864
20
12.324287287226809
10
0.24999999999996581
20
122.82428728722678
42
0.41421356237309503
0
LINE
5
123
100
AcDbEntity
8
0
100
AcDbLine
10
-117.50000000000007
20
-33.375609489654721
30
0
11
-190.25000000000017
21
-33.375609489655652
31
0
0
LINE
5
124
100
AcDbEntity
8
0
100
AcDbLine
10
-200.25000000000003
20
-43.375609489655659
30
0
11
-200.25000000000006
21
-153.87560948965438
31
0
0
LINE
5
125
100
AcDbEntity
8
0
100
AcDbLine
10
-190.25000000000003
20
-163.87560948965441
30
0
11
-117.50000000000007
21
-163.87560948965447
31
0
0
ARC
5
126
100
AcDbEntity
8
0
100
AcDbCircle
10
-190.25000000000003
20
-43.375609489655659
30
0
40
10.000000000000004
100
AcDbArc
50
90.00000000000081
51
180
0
ARC
5
127
100
AcDbEntity
8
0
100
AcDbCircle
10
-190.25000000000003
20
-153.87560948965438
30
0
40
10.000000000000036
100
AcDbArc
50
180
51
270
0
LINE
5
128
100
AcDbEntity
8
0
100
AcDbLine
10
-142.5
20
-233.90213947667047
30
0
11
-190.24999999999994
21
-233.90213947667033
31
0
0
LINE
5
129
100
AcDbEntity
8
0
100
AcDbLine
10
-200.25
20
-243.90213947667036
30
0
11
-200.25000000000006
21
-354.40213947667013
31
0
0
LINE
5
130
100
AcDbEntity
8
0
100
AcDbLine
10
-190.25000000000003
20
-364.40213947667013
30
0
11
-142.5
21
-364.40213947667024
31
0
0
ARC
5
131
100
AcDbEntity
8
0
100
AcDbCircle
10
-190.24999999999994
20
-243.90213947667036
30
0
40
10.000000000000036
100
AcDbArc
50
90
51
180
0
ARC
5
132
100
AcDbEntity
8
0
100
AcDbCircle
10
-190.25000000000003
20
-354.40213947667013
30
0
40
10.000000000000036
100
AcDbArc
50
180
51
270
0
LINE
5
133
100
AcDbEntity
8
0
100
AcDbLine
10
-192.5
20
-231.65213947667016
30
0
11
-192.5
21
-366.65213947667019
31
0
0
LINE
5
134
100
AcDbEntity
8
0
100
AcDbLine
10
-192.5
20
-299.15213947667019
30
0
11
-157.5
21
-299.15213947667019
31
0
0
LINE
5
135
100
AcDbEntity
8
0
100
AcDbLine
10
-2.2499999999999396
20
-43.375609489654593
30
0
11
-2.2499999999999467
21
-153.87560948965455
31
0
0
ARC
5
136
100
AcDbEntity
8
0
100
AcDbCircle
10
-12.249999999999952
20
-43.375609489654593
30
0
40
10.000000000000014
100
AcDbArc
50
0
51
89.999999999999986
0
ARC
5
137
100
AcDbEntity
8
0
100
AcDbCircle
10
-12.249999999999947
20
-153.87560948965455
30
0
40
9.9999999999999822
100
AcDbArc
50
-90
51
0
0
LINE
5
138
100
AcDbEntity
8
0
100
AcDbLine
10
-12.24999999999995
20
-33.375609489654579
30
0
11
-84.999999999999929
21
-33.375609489654579
31
0
0
LINE
5
139
100
AcDbEntity
8
0
100
AcDbLine
10
-12.249999999999945
20
-163.87560948965455
30
0
11
-84.999999999999915
21
-163.87560948965455
31
0
0
LWPOLYLINE
5
140
100
AcDbEntity
8
0
100
AcDbPolyline
90
4
70
1
43
0.0
10
-190.25000000000841
20
133.07428728722678
10
-189.74999999999994
20
133.07428728722675
42
-0.99999999999999989
10
-189.75
20
132.57428728722681
10
-190.24999999999156
20
132.57428728722678
42
-0.99999999999999989
0
LWPOLYLINE
5
141
100
AcDbEntity
8
0
100
AcDbPolyline
90
4
70
1
43
0.0
10
-189.74999999999997
20
2.5742872872267664
42
-0.99999999999999989
10
-189.74999999999997
20
2.074287287226857
10
-190.25
20
2.0742872872268023
42
-0.99999999999999989
10
-190.25000000000006
20
2.574287287226821
0
LWPOLYLINE
5
142
100
AcDbEntity
8
0
100
AcDbPolyline
90
4
70
1
43
0.0
10
-200.50000000000006
20
12.324287287226316
10
-200.50000000000009
20
12.824287287226843
42
-0.99999999999999989
10
-200.00000000000003
20
12.824287287226843
10
-200.00000000000006
20
12.324287287227369
42
-0.99999999999999989
0
LWPOLYLINE
5
143
100
AcDbEntity
8
0
100
AcDbPolyline
90
4
70
1
43
0.0
10
-6.2658211952282272e-14
20
12.824287287226806
42
-0.99999999999999989
10
0.49999999999997996
20
12.824287287226806
10
0.49999999999994443
20
12.324287287227332
42
-0.99999999999999989
10
-2.7131075164277263e-14
20
12.324287287226278
0
LWPOLYLINE
5
144
100
AcDbEntity
8
0
100
AcDbPolyline
90
4
70
1
43
0.0
10
-189.75000000000017
20
-33.625609489655631
10
-190.25000000000011
20
-33.625609489655652
42
-0.99999999999999989
10
-190.2500000000002
20
-33.125609489655645
10
-189.75000000000017
20
-33.125609489655659
42
-0.99999999999999989
0
LWPOLYLINE
5
145
100
AcDbEntity
8
0
100
AcDbPolyline
90
4
70
1
43
0.0
10
-189.74999999999997
20
-164.12560948965438
10
-190.25
20
-164.12560948965444
42
-0.99999999999999989
10
-190.25000000000006
20
-163.62560948965438
10
-189.75000000000006
20
-163.62560948965441
42
-0.99999999999999989
0
LWPOLYLINE
5
146
100
AcDbEntity
8
0
100
AcDbPolyline
90
4
70
1
43
0.0
10
-200.00000000000006
20
-153.87560948965438
42
-0.99999999999999989
10
-200.50000000000006
20
-153.87560948965441
10
-200.50000000000009
20
-153.37560948965489
42
-0.99999999999999989
10
-200.00000000000003
20
-153.37560948965387
0
LWPOLYLINE
5
147
100
AcDbEntity
8
0
100
AcDbPolyline
90
4
70
1
43
0.0
10
-1.9999999999999574
20
-153.87560948965458
10
-1.9999999999999261
20
-153.37560948965404
42
0.99999999999999989
10
-2.4999999999999671
20
-153.37560948965404
10
-2.4999999999999356
20
-153.87560948965455
42
0.99999999999999989
0
LWPOLYLINE
5
148
100
AcDbEntity
8
0
100
AcDbPolyline
90
4
70
1
43
0.0
10
-200.00000000000006
20
-354.4021394766703
10
-200.00000000000003
20
-353.90213947666956
42
0.99999999999999989
10
-200.50000000000009
20
-353.90213947666956
10
-200.50000000000006
20
-354.40213947667064
42
0.99999999999999989
0
LWPOLYLINE
5
149
100
AcDbEntity
8
0
100
AcDbPolyline
90
4
70
1
43
0.0
10
-190.24999999999994
20
-233.65213947667016
10
-189.75
20
-233.65213947667061
42
-0.99999999999999989
10
-189.74999999999989
20
-234.15213947667002
10
-190.24999999999994
20
-234.15213947667047
42
-0.99999999999999989
0
LWPOLYLINE
5
150
100
AcDbEntity
8
0
100
AcDbPolyline
90
4
70
1
43
0.0
10
-190.25000000000003
20
-364.15213947667013
10
-189.74999999999994
20
-364.15213947667007
42
-0.99999999999999989
10
-189.75000000000009
20
-364.65213947667019
10
-190.25000000000003
20
-364.65213947667007
42
-0.99999999999999989
0
LWPOLYLINE
5
151
100
AcDbEntity
8
0
100
AcDbPolyline
90
4
70
1
43
0.0
10
-200.50000000000009
20
-150.37560948965489
42
-0.99999999999999989
10
-200.00000000000003
20
-150.37560948965387
10
-200.00000000000006
20
-150.87560948965435
42
-0.99999999999999989
10
-200.50000000000006
20
-150.87560948965438
0
LWPOLYLINE
5
152
100
AcDbEntity
8
0
100
AcDbPolyline
90
4
70
1
43
0.0
10
-2.499999999999968
20
-150.37560948965506
42
-0.99999999999999989
10
-1.9999999999999261
20
-150.37560948965404
10
-1.9999999999999576
20
-150.87560948965455
42
-0.99999999999999989
10
-2.4999999999999361
20
-150.87560948965458
0
LWPOLYLINE
5
153
100
AcDbEntity
8
0
100
AcDbPolyline
90
4
70
1
43
0.0
10
-200.50000000000009
20
-147.37560948965489
42
-0.99999999999999989
10
-200.00000000000003
20
-147.37560948965384
10
-200.00000000000006
20
-147.87560948965435
42
-0.99999999999999989
10
-200.50000000000006
20
-147.87560948965438
0
LWPOLYLINE
5
154
100
AcDbEntity
8
0
100
AcDbPolyline
90
4
70
1
43
0.0
10
-2.499999999999968
20
-147.37560948965506
42
-0.99999999999999989
10
-1.9999999999999261
20
-147.37560948965404
10
-1.9999999999999574
20
-147.87560948965452
42
-0.99999999999999989
10
-2.4999999999999361
20
-147.87560948965455
0
LWPOLYLINE
5
155
100
AcDbEntity
8
0
100
AcDbPolyline
90
4
70
1
43
0.0
10
-200.50000000000009
20
-144.37560948965486
42
-0.99999999999999989
10
-200.00000000000003
20
-144.37560948965384
10
-200.00000000000006
20
-144.87560948965435
42
-0.99999999999999989
10
-200.50000000000006
20
-144.87560948965438
0
LWPOLYLINE
5
156
100
AcDbEntity
8
0
100
AcDbPolyline
90
4
70
1
43
0.0
10
-2.4999999999999676
20
-144.37560948965506
42
-0.99999999999999989
10
-1.9999999999999265
20
-144.37560948965401
10
-1.9999999999999578
20
-144.87560948965452
42
-0.99999999999999989
10
-2.4999999999999361
20
-144.87560948965455
0
LWPOLYLINE
5
157
100
AcDbEntity
8
0
100
AcDbPolyline
90
4
70
1
43
0.0
10
-200.50000000000009
20
-141.37560948965486
42
-0.99999999999999989
10
-200.00000000000003
20
-141.37560948965384
10
-200.00000000000006
20
-141.87560948965432
42
-0.99999999999999989
10
-200.50000000000006
20
-141.87560948965438
0
LWPOLYLINE
5
158
100
AcDbEntity
8
0
100
AcDbPolyline
90
4
70
1
43
0.0
10
-2.4999999999999685
20
-141.37560948965503
42
-0.99999999999999989
10
-1.9999999999999265
20
-141.37560948965401
10
-1.9999999999999583
20
-141.87560948965452
42
-0.99999999999999989
10
-2.4999999999999365
20
-141.87560948965455
0
LWPOLYLINE
5
159
100
AcDbEntity
8
0
100
AcDbPolyline
90
4
70
1
43
0.0
10
-200.50000000000009
20
-138.37560948965486
42
-0.99999999999999989
10
-200.00000000000003
20
-138.37560948965381
10
-200.00000000000006
20
-138.87560948965432
42
-0.99999999999999989
10
-200.50000000000006
20
-138.87560948965438
0
LWPOLYLINE
5
160
100
AcDbEntity
8
0
100
AcDbPolyline
90
4
70
1
43
0.0
10
-2.4999999999999685
20
-138.37560948965503
42
-0.99999999999999989
10
-1.9999999999999265
20
-138.37560948965401
10
-1.9999999999999578
20
-138.87560948965449
42
-0.99999999999999989
10
-2.4999999999999369
20
-138.87560948965455
0
LWPOLYLINE
5
161
100
AcDbEntity
8
0
100
AcDbPolyline
90
4
70
1
43
0.0
10
-200.50000000000009
20
-135.37560948965483
42
-0.99999999999999989
10
-200.00000000000003
20
-135.37560948965381
10
-200.00000000000006
20
-135.87560948965432
42
-0.99999999999999989
10
-200.50000000000006
20
-135.87560948965435
0
LWPOLYLINE
5
162
100
AcDbEntity
8
0
100
AcDbPolyline
90
4
70
1
43
0.0
10
-2.499999999999968
20
-135.37560948965503
42
-0.99999999999999989
10
-1.9999999999999272
20
-135.37560948965398
10
-1.9999999999999585
20
-135.87560948965449
42
-0.99999999999999989
10
-2.4999999999999369
20
-135.87560948965455
0
LWPOLYLINE
5
163
100
AcDbEntity
8
0
100
AcDbPolyline
90
4
70
1
43
0.0
10
-200.50000000000009
20
-132.37560948965483
42
-0.99999999999999989
10
-200.00000000000003
20
-132.37560948965381
10
-200.00000000000006
20
-132.87560948965432
42
-0.99999999999999989
10
-200.50000000000006
20
-132.87560948965435
0
LWPOLYLINE
5
164
100
AcDbEntity
8
0
100
AcDbPolyline
90
4
70
1
43
0.0
10
-2.4999999999999694
20
-132.37560948965501
42
-0.99999999999999989
10
-1.9999999999999272
20
-132.37560948965398
10
-1.9999999999999587
20
-132.87560948965449
42
-0.99999999999999989
10
-2.4999999999999369
20
-132.87560948965452
0
LWPOLYLINE
5
165
100
AcDbEntity
8
0
100
AcDbPolyline
90
4
70
1
43
0.0
10
-200.50000000000009
20
-129.37560948965483
42
-0.99999999999999989
10
-200.00000000000003
20
-129.37560948965381
10
-200.00000000000006
20
-129.87560948965432
42
-0.99999999999999989
10
-200.50000000000006
20
-129.87560948965435
0
LWPOLYLINE
5
166
100
AcDbEntity
8
0
100
AcDbPolyline
90
4
70
1
43
0.0
10
-2.4999999999999694
20
-129.37560948965501
42
-0.99999999999999989
10
-1.9999999999999272
20
-129.37560948965398
10
-1.9999999999999585
20
-129.87560948965449
42
-0.99999999999999989
10
-2.4999999999999374
20
-129.87560948965452
0
LWPOLYLINE
5
167
100
AcDbEntity
8
0
100
AcDbPolyline
90
4
70
1
43
0.0
10
-200.50000000000009
20
-126.37560948965483
42
-0.99999999999999989
10
-200.00000000000003
20
-126.3756094896538
10
-200.00000000000006
20
-126.87560948965429
42
-0.99999999999999989
10
-200.50000000000006
20
-126.87560948965434
0
LWPOLYLINE
5
168
100
AcDbEntity
8
0
100
AcDbPolyline
90
4
70
1
43
0.0
10
-2.4999999999999685
20
-126.37560948965501
42
-0.99999999999999989
10
-1.9999999999999276
20
-126.37560948965398
10
-1.9999999999999591
20
-126.87560948965448
42
-0.99999999999999989
10
-2.4999999999999374
20
-126.87560948965452
0
LWPOLYLINE
5
169
100
AcDbEntity
8
0
100
AcDbPolyline
90
4
70
1
43
0.0
10
-200.50000000000009
20
-123.37560948965482
42
-0.99999999999999989
10
-200.00000000000003
20
-123.37560948965378
10
-200.00000000000006
20
-123.87560948965429
42
-0.99999999999999989
10
-200.50000000000006
20
-123.87560948965432
0
LWPOLYLINE
5
170
100
AcDbEntity
8
0
100
AcDbPolyline
90
4
70
1
43
0.0
10
-2.4999999999999698
20
-123.37560948965501
42
-0.99999999999999989
10
-1.9999999999999276
20
-123.37560948965397
10
-1.9999999999999594
20
-123.87560948965447
42
-0.99999999999999989
10
-2.4999999999999374
20
-123.87560948965451
0
LWPOLYLINE
5
171
100
AcDbEntity
8
0
100
AcDbPolyline
90
4
70
1
43
0.0
10
-200.50000000000009
20
-120.37560948965481
42
-0.99999999999999989
10
-200.00000000000003
20
-120.37560948965378
10
-200.00000000000006
20
-120.87560948965429
42
-0.99999999999999989
10
-200.50000000000006
20
-120.87560948965432
0
LWPOLYLINE
5
172
100
AcDbEntity
8
0
100
AcDbPolyline
90
4
70
1
43
0.0
10
-2.4999999999999698
20
-120.37560948965499
42
-0.99999999999999989
10
-1.9999999999999276
20
-120.37560948965395
10
-1.9999999999999591
20
-120.87560948965447
42
-0.99999999999999989
10
-2.4999999999999378
20
-120.87560948965449
0
LWPOLYLINE
5
173
100
AcDbEntity
8
0
100
AcDbPolyline
90
4
70
1
43
0.0
10
-200.50000000000009
20
-117.37560948965481
42
-0.99999999999999989
10
-200.00000000000003
20
-117.37560948965378
10
-200.00000000000006
20
-117.87560948965428
42
-0.99999999999999989
10
-200.50000000000006
20
-117.87560948965432
0
LWPOLYLINE
5
174
100
AcDbEntity
8
0
100
AcDbPolyline
90
4
70
1
43
0.0
10
-2.4999999999999694
20
-117.37560948965498
42
-0.99999999999999989
10
-1.9999999999999283
20
-117.37560948965395
10
-1.9999999999999596
20
-117.87560948965447
42
-0.99999999999999989
10
-2.4999999999999378
20
-117.87560948965449
0
LWPOLYLINE
5
175
100
AcDbEntity
8
0
100
AcDbPolyline
90
4
70
1
43
0.0
10
-200.50000000000009
20
-114.37560948965481
42
-0.99999999999999989
10
-200.00000000000003
20
-114.37560948965377
10
-200.00000000000006
20
-114.87560948965427
42
-0.99999999999999989
10
-200.50000000000006
20
-114.87560948965431
0
LWPOLYLINE
5
176
100
AcDbEntity
8
0
100
AcDbPolyline
90
4
70
1
43
0.0
10
-2.4999999999999702
20
-114.37560948965498
42
-0.99999999999999989
10
-1.9999999999999283
20
-114.37560948965395
10
-1.9999999999999598
20
-114.87560948965445
42
-0.99999999999999989
10
-2.4999999999999383
20
-114.87560948965449
0
LWPOLYLINE
5
177
100
AcDbEntity
8
0
100
AcDbPolyline
90
4
70
1
43
0.0
10
-200.50000000000009
20
-111.37560948965479
42
-0.99999999999999989
10
-200.00000000000003
20
-111.37560948965375
10
-200.00000000000006
20
-111.87560948965427
42
-0.99999999999999989
10
-200.50000000000006
20
-111.87560948965429
0
LWPOLYLINE
5
178
100
AcDbEntity
8
0
100
AcDbPolyline
90
4
70
1
43
0.0
10
-2.4999999999999702
20
-111.37560948965498
42
-0.99999999999999989
10
-1.9999999999999283
20
-111.37560948965394
10
-1.9999999999999596
20
-111.87560948965444
42
-0.99999999999999989
10
-2.4999999999999383
20
-111.87560948965448
0
LWPOLYLINE
5
179
100
AcDbEntity
8
0
100
AcDbPolyline
90
4
70
1
43
0.0
10
-200.50000000000009
20
-108.37560948965478
42
-0.99999999999999989
10
-200.00000000000003
20
-108.37560948965375
10
-200.00000000000006
20
-108.87560948965427
42
-0.99999999999999989
10
-200.50000000000006
20
-108.87560948965429
0
LWPOLYLINE
5
180
100
AcDbEntity
8
0
100
AcDbPolyline
90
4
70
1
43
0.0
10
-2.4999999999999698
20
-108.37560948965496
42
-0.99999999999999989
10
-1.9999999999999287
20
-108.37560948965393
10
-1.99999999999996
20
-108.87560948965444
42
-0.99999999999999989
10
-2.4999999999999383
20
-108.87560948965447
0
LWPOLYLINE
5
181
100
AcDbEntity
8
0
100
AcDbPolyline
90
4
70
1
43
0.0
10
-200.50000000000009
20
-105.37560948965478
42
-0.99999999999999989
10
-200.00000000000003
20
-105.37560948965375
10
-200.00000000000006
20
-105.87560948965425
42
-0.99999999999999989
10
-200.50000000000006
20
-105.87560948965429
0
LWPOLYLINE
5
182
100
AcDbEntity
8
0
100
AcDbPolyline
90
4
70
1
43
0.0
10
-2.4999999999999707
20
-105.37560948965495
42
-0.99999999999999989
10
-1.9999999999999287
20
-105.37560948965393
10
-1.99999999999996
20
-105.87560948965444
42
-0.99999999999999989
10
-2.4999999999999387
20
-105.87560948965447
0
LWPOLYLINE
5
183
100
AcDbEntity
8
0
100
AcDbPolyline
90
4
70
1
43
0.0
10
-200.50000000000009
20
-102.37560948965478
42
-0.99999999999999989
10
-200.00000000000003
20
-102.37560948965374
10
-200.00000000000006
20
-102.87560948965424
42
-0.99999999999999989
10
-200.50000000000006
20
-102.87560948965428
0
LWPOLYLINE
5
184
100
AcDbEntity
8
0
100
AcDbPolyline
90
4
70
1
43
0.0
10
-2.4999999999999702
20
-102.37560948965495
42
-0.99999999999999989
10
-1.9999999999999287
20
-102.37560948965393
10
-1.99999999999996
20
-102.87560948965442
42
-0.99999999999999989
10
-2.4999999999999387
20
-102.87560948965447
0
LWPOLYLINE
5
185
100
AcDbEntity
8
0
100
AcDbPolyline
90
4
70
1
43
0.0
10
-200.50000000000009
20
-99.375609489654764
42
-0.99999999999999989
10
-200.00000000000003
20
-99.375609489653726
10
-200.00000000000006
20
-99.875609489654238
42
-0.99999999999999989
10
-200.50000000000006
20
-99.875609489654266
0
LWPOLYLINE
5
186
100
AcDbEntity
8
0
100
AcDbPolyline
90
4
70
1
43
0.0
10
-2.4999999999999702
20
-99.375609489654948
42
-0.99999999999999989
10
-1.9999999999999294
20
-99.375609489653911
10
-1.9999999999999607
20
-99.875609489654408
42
-0.99999999999999989
10
-2.4999999999999387
20
-99.875609489654451
0
LWPOLYLINE
5
187
100
AcDbEntity
8
0
100
AcDbPolyline
90
4
70
1
43
0.0
10
-200.50000000000009
20
-96.375609489654749
42
-0.99999999999999989
10
-200.00000000000003
20
-96.375609489653726
10
-200.00000000000006
20
-96.875609489654238
42
-0.99999999999999989
10
-200.50000000000006
20
-96.875609489654266
0
LWPOLYLINE
5
188
100
AcDbEntity
8
0
100
AcDbPolyline
90
4
70
1
43
0.0
10
-2.4999999999999716
20
-96.375609489654934
42
-0.99999999999999989
10
-1.9999999999999294
20
-96.375609489653897
10
-1.9999999999999607
20
-96.875609489654408
42
-0.99999999999999989
10
-2.4999999999999396
20
-96.875609489654437
0
LWPOLYLINE
5
189
100
AcDbEntity
8
0
100
AcDbPolyline
90
4
70
1
43
0.0
10
-200.50000000000009
20
-93.375609489654749
42
-0.99999999999999989
10
-200.00000000000003
20
-93.375609489653726
10
-200.00000000000006
20
-93.875609489654224
42
-0.99999999999999989
10
-200.50000000000006
20
-93.875609489654266
0
LWPOLYLINE
5
190
100
AcDbEntity
8
0
100
AcDbPolyline
90
4
70
1
43
0.0
10
-2.4999999999999707
20
-93.37560948965492
42
-0.99999999999999989
10
-1.9999999999999294
20
-93.375609489653897
10
-1.9999999999999607
20
-93.875609489654408
42
-0.99999999999999989
10
-2.4999999999999396
20
-93.875609489654437
0
LWPOLYLINE
5
191
100
AcDbEntity
8
0
100
AcDbPolyline
90
4
70
1
43
0.0
10
-200.50000000000009
20
-90.375609489654749
42
-0.99999999999999989
10
-200.00000000000003
20
-90.375609489653712
10
-200.00000000000006
20
-90.875609489654209
42
-0.99999999999999989
10
-200.50000000000006
20
-90.875609489654252
0
LWPOLYLINE
5
192
100
AcDbEntity
8
0
100
AcDbPolyline
90
4
70
1
43
0.0
10
-2.4999999999999707
20
-90.37560948965492
42
-0.99999999999999989
10
-1.9999999999999298
20
-90.375609489653897
10
-1.9999999999999614
20
-90.875609489654394
42
-0.99999999999999989
10
-2.4999999999999396
20
-90.875609489654437
0
LWPOLYLINE
5
193
100
AcDbEntity
8
0
100
AcDbPolyline
90
4
70
1
43
0.0
10
-200.50000000000009
20
-87.375609489654735
42
-0.99999999999999989
10
-200.00000000000003
20
-87.375609489653698
10
-200.00000000000006
20
-87.875609489654209
42
-0.99999999999999989
10
-200.50000000000006
20
-87.875609489654238
0
LWPOLYLINE
5
194
100
AcDbEntity
8
0
100
AcDbPolyline
90
4
70
1
43
0.0
10
-2.499999999999972
20
-87.37560948965492
42
-0.99999999999999989
10
-1.9999999999999298
20
-87.375609489653883
10
-1.9999999999999614
20
-87.87560948965438
42
-0.99999999999999989
10
-2.49999999999994
20
-87.875609489654423
0
LWPOLYLINE
5
195
100
AcDbEntity
8
0
100
AcDbPolyline
90
4
70
1
43
0.0
10
-200.50000000000009
20
-84.375609489654721
42
-0.99999999999999989
10
-200.00000000000003
20
-84.375609489653698
10
-200.00000000000006
20
-84.875609489654209
42
-0.99999999999999989
10
-200.50000000000006
20
-84.875609489654238
0
LWPOLYLINE
5
196
100
AcDbEntity
8
0
100
AcDbPolyline
90
4
70
1
43
0.0
10
-2.4999999999999716
20
-84.375609489654906
42
-0.99999999999999989
10
-1.9999999999999298
20
-84.375609489653868
10
-1.9999999999999614
20
-84.87560948965438
42
-0.99999999999999989
10
-2.49999999999994
20
-84.875609489654408
0
LWPOLYLINE
5
197
100
AcDbEntity
8
0
100
AcDbPolyline
90
4
70
1
43
0.0
10
-200.50000000000009
20
-81.375609489654721
42
-0.99999999999999989
10
-200.00000000000003
20
-81.375609489653698
10
-200.00000000000006
20
-81.875609489654195
42
-0.99999999999999989
10
-200.50000000000006
20
-81.875609489654238
0
LWPOLYLINE
5
198
100
AcDbEntity
8
0
100
AcDbPolyline
90
4
70
1
43
0.0
10
-2.4999999999999716
20
-81.375609489654892
42
-0.99999999999999989
10
-1.9999999999999305
20
-81.375609489653868
10
-1.9999999999999618
20
-81.87560948965438
42
-0.99999999999999989
10
-2.49999999999994
20
-81.875609489654408
0
LWPOLYLINE
5
199
100
AcDbEntity
8
0
100
AcDbPolyline
90
4
70
1
43
0.0
10
-200.50000000000009
20
-78.375609489654707
42
-0.99999999999999989
10
-200.00000000000003
20
-78.375609489653669
10
-200.00000000000006
20
-78.875609489654195
42
-0.99999999999999989
10
-200.50000000000006
20
-78.875609489654209
0
LWPOLYLINE
5
200
100
AcDbEntity
8
0
100
AcDbPolyline
90
4
70
1
43
0.0
10
-2.4999999999999725
20
-78.375609489654892
42
-0.99999999999999989
10
-1.9999999999999305
20
-78.375609489653868
10
-1.999999999999962
20
-78.87560948965438
42
-0.99999999999999989
10
-2.4999999999999405
20
-78.87560948965438
0
LWPOLYLINE
5
201
100
AcDbEntity
8
0
100
AcDbPolyline
90
4
70
1
43
0.0
10
-200.50000000000009
20
-75.375609489654693
42
-0.99999999999999989
10
-200.00000000000003
20
-75.375609489653669
10
-200.00000000000006
20
-75.875609489654195
42
-0.99999999999999989
10
-200.50000000000006
20
-75.875609489654209
0
LWPOLYLINE
5
202
100
AcDbEntity
8
0
100
AcDbPolyline
90
4
70
1
43
0.0
10
-2.499999999999972
20
-75.375609489654892
42
-0.99999999999999989
10
-1.9999999999999305
20
-75.375609489653854
10
-1.9999999999999623
20
-75.87560948965438
42
-0.99999999999999989
10
-2.49999999999994
20
-75.87560948965438
0
LWPOLYLINE
5
203
100
AcDbEntity
8
0
100
AcDbPolyline
90
4
70
1
43
0.0
10
-200.50000000000009
20
-72.375609489654693
42
-0.99999999999999989
10
-200.00000000000003
20
-72.375609489653655
10
-200.00000000000006
20
-72.875609489654181
42
-0.99999999999999989
10
-200.50000000000006
20
-72.875609489654195
0
LWPOLYLINE
5
204
100
AcDbEntity
8
0
100
AcDbPolyline
90
4
70
1
43
0.0
10
-2.499999999999972
20
-72.375609489654877
42
-0.99999999999999989
10
-1.9999999999999309
20
-72.37560948965384
10
-1.9999999999999627
20
-72.875609489654366
42
-0.99999999999999989
10
-2.4999999999999405
20
-72.875609489654366
0
LWPOLYLINE
5
205
100
AcDbEntity
8
0
100
AcDbPolyline
90
4
70
1
43
0.0
10
-200.50000000000009
20
-69.375609489654678
42
-0.99999999999999989
10
-200.00000000000003
20
-69.375609489653655
10
-200.00000000000006
20
-69.875609489654181
42
-0.99999999999999989
10
-200.50000000000006
20
-69.875609489654195
0
LWPOLYLINE
5
206
100
AcDbEntity
8
0
100
AcDbPolyline
90
4
70
1
43
0.0
10
-2.4999999999999729
20
-69.375609489654863
42
-0.99999999999999989
10
-1.9999999999999309
20
-69.37560948965384
10
-1.9999999999999627
20
-69.875609489654366
42
-0.99999999999999989
10
-2.4999999999999409
20
-69.875609489654366
0
LWPOLYLINE
5
207
100
AcDbEntity
8
0
100
AcDbPolyline
90
4
70
1
43
0.0
10
-200.50000000000009
20
-66.375609489654678
42
-0.99999999999999989
10
-200.00000000000003
20
-66.375609489653641
10
-200.00000000000006
20
-66.875609489654167
42
-0.99999999999999989
10
-200.50000000000006
20
-66.875609489654181
0
LWPOLYLINE
5
208
100
AcDbEntity
8
0
100
AcDbPolyline
90
4
70
1
43
0.0
10
-2.4999999999999725
20
-66.375609489654863
42
-0.99999999999999989
10
-1.9999999999999309
20
-66.37560948965384
10
-1.9999999999999629
20
-66.875609489654352
42
-0.99999999999999989
10
-2.4999999999999405
20
-66.875609489654352
0
LWPOLYLINE
5
209
100
AcDbEntity
8
0
100
AcDbPolyline
90
4
70
1
43
0.0
10
-200.50000000000009
20
-63.375609489654671
42
-0.99999999999999989
10
-200.00000000000003
20
-63.375609489653641
10
-200.00000000000006
20
-63.87560948965416
42
-0.99999999999999989
10
-200.50000000000006
20
-63.875609489654181
0
LWPOLYLINE
5
210
100
AcDbEntity
8
0
100
AcDbPolyline
90
4
70
1
43
0.0
10
-2.4999999999999725
20
-63.375609489654856
42
-0.99999999999999989
10
-1.9999999999999316
20
-63.375609489653826
10
-1.9999999999999631
20
-63.875609489654352
42
-0.99999999999999989
10
-2.4999999999999409
20
-63.875609489654352
0
LWPOLYLINE
5
211
100
AcDbEntity
8
0
100
AcDbPolyline
90
4
70
1
43
0.0
10
-200.50000000000009
20
-60.375609489654664
42
-0.99999999999999989
10
-200.00000000000003
20
-60.375609489653634
10
-200.00000000000006
20
-60.875609489654153
42
-0.99999999999999989
10
-200.50000000000006
20
-60.875609489654174
0
LWPOLYLINE
5
212
100
AcDbEntity
8
0
100
AcDbPolyline
90
4
70
1
43
0.0
10
-2.4999999999999738
20
-60.375609489654849
42
-0.99999999999999989
10
-1.9999999999999316
20
-60.375609489653819
10
-1.9999999999999631
20
-60.875609489654337
42
-0.99999999999999989
10
-2.4999999999999414
20
-60.875609489654337
0
LWPOLYLINE
5
213
100
AcDbEntity
8
0
100
AcDbPolyline
90
4
70
1
43
0.0
10
-200.50000000000009
20
-57.375609489654657
42
-0.99999999999999989
10
-200.00000000000003
20
-57.375609489653627
10
-200.00000000000006
20
-57.875609489654146
42
-0.99999999999999989
10
-200.50000000000006
20
-57.875609489654167
0
LWPOLYLINE
5
214
100
AcDbEntity
8
0
100
AcDbPolyline
90
4
70
1
43
0.0
10
-2.4999999999999729
20
-57.375609489654842
42
-0.99999999999999989
10
-1.9999999999999318
20
-57.375609489653812
10
-1.9999999999999636
20
-57.875609489654337
42
-0.99999999999999989
10
-2.4999999999999414
20
-57.875609489654337
0
LWPOLYLINE
5
215
100
AcDbEntity
8
0
100
AcDbPolyline
90
4
70
1
43
0.0
10
-200.50000000000009
20
-54.37560948965465
42
-0.99999999999999989
10
-200.00000000000003
20
-54.37560948965362
10
-200.00000000000006
20
-54.875609489654138
42
-0.99999999999999989
10
-200.50000000000006
20
-54.87560948965416
0
LWPOLYLINE
5
216
100
AcDbEntity
8
0
100
AcDbPolyline
90
4
70
1
43
0.0
10
-2.4999999999999729
20
-54.375609489654835
42
-0.99999999999999989
10
-1.9999999999999321
20
-54.375609489653804
10
-1.9999999999999638
20
-54.875609489654323
42
-0.99999999999999989
10
-2.4999999999999414
20
-54.875609489654323
0
LWPOLYLINE
5
217
100
AcDbEntity
8
0
100
AcDbPolyline
90
4
70
1
43
0.0
10
-200.50000000000009
20
-51.375609489654643
42
-0.99999999999999989
10
-200.00000000000003
20
-51.375609489653613
10
-200.00000000000006
20
-51.875609489654131
42
-0.99999999999999989
10
-200.50000000000006
20
-51.875609489654153
0
LWPOLYLINE
5
218
100
AcDbEntity
8
0
100
AcDbPolyline
90
4
70
1
43
0.0
10
-2.4999999999999742
20
-51.375609489654828
42
-0.99999999999999989
10
-1.9999999999999321
20
-51.375609489653797
10
-1.9999999999999638
20
-51.875609489654323
42
-0.99999999999999989
10
-2.4999999999999418
20
-51.875609489654323
0
LWPOLYLINE
5
219
100
AcDbEntity
8
0
100
AcDbPolyline
90
4
70
1
43
0.0
10
-200.50000000000009
20
-48.375609489654636
42
-0.99999999999999989
10
-200.00000000000003
20
-48.375609489653606
10
-200.00000000000006
20
-48.875609489654124
42
-0.99999999999999989
10
-200.50000000000006
20
-48.875609489654146
0
LWPOLYLINE
5
220
100
AcDbEntity
8
0
100
AcDbPolyline
90
4
70
1
43
0.0
10
-2.4999999999999734
20
-48.375609489654821
42
-0.99999999999999989
10
-1.9999999999999325
20
-48.37560948965379
10
-1.999999999999964
20
-48.875609489654309
42
-0.99999999999999989
10
-2.4999999999999418
20
-48.875609489654309
0
LWPOLYLINE
5
221
100
AcDbEntity
8
0
100
AcDbPolyline
90
4
70
1
43
0.0
10
-200.50000000000009
20
-45.375609489654629
42
-0.99999999999999989
10
-200.00000000000003
20
-45.375609489653598
10
-200.00000000000006
20
-45.875609489654117
42
-0.99999999999999989
10
-200.50000000000006
20
-45.875609489654138
0
LWPOLYLINE
5
222
100
AcDbEntity
8
0
100
AcDbPolyline
90
4
70
1
43
0.0
10
-2.4999999999999738
20
-45.375609489654813
42
-0.99999999999999989
10
-1.9999999999999327
20
-45.375609489653783
10
-1.9999999999999643
20
-45.875609489654309
42
-0.99999999999999989
10
-2.4999999999999418
20
-45.875609489654309
0
LWPOLYLINE
5
223
100
AcDbEntity
8
0
100
AcDbPolyline
90
4
70
1
43
0.0
10
-200.50000000000009
20
-42.375609489654622
42
-0.99999999999999989
10
-200.00000000000003
20
-42.375609489653591
10
-200.00000000000006
20
-42.87560948965411
42
-0.99999999999999989
10
-200.50000000000006
20
-42.875609489654131
0
LWPOLYLINE
5
224
100
AcDbEntity
8
0
100
AcDbPolyline
90
4
70
1
43
0.0
10
-2.4999999999999747
20
-42.375609489654806
42
-0.99999999999999989
10
-1.9999999999999327
20
-42.375609489653776
10
-1.9999999999999643
20
-42.875609489654295
42
-0.99999999999999989
10
-2.4999999999999427
20
-42.875609489654295
0
LWPOLYLINE
5
225
100
AcDbEntity
8
0
100
AcDbPolyline
90
4
70
1
43
0.0
10
-186.74999999999997
20
-164.12560948965438
10
-187.25
20
-164.12560948965444
42
-0.99999999999999989
10
-187.25
20
-163.62560948965438
10
-186.75000000000006
20
-163.62560948965441
42
-0.99999999999999989
0
LWPOLYLINE
5
226
100
AcDbEntity
8
0
100
AcDbPolyline
90
4
70
1
43
0.0
10
-183.74999999999997
20
-164.12560948965438
10
-184.25
20
-164.12560948965444
42
-0.99999999999999989
10
-184.25
20
-163.62560948965438
10
-183.75000000000003
20
-163.62560948965441
42
-0.99999999999999989
0
LWPOLYLINE
5
227
100
AcDbEntity
8
0
100
AcDbPolyline
90
4
70
1
43
0.0
10
-180.74999999999994
20
-164.12560948965438
10
-181.25
20
-164.12560948965444
42
-0.99999999999999989
10
-181.25
20
-163.62560948965438
10
-180.75000000000003
20
-163.62560948965441
42
-0.99999999999999989
0
LWPOLYLINE
5
228
100
AcDbEntity
8
0
100
AcDbPolyline
90
4
70
1
43
0.0
10
-177.74999999999994
20
-164.12560948965438
10
-178.25
20
-164.12560948965444
42
-0.99999999999999989
10
-178.25
20
-163.62560948965438
10
-177.75000000000003
20
-163.62560948965441
42
-0.99999999999999989
0
LWPOLYLINE
5
229
100
AcDbEntity
8
0
100
AcDbPolyline
90
4
70
1
43
0.0
10
-174.74999999999994
20
-164.12560948965438
10
-175.25
20
-164.12560948965444
42
-0.99999999999999989
10
-175.25
20
-163.62560948965438
10
-174.75
20
-163.62560948965441
42
-0.99999999999999989
0
LWPOLYLINE
5
230
100
AcDbEntity
8
0
100
AcDbPolyline
90
4
70
1
43
0.0
10
-171.74999999999994
20
-164.12560948965438
10
-172.24999999999997
20
-164.12560948965438
42
-0.99999999999999989
10
-172.24999999999997
20
-163.62560948965441
10
-171.75
20
-163.62560948965441
42
-0.99999999999999989
0
LWPOLYLINE
5
231
100
AcDbEntity
8
0
100
AcDbPolyline
90
4
70
1
43
0.0
10
-168.74999999999994
20
-164.12560948965438
10
-169.24999999999997
20
-164.12560948965444
42
-0.99999999999999989
10
-169.24999999999997
20
-163.62560948965438
10
-168.75
20
-163.62560948965441
42
-0.99999999999999989
0
LWPOLYLINE
5
232
100
AcDbEntity
8
0
100
AcDbPolyline
90
4
70
1
43
0.0
10
-165.74999999999991
20
-164.12560948965438
10
-166.24999999999997
20
-164.12560948965444
42
-0.99999999999999989
10
-166.24999999999997
20
-163.62560948965438
10
-165.75
20
-163.62560948965441
42
-0.99999999999999989
0
LWPOLYLINE
5
233
100
AcDbEntity
8
0
100
AcDbPolyline
90
4
70
1
43
0.0
10
-162.74999999999991
20
-164.12560948965438
10
-163.24999999999994
20
-164.12560948965444
42
-0.99999999999999989
10
-163.24999999999994
20
-163.62560948965438
10
-162.75
20
-163.62560948965441
42
-0.99999999999999989
0
LWPOLYLINE
5
234
100
AcDbEntity
8
0
100
AcDbPolyline
90
4
70
1
43
0.0
10
-159.74999999999989
20
-164.12560948965438
10
-160.24999999999994
20
-164.12560948965438
42
-0.99999999999999989
10
-160.24999999999994
20
-163.62560948965441
10
-159.75
20
-163.62560948965441
42
-0.99999999999999989
0
LWPOLYLINE
5
235
100
AcDbEntity
8
0
100
AcDbPolyline
90
4
70
1
43
0.0
10
-156.74999999999989
20
-164.12560948965438
10
-157.24999999999991
20
-164.12560948965447
42
-0.99999999999999989
10
-157.24999999999997
20
-163.62560948965435
10
-156.75
20
-163.62560948965441
42
-0.99999999999999989
0
LWPOLYLINE
5
236
100
AcDbEntity
8
0
100
AcDbPolyline
90
4
70
1
43
0.0
10
-153.74999999999989
20
-164.12560948965438
10
-154.24999999999991
20
-164.12560948965438
42
-0.99999999999999989
10
-154.24999999999994
20
-163.62560948965441
10
-153.74999999999997
20
-163.62560948965441
42
-0.99999999999999989
0
LWPOLYLINE
5
237
100
AcDbEntity
8
0
100
AcDbPolyline
90
4
70
1
43
0.0
10
-150.74999999999986
20
-164.12560948965438
10
-151.24999999999991
20
-164.12560948965444
42
-0.99999999999999989
10
-151.24999999999994
20
-163.62560948965438
10
-150.74999999999997
20
-163.62560948965441
42
-0.99999999999999989
0
LWPOLYLINE
5
238
100
AcDbEntity
8
0
100
AcDbPolyline
90
4
70
1
43
0.0
10
-147.74999999999986
20
-164.12560948965438
10
-148.24999999999991
20
-164.12560948965444
42
-0.99999999999999989
10
-148.24999999999994
20
-163.62560948965438
10
-147.74999999999997
20
-163.62560948965441
42
-0.99999999999999989
0
LWPOLYLINE
5
239
100
AcDbEntity
8
0
100
AcDbPolyline
90
4
70
1
43
0.0
10
-144.74999999999986
20
-164.12560948965438
10
-145.24999999999989
20
-164.12560948965444
42
-0.99999999999999989
10
-145.24999999999994
20
-163.62560948965438
10
-144.74999999999997
20
-163.62560948965441
42
-0.99999999999999989
0
LWPOLYLINE
5
240
100
AcDbEntity
8
0
100
AcDbPolyline
90
4
70
1
43
0.0
10
-141.74999999999986
20
-164.12560948965438
10
-142.24999999999989
20
-164.12560948965438
42
-0.99999999999999989
10
-142.24999999999991
20
-163.62560948965441
10
-141.74999999999994
20
-163.62560948965441
42
-0.99999999999999989
0
LWPOLYLINE
5
241
100
AcDbEntity
8
0
100
AcDbPolyline
90
4
70
1
43
0.0
10
-138.74999999999983
20
-164.12560948965438
10
-139.24999999999989
20
-164.12560948965444
42
-0.99999999999999989
10
-139.24999999999991
20
-163.62560948965438
10
-138.74999999999994
20
-163.62560948965441
42
-0.99999999999999989
0
LWPOLYLINE
5
242
100
AcDbEntity
8
0
100
AcDbPolyline
90
4
70
1
43
0.0
10
-135.74999999999983
20
-164.12560948965438
10
-136.24999999999989
20
-164.12560948965444
42
-0.99999999999999989
10
-136.24999999999991
20
-163.62560948965438
10
-135.74999999999994
20
-163.62560948965441
42
-0.99999999999999989
0
LWPOLYLINE
5
243
100
AcDbEntity
8
0
100
AcDbPolyline
90
4
70
1
43
0.0
10
-132.74999999999983
20
-164.12560948965438
10
-133.24999999999986
20
-164.12560948965447
42
-0.99999999999999989
10
-133.24999999999991
20
-163.62560948965435
10
-132.74999999999994
20
-163.62560948965441
42
-0.99999999999999989
0
LWPOLYLINE
5
244
100
AcDbEntity
8
0
100
AcDbPolyline
90
4
70
1
43
0.0
10
-129.74999999999983
20
-164.12560948965438
10
-130.24999999999986
20
-164.12560948965438
42
-0.99999999999999989
10
-130.24999999999989
20
-163.62560948965441
10
-129.74999999999991
20
-163.62560948965441
42
-0.99999999999999989
0
LWPOLYLINE
5
245
100
AcDbEntity
8
0
100
AcDbPolyline
90
4
70
1
43
0.0
10
-126.74999999999982
20
-164.12560948965438
10
-127.24999999999986
20
-164.12560948965444
42
-0.99999999999999989
10
-127.24999999999989
20
-163.62560948965438
10
-126.74999999999991
20
-163.62560948965441
42
-0.99999999999999989
0
LWPOLYLINE
5
246
100
AcDbEntity
8
0
100
AcDbPolyline
90
4
70
1
43
0.0
10
-123.7499999999998
20
-164.12560948965438
10
-124.24999999999984
20
-164.12560948965444
42
-0.99999999999999989
10
-124.24999999999989
20
-163.62560948965438
10
-123.74999999999991
20
-163.62560948965441
42
-0.99999999999999989
0
LWPOLYLINE
5
247
100
AcDbEntity
8
0
100
AcDbPolyline
90
4
70
1
43
0.0
10
-120.7499999999998
20
-164.12560948965438
10
-121.24999999999984
20
-164.12560948965444
42
-0.99999999999999989
10
-121.24999999999987
20
-163.62560948965438
10
-120.7499999999999
20
-163.62560948965441
42
-0.99999999999999989
0
LWPOLYLINE
5
248
100
AcDbEntity
8
0
100
AcDbPolyline
90
4
70
1
43
0.0
10
-117.74999999999979
20
-164.12560948965438
10
-118.24999999999983
20
-164.12560948965438
42
-0.99999999999999989
10
-118.24999999999987
20
-163.62560948965441
10
-117.7499999999999
20
-163.62560948965441
42
-0.99999999999999989
0
LWPOLYLINE
5
249
100
AcDbEntity
8
0
100
AcDbPolyline
90
4
70
1
43
0.0
10
-114.74999999999979
20
-164.12560948965438
10
-115.24999999999983
20
-164.12560948965444
42
-0.99999999999999989
10
-115.24999999999986
20
-163.62560948965438
10
-114.74999999999989
20
-163.62560948965441
42
-0.99999999999999989
0
LWPOLYLINE
5
250
100
AcDbEntity
8
0
100
AcDbPolyline
90
4
70
1
43
0.0
10
-111.74999999999977
20
-164.12560948965438
10
-112.24999999999982
20
-164.12560948965444
42
-0.99999999999999989
10
-112.24999999999986
20
-163.62560948965438
10
-111.74999999999989
20
-163.62560948965441
42
-0.99999999999999989
0
LWPOLYLINE
5
251
100
AcDbEntity
8
0
100
AcDbPolyline
90
4
70
1
43
0.0
10
-108.74999999999977
20
-164.12560948965438
10
-109.24999999999982
20
-164.12560948965447
42
-0.99999999999999989
10
-109.24999999999984
20
-163.62560948965435
10
-108.74999999999987
20
-163.62560948965441
42
-0.99999999999999989
0
LWPOLYLINE
5
252
100
AcDbEntity
8
0
100
AcDbPolyline
90
4
70
1
43
0.0
10
-105.74999999999976
20
-164.12560948965438
10
-106.2499999999998
20
-164.12560948965438
42
-0.99999999999999989
10
-106.24999999999984
20
-163.62560948965441
10
-105.74999999999987
20
-163.62560948965441
42
-0.99999999999999989
0
LWPOLYLINE
5
253
100
AcDbEntity
8
0
100
AcDbPolyline
90
4
70
1
43
0.0
10
-102.74999999999976
20
-164.12560948965438
10
-103.2499999999998
20
-164.12560948965444
42
-0.99999999999999989
10
-103.24999999999983
20
-163.62560948965438
10
-102.74999999999986
20
-163.62560948965441
42
-0.99999999999999989
0
LWPOLYLINE
5
254
100
AcDbEntity
8
0
100
AcDbPolyline
90
4
70
1
43
0.0
10
-99.749999999999744
20
-164.12560948965438
10
-100.24999999999979
20
-164.12560948965444
42
-0.99999999999999989
10
-100.24999999999983
20
-163.62560948965438
10
-99.749999999999858
20
-163.62560948965441
42
-0.99999999999999989
0
LWPOLYLINE
5
255
100
AcDbEntity
8
0
100
AcDbPolyline
90
4
70
1
43
0.0
10
-96.749999999999744
20
-164.12560948965438
10
-97.249999999999787
20
-164.12560948965444
42
-0.99999999999999989
10
-97.249999999999815
20
-163.62560948965438
10
-96.749999999999844
20
-163.62560948965441
42
-0.99999999999999989
0
LWPOLYLINE
5
256
100
AcDbEntity
8
0
100
AcDbPolyline
90
4
70
1
43
0.0
10
-93.74999999999973
20
-164.12560948965438
10
-94.249999999999773
20
-164.12560948965438
42
-0.99999999999999989
10
-94.249999999999815
20
-163.62560948965441
10
-93.749999999999844
20
-163.62560948965441
42
-0.99999999999999989
0
LWPOLYLINE
5
257
100
AcDbEntity
8
0
100
AcDbPolyline
90
4
70
1
43
0.0
10
-90.74999999999973
20
-164.12560948965438
10
-91.249999999999773
20
-164.12560948965444
42
-0.99999999999999989
10
-91.249999999999801
20
-163.62560948965438
10
-90.749999999999829
20
-163.62560948965441
42
-0.99999999999999989
0
LWPOLYLINE
5
258
100
AcDbEntity
8
0
100
AcDbPolyline
90
4
70
1
43
0.0
10
-87.749999999999716
20
-164.12560948965438
10
-88.249999999999758
20
-164.12560948965447
42
-0.99999999999999989
10
-88.249999999999801
20
-163.62560948965435
10
-87.749999999999829
20
-163.62560948965441
42
-0.99999999999999989
0
LWPOLYLINE
5
259
100
AcDbEntity
8
0
100
AcDbPolyline
90
4
70
1
43
0.0
10
-84.749999999999716
20
-164.12560948965438
10
-85.249999999999758
20
-164.12560948965447
42
-0.99999999999999989
10
-85.249999999999787
20
-163.62560948965435
10
-84.749999999999815
20
-163.62560948965441
42
-0.99999999999999989
0
LWPOLYLINE
5
260
100
AcDbEntity
8
0
100
AcDbPolyline
90
4
70
1
43
0.0
10
-81.749999999999702
20
-164.12560948965438
10
-82.249999999999744
20
-164.12560948965438
42
-0.99999999999999989
10
-82.249999999999787
20
-163.62560948965441
10
-81.749999999999815
20
-163.62560948965441
42
-0.99999999999999989
0
LWPOLYLINE
5
261
100
AcDbEntity
8
0
100
AcDbPolyline
90
4
70
1
43
0.0
10
-78.749999999999702
20
-164.12560948965438
10
-79.24999999999973
20
-164.12560948965444
42
-0.99999999999999989
10
-79.249999999999787
20
-163.62560948965438
10
-78.749999999999801
20
-163.62560948965441
42
-0.99999999999999989
0
LWPOLYLINE
5
262
100
AcDbEntity
8
0
100
AcDbPolyline
90
4
70
1
43
0.0
10
-75.749999999999702
20
-164.12560948965438
10
-76.24999999999973
20
-164.12560948965447
42
-0.99999999999999989
10
-76.249999999999773
20
-163.62560948965435
10
-75.749999999999787
20
-163.62560948965441
42
-0.99999999999999989
0
LWPOLYLINE
5
263
100
AcDbEntity
8
0
100
AcDbPolyline
90
4
70
1
43
0.0
10
-72.749999999999687
20
-164.12560948965438
10
-73.249999999999716
20
-164.12560948965444
42
-0.99999999999999989
10
-73.249999999999773
20
-163.62560948965438
10
-72.749999999999787
20
-163.62560948965441
42
-0.99999999999999989
0
LWPOLYLINE
5
264
100
AcDbEntity
8
0
100
AcDbPolyline
90
4
70
1
43
0.0
10
-69.749999999999687
20
-164.12560948965438
10
-70.249999999999716
20
-164.12560948965444
42
-0.99999999999999989
10
-70.249999999999758
20
-163.62560948965438
10
-69.749999999999773
20
-163.62560948965441
42
-0.99999999999999989
0
LWPOLYLINE
5
265
100
AcDbEntity
8
0
100
AcDbPolyline
90
4
70
1
43
0.0
10
-66.749999999999673
20
-164.12560948965438
10
-67.249999999999702
20
-164.12560948965444
42
-0.99999999999999989
10
-67.249999999999758
20
-163.62560948965438
10
-66.749999999999773
20
-163.62560948965441
42
-0.99999999999999989
0
LWPOLYLINE
5
266
100
AcDbEntity
8
0
100
AcDbPolyline
90
4
70
1
43
0.0
10
-63.749999999999673
20
-164.12560948965438
10
-64.249999999999702
20
-164.12560948965444
42
-0.99999999999999989
10
-64.249999999999744
20
-163.62560948965438
10
-63.749999999999758
20
-163.62560948965441
42
-0.99999999999999989
0
LWPOLYLINE
5
267
100
AcDbEntity
8
0
100
AcDbPolyline
90
4
70
1
43
0.0
10
-60.749999999999666
20
-164.12560948965438
10
-61.249999999999687
20
-164.12560948965438
42
-0.99999999999999989
10
-61.249999999999744
20
-163.62560948965441
10
-60.749999999999751
20
-163.62560948965441
42
-0.99999999999999989
0
LWPOLYLINE
5
268
100
AcDbEntity
8
0
100
AcDbPolyline
90
4
70
1
43
0.0
10
-57.749999999999659
20
-164.12560948965438
10
-58.24999999999968
20
-164.12560948965444
42
-0.99999999999999989
10
-58.249999999999737
20
-163.62560948965438
10
-57.749999999999744
20
-163.62560948965441
42
-0.99999999999999989
0
LWPOLYLINE
5
269
100
AcDbEntity
8
0
100
AcDbPolyline
90
4
70
1
43
0.0
10
-54.749999999999652
20
-164.12560948965438
10
-55.249999999999673
20
-164.12560948965444
42
-0.99999999999999989
10
-55.24999999999973
20
-163.62560948965438
10
-54.749999999999737
20
-163.62560948965441
42
-0.99999999999999989
0
LWPOLYLINE
5
270
100
AcDbEntity
8
0
100
AcDbPolyline
90
4
70
1
43
0.0
10
-51.749999999999645
20
-164.12560948965438
10
-52.249999999999666
20
-164.12560948965447
42
-0.99999999999999989
10
-52.249999999999723
20
-163.62560948965435
10
-51.74999999999973
20
-163.62560948965441
42
-0.99999999999999989
0
LWPOLYLINE
5
271
100
AcDbEntity
8
0
100
AcDbPolyline
90
4
70
1
43
0.0
10
-48.749999999999638
20
-164.12560948965438
10
-49.249999999999659
20
-164.12560948965444
42
-0.99999999999999989
10
-49.249999999999716
20
-163.62560948965438
10
-48.749999999999723
20
-163.62560948965441
42
-0.99999999999999989
0
LWPOLYLINE
5
272
100
AcDbEntity
8
0
100
AcDbPolyline
90
4
70
1
43
0.0
10
-45.749999999999631
20
-164.12560948965438
10
-46.249999999999652
20
-164.12560948965444
42
-0.99999999999999989
10
-46.249999999999709
20
-163.62560948965438
10
-45.749999999999716
20
-163.62560948965441
42
-0.99999999999999989
0
LWPOLYLINE
5
273
100
AcDbEntity
8
0
100
AcDbPolyline
90
4
70
1
43
0.0
10
-42.749999999999623
20
-164.12560948965438
10
-43.249999999999645
20
-164.12560948965444
42
-0.99999999999999989
10
-43.249999999999702
20
-163.62560948965438
10
-42.749999999999709
20
-163.62560948965441
42
-0.99999999999999989
0
LWPOLYLINE
5
274
100
AcDbEntity
8
0
100
AcDbPolyline
90
4
70
1
43
0.0
10
-39.749999999999616
20
-164.12560948965438
10
-40.249999999999638
20
-164.12560948965444
42
-0.99999999999999989
10
-40.249999999999694
20
-163.62560948965438
10
-39.749999999999702
20
-163.62560948965441
42
-0.99999999999999989
0
LWPOLYLINE
5
275
100
AcDbEntity
8
0
100
AcDbPolyline
90
4
70
1
43
0.0
10
-36.749999999999609
20
-164.12560948965438
10
-37.249999999999631
20
-164.12560948965444
42
-0.99999999999999989
10
-37.249999999999687
20
-163.62560948965438
10
-36.749999999999694
20
-163.62560948965441
42
-0.99999999999999989
0
LWPOLYLINE
5
276
100
AcDbEntity
8
0
100
AcDbPolyline
90
4
70
1
43
0.0
10
-33.749999999999602
20
-164.12560948965438
10
-34.249999999999623
20
-164.12560948965444
42
-0.99999999999999989
10
-34.24999999999968
20
-163.62560948965438
10
-33.749999999999687
20
-163.62560948965441
42
-0.99999999999999989
0
LWPOLYLINE
5
277
100
AcDbEntity
8
0
100
AcDbPolyline
90
4
70
1
43
0.0
10
-30.749999999999595
20
-164.12560948965438
10
-31.249999999999616
20
-164.12560948965438
42
-0.99999999999999989
10
-31.249999999999673
20
-163.62560948965441
10
-30.74999999999968
20
-163.62560948965441
42
-0.99999999999999989
0
LWPOLYLINE
5
278
100
AcDbEntity
8
0
100
AcDbPolyline
90
4
70
1
43
0.0
10
-27.749999999999588
20
-164.12560948965438
10
-28.249999999999609
20
-164.12560948965444
42
-0.99999999999999989
10
-28.249999999999666
20
-163.62560948965438
10
-27.749999999999673
20
-163.62560948965441
42
-0.99999999999999989
0
LWPOLYLINE
5
279
100
AcDbEntity
8
0
100
AcDbPolyline
90
4
70
1
43
0.0
10
-24.749999999999581
20
-164.12560948965438
10
-25.249999999999602
20
-164.12560948965447
42
-0.99999999999999989
10
-25.249999999999659
20
-163.62560948965435
10
-24.749999999999666
20
-163.62560948965441
42
-0.99999999999999989
0
LWPOLYLINE
5
280
100
AcDbEntity
8
0
100
AcDbPolyline
90
4
70
1
43
0.0
10
-21.749999999999574
20
-164.12560948965438
10
-22.249999999999595
20
-164.12560948965444
42
-0.99999999999999989
10
-22.249999999999652
20
-163.62560948965438
10
-21.749999999999659
20
-163.62560948965441
42
-0.99999999999999989
0
LWPOLYLINE
5
281
100
AcDbEntity
8
0
100
AcDbPolyline
90
4
70
1
43
0.0
10
-18.749999999999559
20
-164.12560948965438
10
-19.249999999999584
20
-164.12560948965438
42
-0.99999999999999989
10
-19.249999999999648
20
-163.62560948965441
10
-18.749999999999659
20
-163.62560948965441
42
-0.99999999999999989
0
LWPOLYLINE
5
282
100
AcDbEntity
8
0
100
AcDbPolyline
90
4
70
1
43
0.0
10
-15.749999999999552
20
-164.12560948965438
10
-16.249999999999577
20
-164.12560948965438
42
-0.99999999999999989
10
-16.249999999999641
20
-163.62560948965441
10
-15.749999999999652
20
-163.62560948965441
42
-0.99999999999999989
0
LWPOLYLINE
5
283
100
AcDbEntity
8
0
100
AcDbPolyline
90
4
70
1
43
0.0
10
-12.749999999999545
20
-164.12560948965438
10
-13.24999999999957
20
-164.12560948965444
42
-0.99999999999999989
10
-13.249999999999634
20
-163.62560948965438
10
-12.749999999999645
20
-163.62560948965441
42
-0.99999999999999989
0
LWPOLYLINE
5
284
100
AcDbEntity
8
0
100
AcDbPolyline
90
4
70
1
43
0.0
10
-9.7499999999995417
20
-164.12560948965438
10
-10.249999999999563
20
-164.12560948965444
42
-0.99999999999999989
10
-10.249999999999627
20
-163.62560948965438
10
-9.7499999999996376
20
-163.62560948965441
42
-0.99999999999999989
0
LWPOLYLINE
5
285
100
AcDbEntity
8
0
100
AcDbPolyline
90
4
70
1
43
0.0
10
-186.75000000000014
20
-33.625609489655631
10
-187.25000000000011
20
-33.625609489655652
42
-0.99999999999999989
10
-187.2500000000002
20
-33.125609489655645
10
-186.75000000000014
20
-33.125609489655659
42
-0.99999999999999989
0
LWPOLYLINE
5
286
100
AcDbEntity
8
0
100
AcDbPolyline
90
4
70
1
43
0.0
10
-183.75000000000014
20
-33.625609489655631
10
-184.25000000000011
20
-33.625609489655652
42
-0.99999999999999989
10
-184.25000000000017
20
-33.125609489655645
10
-183.75000000000014
20
-33.125609489655666
42
-0.99999999999999989
0
LWPOLYLINE
5
287
100
AcDbEntity
8
0
100
AcDbPolyline
90
4
70
1
43
0.0
10
-180.75000000000014
20
-33.625609489655623
10
-181.25000000000011
20
-33.625609489655645
42
-0.99999999999999989
10
-181.25000000000017
20
-33.125609489655638
10
-180.75000000000014
20
-33.125609489655659
42
-0.99999999999999989
0
LWPOLYLINE
5
288
100
AcDbEntity
8
0
100
AcDbPolyline
90
4
70
1
43
0.0
10
-177.75000000000011
20
-33.625609489655631
10
-178.25000000000011
20
-33.625609489655652
42
-0.99999999999999989
10
-178.25000000000017
20
-33.125609489655645
10
-177.75000000000011
20
-33.125609489655659
42
-0.99999999999999989
0
LWPOLYLINE
5
289
100
AcDbEntity
8
0
100
AcDbPolyline
90
4
70
1
43
0.0
10
-174.75000000000011
20
-33.625609489655631
10
-175.25000000000009
20
-33.625609489655645
42
-0.99999999999999989
10
-175.25000000000017
20
-33.125609489655638
10
-174.75000000000011
20
-33.125609489655659
42
-0.99999999999999989
0
LWPOLYLINE
5
290
100
AcDbEntity
8
0
100
AcDbPolyline
90
4
70
1
43
0.0
10
-171.75000000000011
20
-33.625609489655623
10
-172.25000000000009
20
-33.625609489655645
42
-0.99999999999999989
10
-172.25000000000017
20
-33.125609489655638
10
-171.75000000000011
20
-33.125609489655659
42
-0.99999999999999989
0
LWPOLYLINE
5
291
100
AcDbEntity
8
0
100
AcDbPolyline
90
4
70
1
43
0.0
10
-168.75000000000011
20
-33.625609489655623
10
-169.25000000000009
20
-33.625609489655652
42
-0.99999999999999989
10
-169.25000000000014
20
-33.125609489655645
10
-168.75000000000011
20
-33.125609489655659
42
-0.99999999999999989
0
LWPOLYLINE
5
292
100
AcDbEntity
8
0
100
AcDbPolyline
90
4
70
1
43
0.0
10
-165.75000000000011
20
-33.625609489655631
10
-166.25000000000006
20
-33.625609489655652
42
-0.99999999999999989
10
-166.25000000000014
20
-33.125609489655645
10
-165.75000000000011
20
-33.125609489655659
42
-0.99999999999999989
0
LWPOLYLINE
5
293
100
AcDbEntity
8
0
100
AcDbPolyline
90
4
70
1
43
0.0
10
-162.75000000000009
20
-33.625609489655631
10
-163.25000000000006
20
-33.625609489655645
42
-0.99999999999999989
10
-163.25000000000014
20
-33.125609489655638
10
-162.75000000000009
20
-33.125609489655659
42
-0.99999999999999989
0
LWPOLYLINE
5
294
100
AcDbEntity
8
0
100
AcDbPolyline
90
4
70
1
43
0.0
10
-159.75000000000009
20
-33.625609489655623
10
-160.25000000000006
20
-33.625609489655645
42
-0.99999999999999989
10
-160.25000000000011
20
-33.125609489655638
10
-159.75000000000009
20
-33.125609489655659
42
-0.99999999999999989
0
LWPOLYLINE
5
295
100
AcDbEntity
8
0
100
AcDbPolyline
90
4
70
1
43
0.0
10
-156.75000000000009
20
-33.625609489655616
10
-157.25000000000006
20
-33.625609489655652
42
-0.99999999999999989
10
-157.25000000000011
20
-33.125609489655645
10
-156.75000000000009
20
-33.125609489655666
42
-0.99999999999999989
0
LWPOLYLINE
5
296
100
AcDbEntity
8
0
100
AcDbPolyline
90
4
70
1
43
0.0
10
-153.75000000000006
20
-33.625609489655631
10
-154.25000000000006
20
-33.625609489655645
42
-0.99999999999999989
10
-154.25000000000009
20
-33.125609489655638
10
-153.75000000000006
20
-33.125609489655659
42
-0.99999999999999989
0
LWPOLYLINE
5
297
100
AcDbEntity
8
0
100
AcDbPolyline
90
4
70
1
43
0.0
10
-150.75000000000006
20
-33.625609489655631
10
-151.25000000000006
20
-33.625609489655652
42
-0.99999999999999989
10
-151.25000000000009
20
-33.125609489655645
10
-150.75000000000006
20
-33.125609489655659
42
-0.99999999999999989
0
LWPOLYLINE
5
298
100
AcDbEntity
8
0
100
AcDbPolyline
90
4
70
1
43
0.0
10
-147.75000000000006
20
-33.625609489655623
10
-148.25000000000006
20
-33.625609489655652
42
-0.99999999999999989
10
-148.25000000000009
20
-33.125609489655645
10
-147.75000000000006
20
-33.125609489655659
42
-0.99999999999999989
0
LWPOLYLINE
5
299
100
AcDbEntity
8
0
100
AcDbPolyline
90
4
70
1
43
0.0
10
-144.75000000000006
20
-33.625609489655631
10
-145.25000000000003
20
-33.625609489655645
42
-0.99999999999999989
10
-145.25000000000009
20
-33.125609489655631
10
-144.75000000000006
20
-33.125609489655659
42
-0.99999999999999989
0
LWPOLYLINE
5
300
100
AcDbEntity
8
0
100
AcDbPolyline
90
4
70
1
43
0.0
10
-141.75000000000006
20
-33.625609489655631
10
-142.25000000000003
20
-33.625609489655645
42
-0.99999999999999989
10
-142.25000000000006
20
-33.125609489655638
10
-141.75000000000006
20
-33.125609489655659
42
-0.99999999999999989
0
LWPOLYLINE
5
301
100
AcDbEntity
8
0
100
AcDbPolyline
90
4
70
1
43
0.0
10
-138.75000000000003
20
-33.625609489655623
10
-139.25000000000003
20
-33.625609489655652
42
-0.99999999999999989
10
-139.25000000000006
20
-33.125609489655645
10
-138.75000000000003
20
-33.125609489655659
42
-0.99999999999999989
0
LWPOLYLINE
5
302
100
AcDbEntity
8
0
100
AcDbPolyline
90
4
70
1
43
0.0
10
-135.75000000000003
20
-33.625609489655623
10
-136.25000000000003
20
-33.625609489655652
42
-0.99999999999999989
10
-136.25000000000006
20
-33.125609489655645
10
-135.75000000000003
20
-33.125609489655659
42
-0.99999999999999989
0
LWPOLYLINE
5
303
100
AcDbEntity
8
0
100
AcDbPolyline
90
4
70
1
43
0.0
10
-132.75000000000003
20
-33.625609489655623
10
-133.25
20
-33.625609489655652
42
-0.99999999999999989
10
-133.25000000000006
20
-33.125609489655645
10
-132.75000000000003
20
-33.125609489655659
42
-0.99999999999999989
0
LWPOLYLINE
5
304
100
AcDbEntity
8
0
100
AcDbPolyline
90
4
70
1
43
0.0
10
-129.75
20
-33.625609489655631
10
-130.25
20
-33.625609489655645
42
-0.99999999999999989
10
-130.25000000000003
20
-33.125609489655638
10
-129.75
20
-33.125609489655659
42
-0.99999999999999989
0
LWPOLYLINE
5
305
100
AcDbEntity
8
0
100
AcDbPolyline
90
4
70
1
43
0.0
10
-126.75
20
-33.625609489655631
10
-127.25
20
-33.625609489655645
42
-0.99999999999999989
10
-127.25000000000003
20
-33.125609489655638
10
-126.75
20
-33.125609489655659
42
-0.99999999999999989
0
LWPOLYLINE
5
306
100
AcDbEntity
8
0
100
AcDbPolyline
90
4
70
1
43
0.0
10
-123.75
20
-33.625609489655631
10
-124.24999999999999
20
-33.625609489655645
42
-0.99999999999999989
10
-124.25000000000003
20
-33.125609489655638
10
-123.75
20
-33.125609489655659
42
-0.99999999999999989
0
LWPOLYLINE
5
307
100
AcDbEntity
8
0
100
AcDbPolyline
90
4
70
1
43
0.0
10
-120.75
20
-33.625609489655623
10
-121.24999999999999
20
-33.625609489655652
42
-0.99999999999999989
10
-121.25000000000001
20
-33.125609489655645
10
-120.75
20
-33.125609489655659
42
-0.99999999999999989
0
LWPOLYLINE
5
308
100
AcDbEntity
8
0
100
AcDbPolyline
90
4
70
1
43
0.0
10
-117.74999999999999
20
-33.625609489655623
10
-118.24999999999997
20
-33.625609489655652
42
-0.99999999999999989
10
-118.25000000000001
20
-33.125609489655645
10
-117.74999999999999
20
-33.125609489655659
42
-0.99999999999999989
0
LWPOLYLINE
5
309
100
AcDbEntity
8
0
100
AcDbPolyline
90
4
70
1
43
0.0
10
-114.74999999999997
20
-33.625609489655631
10
-115.24999999999997
20
-33.625609489655652
42
-0.99999999999999989
10
-115.25
20
-33.125609489655645
10
-114.74999999999997
20
-33.125609489655659
42
-0.99999999999999989
0
LWPOLYLINE
5
310
100
AcDbEntity
8
0
100
AcDbPolyline
90
4
70
1
43
0.0
10
-111.74999999999997
20
-33.625609489655623
10
-112.24999999999996
20
-33.625609489655645
42
-0.99999999999999989
10
-112.25
20
-33.125609489655638
10
-111.74999999999997
20
-33.125609489655659
42
-0.99999999999999989
0
LWPOLYLINE
5
311
100
AcDbEntity
8
0
100
AcDbPolyline
90
4
70
1
43
0.0
10
-108.74999999999997
20
-33.625609489655616
10
-109.24999999999996
20
-33.625609489655645
42
-0.99999999999999989
10
-109.24999999999999
20
-33.125609489655638
10
-108.74999999999997
20
-33.125609489655659
42
-0.99999999999999989
0
LWPOLYLINE
5
312
100
AcDbEntity
8
0
100
AcDbPolyline
90
4
70
1
43
0.0
10
-105.74999999999996
20
-33.625609489655623
10
-106.24999999999994
20
-33.625609489655645
42
-0.99999999999999989
10
-106.24999999999999
20
-33.125609489655638
10
-105.74999999999996
20
-33.125609489655652
42
-0.99999999999999989
0
LWPOLYLINE
5
313
100
AcDbEntity
8
0
100
AcDbPolyline
90
4
70
1
43
0.0
10
-102.74999999999994
20
-33.625609489655623
10
-103.24999999999994
20
-33.625609489655645
42
-0.99999999999999989
10
-103.24999999999997
20
-33.125609489655631
10
-102.74999999999994
20
-33.125609489655652
42
-0.99999999999999989
0
LWPOLYLINE
5
314
100
AcDbEntity
8
0
100
AcDbPolyline
90
4
70
1
43
0.0
10
-99.749999999999943
20
-33.625609489655616
10
-100.24999999999993
20
-33.625609489655645
42
-0.99999999999999989
10
-100.24999999999997
20
-33.125609489655631
10
-99.749999999999943
20
-33.125609489655659
42
-0.99999999999999989
0
LWPOLYLINE
5
315
100
AcDbEntity
8
0
100
AcDbPolyline
90
4
70
1
43
0.0
10
-96.749999999999943
20
-33.625609489655616
10
-97.249999999999929
20
-33.625609489655645
42
-0.99999999999999989
10
-97.249999999999957
20
-33.125609489655638
10
-96.749999999999943
20
-33.125609489655659
42
-0.99999999999999989
0
LWPOLYLINE
5
316
100
AcDbEntity
8
0
100
AcDbPolyline
90
4
70
1
43
0.0
10
-93.749999999999929
20
-33.625609489655623
10
-94.249999999999915
20
-33.625609489655645
42
-0.99999999999999989
10
-94.249999999999957
20
-33.125609489655638
10
-93.749999999999929
20
-33.125609489655652
42
-0.99999999999999989
0
LWPOLYLINE
5
317
100
AcDbEntity
8
0
100
AcDbPolyline
90
4
70
1
43
0.0
10
-90.749999999999915
20
-33.625609489655623
10
-91.249999999999915
20
-33.625609489655645
42
-0.99999999999999989
10
-91.249999999999943
20
-33.125609489655631
10
-90.749999999999915
20
-33.125609489655652
42
-0.99999999999999989
0
LWPOLYLINE
5
318
100
AcDbEntity
8
0
100
AcDbPolyline
90
4
70
1
43
0.0
10
-87.749999999999915
20
-33.625609489655616
10
-88.249999999999901
20
-33.625609489655645
42
-0.99999999999999989
10
-88.249999999999943
20
-33.125609489655631
10
-87.749999999999915
20
-33.125609489655659
42
-0.99999999999999989
0
LWPOLYLINE
5
319
100
AcDbEntity
8
0
100
AcDbPolyline
90
4
70
1
43
0.0
10
-84.749999999999915
20
-33.625609489655616
10
-85.249999999999901
20
-33.625609489655645
42
-0.99999999999999989
10
-85.249999999999929
20
-33.125609489655638
10
-84.749999999999915
20
-33.125609489655659
42
-0.99999999999999989
0
LWPOLYLINE
5
320
100
AcDbEntity
8
0
100
AcDbPolyline
90
4
70
1
43
0.0
10
-81.749999999999901
20
-33.625609489655623
10
-82.249999999999886
20
-33.625609489655645
42
-0.99999999999999989
10
-82.249999999999929
20
-33.125609489655631
10
-81.749999999999901
20
-33.125609489655652
42
-0.99999999999999989
0
LWPOLYLINE
5
321
100
AcDbEntity
8
0
100
AcDbPolyline
90
4
70
1
43
0.0
10
-78.749999999999886
20
-33.625609489655623
10
-79.249999999999886
20
-33.625609489655645
42
-0.99999999999999989
10
-79.249999999999915
20
-33.125609489655638
10
-78.749999999999886
20
-33.125609489655652
42
-0.99999999999999989
0
LWPOLYLINE
5
322
100
AcDbEntity
8
0
100
AcDbPolyline
90
4
70
1
43
0.0
10
-75.749999999999886
20
-33.625609489655616
10
-76.249999999999872
20
-33.625609489655645
42
-0.99999999999999989
10
-76.249999999999915
20
-33.125609489655638
10
-75.749999999999886
20
-33.125609489655659
42
-0.99999999999999989
0
LWPOLYLINE
5
323
100
AcDbEntity
8
0
100
AcDbPolyline
90
4
70
1
43
0.0
10
-72.749999999999886
20
-33.625609489655623
10
-73.249999999999872
20
-33.625609489655638
42
-0.99999999999999989
10
-73.249999999999901
20
-33.125609489655631
10
-72.749999999999886
20
-33.125609489655652
42
-0.99999999999999989
0
LWPOLYLINE
5
324
100
AcDbEntity
8
0
100
AcDbPolyline
90
4
70
1
43
0.0
10
-69.749999999999872
20
-33.625609489655623
10
-70.249999999999858
20
-33.625609489655645
42
-0.99999999999999989
10
-70.249999999999901
20
-33.125609489655631
10
-69.749999999999872
20
-33.125609489655652
42
-0.99999999999999989
0
LWPOLYLINE
5
325
100
AcDbEntity
8
0
100
AcDbPolyline
90
4
70
1
43
0.0
10
-66.749999999999858
20
-33.625609489655616
10
-67.249999999999858
20
-33.625609489655645
42
-0.99999999999999989
10
-67.249999999999886
20
-33.125609489655638
10
-66.749999999999858
20
-33.125609489655659
42
-0.99999999999999989
0
LWPOLYLINE
5
326
100
AcDbEntity
8
0
100
AcDbPolyline
90
4
70
1
43
0.0
10
-63.749999999999858
20
-33.625609489655616
10
-64.249999999999844
20
-33.625609489655645
42
-0.99999999999999989
10
-64.249999999999886
20
-33.125609489655638
10
-63.749999999999858
20
-33.125609489655659
42
-0.99999999999999989
0
LWPOLYLINE
5
327
100
AcDbEntity
8
0
100
AcDbPolyline
90
4
70
1
43
0.0
10
-60.749999999999851
20
-33.625609489655616
10
-61.249999999999844
20
-33.625609489655645
42
-0.99999999999999989
10
-61.249999999999872
20
-33.125609489655638
10
-60.749999999999851
20
-33.125609489655659
42
-0.99999999999999989
0
LWPOLYLINE
5
328
100
AcDbEntity
8
0
100
AcDbPolyline
90
4
70
1
43
0.0
10
-57.749999999999844
20
-33.625609489655623
10
-58.249999999999829
20
-33.625609489655645
42
-0.99999999999999989
10
-58.249999999999872
20
-33.125609489655631
10
-57.749999999999844
20
-33.125609489655652
42
-0.99999999999999989
0
LWPOLYLINE
5
329
100
AcDbEntity
8
0
100
AcDbPolyline
90
4
70
1
43
0.0
10
-54.749999999999837
20
-33.625609489655623
10
-55.249999999999829
20
-33.625609489655645
42
-0.99999999999999989
10
-55.249999999999858
20
-33.125609489655631
10
-54.749999999999837
20
-33.125609489655652
42
-0.99999999999999989
0
LWPOLYLINE
5
330
100
AcDbEntity
8
0
100
AcDbPolyline
90
4
70
1
43
0.0
10
-51.749999999999829
20
-33.625609489655623
10
-52.249999999999815
20
-33.625609489655645
42
-0.99999999999999989
10
-52.249999999999858
20
-33.125609489655631
10
-51.749999999999829
20
-33.125609489655652
42
-0.99999999999999989
0
LWPOLYLINE
5
331
100
AcDbEntity
8
0
100
AcDbPolyline
90
4
70
1
43
0.0
10
-48.749999999999822
20
-33.625609489655616
10
-49.249999999999815
20
-33.625609489655645
42
-0.99999999999999989
10
-49.249999999999844
20
-33.125609489655638
10
-48.749999999999822
20
-33.125609489655659
42
-0.99999999999999989
0
LWPOLYLINE
5
332
100
AcDbEntity
8
0
100
AcDbPolyline
90
4
70
1
43
0.0
10
-45.749999999999815
20
-33.625609489655616
10
-46.249999999999801
20
-33.625609489655645
42
-0.99999999999999989
10
-46.249999999999844
20
-33.125609489655638
10
-45.749999999999815
20
-33.125609489655659
42
-0.99999999999999989
0
LWPOLYLINE
5
333
100
AcDbEntity
8
0
100
AcDbPolyline
90
4
70
1
43
0.0
10
-42.749999999999808
20
-33.625609489655623
10
-43.249999999999801
20
-33.625609489655645
42
-0.99999999999999989
10
-43.249999999999829
20
-33.125609489655638
10
-42.749999999999808
20
-33.125609489655652
42
-0.99999999999999989
0
LWPOLYLINE
5
334
100
AcDbEntity
8
0
100
AcDbPolyline
90
4
70
1
43
0.0
10
-39.749999999999794
20
-33.625609489655616
10
-40.249999999999787
20
-33.625609489655645
42
-0.99999999999999989
10
-40.249999999999829
20
-33.125609489655631
10
-39.749999999999808
20
-33.125609489655659
42
-0.99999999999999989
0
LWPOLYLINE
5
335
100
AcDbEntity
8
0
100
AcDbPolyline
90
4
70
1
43
0.0
10
-36.749999999999787
20
-33.625609489655616
10
-37.24999999999978
20
-33.625609489655645
42
-0.99999999999999989
10
-37.249999999999822
20
-33.125609489655631
10
-36.749999999999801
20
-33.125609489655659
42
-0.99999999999999989
0
LWPOLYLINE
5
336
100
AcDbEntity
8
0
100
AcDbPolyline
90
4
70
1
43
0.0
10
-33.74999999999978
20
-33.625609489655616
10
-34.249999999999773
20
-33.625609489655645
42
-0.99999999999999989
10
-34.249999999999815
20
-33.125609489655631
10
-33.749999999999794
20
-33.125609489655645
42
-0.99999999999999989
0
LWPOLYLINE
5
337
100
AcDbEntity
8
0
100
AcDbPolyline
90
4
70
1
43
0.0
10
-30.749999999999776
20
-33.625609489655616
10
-31.249999999999766
20
-33.625609489655638
42
-0.99999999999999989
10
-31.249999999999808
20
-33.125609489655631
10
-30.749999999999783
20
-33.125609489655645
42
-0.99999999999999989
0
LWPOLYLINE
5
338
100
AcDbEntity
8
0
100
AcDbPolyline
90
4
70
1
43
0.0
10
-27.749999999999769
20
-33.625609489655616
10
-28.249999999999758
20
-33.625609489655638
42
-0.99999999999999989
10
-28.249999999999801
20
-33.125609489655631
10
-27.749999999999776
20
-33.125609489655652
42
-0.99999999999999989
0
LWPOLYLINE
5
339
100
AcDbEntity
8
0
100
AcDbPolyline
90
4
70
1
43
0.0
10
-24.749999999999762
20
-33.625609489655616
10
-25.249999999999751
20
-33.625609489655645
42
-0.99999999999999989
10
-25.249999999999794
20
-33.125609489655631
10
-24.749999999999769
20
-33.125609489655652
42
-0.99999999999999989
0
LWPOLYLINE
5
340
100
AcDbEntity
8
0
100
AcDbPolyline
90
4
70
1
43
0.0
10
-21.749999999999755
20
-33.625609489655616
10
-22.249999999999744
20
-33.625609489655638
42
-0.99999999999999989
10
-22.249999999999787
20
-33.125609489655631
10
-21.749999999999762
20
-33.125609489655645
42
-0.99999999999999989
0
LWPOLYLINE
5
341
100
AcDbEntity
8
0
100
AcDbPolyline
90
4
70
1
43
0.0
10
-18.749999999999748
20
-33.625609489655616
10
-19.249999999999734
20
-33.625609489655638
42
-0.99999999999999989
10
-19.249999999999783
20
-33.125609489655631
10
-18.749999999999755
20
-33.125609489655645
42
-0.99999999999999989
0
LWPOLYLINE
5
342
100
AcDbEntity
8
0
100
AcDbPolyline
90
4
70
1
43
0.0
10
-15.749999999999741
20
-33.625609489655616
10
-16.249999999999726
20
-33.625609489655645
42
-0.99999999999999989
10
-16.249999999999776
20
-33.125609489655631
10
-15.749999999999748
20
-33.125609489655652
42
-0.99999999999999989
0
LWPOLYLINE
5
343
100
AcDbEntity
8
0
100
AcDbPolyline
90
4
70
1
43
0.0
10
-12.749999999999734
20
-33.625609489655616
10
-13.249999999999719
20
-33.625609489655645
42
-0.99999999999999989
10
-13.249999999999769
20
-33.125609489655631
10
-12.749999999999741
20
-33.125609489655652
42
-0.99999999999999989
0
LWPOLYLINE
5
344
100
AcDbEntity
8
0
100
AcDbPolyline
90
4
70
1
43
0.0
10
-9.7499999999997264
20
-33.625609489655616
10
-10.249999999999712
20
-33.625609489655638
42
-0.99999999999999989
10
-10.249999999999762
20
-33.125609489655631
10
-9.7499999999997335
20
-33.125609489655645
42
-0.99999999999999989
0
LWPOLYLINE
5
345
100
AcDbEntity
8
0
100
AcDbPolyline
90
4
70
1
43
0.0
10
-187.24999999999997
20
2.0742872872268023
42
-0.99999999999999989
10
-187.25000000000006
20
2.574287287226821
10
-186.74999999999997
20
2.5742872872267664
42
-0.99999999999999989
10
-186.74999999999997
20
2.074287287226857
0
LWPOLYLINE
5
346
100
AcDbEntity
8
0
100
AcDbPolyline
90
4
70
1
43
0.0
10
-184.24999999999997
20
2.0742872872268023
42
-0.99999999999999989
10
-184.25000000000006
20
2.574287287226821
10
-183.74999999999997
20
2.5742872872267664
42
-0.99999999999999989
10
-183.74999999999997
20
2.074287287226857
0
LWPOLYLINE
5
347
100
AcDbEntity
8
0
100
AcDbPolyline
90
4
70
1
43
0.0
10
-181.24999999999997
20
2.0742872872268023
42
-0.99999999999999989
10
-181.25000000000003
20
2.574287287226821
10
-180.74999999999994
20
2.5742872872267664
42
-0.99999999999999989
10
-180.74999999999994
20
2.074287287226857
0
LWPOLYLINE
5
348
100
AcDbEntity
8
0
100
AcDbPolyline
90
4
70
1
43
0.0
10
-178.24999999999994
20
2.0742872872268023
42
-0.99999999999999989
10
-178.25000000000003
20
2.574287287226821
10
-177.74999999999994
20
2.5742872872267664
42
-0.99999999999999989
10
-177.74999999999994
20
2.074287287226857
0
LWPOLYLINE
5
349
100
AcDbEntity
8
0
100
AcDbPolyline
90
4
70
1
43
0.0
10
-175.24999999999994
20
2.0742872872268023
42
-0.99999999999999989
10
-175.25000000000003
20
2.574287287226821
10
-174.74999999999994
20
2.5742872872267664
42
-0.99999999999999989
10
-174.74999999999994
20
2.074287287226857
0
LWPOLYLINE
5
350
100
AcDbEntity
8
0
100
AcDbPolyline
90
4
70
1
43
0.0
10
-172.24999999999994
20
2.0742872872268023
42
-0.99999999999999989
10
-172.25
20
2.574287287226821
10
-171.74999999999994
20
2.5742872872267664
42
-0.99999999999999989
10
-171.74999999999994
20
2.074287287226857
0
LWPOLYLINE
5
351
100
AcDbEntity
8
0
100
AcDbPolyline
90
4
70
1
43
0.0
10
-169.24999999999994
20
2.0742872872268023
42
-0.99999999999999989
10
-169.25
20
2.574287287226821
10
-168.74999999999994
20
2.5742872872267664
42
-0.99999999999999989
10
-168.74999999999994
20
2.074287287226857
0
LWPOLYLINE
5
352
100
AcDbEntity
8
0
100
AcDbPolyline
90
4
70
1
43
0.0
10
-166.24999999999994
20
2.0742872872268023
42
-0.99999999999999989
10
-166.25
20
2.574287287226821
10
-165.74999999999991
20
2.5742872872267664
42
-0.99999999999999989
10
-165.74999999999991
20
2.074287287226857
0
LWPOLYLINE
5
353
100
AcDbEntity
8
0
100
AcDbPolyline
90
4
70
1
43
0.0
10
-163.24999999999991
20
2.0742872872268023
42
-0.99999999999999989
10
-163.25
20
2.574287287226821
10
-162.74999999999991
20
2.5742872872267664
42
-0.99999999999999989
10
-162.74999999999991
20
2.074287287226857
0
LWPOLYLINE
5
354
100
AcDbEntity
8
0
100
AcDbPolyline
90
4
70
1
43
0.0
10
-160.24999999999991
20
2.0742872872268023
42
-0.99999999999999989
10
-160.25
20
2.574287287226821
10
-159.74999999999991
20
2.5742872872267664
42
-0.99999999999999989
10
-159.74999999999991
20
2.074287287226857
0
LWPOLYLINE
5
355
100
AcDbEntity
8
0
100
AcDbPolyline
90
4
70
1
43
0.0
10
-157.24999999999991
20
2.0742872872268023
42
-0.99999999999999989
10
-157.24999999999997
20
2.574287287226821
10
-156.74999999999989
20
2.5742872872267664
42
-0.99999999999999989
10
-156.74999999999989
20
2.074287287226857
0
LWPOLYLINE
5
356
100
AcDbEntity
8
0
100
AcDbPolyline
90
4
70
1
43
0.0
10
-154.24999999999989
20
2.0742872872268023
42
-0.99999999999999989
10
-154.24999999999997
20
2.574287287226821
10
-153.74999999999989
20
2.5742872872267664
42
-0.99999999999999989
10
-153.74999999999989
20
2.074287287226857
0
LWPOLYLINE
5
357
100
AcDbEntity
8
0
100
AcDbPolyline
90
4
70
1
43
0.0
10
-151.24999999999989
20
2.0742872872268023
42
-0.99999999999999989
10
-151.24999999999997
20
2.574287287226821
10
-150.74999999999989
20
2.5742872872267664
42
-0.99999999999999989
10
-150.74999999999989
20
2.074287287226857
0
LWPOLYLINE
5
358
100
AcDbEntity
8
0
100
AcDbPolyline
90
4
70
1
43
0.0
10
-148.24999999999989
20
2.0742872872268023
42
-0.99999999999999989
10
-148.24999999999994
20
2.574287287226821
10
-147.74999999999989
20
2.5742872872267664
42
-0.99999999999999989
10
-147.74999999999989
20
2.074287287226857
0
LWPOLYLINE
5
359
100
AcDbEntity
8
0
100
AcDbPolyline
90
4
70
1
43
0.0
10
-145.24999999999989
20
2.0742872872268023
42
-0.99999999999999989
10
-145.24999999999994
20
2.574287287226821
10
-144.74999999999989
20
2.5742872872267664
42
-0.99999999999999989
10
-144.74999999999989
20
2.074287287226857
0
LWPOLYLINE
5
360
100
AcDbEntity
8
0
100
AcDbPolyline
90
4
70
1
43
0.0
10
-142.24999999999989
20
2.0742872872268023
42
-0.99999999999999989
10
-142.24999999999994
20
2.574287287226821
10
-141.74999999999986
20
2.5742872872267664
42
-0.99999999999999989
10
-141.74999999999986
20
2.074287287226857
0
LWPOLYLINE
5
361
100
AcDbEntity
8
0
100
AcDbPolyline
90
4
70
1
43
0.0
10
-139.24999999999986
20
2.0742872872268023
42
-0.99999999999999989
10
-139.24999999999994
20
2.574287287226821
10
-138.74999999999986
20
2.5742872872267664
42
-0.99999999999999989
10
-138.74999999999986
20
2.074287287226857
0
LWPOLYLINE
5
362
100
AcDbEntity
8
0
100
AcDbPolyline
90
4
70
1
43
0.0
10
-136.24999999999986
20
2.0742872872268023
42
-0.99999999999999989
10
-136.24999999999994
20
2.574287287226821
10
-135.74999999999986
20
2.5742872872267664
42
-0.99999999999999989
10
-135.74999999999986
20
2.074287287226857
0
LWPOLYLINE
5
363
100
AcDbEntity
8
0
100
AcDbPolyline
90
4
70
1
43
0.0
10
-133.24999999999986
20
2.0742872872268023
42
-0.99999999999999989
10
-133.24999999999991
20
2.574287287226821
10
-132.74999999999983
20
2.5742872872267664
42
-0.99999999999999989
10
-132.74999999999983
20
2.074287287226857
0
LWPOLYLINE
5
364
100
AcDbEntity
8
0
100
AcDbPolyline
90
4
70
1
43
0.0
10
-130.24999999999983
20
2.0742872872268023
42
-0.99999999999999989
10
-130.24999999999991
20
2.574287287226821
10
-129.74999999999983
20
2.5742872872267664
42
-0.99999999999999989
10
-129.74999999999983
20
2.074287287226857
0
LWPOLYLINE
5
365
100
AcDbEntity
8
0
100
AcDbPolyline
90
4
70
1
43
0.0
10
-127.24999999999983
20
2.0742872872268023
42
-0.99999999999999989
10
-127.24999999999991
20
2.574287287226821
10
-126.74999999999983
20
2.5742872872267664
42
-0.99999999999999989
10
-126.74999999999983
20
2.074287287226857
0
LWPOLYLINE
5
366
100
AcDbEntity
8
0
100
AcDbPolyline
90
4
70
1
43
0.0
10
-124.24999999999983
20
2.0742872872268023
42
-0.99999999999999989
10
-124.2499999999999
20
2.574287287226821
10
-123.74999999999983
20
2.5742872872267664
42
-0.99999999999999989
10
-123.74999999999983
20
2.074287287226857
0
LWPOLYLINE
5
367
100
AcDbEntity
8
0
100
AcDbPolyline
90
4
70
1
43
0.0
10
-121.24999999999983
20
2.0742872872268023
42
-0.99999999999999989
10
-121.24999999999989
20
2.574287287226821
10
-120.74999999999982
20
2.5742872872267664
42
-0.99999999999999989
10
-120.74999999999982
20
2.074287287226857
0
LWPOLYLINE
5
368
100
AcDbEntity
8
0
100
AcDbPolyline
90
4
70
1
43
0.0
10
-118.24999999999982
20
2.0742872872268023
42
-0.99999999999999989
10
-118.24999999999989
20
2.574287287226821
10
-117.7499999999998
20
2.5742872872267664
42
-0.99999999999999989
10
-117.7499999999998
20
2.074287287226857
0
LWPOLYLINE
5
369
100
AcDbEntity
8
0
100
AcDbPolyline
90
4
70
1
43
0.0
10
-115.2499999999998
20
2.0742872872268023
42
-0.99999999999999989
10
-115.24999999999989
20
2.574287287226821
10
-114.7499999999998
20
2.5742872872267664
42
-0.99999999999999989
10
-114.7499999999998
20
2.074287287226857
0
LWPOLYLINE
5
370
100
AcDbEntity
8
0
100
AcDbPolyline
90
4
70
1
43
0.0
10
-112.2499999999998
20
2.0742872872268023
42
-0.99999999999999989
10
-112.24999999999987
20
2.574287287226821
10
-111.7499999999998
20
2.5742872872267664
42
-0.99999999999999989
10
-111.7499999999998
20
2.074287287226857
0
LWPOLYLINE
5
371
100
AcDbEntity
8
0
100
AcDbPolyline
90
4
70
1
43
0.0
10
-109.2499999999998
20
2.0742872872268023
42
-0.99999999999999989
10
-109.24999999999986
20
2.574287287226821
10
-108.74999999999979
20
2.5742872872267664
42
-0.99999999999999989
10
-108.74999999999979
20
2.074287287226857
0
LWPOLYLINE
5
372
100
AcDbEntity
8
0
100
AcDbPolyline
90
4
70
1
43
0.0
10
-106.24999999999979
20
2.0742872872268023
42
-0.99999999999999989
10
-106.24999999999986
20
2.574287287226821
10
-105.74999999999977
20
2.5742872872267664
42
-0.99999999999999989
10
-105.74999999999977
20
2.074287287226857
0
LWPOLYLINE
5
373
100
AcDbEntity
8
0
100
AcDbPolyline
90
4
70
1
43
0.0
10
-103.24999999999977
20
2.0742872872268023
42
-0.99999999999999989
10
-103.24999999999986
20
2.574287287226821
10
-102.74999999999977
20
2.5742872872267664
42
-0.99999999999999989
10
-102.74999999999977
20
2.074287287226857
0
LWPOLYLINE
5
374
100
AcDbEntity
8
0
100
AcDbPolyline
90
4
70
1
43
0.0
10
-100.24999999999977
20
2.0742872872268023
42
-0.99999999999999989
10
-100.24999999999984
20
2.574287287226821
10
-99.749999999999773
20
2.5742872872267664
42
-0.99999999999999989
10
-99.749999999999773
20
2.074287287226857
0
LWPOLYLINE
5
375
100
AcDbEntity
8
0
100
AcDbPolyline
90
4
70
1
43
0.0
10
-97.249999999999773
20
2.0742872872268023
42
-0.99999999999999989
10
-97.249999999999829
20
2.574287287226821
10
-96.749999999999758
20
2.5742872872267664
42
-0.99999999999999989
10
-96.749999999999758
20
2.074287287226857
0
LWPOLYLINE
5
376
100
AcDbEntity
8
0
100
AcDbPolyline
90
4
70
1
43
0.0
10
-94.249999999999758
20
2.0742872872268023
42
-0.99999999999999989
10
-94.249999999999829
20
2.574287287226821
10
-93.749999999999744
20
2.5742872872267664
42
-0.99999999999999989
10
-93.749999999999744
20
2.074287287226857
0
LWPOLYLINE
5
377
100
AcDbEntity
8
0
100
AcDbPolyline
90
4
70
1
43
0.0
10
-91.249999999999744
20
2.0742872872268023
42
-0.99999999999999989
10
-91.249999999999829
20
2.574287287226821
10
-90.749999999999744
20
2.5742872872267664
42
-0.99999999999999989
10
-90.749999999999744
20
2.074287287226857
0
LWPOLYLINE
5
378
100
AcDbEntity
8
0
100
AcDbPolyline
90
4
70
1
43
0.0
10
-88.249999999999744
20
2.0742872872268023
42
-0.99999999999999989
10
-88.249999999999815
20
2.574287287226821
10
-87.749999999999744
20
2.5742872872267664
42
-0.99999999999999989
10
-87.749999999999744
20
2.074287287226857
0
LWPOLYLINE
5
379
100
AcDbEntity
8
0
100
AcDbPolyline
90
4
70
1
43
0.0
10
-85.249999999999744
20
2.0742872872268023
42
-0.99999999999999989
10
-85.249999999999801
20
2.574287287226821
10
-84.74999999999973
20
2.5742872872267664
42
-0.99999999999999989
10
-84.74999999999973
20
2.074287287226857
0
LWPOLYLINE
5
380
100
AcDbEntity
8
0
100
AcDbPolyline
90
4
70
1
43
0.0
10
-82.24999999999973
20
2.0742872872268023
42
-0.99999999999999989
10
-82.249999999999801
20
2.574287287226821
10
-81.749999999999716
20
2.5742872872267664
42
-0.99999999999999989
10
-81.749999999999716
20
2.074287287226857
0
LWPOLYLINE
5
381
100
AcDbEntity
8
0
100
AcDbPolyline
90
4
70
1
43
0.0
10
-79.249999999999716
20
2.0742872872268023
42
-0.99999999999999989
10
-79.249999999999801
20
2.574287287226821
10
-78.749999999999716
20
2.5742872872267664
42
-0.99999999999999989
10
-78.749999999999716
20
2.074287287226857
0
LWPOLYLINE
5
382
100
AcDbEntity
8
0
100
AcDbPolyline
90
4
70
1
43
0.0
10
-76.249999999999716
20
2.0742872872268023
42
-0.99999999999999989
10
-76.249999999999787
20
2.574287287226821
10
-75.749999999999716
20
2.5742872872267664
42
-0.99999999999999989
10
-75.749999999999716
20
2.074287287226857
0
LWPOLYLINE
5
383
100
AcDbEntity
8
0
100
AcDbPolyline
90
4
70
1
43
0.0
10
-73.249999999999716
20
2.0742872872268023
42
-0.99999999999999989
10
-73.249999999999773
20
2.574287287226821
10
-72.749999999999702
20
2.5742872872267664
42
-0.99999999999999989
10
-72.749999999999702
20
2.074287287226857
0
LWPOLYLINE
5
384
100
AcDbEntity
8
0
100
AcDbPolyline
90
4
70
1
43
0.0
10
-70.249999999999702
20
2.0742872872268023
42
-0.99999999999999989
10
-70.249999999999773
20
2.574287287226821
10
-69.749999999999687
20
2.5742872872267664
42
-0.99999999999999989
10
-69.749999999999687
20
2.074287287226857
0
LWPOLYLINE
5
385
100
AcDbEntity
8
0
100
AcDbPolyline
90
4
70
1
43
0.0
10
-67.249999999999687
20
2.0742872872268023
42
-0.99999999999999989
10
-67.249999999999773
20
2.574287287226821
10
-66.749999999999687
20
2.5742872872267664
42
-0.99999999999999989
10
-66.749999999999687
20
2.074287287226857
0
LWPOLYLINE
5
386
100
AcDbEntity
8
0
100
AcDbPolyline
90
4
70
1
43
0.0
10
-64.249999999999687
20
2.0742872872268023
42
-0.99999999999999989
10
-64.249999999999758
20
2.574287287226821
10
-63.74999999999968
20
2.5742872872267664
42
-0.99999999999999989
10
-63.74999999999968
20
2.074287287226857
0
LWPOLYLINE
5
387
100
AcDbEntity
8
0
100
AcDbPolyline
90
4
70
1
43
0.0
10
-61.24999999999968
20
2.0742872872268023
42
-0.99999999999999989
10
-61.249999999999751
20
2.574287287226821
10
-60.749999999999673
20
2.5742872872267664
42
-0.99999999999999989
10
-60.749999999999673
20
2.074287287226857
0
LWPOLYLINE
5
388
100
AcDbEntity
8
0
100
AcDbPolyline
90
4
70
1
43
0.0
10
-58.249999999999673
20
2.0742872872268023
42
-0.99999999999999989
10
-58.249999999999744
20
2.574287287226821
10
-57.749999999999666
20
2.5742872872267664
42
-0.99999999999999989
10
-57.749999999999666
20
2.074287287226857
0
LWPOLYLINE
5
389
100
AcDbEntity
8
0
100
AcDbPolyline
90
4
70
1
43
0.0
10
-55.249999999999666
20
2.0742872872268023
42
-0.99999999999999989
10
-55.249999999999737
20
2.574287287226821
10
-54.749999999999659
20
2.5742872872267664
42
-0.99999999999999989
10
-54.749999999999659
20
2.074287287226857
0
LWPOLYLINE
5
390
100
AcDbEntity
8
0
100
AcDbPolyline
90
4
70
1
43
0.0
10
-52.249999999999659
20
2.0742872872268023
42
-0.99999999999999989
10
-52.24999999999973
20
2.574287287226821
10
-51.749999999999652
20
2.5742872872267664
42
-0.99999999999999989
10
-51.749999999999652
20
2.074287287226857
0
LWPOLYLINE
5
391
100
AcDbEntity
8
0
100
AcDbPolyline
90
4
70
1
43
0.0
10
-49.249999999999652
20
2.0742872872268023
42
-0.99999999999999989
10
-49.249999999999723
20
2.574287287226821
10
-48.749999999999645
20
2.5742872872267664
42
-0.99999999999999989
10
-48.749999999999645
20
2.074287287226857
0
LWPOLYLINE
5
392
100
AcDbEntity
8
0
100
AcDbPolyline
90
4
70
1
43
0.0
10
-46.249999999999645
20
2.0742872872268023
42
-0.99999999999999989
10
-46.249999999999716
20
2.574287287226821
10
-45.749999999999638
20
2.5742872872267664
42
-0.99999999999999989
10
-45.749999999999638
20
2.074287287226857
0
LWPOLYLINE
5
393
100
AcDbEntity
8
0
100
AcDbPolyline
90
4
70
1
43
0.0
10
-43.249999999999638
20
2.0742872872268023
42
-0.99999999999999989
10
-43.249999999999709
20
2.574287287226821
10
-42.749999999999631
20
2.5742872872267664
42
-0.99999999999999989
10
-42.749999999999631
20
2.074287287226857
0
LWPOLYLINE
5
394
100
AcDbEntity
8
0
100
AcDbPolyline
90
4
70
1
43
0.0
10
-40.249999999999631
20
2.0742872872268023
42
-0.99999999999999989
10
-40.249999999999702
20
2.574287287226821
10
-39.749999999999623
20
2.5742872872267664
42
-0.99999999999999989
10
-39.749999999999623
20
2.074287287226857
0
LWPOLYLINE
5
395
100
AcDbEntity
8
0
100
AcDbPolyline
90
4
70
1
43
0.0
10
-37.249999999999623
20
2.0742872872268023
42
-0.99999999999999989
10
-37.249999999999694
20
2.574287287226821
10
-36.749999999999616
20
2.5742872872267664
42
-0.99999999999999989
10
-36.749999999999616
20
2.074287287226857
0
LWPOLYLINE
5
396
100
AcDbEntity
8
0
100
AcDbPolyline
90
4
70
1
43
0.0
10
-34.249999999999616
20
2.0742872872268023
42
-0.99999999999999989
10
-34.249999999999687
20
2.574287287226821
10
-33.749999999999609
20
2.5742872872267664
42
-0.99999999999999989
10
-33.749999999999609
20
2.074287287226857
0
LWPOLYLINE
5
397
100
AcDbEntity
8
0
100
AcDbPolyline
90
4
70
1
43
0.0
10
-31.249999999999609
20
2.0742872872268023
42
-0.99999999999999989
10
-31.24999999999968
20
2.574287287226821
10
-30.749999999999602
20
2.5742872872267664
42
-0.99999999999999989
10
-30.749999999999602
20
2.074287287226857
0
LWPOLYLINE
5
398
100
AcDbEntity
8
0
100
AcDbPolyline
90
4
70
1
43
0.0
10
-28.249999999999602
20
2.0742872872268023
42
-0.99999999999999989
10
-28.249999999999673
20
2.574287287226821
10
-27.749999999999595
20
2.5742872872267664
42
-0.99999999999999989
10
-27.749999999999595
20
2.074287287226857
0
LWPOLYLINE
5
399
100
AcDbEntity
8
0
100
AcDbPolyline
90
4
70
1
43
0.0
10
-25.249999999999595
20
2.0742872872268023
42
-0.99999999999999989
10
-25.249999999999666
20
2.574287287226821
10
-24.749999999999588
20
2.5742872872267664
42
-0.99999999999999989
10
-24.749999999999588
20
2.074287287226857
0
LWPOLYLINE
5
400
100
AcDbEntity
8
0
100
AcDbPolyline
90
4
70
1
43
0.0
10
-22.249999999999588
20
2.0742872872268023
42
-0.99999999999999989
10
-22.249999999999659
20
2.574287287226821
10
-21.749999999999581
20
2.5742872872267664
42
-0.99999999999999989
10
-21.749999999999581
20
2.074287287226857
0
LWPOLYLINE
5
401
100
AcDbEntity
8
0
100
AcDbPolyline
90
4
70
1
43
0.0
10
-19.249999999999581
20
2.0742872872268023
42
-0.99999999999999989
10
-19.249999999999652
20
2.574287287226821
10
-18.749999999999574
20
2.5742872872267664
42
-0.99999999999999989
10
-18.749999999999574
20
2.074287287226857
0
LWPOLYLINE
5
402
100
AcDbEntity
8
0
100
AcDbPolyline
90
4
70
1
43
0.0
10
-16.249999999999574
20
2.0742872872268023
42
-0.99999999999999989
10
-16.249999999999645
20
2.574287287226821
10
-15.749999999999567
20
2.5742872872267664
42
-0.99999999999999989
10
-15.749999999999567
20
2.074287287226857
0
LWPOLYLINE
5
403
100
AcDbEntity
8
0
100
AcDbPolyline
90
4
70
1
43
0.0
10
-13.249999999999567
20
2.0742872872268023
42
-0.99999999999999989
10
-13.249999999999638
20
2.574287287226821
10
-12.749999999999559
20
2.5742872872267664
42
-0.99999999999999989
10
-12.749999999999559
20
2.074287287226857
0
LWPOLYLINE
5
404
100
AcDbEntity
8
0
100
AcDbPolyline
90
4
70
1
43
0.0
10
-10.249999999999559
20
2.0742872872268023
42
-0.99999999999999989
10
-10.249999999999631
20
2.574287287226821
10
-9.7499999999995524
20
2.5742872872267664
42
-0.99999999999999989
10
-9.7499999999995524
20
2.074287287226857
0
LWPOLYLINE
5
405
100
AcDbEntity
8
0
100
AcDbPolyline
90
4
70
1
43
0.0
10
-200.50000000000006
20
15.324287287226317
10
-200.50000000000009
20
15.824287287226843
42
-0.99999999999999989
10
-200.00000000000003
20
15.824287287226843
10
-200.00000000000006
20
15.324287287227369
42
-0.99999999999999989
0
LWPOLYLINE
5
406
100
AcDbEntity
8
0
100
AcDbPolyline
90
4
70
1
43
0.0
10
-200.50000000000006
20
18.324287287226319
10
-200.50000000000009
20
18.824287287226845
42
-0.99999999999999989
10
-200.00000000000003
20
18.824287287226845
10
-200.00000000000006
20
18.324287287227371
42
-0.99999999999999989
0
LWPOLYLINE
5
407
100
AcDbEntity
8
0
100
AcDbPolyline
90
4
70
1
43
0.0
10
-200.50000000000006
20
21.324287287226316
10
-200.50000000000009
20
21.824287287226845
42
-0.99999999999999989
10
-200.00000000000003
20
21.824287287226845
10
-200.00000000000006
20
21.324287287227371
42
-0.99999999999999989
0
LWPOLYLINE
5
408
100
AcDbEntity
8
0
100
AcDbPolyline
90
4
70
1
43
0.0
10
-200.50000000000006
20
24.324287287226319
10
-200.50000000000009
20
24.824287287226845
42
-0.99999999999999989
10
-200.00000000000003
20
24.824287287226845
10
-200.00000000000006
20
24.324287287227374
42
-0.99999999999999989
0
LWPOLYLINE
5
409
100
AcDbEntity
8
0
100
AcDbPolyline
90
4
70
1
43
0.0
10
-200.50000000000006
20
27.324287287226319
10
-200.50000000000009
20
27.824287287226845
42
-0.99999999999999989
10
-200.00000000000003
20
27.824287287226845
10
-200.00000000000006
20
27.324287287227371
42
-0.99999999999999989
0
LWPOLYLINE
5
410
100
AcDbEntity
8
0
100
AcDbPolyline
90
4
70
1
43
0.0
10
-200.50000000000006
20
30.324287287226319
10
-200.50000000000009
20
30.824287287226845
42
-0.99999999999999989
10
-200.00000000000003
20
30.824287287226845
10
-200.00000000000006
20
30.324287287227367
42
-0.99999999999999989
0
LWPOLYLINE
5
411
100
AcDbEntity
8
0
100
AcDbPolyline
90
4
70
1
43
0.0
10
-200.50000000000006
20
33.324287287226319
10
-200.50000000000009
20
33.824287287226852
42
-0.99999999999999989
10
-200.00000000000003
20
33.824287287226852
10
-200.00000000000006
20
33.324287287227378
42
-0.99999999999999989
0
LWPOLYLINE
5
412
100
AcDbEntity
8
0
100
AcDbPolyline
90
4
70
1
43
0.0
10
-200.50000000000006
20
36.324287287226319
10
-200.50000000000009
20
36.824287287226845
42
-0.99999999999999989
10
-200.00000000000003
20
36.824287287226845
10
-200.00000000000006
20
36.324287287227378
42
-0.99999999999999989
0
LWPOLYLINE
5
413
100
AcDbEntity
8
0
100
AcDbPolyline
90
4
70
1
43
0.0
10
-200.50000000000006
20
39.324287287226319
10
-200.50000000000009
20
39.824287287226845
42
-0.99999999999999989
10
-200.00000000000003
20
39.824287287226845
10
-200.00000000000006
20
39.324287287227378
42
-0.99999999999999989
0
LWPOLYLINE
5
414
100
AcDbEntity
8
0
100
AcDbPolyline
90
4
70
1
43
0.0
10
-200.50000000000006
20
42.324287287226319
10
-200.50000000000009
20
42.824287287226852
42
-0.99999999999999989
10
-200.00000000000003
20
42.824287287226852
10
-200.00000000000006
20
42.324287287227371
42
-0.99999999999999989
0
LWPOLYLINE
5
415
100
AcDbEntity
8
0
100
AcDbPolyline
90
4
70
1
43
0.0
10
-200.50000000000006
20
45.324287287226319
10
-200.50000000000009
20
45.824287287226852
42
-0.99999999999999989
10
-200.00000000000003
20
45.824287287226852
10
-200.00000000000006
20
45.324287287227385
42
-0.99999999999999989
0
LWPOLYLINE
5
416
100
AcDbEntity
8
0
100
AcDbPolyline
90
4
70
1
43
0.0
10
-200.50000000000006
20
48.324287287226326
10
-200.50000000000009
20
48.824287287226852
42
-0.99999999999999989
10
-200.00000000000003
20
48.824287287226852
10
-200.00000000000006
20
48.324287287227378
42
-0.99999999999999989
0
LWPOLYLINE
5
417
100
AcDbEntity
8
0
100
AcDbPolyline
90
4
70
1
43
0.0
10
-200.50000000000006
20
51.324287287226312
10
-200.50000000000009
20
51.824287287226845
42
-0.99999999999999989
10
-200.00000000000003
20
51.824287287226845
10
-200.00000000000006
20
51.324287287227378
42
-0.99999999999999989
0
LWPOLYLINE
5
418
100
AcDbEntity
8
0
100
AcDbPolyline
90
4
70
1
43
0.0
10
-200.50000000000006
20
54.324287287226326
10
-200.50000000000009
20
54.824287287226852
42
-0.99999999999999989
10
-200.00000000000003
20
54.824287287226852
10
-200.00000000000006
20
54.324287287227392
42
-0.99999999999999989
0
LWPOLYLINE
5
419
100
AcDbEntity
8
0
100
AcDbPolyline
90
4
70
1
43
0.0
10
-200.50000000000006
20
57.324287287226326
10
-200.50000000000009
20
57.824287287226852
42
-0.99999999999999989
10
-200.00000000000003
20
57.824287287226852
10
-200.00000000000006
20
57.324287287227378
42
-0.99999999999999989
0
LWPOLYLINE
5
420
100
AcDbEntity
8
0
100
AcDbPolyline
90
4
70
1
43
0.0
10
-200.50000000000006
20
60.324287287226319
10
-200.50000000000009
20
60.824287287226852
42
-0.99999999999999989
10
-200.00000000000003
20
60.824287287226852
10
-200.00000000000006
20
60.324287287227385
42
-0.99999999999999989
0
LWPOLYLINE
5
421
100
AcDbEntity
8
0
100
AcDbPolyline
90
4
70
1
43
0.0
10
-200.50000000000006
20
63.324287287226326
10
-200.50000000000009
20
63.824287287226852
42
-0.99999999999999989
10
-200.00000000000003
20
63.824287287226852
10
-200.00000000000006
20
63.324287287227378
42
-0.99999999999999989
0
LWPOLYLINE
5
422
100
AcDbEntity
8
0
100
AcDbPolyline
90
4
70
1
43
0.0
10
-200.50000000000006
20
66.324287287226312
10
-200.50000000000009
20
66.824287287226852
42
-0.99999999999999989
10
-200.00000000000003
20
66.824287287226852
10
-200.00000000000006
20
66.324287287227378
42
-0.99999999999999989
0
LWPOLYLINE
5
423
100
AcDbEntity
8
0
100
AcDbPolyline
90
4
70
1
43
0.0
10
-200.50000000000006
20
69.324287287226326
10
-200.50000000000009
20
69.824287287226852
42
-0.99999999999999989
10
-200.00000000000003
20
69.824287287226852
10
-200.00000000000006
20
69.324287287227392
42
-0.99999999999999989
0
LWPOLYLINE
5
424
100
AcDbEntity
8
0
100
AcDbPolyline
90
4
70
1
43
0.0
10
-200.50000000000006
20
72.324287287226326
10
-200.50000000000009
20
72.824287287226852
42
-0.99999999999999989
10
-200.00000000000003
20
72.824287287226852
10
-200.00000000000006
20
72.324287287227378
42
-0.99999999999999989
0
LWPOLYLINE
5
425
100
AcDbEntity
8
0
100
AcDbPolyline
90
4
70
1
43
0.0
10
-200.50000000000006
20
75.324287287226326
10
-200.50000000000009
20
75.824287287226852
42
-0.99999999999999989
10
-200.00000000000003
20
75.824287287226852
10
-200.00000000000006
20
75.324287287227378
42
-0.99999999999999989
0
LWPOLYLINE
5
426
100
AcDbEntity
8
0
100
AcDbPolyline
90
4
70
1
43
0.0
10
-200.50000000000006
20
78.324287287226326
10
-200.50000000000009
20
78.824287287226852
42
-0.99999999999999989
10
-200.00000000000003
20
78.824287287226852
10
-200.00000000000006
20
78.324287287227392
42
-0.99999999999999989
0
LWPOLYLINE
5
427
100
AcDbEntity
8
0
100
AcDbPolyline
90
4
70
1
43
0.0
10
-200.50000000000006
20
81.324287287226326
10
-200.50000000000009
20
81.824287287226852
42
-0.99999999999999989
10
-200.00000000000003
20
81.824287287226852
10
-200.00000000000006
20
81.324287287227364
42
-0.99999999999999989
0
LWPOLYLINE
5
428
100
AcDbEntity
8
0
100
AcDbPolyline
90
4
70
1
43
0.0
10
-200.50000000000006
20
84.324287287226326
10
-200.50000000000009
20
84.824287287226838
42
-0.99999999999999989
10
-200.00000000000003
20
84.824287287226838
10
-200.00000000000006
20
84.324287287227392
42
-0.99999999999999989
0
LWPOLYLINE
5
429
100
AcDbEntity
8
0
100
AcDbPolyline
90
4
70
1
43
0.0
10
-200.50000000000006
20
87.324287287226326
10
-200.50000000000009
20
87.824287287226852
42
-0.99999999999999989
10
-200.00000000000003
20
87.824287287226852
10
-200.00000000000006
20
87.324287287227364
42
-0.99999999999999989
0
LWPOLYLINE
5
430
100
AcDbEntity
8
0
100
AcDbPolyline
90
4
70
1
43
0.0
10
-200.50000000000006
20
90.324287287226326
10
-200.50000000000009
20
90.824287287226866
42
-0.99999999999999989
10
-200.00000000000003
20
90.824287287226866
10
-200.00000000000006
20
90.324287287227378
42
-0.99999999999999989
0
LWPOLYLINE
5
431
100
AcDbEntity
8
0
100
AcDbPolyline
90
4
70
1
43
0.0
10
-200.50000000000006
20
93.324287287226326
10
-200.50000000000009
20
93.824287287226866
42
-0.99999999999999989
10
-200.00000000000003
20
93.824287287226866
10
-200.00000000000006
20
93.324287287227392
42
-0.99999999999999989
0
LWPOLYLINE
5
432
100
AcDbEntity
8
0
100
AcDbPolyline
90
4
70
1
43
0.0
10
-200.50000000000006
20
96.324287287226326
10
-200.50000000000009
20
96.824287287226866
42
-0.99999999999999989
10
-200.00000000000003
20
96.824287287226866
10
-200.00000000000006
20
96.324287287227406
42
-0.99999999999999989
0
LWPOLYLINE
5
433
100
AcDbEntity
8
0
100
AcDbPolyline
90
4
70
1
43
0.0
10
-200.50000000000006
20
99.324287287226326
10
-200.50000000000009
20
99.824287287226838
42
-0.99999999999999989
10
-200.00000000000003
20
99.824287287226838
10
-200.00000000000006
20
99.324287287227392
42
-0.99999999999999989
0
LWPOLYLINE
5
434
100
AcDbEntity
8
0
100
AcDbPolyline
90
4
70
1
43
0.0
10
-200.50000000000006
20
102.32428728722633
10
-200.50000000000009
20
102.82428728722685
42
-0.99999999999999989
10
-200.00000000000003
20
102.82428728722685
10
-200.00000000000006
20
102.32428728722739
42
-0.99999999999999989
0
LWPOLYLINE
5
435
100
AcDbEntity
8
0
100
AcDbPolyline
90
4
70
1
43
0.0
10
-200.50000000000006
20
105.32428728722633
10
-200.50000000000009
20
105.82428728722687
42
-0.99999999999999989
10
-200.00000000000003
20
105.82428728722687
10
-200.00000000000006
20
105.32428728722738
42
-0.99999999999999989
0
LWPOLYLINE
5
436
100
AcDbEntity
8
0
100
AcDbPolyline
90
4
70
1
43
0.0
10
-200.50000000000006
20
108.32428728722633
10
-200.50000000000009
20
108.82428728722687
42
-0.99999999999999989
10
-200.00000000000003
20
108.82428728722687
10
-200.00000000000006
20
108.32428728722739
42
-0.99999999999999989
0
LWPOLYLINE
5
437
100
AcDbEntity
8
0
100
AcDbPolyline
90
4
70
1
43
0.0
10
-200.50000000000006
20
111.32428728722633
10
-200.50000000000009
20
111.82428728722687
42
-0.99999999999999989
10
-200.00000000000003
20
111.82428728722687
10
-200.00000000000006
20
111.32428728722741
42
-0.99999999999999989
0
LWPOLYLINE
5
438
100
AcDbEntity
8
0
100
AcDbPolyline
90
4
70
1
43
0.0
10
-200.50000000000006
20
114.32428728722633
10
-200.50000000000009
20
114.82428728722684
42
-0.99999999999999989
10
-200.00000000000003
20
114.82428728722684
10
-200.00000000000006
20
114.32428728722739
42
-0.99999999999999989
0
LWPOLYLINE
5
439
100
AcDbEntity
8
0
100
AcDbPolyline
90
4
70
1
43
0.0
10
-200.50000000000006
20
117.32428728722633
10
-200.50000000000009
20
117.82428728722685
42
-0.99999999999999989
10
-200.00000000000003
20
117.82428728722685
10
-200.00000000000006
20
117.32428728722739
42
-0.99999999999999989
0
LWPOLYLINE
5
440
100
AcDbEntity
8
0
100
AcDbPolyline
90
4
70
1
43
0.0
10
-200.50000000000006
20
120.32428728722633
10
-200.50000000000009
20
120.82428728722687
42
-0.99999999999999989
10
-200.00000000000003
20
120.82428728722687
10
-200.00000000000006
20
120.32428728722738
42
-0.99999999999999989
0
LWPOLYLINE
5
441
100
AcDbEntity
8
0
100
AcDbPolyline
90
4
70
1
43
0.0
10
-200.50000000000006
20
123.32428728722633
10
-200.50000000000009
20
123.82428728722687
42
-0.99999999999999989
10
-200.00000000000003
20
123.82428728722687
10
-200.00000000000006
20
123.32428728722739
42
-0.99999999999999989
0
LWPOLYLINE
5
442
100
AcDbEntity
8
0
100
AcDbPolyline
90
4
70
1
43
0.0
10
-187.24999999999156
20
132.57428728722678
42
-0.99999999999999989
10
-187.25000000000841
20
133.07428728722678
10
-186.74999999999994
20
133.07428728722675
42
-0.99999999999999989
10
-186.75
20
132.57428728722681
0
LWPOLYLINE
5
443
100
AcDbEntity
8
0
100
AcDbPolyline
90
4
70
1
43
0.0
10
-184.24999999999156
20
132.57428728722678
42
-0.99999999999999989
10
-184.25000000000838
20
133.07428728722678
10
-183.74999999999994
20
133.07428728722675
42
-0.99999999999999989
10
-183.75
20
132.57428728722681
0
LWPOLYLINE
5
444
100
AcDbEntity
8
0
100
AcDbPolyline
90
4
70
1
43
0.0
10
-181.24999999999153
20
132.57428728722678
42
-0.99999999999999989
10
-181.25000000000838
20
133.07428728722678
10
-180.74999999999991
20
133.07428728722675
42
-0.99999999999999989
10
-180.75
20
132.57428728722681
0
LWPOLYLINE
5
445
100
AcDbEntity
8
0
100
AcDbPolyline
90
4
70
1
43
0.0
10
-178.24999999999153
20
132.57428728722678
42
-0.99999999999999989
10
-178.25000000000838
20
133.07428728722678
10
-177.74999999999991
20
133.07428728722675
42
-0.99999999999999989
10
-177.75
20
132.57428728722681
0
LWPOLYLINE
5
446
100
AcDbEntity
8
0
100
AcDbPolyline
90
4
70
1
43
0.0
10
-175.24999999999153
20
132.57428728722678
42
-0.99999999999999989
10
-175.25000000000836
20
133.07428728722678
10
-174.74999999999991
20
133.07428728722675
42
-0.99999999999999989
10
-174.74999999999997
20
132.57428728722681
0
LWPOLYLINE
5
447
100
AcDbEntity
8
0
100
AcDbPolyline
90
4
70
1
43
0.0
10
-172.24999999999153
20
132.57428728722678
42
-0.99999999999999989
10
-172.25000000000836
20
133.07428728722678
10
-171.74999999999989
20
133.07428728722675
42
-0.99999999999999989
10
-171.74999999999997
20
132.57428728722681
0
LWPOLYLINE
5
448
100
AcDbEntity
8
0
100
AcDbPolyline
90
4
70
1
43
0.0
10
-169.24999999999153
20
132.57428728722678
42
-0.99999999999999989
10
-169.25000000000836
20
133.07428728722678
10
-168.74999999999989
20
133.07428728722675
42
-0.99999999999999989
10
-168.74999999999997
20
132.57428728722681
0
LWPOLYLINE
5
449
100
AcDbEntity
8
0
100
AcDbPolyline
90
4
70
1
43
0.0
10
-166.2499999999915
20
132.57428728722678
42
-0.99999999999999989
10
-166.25000000000836
20
133.07428728722678
10
-165.74999999999989
20
133.07428728722675
42
-0.99999999999999989
10
-165.74999999999994
20
132.57428728722681
0
LWPOLYLINE
5
450
100
AcDbEntity
8
0
100
AcDbPolyline
90
4
70
1
43
0.0
10
-163.2499999999915
20
132.57428728722678
42
-0.99999999999999989
10
-163.25000000000836
20
133.07428728722678
10
-162.74999999999989
20
133.07428728722675
42
-0.99999999999999989
10
-162.74999999999994
20
132.57428728722681
0
LWPOLYLINE
5
451
100
AcDbEntity
8
0
100
AcDbPolyline
90
4
70
1
43
0.0
10
-160.2499999999915
20
132.57428728722678
42
-0.99999999999999989
10
-160.25000000000833
20
133.07428728722678
10
-159.74999999999989
20
133.07428728722675
42
-0.99999999999999989
10
-159.74999999999994
20
132.57428728722681
0
LWPOLYLINE
5
452
100
AcDbEntity
8
0
100
AcDbPolyline
90
4
70
1
43
0.0
10
-157.24999999999147
20
132.57428728722678
42
-0.99999999999999989
10
-157.25000000000833
20
133.07428728722678
10
-156.74999999999986
20
133.07428728722675
42
-0.99999999999999989
10
-156.74999999999994
20
132.57428728722681
0
LWPOLYLINE
5
453
100
AcDbEntity
8
0
100
AcDbPolyline
90
4
70
1
43
0.0
10
-154.24999999999147
20
132.57428728722678
42
-0.99999999999999989
10
-154.25000000000833
20
133.07428728722678
10
-153.74999999999986
20
133.07428728722675
42
-0.99999999999999989
10
-153.74999999999994
20
132.57428728722681
0
LWPOLYLINE
5
454
100
AcDbEntity
8
0
100
AcDbPolyline
90
4
70
1
43
0.0
10
-151.24999999999147
20
132.57428728722678
42
-0.99999999999999989
10
-151.2500000000083
20
133.07428728722678
10
-150.74999999999986
20
133.07428728722675
42
-0.99999999999999989
10
-150.74999999999991
20
132.57428728722681
0
LWPOLYLINE
5
455
100
AcDbEntity
8
0
100
AcDbPolyline
90
4
70
1
43
0.0
10
-148.24999999999147
20
132.57428728722678
42
-0.99999999999999989
10
-148.2500000000083
20
133.07428728722678
10
-147.74999999999983
20
133.07428728722675
42
-0.99999999999999989
10
-147.74999999999991
20
132.57428728722681
0
LWPOLYLINE
5
456
100
AcDbEntity
8
0
100
AcDbPolyline
90
4
70
1
43
0.0
10
-145.24999999999147
20
132.57428728722678
42
-0.99999999999999989
10
-145.2500000000083
20
133.07428728722678
10
-144.74999999999983
20
133.07428728722675
42
-0.99999999999999989
10
-144.74999999999991
20
132.57428728722681
0
LWPOLYLINE
5
457
100
AcDbEntity
8
0
100
AcDbPolyline
90
4
70
1
43
0.0
10
-142.24999999999145
20
132.57428728722678
42
-0.99999999999999989
10
-142.2500000000083
20
133.07428728722678
10
-141.74999999999983
20
133.07428728722675
42
-0.99999999999999989
10
-141.74999999999989
20
132.57428728722681
0
LWPOLYLINE
5
458
100
AcDbEntity
8
0
100
AcDbPolyline
90
4
70
1
43
0.0
10
-139.24999999999145
20
132.57428728722678
42
-0.99999999999999989
10
-139.2500000000083
20
133.07428728722678
10
-138.74999999999983
20
133.07428728722675
42
-0.99999999999999989
10
-138.74999999999989
20
132.57428728722681
0
LWPOLYLINE
5
459
100
AcDbEntity
8
0
100
AcDbPolyline
90
4
70
1
43
0.0
10
-136.24999999999145
20
132.57428728722678
42
-0.99999999999999989
10
-136.25000000000827
20
133.07428728722678
10
-135.74999999999983
20
133.07428728722675
42
-0.99999999999999989
10
-135.74999999999989
20
132.57428728722681
0
LWPOLYLINE
5
460
100
AcDbEntity
8
0
100
AcDbPolyline
90
4
70
1
43
0.0
10
-133.24999999999142
20
132.57428728722678
42
-0.99999999999999989
10
-133.25000000000827
20
133.07428728722678
10
-132.7499999999998
20
133.07428728722675
42
-0.99999999999999989
10
-132.74999999999989
20
132.57428728722681
0
LWPOLYLINE
5
461
100
AcDbEntity
8
0
100
AcDbPolyline
90
4
70
1
43
0.0
10
-130.24999999999142
20
132.57428728722678
42
-0.99999999999999989
10
-130.25000000000827
20
133.07428728722678
10
-129.7499999999998
20
133.07428728722675
42
-0.99999999999999989
10
-129.74999999999989
20
132.57428728722681
0
LWPOLYLINE
5
462
100
AcDbEntity
8
0
100
AcDbPolyline
90
4
70
1
43
0.0
10
-127.24999999999142
20
132.57428728722678
42
-0.99999999999999989
10
-127.25000000000826
20
133.07428728722678
10
-126.7499999999998
20
133.07428728722675
42
-0.99999999999999989
10
-126.74999999999986
20
132.57428728722681
0
LWPOLYLINE
5
463
100
AcDbEntity
8
0
100
AcDbPolyline
90
4
70
1
43
0.0
10
-124.24999999999142
20
132.57428728722678
42
-0.99999999999999989
10
-124.25000000000824
20
133.07428728722678
10
-123.74999999999979
20
133.07428728722675
42
-0.99999999999999989
10
-123.74999999999986
20
132.57428728722681
0
LWPOLYLINE
5
464
100
AcDbEntity
8
0
100
AcDbPolyline
90
4
70
1
43
0.0
10
-121.2499999999914
20
132.57428728722678
42
-0.99999999999999989
10
-121.25000000000824
20
133.07428728722678
10
-120.74999999999977
20
133.07428728722675
42
-0.99999999999999989
10
-120.74999999999986
20
132.57428728722681
0
LWPOLYLINE
5
465
100
AcDbEntity
8
0
100
AcDbPolyline
90
4
70
1
43
0.0
10
-118.24999999999139
20
132.57428728722678
42
-0.99999999999999989
10
-118.25000000000824
20
133.07428728722678
10
-117.74999999999977
20
133.07428728722675
42
-0.99999999999999989
10
-117.74999999999984
20
132.57428728722681
0
LWPOLYLINE
5
466
100
AcDbEntity
8
0
100
AcDbPolyline
90
4
70
1
43
0.0
10
-115.24999999999139
20
132.57428728722678
42
-0.99999999999999989
10
-115.25000000000823
20
133.07428728722678
10
-114.74999999999977
20
133.07428728722675
42
-0.99999999999999989
10
-114.74999999999983
20
132.57428728722681
0
LWPOLYLINE
5
467
100
AcDbEntity
8
0
100
AcDbPolyline
90
4
70
1
43
0.0
10
-112.24999999999139
20
132.57428728722678
42
-0.99999999999999989
10
-112.25000000000821
20
133.07428728722678
10
-111.74999999999976
20
133.07428728722675
42
-0.99999999999999989
10
-111.74999999999983
20
132.57428728722681
0
LWPOLYLINE
5
468
100
AcDbEntity
8
0
100
AcDbPolyline
90
4
70
1
43
0.0
10
-109.24999999999137
20
132.57428728722678
42
-0.99999999999999989
10
-109.25000000000821
20
133.07428728722678
10
-108.74999999999974
20
133.07428728722675
42
-0.99999999999999989
10
-108.74999999999983
20
132.57428728722681
0
LWPOLYLINE
5
469
100
AcDbEntity
8
0
100
AcDbPolyline
90
4
70
1
43
0.0
10
-106.24999999999136
20
132.57428728722678
42
-0.99999999999999989
10
-106.25000000000821
20
133.07428728722678
10
-105.74999999999974
20
133.07428728722675
42
-0.99999999999999989
10
-105.74999999999982
20
132.57428728722681
0
LWPOLYLINE
5
470
100
AcDbEntity
8
0
100
AcDbPolyline
90
4
70
1
43
0.0
10
-103.24999999999136
20
132.57428728722678
42
-0.99999999999999989
10
-103.2500000000082
20
133.07428728722678
10
-102.74999999999974
20
133.07428728722675
42
-0.99999999999999989
10
-102.7499999999998
20
132.57428728722681
0
LWPOLYLINE
5
471
100
AcDbEntity
8
0
100
AcDbPolyline
90
4
70
1
43
0.0
10
-100.24999999999136
20
132.57428728722678
42
-0.99999999999999989
10
-100.25000000000819
20
133.07428728722678
10
-99.74999999999973
20
133.07428728722675
42
-0.99999999999999989
10
-99.749999999999801
20
132.57428728722681
0
LWPOLYLINE
5
472
100
AcDbEntity
8
0
100
AcDbPolyline
90
4
70
1
43
0.0
10
-97.249999999991346
20
132.57428728722678
42
-0.99999999999999989
10
-97.250000000008185
20
133.07428728722678
10
-96.749999999999716
20
133.07428728722675
42
-0.99999999999999989
10
-96.749999999999801
20
132.57428728722681
0
LWPOLYLINE
5
473
100
AcDbEntity
8
0
100
AcDbPolyline
90
4
70
1
43
0.0
10
-94.249999999991331
20
132.57428728722678
42
-0.99999999999999989
10
-94.250000000008185
20
133.07428728722678
10
-93.749999999999716
20
133.07428728722675
42
-0.99999999999999989
10
-93.749999999999787
20
132.57428728722681
0
LWPOLYLINE
5
474
100
AcDbEntity
8
0
100
AcDbPolyline
90
4
70
1
43
0.0
10
-91.249999999991331
20
132.57428728722678
42
-0.99999999999999989
10
-91.250000000008171
20
133.07428728722678
10
-90.749999999999716
20
133.07428728722675
42
-0.99999999999999989
10
-90.749999999999773
20
132.57428728722681
0
LWPOLYLINE
5
475
100
AcDbEntity
8
0
100
AcDbPolyline
90
4
70
1
43
0.0
10
-88.249999999991331
20
132.57428728722678
42
-0.99999999999999989
10
-88.250000000008157
20
133.07428728722678
10
-87.749999999999702
20
133.07428728722675
42
-0.99999999999999989
10
-87.749999999999773
20
132.57428728722681
0
LWPOLYLINE
5
476
100
AcDbEntity
8
0
100
AcDbPolyline
90
4
70
1
43
0.0
10
-85.249999999991317
20
132.57428728722678
42
-0.99999999999999989
10
-85.250000000008157
20
133.07428728722678
10
-84.749999999999687
20
133.07428728722675
42
-0.99999999999999989
10
-84.749999999999773
20
132.57428728722681
0
LWPOLYLINE
5
477
100
AcDbEntity
8
0
100
AcDbPolyline
90
4
70
1
43
0.0
10
-82.249999999991303
20
132.57428728722678
42
-0.99999999999999989
10
-82.250000000008157
20
133.07428728722678
10
-81.749999999999687
20
133.07428728722675
42
-0.99999999999999989
10
-81.749999999999758
20
132.57428728722681
0
LWPOLYLINE
5
478
100
AcDbEntity
8
0
100
AcDbPolyline
90
4
70
1
43
0.0
10
-79.249999999991303
20
132.57428728722678
42
-0.99999999999999989
10
-79.250000000008143
20
133.07428728722678
10
-78.749999999999687
20
133.07428728722675
42
-0.99999999999999989
10
-78.749999999999744
20
132.57428728722681
0
LWPOLYLINE
5
479
100
AcDbEntity
8
0
100
AcDbPolyline
90
4
70
1
43
0.0
10
-76.249999999991303
20
132.57428728722678
42
-0.99999999999999989
10
-76.250000000008129
20
133.07428728722678
10
-75.749999999999673
20
133.07428728722675
42
-0.99999999999999989
10
-75.749999999999744
20
132.57428728722681
0
LWPOLYLINE
5
480
100
AcDbEntity
8
0
100
AcDbPolyline
90
4
70
1
43
0.0
10
-73.249999999991289
20
132.57428728722678
42
-0.99999999999999989
10
-73.250000000008129
20
133.07428728722678
10
-72.749999999999659
20
133.07428728722675
42
-0.99999999999999989
10
-72.749999999999744
20
132.57428728722681
0
LWPOLYLINE
5
481
100
AcDbEntity
8
0
100
AcDbPolyline
90
4
70
1
43
0.0
10
-70.249999999991275
20
132.57428728722678
42
-0.99999999999999989
10
-70.250000000008129
20
133.07428728722678
10
-69.749999999999659
20
133.07428728722675
42
-0.99999999999999989
10
-69.74999999999973
20
132.57428728722681
0
LWPOLYLINE
5
482
100
AcDbEntity
8
0
100
AcDbPolyline
90
4
70
1
43
0.0
10
-67.249999999991275
20
132.57428728722678
42
-0.99999999999999989
10
-67.250000000008114
20
133.07428728722678
10
-66.749999999999659
20
133.07428728722675
42
-0.99999999999999989
10
-66.749999999999716
20
132.57428728722681
0
LWPOLYLINE
5
483
100
AcDbEntity
8
0
100
AcDbPolyline
90
4
70
1
43
0.0
10
-64.249999999991275
20
132.57428728722678
42
-0.99999999999999989
10
-64.2500000000081
20
133.07428728722678
10
-63.749999999999645
20
133.07428728722675
42
-0.99999999999999989
10
-63.749999999999716
20
132.57428728722681
0
LWPOLYLINE
5
484
100
AcDbEntity
8
0
100
AcDbPolyline
90
4
70
1
43
0.0
10
-61.24999999999126
20
132.57428728722678
42
-0.99999999999999989
10
-61.2500000000081
20
133.07428728722678
10
-60.749999999999638
20
133.07428728722675
42
-0.99999999999999989
10
-60.749999999999709
20
132.57428728722681
0
LWPOLYLINE
5
485
100
AcDbEntity
8
0
100
AcDbPolyline
90
4
70
1
43
0.0
10
-58.249999999991253
20
132.57428728722678
42
-0.99999999999999989
10
-58.250000000008093
20
133.07428728722678
10
-57.749999999999631
20
133.07428728722675
42
-0.99999999999999989
10
-57.749999999999702
20
132.57428728722681
0
LWPOLYLINE
5
486
100
AcDbEntity
8
0
100
AcDbPolyline
90
4
70
1
43
0.0
10
-55.249999999991246
20
132.57428728722678
42
-0.99999999999999989
10
-55.250000000008086
20
133.07428728722678
10
-54.749999999999623
20
133.07428728722675
42
-0.99999999999999989
10
-54.749999999999694
20
132.57428728722681
0
LWPOLYLINE
5
487
100
AcDbEntity
8
0
100
AcDbPolyline
90
4
70
1
43
0.0
10
-52.249999999991239
20
132.57428728722678
42
-0.99999999999999989
10
-52.250000000008079
20
133.07428728722678
10
-51.749999999999616
20
133.07428728722675
42
-0.99999999999999989
10
-51.749999999999687
20
132.57428728722681
0
LWPOLYLINE
5
488
100
AcDbEntity
8
0
100
AcDbPolyline
90
4
70
1
43
0.0
10
-49.249999999991232
20
132.57428728722678
42
-0.99999999999999989
10
-49.250000000008072
20
133.07428728722678
10
-48.749999999999609
20
133.07428728722675
42
-0.99999999999999989
10
-48.74999999999968
20
132.57428728722681
0
LWPOLYLINE
5
489
100
AcDbEntity
8
0
100
AcDbPolyline
90
4
70
1
43
0.0
10
-46.249999999991225
20
132.57428728722678
42
-0.99999999999999989
10
-46.250000000008065
20
133.07428728722678
10
-45.749999999999602
20
133.07428728722675
42
-0.99999999999999989
10
-45.749999999999673
20
132.57428728722681
0
LWPOLYLINE
5
490
100
AcDbEntity
8
0
100
AcDbPolyline
90
4
70
1
43
0.0
10
-43.249999999991218
20
132.57428728722678
42
-0.99999999999999989
10
-43.250000000008058
20
133.07428728722678
10
-42.749999999999595
20
133.07428728722675
42
-0.99999999999999989
10
-42.749999999999666
20
132.57428728722681
0
LWPOLYLINE
5
491
100
AcDbEntity
8
0
100
AcDbPolyline
90
4
70
1
43
0.0
10
-40.249999999991211
20
132.57428728722678
42
-0.99999999999999989
10
-40.25000000000805
20
133.07428728722678
10
-39.749999999999588
20
133.07428728722675
42
-0.99999999999999989
10
-39.749999999999659
20
132.57428728722681
0
LWPOLYLINE
5
492
100
AcDbEntity
8
0
100
AcDbPolyline
90
4
70
1
43
0.0
10
-37.249999999991203
20
132.57428728722678
42
-0.99999999999999989
10
-37.250000000008043
20
133.07428728722678
10
-36.749999999999581
20
133.07428728722675
42
-0.99999999999999989
10
-36.749999999999652
20
132.57428728722681
0
LWPOLYLINE
5
493
100
AcDbEntity
8
0
100
AcDbPolyline
90
4
70
1
43
0.0
10
-34.249999999991196
20
132.57428728722678
42
-0.99999999999999989
10
-34.250000000008036
20
133.07428728722678
10
-33.749999999999574
20
133.07428728722675
42
-0.99999999999999989
10
-33.749999999999645
20
132.57428728722681
0
LWPOLYLINE
5
494
100
AcDbEntity
8
0
100
AcDbPolyline
90
4
70
1
43
0.0
10
-31.249999999991189
20
132.57428728722678
42
-0.99999999999999989
10
-31.250000000008029
20
133.07428728722678
10
-30.749999999999567
20
133.07428728722675
42
-0.99999999999999989
10
-30.749999999999638
20
132.57428728722681
0
LWPOLYLINE
5
495
100
AcDbEntity
8
0
100
AcDbPolyline
90
4
70
1
43
0.0
10
-28.249999999991182
20
132.57428728722678
42
-0.99999999999999989
10
-28.250000000008022
20
133.07428728722678
10
-27.749999999999559
20
133.07428728722675
42
-0.99999999999999989
10
-27.749999999999631
20
132.57428728722681
0
LWPOLYLINE
5
496
100
AcDbEntity
8
0
100
AcDbPolyline
90
4
70
1
43
0.0
10
-25.249999999991175
20
132.57428728722678
42
-0.99999999999999989
10
-25.250000000008015
20
133.07428728722678
10
-24.749999999999552
20
133.07428728722675
42
-0.99999999999999989
10
-24.749999999999623
20
132.57428728722681
0
LWPOLYLINE
5
497
100
AcDbEntity
8
0
100
AcDbPolyline
90
4
70
1
43
0.0
10
-22.249999999991168
20
132.57428728722678
42
-0.99999999999999989
10
-22.250000000008008
20
133.07428728722678
10
-21.749999999999545
20
133.07428728722675
42
-0.99999999999999989
10
-21.749999999999616
20
132.57428728722681
0
LWPOLYLINE
5
498
100
AcDbEntity
8
0
100
AcDbPolyline
90
4
70
1
43
0.0
10
-19.249999999991161
20
132.57428728722678
42
-0.99999999999999989
10
-19.250000000008001
20
133.07428728722678
10
-18.749999999999538
20
133.07428728722675
42
-0.99999999999999989
10
-18.749999999999609
20
132.57428728722681
0
LWPOLYLINE
5
499
100
AcDbEntity
8
0
100
AcDbPolyline
90
4
70
1
43
0.0
10
-16.249999999991154
20
132.57428728722678
42
-0.99999999999999989
10
-16.250000000007994
20
133.07428728722678
10
-15.749999999999531
20
133.07428728722675
42
-0.99999999999999989
10
-15.749999999999602
20
132.57428728722681
0
LWPOLYLINE
5
500
100
AcDbEntity
8
0
100
AcDbPolyline
90
4
70
1
43
0.0
10
-13.249999999991147
20
132.57428728722678
42
-0.99999999999999989
10
-13.250000000007987
20
133.07428728722678
10
-12.749999999999524
20
133.07428728722675
42
-0.99999999999999989
10
-12.749999999999595
20
132.57428728722681
0
LWPOLYLINE
5
501
100
AcDbEntity
8
0
100
AcDbPolyline
90
4
70
1
43
0.0
10
-10.24999999999114
20
132.57428728722678
42
-0.99999999999999989
10
-10.250000000007979
20
133.07428728722678
10
-9.7499999999995168
20
133.07428728722675
42
-0.99999999999999989
10
-9.7499999999995879
20
132.57428728722681
0
LWPOLYLINE
5
502
100
AcDbEntity
8
0
100
AcDbPolyline
90
4
70
1
43
0.0
10
-2.7131075164277263e-14
20
15.32428728722628
10
-6.2658211952282272e-14
20
15.824287287226806
42
-0.99999999999999989
10
0.49999999999997996
20
15.824287287226806
10
0.49999999999994443
20
15.324287287227332
42
-0.99999999999999989
0
LWPOLYLINE
5
503
100
AcDbEntity
8
0
100
AcDbPolyline
90
4
70
1
43
0.0
10
-2.7131075164277263e-14
20
18.32428728722628
10
-6.2658211952282272e-14
20
18.824287287226806
42
-0.99999999999999989
10
0.49999999999997996
20
18.824287287226806
10
0.49999999999994443
20
18.324287287227332
42
-0.99999999999999989
0
LWPOLYLINE
5
504
100
AcDbEntity
8
0
100
AcDbPolyline
90
4
70
1
43
0.0
10
-2.7131075164277263e-14
20
21.32428728722628
10
-6.2658211952282272e-14
20
21.824287287226806
42
-0.99999999999999989
10
0.49999999999997996
20
21.824287287226806
10
0.49999999999994443
20
21.324287287227328
42
-0.99999999999999989
0
LWPOLYLINE
5
505
100
AcDbEntity
8
0
100
AcDbPolyline
90
4
70
1
43
0.0
10
-2.7131075164277263e-14
20
24.324287287226277
10
-6.2658211952282272e-14
20
24.824287287226809
42
-0.99999999999999989
10
0.49999999999997996
20
24.824287287226809
10
0.49999999999994443
20
24.324287287227335
42
-0.99999999999999989
0
LWPOLYLINE
5
506
100
AcDbEntity
8
0
100
AcDbPolyline
90
4
70
1
43
0.0
10
-2.7131075164277263e-14
20
27.32428728722628
10
-6.2658211952282272e-14
20
27.824287287226809
42
-0.99999999999999989
10
0.49999999999997996
20
27.824287287226809
10
0.49999999999994443
20
27.324287287227339
42
-0.99999999999999989
0
LWPOLYLINE
5
507
100
AcDbEntity
8
0
100
AcDbPolyline
90
4
70
1
43
0.0
10
-2.7131075164277263e-14
20
30.324287287226284
10
-6.2658211952282272e-14
20
30.824287287226806
42
-0.99999999999999989
10
0.49999999999997996
20
30.824287287226806
10
0.49999999999994443
20
30.324287287227332
42
-0.99999999999999989
0
LWPOLYLINE
5
508
100
AcDbEntity
8
0
100
AcDbPolyline
90
4
70
1
43
0.0
10
-2.7131075164277263e-14
20
33.324287287226284
10
-6.2658211952282272e-14
20
33.824287287226809
42
-0.99999999999999989
10
0.49999999999997996
20
33.824287287226809
10
0.49999999999994443
20
33.324287287227335
42
-0.99999999999999989
0
LWPOLYLINE
5
509
100
AcDbEntity
8
0
100
AcDbPolyline
90
4
70
1
43
0.0
10
-2.7131075164277263e-14
20
36.324287287226284
10
-6.2658211952282272e-14
20
36.824287287226809
42
-0.99999999999999989
10
0.49999999999997996
20
36.824287287226809
10
0.49999999999994443
20
36.324287287227335
42
-0.99999999999999989
0
LWPOLYLINE
5
510
100
AcDbEntity
8
0
100
AcDbPolyline
90
4
70
1
43
0.0
10
-2.7131075164277263e-14
20
39.324287287226277
10
-6.2658211952282272e-14
20
39.824287287226809
42
-0.99999999999999989
10
0.49999999999997996
20
39.824287287226809
10
0.49999999999994443
20
39.324287287227335
42
-0.99999999999999989
0
LWPOLYLINE
5
511
100
AcDbEntity
8
0
100
AcDbPolyline
90
4
70
1
43
0.0
10
-2.7131075164277263e-14
20
42.324287287226284
10
-6.2658211952282272e-14
20
42.824287287226809
42
-0.99999999999999989
10
0.49999999999997996
20
42.824287287226809
10
0.49999999999994443
20
42.324287287227335
42
-0.99999999999999989
0
LWPOLYLINE
5
512
100
AcDbEntity
8
0
100
AcDbPolyline
90
4
70
1
43
0.0
10
-2.7131075164277263e-14
20
45.324287287226284
10
-6.2658211952282272e-14
20
45.824287287226817
42
-0.99999999999999989
10
0.49999999999997996
20
45.824287287226817
10
0.49999999999994443
20
45.324287287227349
42
-0.99999999999999989
0
LWPOLYLINE
5
513
100
AcDbEntity
8
0
100
AcDbPolyline
90
4
70
1
43
0.0
10
-2.7131075164277263e-14
20
48.324287287226284
10
-6.2658211952282272e-14
20
48.824287287226809
42
-0.99999999999999989
10
0.49999999999997996
20
48.824287287226809
10
0.49999999999994443
20
48.324287287227328
42
-0.99999999999999989
0
LWPOLYLINE
5
514
100
AcDbEntity
8
0
100
AcDbPolyline
90
4
70
1
43
0.0
10
-2.7131075164277263e-14
20
51.324287287226284
10
-6.2658211952282272e-14
20
51.824287287226809
42
-0.99999999999999989
10
0.49999999999997996
20
51.824287287226809
10
0.49999999999994443
20
51.324287287227349
42
-0.99999999999999989
0
LWPOLYLINE
5
515
100
AcDbEntity
8
0
100
AcDbPolyline
90
4
70
1
43
0.0
10
-2.7131075164277263e-14
20
54.324287287226284
10
-6.2658211952282272e-14
20
54.824287287226817
42
-0.99999999999999989
10
0.49999999999997996
20
54.824287287226817
10
0.49999999999994443
20
54.324287287227349
42
-0.99999999999999989
0
LWPOLYLINE
5
516
100
AcDbEntity
8
0
100
AcDbPolyline
90
4
70
1
43
0.0
10
-2.7131075164277263e-14
20
57.324287287226284
10
-6.2658211952282272e-14
20
57.824287287226817
42
-0.99999999999999989
10
0.49999999999997996
20
57.824287287226817
10
0.49999999999994443
20
57.324287287227335
42
-0.99999999999999989
0
LWPOLYLINE
5
517
100
AcDbEntity
8
0
100
AcDbPolyline
90
4
70
1
43
0.0
10
-2.7131075164277263e-14
20
60.324287287226284
10
-6.2658211952282272e-14
20
60.824287287226817
42
-0.99999999999999989
10
0.49999999999997996
20
60.824287287226817
10
0.49999999999994443
20
60.324287287227349
42
-0.99999999999999989
0
LWPOLYLINE
5
518
100
AcDbEntity
8
0
100
AcDbPolyline
90
4
70
1
43
0.0
10
-2.7131075164277263e-14
20
63.324287287226284
10
-6.2658211952282272e-14
20
63.824287287226809
42
-0.99999999999999989
10
0.49999999999997996
20
63.824287287226809
10
0.49999999999994443
20
63.324287287227328
42
-0.99999999999999989
0
LWPOLYLINE
5
519
100
AcDbEntity
8
0
100
AcDbPolyline
90
4
70
1
43
0.0
10
-2.7131075164277263e-14
20
66.324287287226284
10
-6.2658211952282272e-14
20
66.824287287226809
42
-0.99999999999999989
10
0.49999999999997996
20
66.824287287226809
10
0.49999999999994443
20
66.324287287227349
42
-0.99999999999999989
0
LWPOLYLINE
5
520
100
AcDbEntity
8
0
100
AcDbPolyline
90
4
70
1
43
0.0
10
-2.7131075164277263e-14
20
69.324287287226284
10
-6.2658211952282272e-14
20
69.824287287226824
42
-0.99999999999999989
10
0.49999999999997996
20
69.824287287226824
10
0.49999999999994443
20
69.324287287227349
42
-0.99999999999999989
0
LWPOLYLINE
5
521
100
AcDbEntity
8
0
100
AcDbPolyline
90
4
70
1
43
0.0
10
-2.7131075164277263e-14
20
72.324287287226284
10
-6.2658211952282272e-14
20
72.824287287226809
42
-0.99999999999999989
10
0.49999999999997996
20
72.824287287226809
10
0.49999999999994443
20
72.324287287227335
42
-0.99999999999999989
0
LWPOLYLINE
5
522
100
AcDbEntity
8
0
100
AcDbPolyline
90
4
70
1
43
0.0
10
-2.7131075164277263e-14
20
75.324287287226284
10
-6.2658211952282272e-14
20
75.824287287226809
42
-0.99999999999999989
10
0.49999999999997996
20
75.824287287226809
10
0.49999999999994443
20
75.324287287227349
42
-0.99999999999999989
0
LWPOLYLINE
5
523
100
AcDbEntity
8
0
100
AcDbPolyline
90
4
70
1
43
0.0
10
-2.7131075164277263e-14
20
78.324287287226298
10
-6.2658211952282272e-14
20
78.824287287226824
42
-0.99999999999999989
10
0.49999999999997996
20
78.824287287226824
10
0.49999999999994443
20
78.324287287227349
42
-0.99999999999999989
0
LWPOLYLINE
5
524
100
AcDbEntity
8
0
100
AcDbPolyline
90
4
70
1
43
0.0
10
-2.7131075164277263e-14
20
81.324287287226298
10
-6.2658211952282272e-14
20
81.824287287226824
42
-0.99999999999999989
10
0.49999999999997996
20
81.824287287226824
10
0.49999999999994443
20
81.324287287227321
42
-0.99999999999999989
0
LWPOLYLINE
5
525
100
AcDbEntity
8
0
100
AcDbPolyline
90
4
70
1
43
0.0
10
-2.7131075164277263e-14
20
84.324287287226284
10
-6.2658211952282272e-14
20
84.824287287226809
42
-0.99999999999999989
10
0.49999999999997996
20
84.824287287226809
10
0.49999999999994443
20
84.324287287227349
42
-0.99999999999999989
0
LWPOLYLINE
5
526
100
AcDbEntity
8
0
100
AcDbPolyline
90
4
70
1
43
0.0
10
-2.7131075164277263e-14
20
87.324287287226298
10
-6.2658211952282272e-14
20
87.824287287226809
42
-0.99999999999999989
10
0.49999999999997996
20
87.824287287226809
10
0.49999999999994443
20
87.324287287227321
42
-0.99999999999999989
0
LWPOLYLINE
5
527
100
AcDbEntity
8
0
100
AcDbPolyline
90
4
70
1
43
0.0
10
-2.7131075164277263e-14
20
90.324287287226284
10
-6.2658211952282272e-14
20
90.824287287226809
42
-0.99999999999999989
10
0.49999999999997996
20
90.824287287226809
10
0.49999999999994443
20
90.324287287227349
42
-0.99999999999999989
0
LWPOLYLINE
5
528
100
AcDbEntity
8
0
100
AcDbPolyline
90
4
70
1
43
0.0
10
-2.7131075164277263e-14
20
93.324287287226298
10
-6.2658211952282272e-14
20
93.824287287226809
42
-0.99999999999999989
10
0.49999999999997996
20
93.824287287226809
10
0.49999999999994443
20
93.324287287227349
42
-0.99999999999999989
0
LWPOLYLINE
5
529
100
AcDbEntity
8
0
100
AcDbPolyline
90
4
70
1
43
0.0
10
-2.7131075164277263e-14
20
96.324287287226298
10
-6.2658211952282272e-14
20
96.824287287226824
42
-0.99999999999999989
10
0.49999999999997996
20
96.824287287226824
10
0.49999999999994443
20
96.324287287227364
42
-0.99999999999999989
0
LWPOLYLINE
5
530
100
AcDbEntity
8
0
100
AcDbPolyline
90
4
70
1
43
0.0
10
-2.7131075164277263e-14
20
99.324287287226284
10
-6.2658211952282272e-14
20
99.824287287226809
42
-0.99999999999999989
10
0.49999999999997996
20
99.824287287226809
10
0.49999999999994443
20
99.324287287227349
42
-0.99999999999999989
0
LWPOLYLINE
5
531
100
AcDbEntity
8
0
100
AcDbPolyline
90
4
70
1
43
0.0
10
-2.7131075164277263e-14
20
102.3242872872263
10
-6.2658211952282272e-14
20
102.82428728722681
42
-0.99999999999999989
10
0.49999999999997996
20
102.82428728722681
10
0.49999999999994443
20
102.32428728722736
42
-0.99999999999999989
0
LWPOLYLINE
5
532
100
AcDbEntity
8
0
100
AcDbPolyline
90
4
70
1
43
0.0
10
-2.7131075164277263e-14
20
105.32428728722628
10
-6.2658211952282272e-14
20
105.82428728722681
42
-0.99999999999999989
10
0.49999999999997996
20
105.82428728722681
10
0.49999999999994443
20
105.32428728722735
42
-0.99999999999999989
0
LWPOLYLINE
5
533
100
AcDbEntity
8
0
100
AcDbPolyline
90
4
70
1
43
0.0
10
-2.7131075164277263e-14
20
108.3242872872263
10
-6.2658211952282272e-14
20
108.82428728722681
42
-0.99999999999999989
10
0.49999999999997996
20
108.82428728722681
10
0.49999999999994443
20
108.32428728722735
42
-0.99999999999999989
0
LWPOLYLINE
5
534
100
AcDbEntity
8
0
100
AcDbPolyline
90
4
70
1
43
0.0
10
-2.7131075164277263e-14
20
111.3242872872263
10
-6.2658211952282272e-14
20
111.82428728722682
42
-0.99999999999999989
10
0.49999999999997996
20
111.82428728722682
10
0.49999999999994443
20
111.32428728722736
42
-0.99999999999999989
0
LWPOLYLINE
5
535
100
AcDbEntity
8
0
100
AcDbPolyline
90
4
70
1
43
0.0
10
-2.7131075164277263e-14
20
114.32428728722628
10
-6.2658211952282272e-14
20
114.82428728722681
42
-0.99999999999999989
10
0.49999999999997996
20
114.82428728722681
10
0.49999999999994443
20
114.32428728722735
42
-0.99999999999999989
0
LWPOLYLINE
5
536
100
AcDbEntity
8
0
100
AcDbPolyline
90
4
70
1
43
0.0
10
-2.7131075164277263e-14
20
117.3242872872263
10
-6.2658211952282272e-14
20
117.82428728722681
42
-0.99999999999999989
10
0.49999999999997996
20
117.82428728722681
10
0.49999999999994443
20
117.32428728722736
42
-0.99999999999999989
0
LWPOLYLINE
5
537
100
AcDbEntity
8
0
100
AcDbPolyline
90
4
70
1
43
0.0
10
-2.7131075164277263e-14
20
120.32428728722628
10
-6.2658211952282272e-14
20
120.82428728722681
42
-0.99999999999999989
10
0.49999999999997996
20
120.82428728722681
10
0.49999999999994443
20
120.32428728722735
42
-0.99999999999999989
0
LWPOLYLINE
5
538
100
AcDbEntity
8
0
100
AcDbPolyline
90
4
70
1
43
0.0
10
-2.7131075164277263e-14
20
123.3242872872263
10
-6.2658211952282272e-14
20
123.82428728722681
42
-0.99999999999999989
10
0.49999999999997996
20
123.82428728722681
10
0.49999999999994443
20
123.32428728722735
42
-0.99999999999999989
0
LWPOLYLINE
5
539
100
AcDbEntity
8
0
100
AcDbPolyline
90
4
70
1
43
0.0
10
-186.74999999999986
20
-234.15213947667002
10
-187.24999999999994
20
-234.15213947667047
42
-0.99999999999999989
10
-187.24999999999994
20
-233.65213947667016
10
-186.75
20
-233.65213947667061
42
-0.99999999999999989
0
LWPOLYLINE
5
540
100
AcDbEntity
8
0
100
AcDbPolyline
90
4
70
1
43
0.0
10
-183.74999999999986
20
-234.15213947667002
10
-184.24999999999994
20
-234.15213947667047
42
-0.99999999999999989
10
-184.24999999999994
20
-233.65213947667016
10
-183.75
20
-233.65213947667061
42
-0.99999999999999989
0
LWPOLYLINE
5
541
100
AcDbEntity
8
0
100
AcDbPolyline
90
4
70
1
43
0.0
10
-180.74999999999986
20
-234.15213947667002
10
-181.24999999999994
20
-234.15213947667047
42
-0.99999999999999989
10
-181.24999999999994
20
-233.65213947667016
10
-180.75
20
-233.65213947667061
42
-0.99999999999999989
0
LWPOLYLINE
5
542
100
AcDbEntity
8
0
100
AcDbPolyline
90
4
70
1
43
0.0
10
-177.74999999999983
20
-234.15213947667002
10
-178.24999999999991
20
-234.15213947667047
42
-0.99999999999999989
10
-178.24999999999991
20
-233.65213947667016
10
-177.75
20
-233.65213947667061
42
-0.99999999999999989
0
LWPOLYLINE
5
543
100
AcDbEntity
8
0
100
AcDbPolyline
90
4
70
1
43
0.0
10
-174.74999999999983
20
-234.15213947667002
10
-175.24999999999991
20
-234.15213947667047
42
-0.99999999999999989
10
-175.24999999999991
20
-233.65213947667016
10
-174.74999999999997
20
-233.65213947667061
42
-0.99999999999999989
0
LWPOLYLINE
5
544
100
AcDbEntity
8
0
100
AcDbPolyline
90
4
70
1
43
0.0
10
-171.74999999999983
20
-234.15213947667002
10
-172.24999999999991
20
-234.15213947667047
42
-0.99999999999999989
10
-172.24999999999991
20
-233.65213947667016
10
-171.74999999999997
20
-233.65213947667061
42
-0.99999999999999989
0
LWPOLYLINE
5
545
100
AcDbEntity
8
0
100
AcDbPolyline
90
4
70
1
43
0.0
10
-168.74999999999983
20
-234.15213947667002
10
-169.24999999999989
20
-234.15213947667047
42
-0.99999999999999989
10
-169.24999999999989
20
-233.65213947667016
10
-168.74999999999997
20
-233.65213947667061
42
-0.99999999999999989
0
LWPOLYLINE
5
546
100
AcDbEntity
8
0
100
AcDbPolyline
90
4
70
1
43
0.0
10
-165.74999999999983
20
-234.15213947667002
10
-166.24999999999989
20
-234.15213947667047
42
-0.99999999999999989
10
-166.24999999999989
20
-233.65213947667016
10
-165.74999999999994
20
-233.65213947667061
42
-0.99999999999999989
0
LWPOLYLINE
5
547
100
AcDbEntity
8
0
100
AcDbPolyline
90
4
70
1
43
0.0
10
-162.7499999999998
20
-234.15213947667002
10
-163.24999999999989
20
-234.15213947667047
42
-0.99999999999999989
10
-163.24999999999989
20
-233.65213947667016
10
-162.74999999999994
20
-233.65213947667061
42
-0.99999999999999989
0
LWPOLYLINE
5
548
100
AcDbEntity
8
0
100
AcDbPolyline
90
4
70
1
43
0.0
10
-159.7499999999998
20
-234.15213947667002
10
-160.24999999999989
20
-234.15213947667047
42
-0.99999999999999989
10
-160.24999999999989
20
-233.65213947667016
10
-159.74999999999994
20
-233.65213947667061
42
-0.99999999999999989
0
LWPOLYLINE
5
549
100
AcDbEntity
8
0
100
AcDbPolyline
90
4
70
1
43
0.0
10
-156.7499999999998
20
-234.15213947667002
10
-157.24999999999989
20
-234.15213947667047
42
-0.99999999999999989
10
-157.24999999999989
20
-233.65213947667016
10
-156.74999999999994
20
-233.65213947667061
42
-0.99999999999999989
0
LWPOLYLINE
5
550
100
AcDbEntity
8
0
100
AcDbPolyline
90
4
70
1
43
0.0
10
-153.74999999999977
20
-234.15213947667002
10
-154.24999999999986
20
-234.15213947667047
42
-0.99999999999999989
10
-154.24999999999986
20
-233.65213947667016
10
-153.74999999999994
20
-233.65213947667061
42
-0.99999999999999989
0
LWPOLYLINE
5
551
100
AcDbEntity
8
0
100
AcDbPolyline
90
4
70
1
43
0.0
10
-150.74999999999977
20
-234.15213947667002
10
-151.24999999999986
20
-234.15213947667047
42
-0.99999999999999989
10
-151.24999999999986
20
-233.65213947667016
10
-150.74999999999991
20
-233.65213947667061
42
-0.99999999999999989
0
LWPOLYLINE
5
552
100
AcDbEntity
8
0
100
AcDbPolyline
90
4
70
1
43
0.0
10
-147.74999999999977
20
-234.15213947667002
10
-148.24999999999986
20
-234.15213947667047
42
-0.99999999999999989
10
-148.24999999999986
20
-233.65213947667016
10
-147.74999999999991
20
-233.65213947667061
42
-0.99999999999999989
0
LWPOLYLINE
5
553
100
AcDbEntity
8
0
100
AcDbPolyline
90
4
70
1
43
0.0
10
-144.74999999999977
20
-234.15213947667002
10
-145.24999999999983
20
-234.15213947667047
42
-0.99999999999999989
10
-145.24999999999983
20
-233.65213947667016
10
-144.74999999999991
20
-233.65213947667061
42
-0.99999999999999989
0
LWPOLYLINE
5
554
100
AcDbEntity
8
0
100
AcDbPolyline
90
4
70
1
43
0.0
10
-141.74999999999977
20
-234.15213947667002
10
-142.24999999999983
20
-234.15213947667047
42
-0.99999999999999989
10
-142.24999999999983
20
-233.65213947667016
10
-141.74999999999989
20
-233.65213947667061
42
-0.99999999999999989
0
LWPOLYLINE
5
555
100
AcDbEntity
8
0
100
AcDbPolyline
90
4
70
1
43
0.0
10
-138.74999999999974
20
-234.15213947667002
10
-139.24999999999983
20
-234.15213947667047
42
-0.99999999999999989
10
-139.24999999999983
20
-233.65213947667016
10
-138.74999999999989
20
-233.65213947667061
42
-0.99999999999999989
0
LWPOLYLINE
5
556
100
AcDbEntity
8
0
100
AcDbPolyline
90
4
70
1
43
0.0
10
-135.74999999999974
20
-234.15213947667002
10
-136.24999999999983
20
-234.15213947667047
42
-0.99999999999999989
10
-136.24999999999983
20
-233.65213947667016
10
-135.74999999999989
20
-233.65213947667061
42
-0.99999999999999989
0
LWPOLYLINE
5
557
100
AcDbEntity
8
0
100
AcDbPolyline
90
4
70
1
43
0.0
10
-132.74999999999974
20
-234.15213947667002
10
-133.24999999999983
20
-234.15213947667047
42
-0.99999999999999989
10
-133.24999999999983
20
-233.65213947667016
10
-132.74999999999989
20
-233.65213947667061
42
-0.99999999999999989
0
LWPOLYLINE
5
558
100
AcDbEntity
8
0
100
AcDbPolyline
90
4
70
1
43
0.0
10
-129.74999999999972
20
-234.15213947667002
10
-130.2499999999998
20
-234.15213947667047
42
-0.99999999999999989
10
-130.2499999999998
20
-233.65213947667016
10
-129.74999999999989
20
-233.65213947667061
42
-0.99999999999999989
0
LWPOLYLINE
5
559
100
AcDbEntity
8
0
100
AcDbPolyline
90
4
70
1
43
0.0
10
-126.74999999999972
20
-234.15213947667002
10
-127.2499999999998
20
-234.15213947667047
42
-0.99999999999999989
10
-127.2499999999998
20
-233.65213947667016
10
-126.74999999999986
20
-233.65213947667061
42
-0.99999999999999989
0
LWPOLYLINE
5
560
100
AcDbEntity
8
0
100
AcDbPolyline
90
4
70
1
43
0.0
10
-123.74999999999972
20
-234.15213947667002
10
-124.2499999999998
20
-234.15213947667047
42
-0.99999999999999989
10
-124.2499999999998
20
-233.65213947667016
10
-123.74999999999986
20
-233.65213947667061
42
-0.99999999999999989
0
LWPOLYLINE
5
561
100
AcDbEntity
8
0
100
AcDbPolyline
90
4
70
1
43
0.0
10
-120.74999999999972
20
-234.15213947667002
10
-121.24999999999979
20
-234.15213947667047
42
-0.99999999999999989
10
-121.24999999999979
20
-233.65213947667016
10
-120.74999999999986
20
-233.65213947667061
42
-0.99999999999999989
0
LWPOLYLINE
5
562
100
AcDbEntity
8
0
100
AcDbPolyline
90
4
70
1
43
0.0
10
-117.7499999999997
20
-234.15213947667002
10
-118.24999999999977
20
-234.15213947667047
42
-0.99999999999999989
10
-118.24999999999977
20
-233.65213947667016
10
-117.74999999999984
20
-233.65213947667061
42
-0.99999999999999989
0
LWPOLYLINE
5
563
100
AcDbEntity
8
0
100
AcDbPolyline
90
4
70
1
43
0.0
10
-114.74999999999969
20
-234.15213947667002
10
-115.24999999999977
20
-234.15213947667047
42
-0.99999999999999989
10
-115.24999999999977
20
-233.65213947667016
10
-114.74999999999983
20
-233.65213947667061
42
-0.99999999999999989
0
LWPOLYLINE
5
564
100
AcDbEntity
8
0
100
AcDbPolyline
90
4
70
1
43
0.0
10
-111.74999999999969
20
-234.15213947667002
10
-112.24999999999977
20
-234.15213947667047
42
-0.99999999999999989
10
-112.24999999999977
20
-233.65213947667016
10
-111.74999999999983
20
-233.65213947667061
42
-0.99999999999999989
0
LWPOLYLINE
5
565
100
AcDbEntity
8
0
100
AcDbPolyline
90
4
70
1
43
0.0
10
-108.74999999999969
20
-234.15213947667002
10
-109.24999999999976
20
-234.15213947667047
42
-0.99999999999999989
10
-109.24999999999976
20
-233.65213947667016
10
-108.74999999999983
20
-233.65213947667061
42
-0.99999999999999989
0
LWPOLYLINE
5
566
100
AcDbEntity
8
0
100
AcDbPolyline
90
4
70
1
43
0.0
10
-105.74999999999967
20
-234.15213947667002
10
-106.24999999999974
20
-234.15213947667047
42
-0.99999999999999989
10
-106.24999999999974
20
-233.65213947667016
10
-105.74999999999982
20
-233.65213947667061
42
-0.99999999999999989
0
LWPOLYLINE
5
567
100
AcDbEntity
8
0
100
AcDbPolyline
90
4
70
1
43
0.0
10
-102.74999999999966
20
-234.15213947667002
10
-103.24999999999974
20
-234.15213947667047
42
-0.99999999999999989
10
-103.24999999999974
20
-233.65213947667016
10
-102.7499999999998
20
-233.65213947667061
42
-0.99999999999999989
0
LWPOLYLINE
5
568
100
AcDbEntity
8
0
100
AcDbPolyline
90
4
70
1
43
0.0
10
-186.75000000000009
20
-364.65213947667019
10
-187.25
20
-364.65213947667007
42
-0.99999999999999989
10
-187.25
20
-364.15213947667013
10
-186.74999999999994
20
-364.15213947667007
42
-0.99999999999999989
0
LWPOLYLINE
5
569
100
AcDbEntity
8
0
100
AcDbPolyline
90
4
70
1
43
0.0
10
-183.75000000000006
20
-364.65213947667019
10
-184.25
20
-364.65213947667007
42
-0.99999999999999989
10
-184.25
20
-364.15213947667013
10
-183.74999999999994
20
-364.15213947667007
42
-0.99999999999999989
0
LWPOLYLINE
5
570
100
AcDbEntity
8
0
100
AcDbPolyline
90
4
70
1
43
0.0
10
-180.75000000000006
20
-364.65213947667019
10
-181.25
20
-364.65213947667007
42
-0.99999999999999989
10
-181.25
20
-364.15213947667013
10
-180.74999999999991
20
-364.15213947667007
42
-0.99999999999999989
0
LWPOLYLINE
5
571
100
AcDbEntity
8
0
100
AcDbPolyline
90
4
70
1
43
0.0
10
-177.75000000000006
20
-364.65213947667019
10
-178.25
20
-364.65213947667007
42
-0.99999999999999989
10
-178.25
20
-364.15213947667013
10
-177.74999999999991
20
-364.15213947667007
42
-0.99999999999999989
0
LWPOLYLINE
5
572
100
AcDbEntity
8
0
100
AcDbPolyline
90
4
70
1
43
0.0
10
-174.75000000000006
20
-364.65213947667019
10
-175.25
20
-364.65213947667007
42
-0.99999999999999989
10
-175.25
20
-364.15213947667013
10
-174.74999999999991
20
-364.15213947667007
42
-0.99999999999999989
0
LWPOLYLINE
5
573
100
AcDbEntity
8
0
100
AcDbPolyline
90
4
70
1
43
0.0
10
-171.75000000000006
20
-364.65213947667019
10
-172.24999999999997
20
-364.65213947667007
42
-0.99999999999999989
10
-172.24999999999997
20
-364.15213947667013
10
-171.74999999999989
20
-364.15213947667007
42
-0.99999999999999989
0
LWPOLYLINE
5
574
100
AcDbEntity
8
0
100
AcDbPolyline
90
4
70
1
43
0.0
10
-168.75000000000003
20
-364.65213947667019
10
-169.24999999999997
20
-364.65213947667007
42
-0.99999999999999989
10
-169.24999999999997
20
-364.15213947667013
10
-168.74999999999989
20
-364.15213947667007
42
-0.99999999999999989
0
LWPOLYLINE
5
575
100
AcDbEntity
8
0
100
AcDbPolyline
90
4
70
1
43
0.0
10
-165.75000000000003
20
-364.65213947667019
10
-166.24999999999997
20
-364.65213947667007
42
-0.99999999999999989
10
-166.24999999999997
20
-364.15213947667013
10
-165.74999999999989
20
-364.15213947667007
42
-0.99999999999999989
0
LWPOLYLINE
5
576
100
AcDbEntity
8
0
100
AcDbPolyline
90
4
70
1
43
0.0
10
-162.75000000000003
20
-364.65213947667019
10
-163.24999999999994
20
-364.65213947667007
42
-0.99999999999999989
10
-163.24999999999994
20
-364.15213947667013
10
-162.74999999999989
20
-364.15213947667007
42
-0.99999999999999989
0
LWPOLYLINE
5
577
100
AcDbEntity
8
0
100
AcDbPolyline
90
4
70
1
43
0.0
10
-159.75
20
-364.65213947667019
10
-160.24999999999994
20
-364.65213947667007
42
-0.99999999999999989
10
-160.24999999999994
20
-364.15213947667013
10
-159.74999999999989
20
-364.15213947667007
42
-0.99999999999999989
0
LWPOLYLINE
5
578
100
AcDbEntity
8
0
100
AcDbPolyline
90
4
70
1
43
0.0
10
-156.75
20
-364.65213947667019
10
-157.24999999999994
20
-364.65213947667007
42
-0.99999999999999989
10
-157.24999999999994
20
-364.15213947667013
10
-156.74999999999986
20
-364.15213947667007
42
-0.99999999999999989
0
LWPOLYLINE
5
579
100
AcDbEntity
8
0
100
AcDbPolyline
90
4
70
1
43
0.0
10
-153.75
20
-364.65213947667019
10
-154.24999999999994
20
-364.65213947667007
42
-0.99999999999999989
10
-154.24999999999994
20
-364.15213947667013
10
-153.74999999999986
20
-364.15213947667007
42
-0.99999999999999989
0
LWPOLYLINE
5
580
100
AcDbEntity
8
0
100
AcDbPolyline
90
4
70
1
43
0.0
10
-150.75
20
-364.65213947667019
10
-151.24999999999994
20
-364.65213947667007
42
-0.99999999999999989
10
-151.24999999999994
20
-364.15213947667013
10
-150.74999999999986
20
-364.15213947667007
42
-0.99999999999999989
0
LWPOLYLINE
5
581
100
AcDbEntity
8
0
100
AcDbPolyline
90
4
70
1
43
0.0
10
-147.75
20
-364.65213947667019
10
-148.24999999999991
20
-364.65213947667007
42
-0.99999999999999989
10
-148.24999999999991
20
-364.15213947667013
10
-147.74999999999983
20
-364.15213947667007
42
-0.99999999999999989
0
LWPOLYLINE
5
582
100
AcDbEntity
8
0
100
AcDbPolyline
90
4
70
1
43
0.0
10
-144.74999999999997
20
-364.65213947667019
10
-145.24999999999991
20
-364.65213947667007
42
-0.99999999999999989
10
-145.24999999999991
20
-364.15213947667013
10
-144.74999999999983
20
-364.15213947667007
42
-0.99999999999999989
0
LWPOLYLINE
5
583
100
AcDbEntity
8
0
100
AcDbPolyline
90
4
70
1
43
0.0
10
-141.74999999999997
20
-364.65213947667019
10
-142.24999999999991
20
-364.65213947667007
42
-0.99999999999999989
10
-142.24999999999991
20
-364.15213947667013
10
-141.74999999999983
20
-364.15213947667007
42
-0.99999999999999989
0
LWPOLYLINE
5
584
100
AcDbEntity
8
0
100
AcDbPolyline
90
4
70
1
43
0.0
10
-138.74999999999997
20
-364.65213947667019
10
-139.24999999999989
20
-364.65213947667007
42
-0.99999999999999989
10
-139.24999999999989
20
-364.15213947667013
10
-138.74999999999983
20
-364.15213947667007
42
-0.99999999999999989
0
LWPOLYLINE
5
585
100
AcDbEntity
8
0
100
AcDbPolyline
90
4
70
1
43
0.0
10
-135.74999999999994
20
-364.65213947667019
10
-136.24999999999989
20
-364.65213947667007
42
-0.99999999999999989
10
-136.24999999999989
20
-364.15213947667013
10
-135.74999999999983
20
-364.15213947667007
42
-0.99999999999999989
0
LWPOLYLINE
5
586
100
AcDbEntity
8
0
100
AcDbPolyline
90
4
70
1
43
0.0
10
-132.74999999999994
20
-364.65213947667019
10
-133.24999999999989
20
-364.65213947667007
42
-0.99999999999999989
10
-133.24999999999989
20
-364.15213947667013
10
-132.7499999999998
20
-364.15213947667007
42
-0.99999999999999989
0
LWPOLYLINE
5
587
100
AcDbEntity
8
0
100
AcDbPolyline
90
4
70
1
43
0.0
10
-129.74999999999994
20
-364.65213947667019
10
-130.24999999999989
20
-364.65213947667007
42
-0.99999999999999989
10
-130.24999999999989
20
-364.15213947667013
10
-129.7499999999998
20
-364.15213947667007
42
-0.99999999999999989
0
LWPOLYLINE
5
588
100
AcDbEntity
8
0
100
AcDbPolyline
90
4
70
1
43
0.0
10
-126.74999999999994
20
-364.65213947667019
10
-127.24999999999987
20
-364.65213947667007
42
-0.99999999999999989
10
-127.24999999999987
20
-364.15213947667013
10
-126.7499999999998
20
-364.15213947667007
42
-0.99999999999999989
0
LWPOLYLINE
5
589
100
AcDbEntity
8
0
100
AcDbPolyline
90
4
70
1
43
0.0
10
-123.74999999999993
20
-364.65213947667019
10
-124.24999999999986
20
-364.65213947667007
42
-0.99999999999999989
10
-124.24999999999986
20
-364.15213947667013
10
-123.74999999999979
20
-364.15213947667007
42
-0.99999999999999989
0
LWPOLYLINE
5
590
100
AcDbEntity
8
0
100
AcDbPolyline
90
4
70
1
43
0.0
10
-120.74999999999991
20
-364.65213947667019
10
-121.24999999999986
20
-364.65213947667007
42
-0.99999999999999989
10
-121.24999999999986
20
-364.15213947667013
10
-120.74999999999977
20
-364.15213947667007
42
-0.99999999999999989
0
LWPOLYLINE
5
591
100
AcDbEntity
8
0
100
AcDbPolyline
90
4
70
1
43
0.0
10
-117.74999999999991
20
-364.65213947667019
10
-118.24999999999986
20
-364.65213947667007
42
-0.99999999999999989
10
-118.24999999999986
20
-364.15213947667013
10
-117.74999999999977
20
-364.15213947667007
42
-0.99999999999999989
0
LWPOLYLINE
5
592
100
AcDbEntity
8
0
100
AcDbPolyline
90
4
70
1
43
0.0
10
-114.74999999999991
20
-364.65213947667019
10
-115.24999999999984
20
-364.65213947667007
42
-0.99999999999999989
10
-115.24999999999984
20
-364.15213947667013
10
-114.74999999999977
20
-364.15213947667007
42
-0.99999999999999989
0
LWPOLYLINE
5
593
100
AcDbEntity
8
0
100
AcDbPolyline
90
4
70
1
43
0.0
10
-111.7499999999999
20
-364.65213947667019
10
-112.24999999999983
20
-364.65213947667007
42
-0.99999999999999989
10
-112.24999999999983
20
-364.15213947667013
10
-111.74999999999976
20
-364.15213947667007
42
-0.99999999999999989
0
LWPOLYLINE
5
594
100
AcDbEntity
8
0
100
AcDbPolyline
90
4
70
1
43
0.0
10
-108.74999999999989
20
-364.65213947667019
10
-109.24999999999983
20
-364.65213947667007
42
-0.99999999999999989
10
-109.24999999999983
20
-364.15213947667013
10
-108.74999999999974
20
-364.15213947667007
42
-0.99999999999999989
0
LWPOLYLINE
5
595
100
AcDbEntity
8
0
100
AcDbPolyline
90
4
70
1
43
0.0
10
-105.74999999999989
20
-364.65213947667019
10
-106.24999999999983
20
-364.65213947667007
42
-0.99999999999999989
10
-106.24999999999983
20
-364.15213947667013
10
-105.74999999999974
20
-364.15213947667007
42
-0.99999999999999989
0
LWPOLYLINE
5
596
100
AcDbEntity
8
0
100
AcDbPolyline
90
4
70
1
43
0.0
10
-102.74999999999989
20
-364.65213947667019
10
-103.24999999999982
20
-364.65213947667007
42
-0.99999999999999989
10
-103.24999999999982
20
-364.15213947667013
10
-102.74999999999974
20
-364.15213947667007
42
-0.99999999999999989
0
LWPOLYLINE
5
597
100
AcDbEntity
8
0
100
AcDbPolyline
90
4
70
1
43
0.0
10
-200.00000000000006
20
-351.40213947667036
10
-200.00000000000003
20
-350.90213947666962
42
0.99999999999999989
10
-200.50000000000009
20
-350.90213947666962
10
-200.50000000000006
20
-351.40213947667064
42
0.99999999999999989
0
LWPOLYLINE
5
598
100
AcDbEntity
8
0
100
AcDbPolyline
90
4
70
1
43
0.0
10
-200.00000000000006
20
-348.40213947667041
10
-200.00000000000003
20
-347.90213947666962
42
0.99999999999999989
10
-200.50000000000009
20
-347.90213947666962
10
-200.50000000000006
20
-348.40213947667064
42
0.99999999999999989
0
LWPOLYLINE
5
599
100
AcDbEntity
8
0
100
AcDbPolyline
90
4
70
1
43
0.0
10
-200.00000000000006
20
-345.40213947667041
10
-200.00000000000003
20
-344.90213947666967
42
0.99999999999999989
10
-200.50000000000009
20
-344.90213947666967
10
-200.50000000000006
20
-345.4021394766707
42
0.99999999999999989
0
LWPOLYLINE
5
600
100
AcDbEntity
8
0
100
AcDbPolyline
90
4
70
1
43
0.0
10
-200.00000000000006
20
-342.40213947667041
10
-200.00000000000003
20
-341.90213947666967
42
0.99999999999999989
10
-200.50000000000009
20
-341.90213947666967
10
-200.50000000000006
20
-342.40213947667075
42
0.99999999999999989
0
LWPOLYLINE
5
601
100
AcDbEntity
8
0
100
AcDbPolyline
90
4
70
1
43
0.0
10
-200.00000000000006
20
-339.40213947667047
10
-200.00000000000003
20
-338.90213947666973
42
0.99999999999999989
10
-200.50000000000009
20
-338.90213947666973
10
-200.50000000000006
20
-339.40213947667075
42
0.99999999999999989
0
LWPOLYLINE
5
602
100
AcDbEntity
8
0
100
AcDbPolyline
90
4
70
1
43
0.0
10
-200.00000000000006
20
-336.40213947667053
10
-200.00000000000003
20
-335.90213947666973
42
0.99999999999999989
10
-200.50000000000009
20
-335.90213947666973
10
-200.50000000000006
20
-336.40213947667075
42
0.99999999999999989
0
LWPOLYLINE
5
603
100
AcDbEntity
8
0
100
AcDbPolyline
90
4
70
1
43
0.0
10
-200.00000000000006
20
-333.40213947667053
10
-200.00000000000003
20
-332.90213947666979
42
0.99999999999999989
10
-200.50000000000009
20
-332.90213947666979
10
-200.50000000000006
20
-333.40213947667081
42
0.99999999999999989
0
LWPOLYLINE
5
604
100
AcDbEntity
8
0
100
AcDbPolyline
90
4
70
1
43
0.0
10
-200.00000000000006
20
-330.40213947667053
10
-200.00000000000003
20
-329.90213947666979
42
0.99999999999999989
10
-200.50000000000009
20
-329.90213947666979
10
-200.50000000000006
20
-330.40213947667087
42
0.99999999999999989
0
LWPOLYLINE
5
605
100
AcDbEntity
8
0
100
AcDbPolyline
90
4
70
1
43
0.0
10
-200.00000000000006
20
-327.40213947667058
10
-200.00000000000003
20
-326.90213947666984
42
0.99999999999999989
10
-200.50000000000009
20
-326.90213947666984
10
-200.50000000000006
20
-327.40213947667087
42
0.99999999999999989
0
LWPOLYLINE
5
606
100
AcDbEntity
8
0
100
AcDbPolyline
90
4
70
1
43
0.0
10
-200.00000000000006
20
-324.40213947667064
10
-200.00000000000003
20
-323.90213947666984
42
0.99999999999999989
10
-200.50000000000009
20
-323.90213947666984
10
-200.50000000000006
20
-324.40213947667087
42
0.99999999999999989
0
LWPOLYLINE
5
607
100
AcDbEntity
8
0
100
AcDbPolyline
90
4
70
1
43
0.0
10
-200.00000000000006
20
-321.40213947667064
10
-200.00000000000003
20
-320.9021394766699
42
0.99999999999999989
10
-200.50000000000009
20
-320.9021394766699
10
-200.50000000000006
20
-321.40213947667092
42
0.99999999999999989
0
LWPOLYLINE
5
608
100
AcDbEntity
8
0
100
AcDbPolyline
90
4
70
1
43
0.0
10
-200.00000000000006
20
-318.40213947667064
10
-200.00000000000003
20
-317.9021394766699
42
0.99999999999999989
10
-200.50000000000009
20
-317.9021394766699
10
-200.50000000000006
20
-318.40213947667098
42
0.99999999999999989
0
LWPOLYLINE
5
609
100
AcDbEntity
8
0
100
AcDbPolyline
90
4
70
1
43
0.0
10
-200.00000000000006
20
-315.4021394766707
10
-200.00000000000003
20
-314.90213947666996
42
0.99999999999999989
10
-200.50000000000009
20
-314.90213947666996
10
-200.50000000000006
20
-315.40213947667098
42
0.99999999999999989
0
LWPOLYLINE
5
610
100
AcDbEntity
8
0
100
AcDbPolyline
90
4
70
1
43
0.0
10
-200.00000000000006
20
-312.40213947667075
10
-200.00000000000003
20
-311.90213947666996
42
0.99999999999999989
10
-200.50000000000009
20
-311.90213947666996
10
-200.50000000000006
20
-312.40213947667098
42
0.99999999999999989
0
LWPOLYLINE
5
611
100
AcDbEntity
8
0
100
AcDbPolyline
90
4
70
1
43
0.0
10
-200.00000000000006
20
-309.40213947667075
10
-200.00000000000003
20
-308.90213947667002
42
0.99999999999999989
10
-200.50000000000009
20
-308.90213947667002
10
-200.50000000000006
20
-309.40213947667104
42
0.99999999999999989
0
LWPOLYLINE
5
612
100
AcDbEntity
8
0
100
AcDbPolyline
90
4
70
1
43
0.0
10
-200.00000000000006
20
-306.40213947667075
10
-200.00000000000003
20
-305.90213947667002
42
0.99999999999999989
10
-200.50000000000009
20
-305.90213947667002
10
-200.50000000000006
20
-306.4021394766711
42
0.99999999999999989
0
LWPOLYLINE
5
613
100
AcDbEntity
8
0
100
AcDbPolyline
90
4
70
1
43
0.0
10
-200.00000000000006
20
-303.40213947667081
10
-200.00000000000003
20
-302.90213947667007
42
0.99999999999999989
10
-200.50000000000009
20
-302.90213947667007
10
-200.50000000000006
20
-303.4021394766711
42
0.99999999999999989
0
LWPOLYLINE
5
614
100
AcDbEntity
8
0
100
AcDbPolyline
90
4
70
1
43
0.0
10
-200.00000000000006
20
-300.40213947667087
10
-200.00000000000003
20
-299.90213947667007
42
0.99999999999999989
10
-200.50000000000009
20
-299.90213947667007
10
-200.50000000000006
20
-300.4021394766711
42
0.99999999999999989
0
LWPOLYLINE
5
615
100
AcDbEntity
8
0
100
AcDbPolyline
90
4
70
1
43
0.0
10
-200.00000000000006
20
-297.40213947667087
10
-200.00000000000003
20
-296.90213947667013
42
0.99999999999999989
10
-200.50000000000009
20
-296.90213947667013
10
-200.50000000000006
20
-297.40213947667115
42
0.99999999999999989
0
LWPOLYLINE
5
616
100
AcDbEntity
8
0
100
AcDbPolyline
90
4
70
1
43
0.0
10
-200.00000000000006
20
-294.40213947667087
10
-200.00000000000003
20
-293.90213947667013
42
0.99999999999999989
10
-200.50000000000009
20
-293.90213947667013
10
-200.50000000000006
20
-294.40213947667121
42
0.99999999999999989
0
LWPOLYLINE
5
617
100
AcDbEntity
8
0
100
AcDbPolyline
90
4
70
1
43
0.0
10
-200.00000000000006
20
-291.40213947667092
10
-200.00000000000003
20
-290.90213947667019
42
0.99999999999999989
10
-200.50000000000009
20
-290.90213947667019
10
-200.50000000000006
20
-291.40213947667121
42
0.99999999999999989
0
LWPOLYLINE
5
618
100
AcDbEntity
8
0
100
AcDbPolyline
90
4
70
1
43
0.0
10
-200.00000000000006
20
-288.40213947667098
10
-200.00000000000003
20
-287.90213947667019
42
0.99999999999999989
10
-200.50000000000009
20
-287.90213947667019
10
-200.50000000000006
20
-288.40213947667121
42
0.99999999999999989
0
LWPOLYLINE
5
619
100
AcDbEntity
8
0
100
AcDbPolyline
90
4
70
1
43
0.0
10
-200.00000000000006
20
-285.40213947667098
10
-200.00000000000003
20
-284.90213947667024
42
0.99999999999999989
10
-200.50000000000009
20
-284.90213947667024
10
-200.50000000000006
20
-285.40213947667127
42
0.99999999999999989
0
LWPOLYLINE
5
620
100
AcDbEntity
8
0
100
AcDbPolyline
90
4
70
1
43
0.0
10
-200.00000000000006
20
-282.40213947667098
10
-200.00000000000003
20
-281.90213947667024
42
0.99999999999999989
10
-200.50000000000009
20
-281.90213947667024
10
-200.50000000000006
20
-282.40213947667132
42
0.99999999999999989
0
LWPOLYLINE
5
621
100
AcDbEntity
8
0
100
AcDbPolyline
90
4
70
1
43
0.0
10
-200.00000000000006
20
-279.40213947667104
10
-200.00000000000003
20
-278.9021394766703
42
0.99999999999999989
10
-200.50000000000009
20
-278.9021394766703
10
-200.50000000000006
20
-279.40213947667132
42
0.99999999999999989
0
LWPOLYLINE
5
622
100
AcDbEntity
8
0
100
AcDbPolyline
90
4
70
1
43
0.0
10
-200.00000000000006
20
-276.4021394766711
10
-200.00000000000003
20
-275.9021394766703
42
0.99999999999999989
10
-200.50000000000009
20
-275.9021394766703
10
-200.50000000000006
20
-276.40213947667132
42
0.99999999999999989
0
LWPOLYLINE
5
623
100
AcDbEntity
8
0
100
AcDbPolyline
90
4
70
1
43
0.0
10
-200.00000000000006
20
-273.4021394766711
10
-200.00000000000003
20
-272.90213947667036
42
0.99999999999999989
10
-200.50000000000009
20
-272.90213947667036
10
-200.50000000000006
20
-273.40213947667138
42
0.99999999999999989
0
LWPOLYLINE
5
624
100
AcDbEntity
8
0
100
AcDbPolyline
90
4
70
1
43
0.0
10
-200.00000000000006
20
-270.4021394766711
10
-200.00000000000003
20
-269.90213947667036
42
0.99999999999999989
10
-200.50000000000009
20
-269.90213947667036
10
-200.50000000000006
20
-270.40213947667144
42
0.99999999999999989
0
LWPOLYLINE
5
625
100
AcDbEntity
8
0
100
AcDbPolyline
90
4
70
1
43
0.0
10
-200.00000000000006
20
-267.40213947667115
10
-200.00000000000003
20
-266.90213947667041
42
0.99999999999999989
10
-200.50000000000009
20
-266.90213947667041
10
-200.50000000000006
20
-267.40213947667144
42
0.99999999999999989
0
LWPOLYLINE
5
626
100
AcDbEntity
8
0
100
AcDbPolyline
90
4
70
1
43
0.0
10
-200.00000000000006
20
-264.40213947667121
10
-200.00000000000003
20
-263.90213947667041
42
0.99999999999999989
10
-200.50000000000009
20
-263.90213947667041
10
-200.50000000000006
20
-264.40213947667144
42
0.99999999999999989
0
LWPOLYLINE
5
627
100
AcDbEntity
8
0
100
AcDbPolyline
90
4
70
1
43
0.0
10
-200.00000000000006
20
-261.40213947667121
10
-200.00000000000003
20
-260.90213947667047
42
0.99999999999999989
10
-200.50000000000009
20
-260.90213947667047
10
-200.50000000000006
20
-261.40213947667149
42
0.99999999999999989
0
LWPOLYLINE
5
628
100
AcDbEntity
8
0
100
AcDbPolyline
90
4
70
1
43
0.0
10
-200.00000000000006
20
-258.40213947667121
10
-200.00000000000003
20
-257.90213947667047
42
0.99999999999999989
10
-200.50000000000009
20
-257.90213947667047
10
-200.50000000000006
20
-258.40213947667155
42
0.99999999999999989
0
LWPOLYLINE
5
629
100
AcDbEntity
8
0
100
AcDbPolyline
90
4
70
1
43
0.0
10
-200.00000000000006
20
-255.40213947667127
10
-200.00000000000003
20
-254.90213947667053
42
0.99999999999999989
10
-200.50000000000009
20
-254.90213947667053
10
-200.50000000000006
20
-255.40213947667155
42
0.99999999999999989
0
LWPOLYLINE
5
630
100
AcDbEntity
8
0
100
AcDbPolyline
90
4
70
1
43
0.0
10
-200.00000000000006
20
-252.40213947667129
10
-200.00000000000003
20
-251.90213947667053
42
0.99999999999999989
10
-200.50000000000009
20
-251.90213947667053
10
-200.50000000000006
20
-252.40213947667158
42
0.99999999999999989
0
LWPOLYLINE
5
631
100
AcDbEntity
8
0
100
AcDbPolyline
90
4
70
1
43
0.0
10
-200.00000000000006
20
-249.40213947667132
10
-200.00000000000003
20
-248.90213947667058
42
0.99999999999999989
10
-200.50000000000009
20
-248.90213947667058
10
-200.50000000000006
20
-249.40213947667161
42
0.99999999999999989
0
LWPOLYLINE
5
632
100
AcDbEntity
8
0
100
AcDbPolyline
90
4
70
1
43
0.0
10
-200.00000000000006
20
-246.40213947667135
10
-200.00000000000003
20
-245.90213947667058
42
0.99999999999999989
10
-200.50000000000009
20
-245.90213947667058
10
-200.50000000000006
20
-246.40213947667164
42
0.99999999999999989
0
LWPOLYLINE
5
633
100
AcDbEntity
8
0
100
AcDbPolyline
90
4
70
1
43
0.0
10
-200.00000000000006
20
-243.40213947667138
10
-200.00000000000003
20
-242.90213947667064
42
0.99999999999999989
10
-200.50000000000009
20
-242.90213947667064
10
-200.50000000000006
20
-243.40213947667166
42
0.99999999999999989
0
ENDSEC
0
SECTION
2
OBJECTS
0
DICTIONARY
5
C
100
AcDbDictionary
3
ACAD_GROUP
350
D
3
ACAD_MLINESTYLE
350
17
0
DICTIONARY
5
D
100
AcDbDictionary
0
DICTIONARY
5
1A
330
C
100
AcDbDictionary
0
DICTIONARY
5
17
100
AcDbDictionary
0
ENDSEC
0
EOF
