<svg xmlns="http://www.w3.org/2000/svg" version="1.1" width="262.7mm" height="212.7mm" viewBox = " 0 0 930.8275369999999 753.6620369999999" >
<!-- Front--> 
<g transform="translate(22.5000185, 22.5000185) " > 
<polygon style="stroke:#000000; fill:none; stroke-width:0.90000074" points="0, 0 44.291375, 0 44.291375, 15.944894999999999 88.58275, 15.944894999999999 88.58275, 0 124.01585, 0 124.01585, 15.944894999999999 159.44895, 15.944894999999999 159.44895, 0 194.88205, 0 194.88205, 15.944894999999999 230.31515, 15.944894999999999 230.31515, 0 265.74825, 0 265.74825, 15.944894999999999 310.039625, 15.944894999999999 310.039625, 0 354.331, 0 354.331, 44.291375 338.38610500000004, 44.291375 338.38610500000004, 88.58275 354.331, 88.58275 354.331, 124.01585 338.38610500000004, 124.01585 338.38610500000004, 159.44895 354.331, 159.44895 354.331, 194.88205 338.38610500000004, 194.88205 338.38610500000004, 230.31515 354.331, 230.31515 354.331, 265.74825 338.38610500000004, 265.74825 338.38610500000004, 310.039625 354.331, 310.039625 354.331, 354.331 310.039625, 354.331 310.039625, 338.38610500000004 265.74825, 338.38610500000004 265.74825, 354.331 230.31515, 354.331 230.31515, 338.38610500000004 194.88205, 338.38610500000004 194.88205, 354.331 159.44895, 354.331 159.44895, 338.38610500000004 124.01585, 338.38610500000004 124.01585, 354.331 88.58275, 354.331 88.58275, 338.38610500000004 44.291375, 338.38610500000004 44.291375, 354.331 0, 354.331 0, 310.039625 15.944894999999999, 310.039625 15.944894999999999, 265.74825 0, 265.74825 0, 230.31515 15.944894999999999, 230.31515 15.944894999999999, 194.88205 0, 194.88205 0, 159.44895 15.944894999999999, 159.44895 15.944894999999999, 124.01585 0, 124.01585 0, 88.58275 15.944894999999999, 88.58275 15.944894999999999, 44.291375 0, 44.291375 "/> 
</g>
<!-- Back--> 
<g transform="translate(376.83101849999997, 22.5000185) " > 
<polygon style="stroke:#000000; fill:none; stroke-width:0.90000074" points="0, 0 44.291375, 0 44.291375, 15.944894999999999 88.58275, 15.944894999999999 88.58275, 0 124.01585, 0 124.01585, 15.944894999999999 159.44895, 15.944894999999999 159.44895, 0 194.88205, 0 194.88205, 15.944894999999999 230.31515, 15.944894999999999 230.31515, 0 265.74825, 0 265.74825, 15.944894999999999 310.039625, 15.944894999999999 310.039625, 0 354.331, 0 354.331, 44.291375 338.38610500000004, 44.291375 338.38610500000004, 88.58275 354.331, 88.58275 354.331, 124.01585 338.38610500000004, 124.01585 338.38610500000004, 159.44895 354.331, 159.44895 354.331, 194.88205 338.38610500000004, 194.88205 338.38610500000004, 230.31515 354.331, 230.31515 354.331, 265.74825 338.38610500000004, 265.74825 338.38610500000004, 310.039625 354.331, 310.039625 354.331, 354.331 310.039625, 354.331 310.039625, 338.38610500000004 265.74825, 338.38610500000004 265.74825, 354.331 230.31515, 354.331 230.31515, 338.38610500000004 194.88205, 338.38610500000004 194.88205, 354.331 159.44895, 354.331 159.44895, 338.38610500000004 124.01585, 338.38610500000004 124.01585, 354.331 88.58275, 354.331 88.58275, 338.38610500000004 44.291375, 338.38610500000004 44.291375, 354.331 0, 354.331 0, 310.039625 15.944894999999999, 310.039625 15.944894999999999, 265.74825 0, 265.74825 0, 230.31515 15.944894999999999, 230.31515 15.944894999999999, 194.88205 0, 194.88205 0, 159.44895 15.944894999999999, 159.44895 15.944894999999999, 124.01585 0, 124.01585 0, 88.58275 15.944894999999999, 88.58275 15.944894999999999, 44.291375 0, 44.291375 "/> 
</g>
<!-- Left--> 
<g transform="translate(731.1620184999999, 22.5000185) " > 
<polygon style="stroke:#000000; fill:none; stroke-width:0.90000074" points="15.944894999999999, 0 35.433099999999996, 0 35.433099999999996, 15.944894999999999 70.86619999999999, 15.944894999999999 70.86619999999999, 0 106.29929999999999, 0 106.29929999999999, 15.944894999999999 141.73239999999998, 15.944894999999999 141.73239999999998, 0 161.220605, 0 161.220605, 44.291375 177.1655, 44.291375 177.1655, 88.58275 161.220605, 88.58275 161.220605, 124.01585 177.1655, 124.01585 177.1655, 159.44895 161.220605, 159.44895 161.220605, 194.88205 177.1655, 194.88205 177.1655, 230.31515 161.220605, 230.31515 161.220605, 265.74825 177.1655, 265.74825 177.1655, 310.039625 161.220605, 310.039625 161.22060499999998, 354.331 141.73239999999998, 354.331 141.73239999999998, 338.38610500000004 106.29929999999999, 338.38610500000004 106.29929999999999, 354.331 70.86619999999999, 354.331 70.86619999999999, 338.38610500000004 35.433099999999996, 338.38610500000004 35.433099999999996, 354.331 15.944894999999999, 354.331 15.944894999999999, 310.039625 0, 310.039625 0, 265.74825 15.944894999999999, 265.74825 15.944894999999999, 230.31515 0, 230.31515 0, 194.88205 15.944894999999999, 194.88205 15.944894999999999, 159.44895 0, 159.44895 0, 124.01585 15.944894999999999, 124.01585 15.944894999999999, 88.58275 0, 88.58275 0, 44.291375 15.944894999999999, 44.291375 "/> 
</g>
<!-- Right--> 
<g transform="translate(731.1620184999999, 376.83101849999997) " > 
<polygon style="stroke:#000000; fill:none; stroke-width:0.90000074" points="15.944894999999999, 0 35.433099999999996, 0 35.433099999999996, 15.944894999999999 70.86619999999999, 15.944894999999999 70.86619999999999, 0 106.29929999999999, 0 106.29929999999999, 15.944894999999999 141.73239999999998, 15.944894999999999 141.73239999999998, 0 161.220605, 0 161.220605, 44.291375 177.1655, 44.291375 177.1655, 88.58275 161.220605, 88.58275 161.220605, 124.01585 177.1655, 124.01585 177.1655, 159.44895 161.220605, 159.44895 161.220605, 194.88205 177.1655, 194.88205 177.1655, 230.31515 161.220605, 230.31515 161.220605, 265.74825 177.1655, 265.74825 177.1655, 310.039625 161.220605, 310.039625 161.22060499999998, 354.331 141.73239999999998, 354.331 141.73239999999998, 338.38610500000004 106.29929999999999, 338.38610500000004 106.29929999999999, 354.331 70.86619999999999, 354.331 70.86619999999999, 338.38610500000004 35.433099999999996, 338.38610500000004 35.433099999999996, 354.331 15.944894999999999, 354.331 15.944894999999999, 310.039625 0, 310.039625 0, 265.74825 15.944894999999999, 265.74825 15.944894999999999, 230.31515 0, 230.31515 0, 194.88205 15.944894999999999, 194.88205 15.944894999999999, 159.44895 0, 159.44895 0, 124.01585 15.944894999999999, 124.01585 15.944894999999999, 88.58275 0, 88.58275 0, 44.291375 15.944894999999999, 44.291375 "/> 
</g>
<!-- Top--> 
<g transform="translate(22.5000185, 376.83101849999997) " > 
<polygon style="stroke:#000000; fill:none; stroke-width:0.90000074" points="15.944894999999999, 15.944894999999999 44.291375, 15.944894999999999 44.291375, 0 88.58275, 0 88.58275, 15.944894999999999 124.01585, 15.944894999999999 124.01585, 0 159.44895, 0 159.44895, 15.944894999999999 194.88205, 15.944894999999999 194.88205, 0 230.31515, 0 230.31515, 15.944894999999999 265.74825, 15.944894999999999 265.74825, 0 310.039625, 0 310.039625, 15.944894999999999 338.38610500000004, 15.944894999999999 338.38610500000004, 35.433099999999996 354.331, 35.433099999999996 354.331, 70.86619999999999 338.38610500000004, 70.86619999999999 338.38610500000004, 106.29929999999999 354.331, 106.29929999999999 354.331, 141.73239999999998 338.38610500000004, 141.73239999999998 338.38610500000004, 161.220605 310.039625, 161.220605 310.039625, 177.1655 265.74825, 177.1655 265.74825, 161.220605 230.31515, 161.220605 230.31515, 177.1655 194.88205, 177.1655 194.88205, 161.220605 159.44895, 161.220605 159.44895, 177.1655 124.01585, 177.1655 124.01585, 161.220605 88.58275, 161.220605 88.58275, 177.1655 44.291375, 177.1655 44.291375, 161.220605 15.944894999999999, 161.22060499999998 15.944894999999999, 141.73239999999998 0, 141.73239999999998 0, 106.29929999999999 15.944894999999999, 106.29929999999999 15.944894999999999, 70.86619999999999 0, 70.86619999999999 0, 35.433099999999996 15.944894999999999, 35.433099999999996 "/> 
 <rect x="88.58275" y="74.40951" width="177.1655" height="28.34648" rx="22.5000185" ry="22.5000185" style="stroke:#000000;stroke-width:0.90000074;fill:none" /> 
</g>
<!-- Bottom--> 
<g transform="translate(376.83101849999997, 376.83101849999997) " > 
<polygon style="stroke:#000000; fill:none; stroke-width:0.90000074" points="15.944894999999999, 15.944894999999999 44.291375, 15.944894999999999 44.291375, 0 88.58275, 0 88.58275, 15.944894999999999 124.01585, 15.944894999999999 124.01585, 0 159.44895, 0 159.44895, 15.944894999999999 194.88205, 15.944894999999999 194.88205, 0 230.31515, 0 230.31515, 15.944894999999999 265.74825, 15.944894999999999 265.74825, 0 310.039625, 0 310.039625, 15.944894999999999 338.38610500000004, 15.944894999999999 338.38610500000004, 35.433099999999996 354.331, 35.433099999999996 354.331, 70.86619999999999 338.38610500000004, 70.86619999999999 338.38610500000004, 106.29929999999999 354.331, 106.29929999999999 354.331, 141.73239999999998 338.38610500000004, 141.73239999999998 338.38610500000004, 161.220605 310.039625, 161.220605 310.039625, 177.1655 265.74825, 177.1655 265.74825, 161.220605 230.31515, 161.220605 230.31515, 177.1655 194.88205, 177.1655 194.88205, 161.220605 159.44895, 161.220605 159.44895, 177.1655 124.01585, 177.1655 124.01585, 161.220605 88.58275, 161.220605 88.58275, 177.1655 44.291375, 177.1655 44.291375, 161.220605 15.944894999999999, 161.22060499999998 15.944894999999999, 141.73239999999998 0, 141.73239999999998 0, 106.29929999999999 15.944894999999999, 106.29929999999999 15.944894999999999, 70.86619999999999 0, 70.86619999999999 0, 35.433099999999996 15.944894999999999, 35.433099999999996 "/> 
</g></svg>