<?xml version="1.0" encoding="UTF-8" standalone="no"?>
<!-- Generator: Adobe Illustrator 16.0.0, SVG Export Plug-In . SVG Version: 6.00 Build 0)  -->

<svg
   xmlns:dc="http://purl.org/dc/elements/1.1/"
   xmlns:cc="http://creativecommons.org/ns#"
   xmlns:rdf="http://www.w3.org/1999/02/22-rdf-syntax-ns#"
   xmlns:svg="http://www.w3.org/2000/svg"
   xmlns="http://www.w3.org/2000/svg"
   xmlns:sodipodi="http://sodipodi.sourceforge.net/DTD/sodipodi-0.dtd"
   xmlns:inkscape="http://www.inkscape.org/namespaces/inkscape"
   version="1.1"
   id="Layer_1"
   x="0px"
   y="0px"
   width="744.661px"
   height="602.929px"
   viewBox="0 0 744.661 602.929"
   overflow="scroll"
   xml:space="preserve"
   inkscape:version="0.48.5 r10040"
   sodipodi:docname="binWText.dxf"><metadata
   id="metadata3054"><rdf:RDF><cc:Work
       rdf:about=""><dc:format>image/svg+xml</dc:format><dc:type
         rdf:resource="http://purl.org/dc/dcmitype/StillImage" /><dc:title></dc:title></cc:Work></rdf:RDF></metadata><defs
   id="defs3052"><inkscape:perspective
     sodipodi:type="inkscape:persp3d"
     inkscape:vp_x="0 : 526.18109 : 1"
     inkscape:vp_y="0 : 1000 : 0"
     inkscape:vp_z="744.09448 : 526.18109 : 1"
     inkscape:persp3d-origin="372.04724 : 350.78739 : 1"
     id="perspective2447" /><inkscape:perspective
     id="perspective10"
     inkscape:persp3d-origin="372.04724 : 350.78739 : 1"
     inkscape:vp_z="744.09448 : 526.18109 : 1"
     inkscape:vp_y="0 : 1000 : 0"
     inkscape:vp_x="0 : 526.18109 : 1"
     sodipodi:type="inkscape:persp3d" /></defs><sodipodi:namedview
   pagecolor="#ffffff"
   bordercolor="#666666"
   borderopacity="1"
   objecttolerance="10"
   gridtolerance="10"
   guidetolerance="10"
   inkscape:pageopacity="0"
   inkscape:pageshadow="2"
   inkscape:window-width="1684"
   inkscape:window-height="1204"
   id="namedview3050"
   showgrid="false"
   inkscape:zoom="1.5656901"
   inkscape:cx="305.80038"
   inkscape:cy="328.81769"
   inkscape:window-x="0"
   inkscape:window-y="0"
   inkscape:window-maximized="0"
   inkscape:current-layer="Layer_1" />
<g
   transform="translate(22.5000185, 22.5000185) "
   id="g2986">
	<path
   style="fill:none;stroke:#000000;stroke-width:0.89999998"
   d="m -4.5,-4.5 35.433,0 0,12.756 35.433,0 0,-12.756 28.346,0 0,12.756 28.347,0 0,-12.756 28.346,0 0,12.756 28.347,0 0,-12.756 28.347,0 0,12.756 35.432,0 0,-12.756 35.433,0 0,35.433 -12.756,0 0,35.433 12.756,0 0,28.346 -12.756,0 0,28.347 12.756,0 0,28.346 -12.756,0 0,28.347 12.756,0 0,28.347 -12.756,0 0,35.432 12.756,0 0,35.433 -35.433,0 0,-12.756 -35.432,0 0,12.756 -28.347,0 0,-12.756 -28.347,0 0,12.756 -28.346,0 0,-12.756 -28.347,0 0,12.756 -28.346,0 0,-12.756 -35.433,0 0,12.756 -35.433,0 0,-35.433 12.756,0 0,-35.432 -12.756,0 0,-28.347 12.756,0 0,-28.347 -12.756,0 0,-28.346 12.756,0 0,-28.347 -12.756,0 0,-28.346 12.756,0 0,-35.433 -12.756,0 z"
   id="polygon2988" />
</g>
<g
   transform="translate(376.83101849999997, 22.5000185) "
   id="g2990">
	<path
   style="fill:none;stroke:#000000;stroke-width:0.89999998"
   d="m -75.367,-4.5 35.433,0 0,12.756 35.434,0 0,-12.756 28.345,0 0,12.756 28.348,0 0,-12.756 28.346,0 0,12.756 28.347,0 0,-12.756 28.346,0 0,12.756 35.434,0 0,-12.756 35.431,0 0,35.433 -12.756,0 0,35.433 12.756,0 0,28.346 -12.756,0 0,28.347 12.756,0 0,28.346 -12.756,0 0,28.347 12.756,0 0,28.347 -12.756,0 0,35.432 12.756,0 0,35.433 -35.431,0 0,-12.756 -35.434,0 0,12.756 -28.346,0 0,-12.756 -28.347,0 0,12.756 -28.346,0 0,-12.756 -28.348,0 0,12.756 -28.345,0 0,-12.756 -35.434,0 0,12.756 -35.433,0 0,-35.433 12.757,0 0,-35.432 -12.757,0 0,-28.347 12.757,0 0,-28.347 -12.757,0 0,-28.346 12.757,0 0,-28.347 -12.757,0 0,-28.346 12.757,0 0,-35.433 -12.757,0 z"
   id="polygon2992" />
</g>
<g
   transform="translate(731.1620184999999, 22.5000185) "
   id="g2994">
	<path
   style="fill:none;stroke:#000000;stroke-width:0.89999998"
   d="m -133.476,-4.5 15.59,0 0,12.756 28.346,0 0,-12.756 28.347,0 0,12.756 28.346,0 0,-12.756 15.59,0 0,35.433 12.756,0 0,35.433 -12.756,0 0,28.346 12.756,0 0,28.347 -12.756,0 0,28.346 12.756,0 0,28.347 -12.756,0 0,28.347 12.756,0 0,35.432 -12.756,0 0,35.433 -15.59,0 0,-12.756 -28.346,0 0,12.756 -28.347,0 0,-12.756 -28.346,0 0,12.756 -15.59,0 0,-35.433 -12.758,0 0,-35.432 12.758,0 0,-28.347 -12.758,0 0,-28.347 12.758,0 0,-28.346 -12.758,0 0,-28.347 12.758,0 0,-28.346 -12.758,0 0,-35.433 12.758,0 z"
   id="polygon2996" />
</g>
<g
   transform="translate(731.1620184999999, 376.83101849999997) "
   id="g2998">
	<path
   style="fill:none;stroke:#000000;stroke-width:0.89999998"
   d="m -133.476,-75.367 15.59,0 0,12.756 28.346,0 0,-12.756 28.347,0 0,12.756 28.346,0 0,-12.756 15.59,0 0,35.434 12.756,0 0,35.433 -12.756,0 0,28.346 12.756,0 0,28.346 -12.756,0 0,28.348 12.756,0 0,28.345 -12.756,0 0,28.346 12.756,0 0,35.434 -12.756,0 0,35.433 -15.59,0 0,-12.756 -28.346,0 0,12.756 -28.347,0 0,-12.756 -28.346,0 0,12.756 -15.59,0 0,-35.433 -12.758,0 0,-35.434 12.758,0 0,-28.346 -12.758,0 0,-28.345 12.758,0 0,-28.348 -12.758,0 0,-28.346 12.758,0 0,-28.346 -12.758,0 0,-35.433 12.758,0 z"
   id="polygon3000" />
</g>
<g
   transform="translate(22.5000185, 376.83101849999997) "
   id="g3002">
	<path
   style="fill:none;stroke:#000000;stroke-width:0.89999998"
   d="m 8.256,-62.611 22.677,0 0,-12.756 35.433,0 0,12.756 28.346,0 0,-12.756 28.347,0 0,12.756 28.346,0 0,-12.756 28.347,0 0,12.756 28.347,0 0,-12.756 35.432,0 0,12.756 22.677,0 0,15.591 12.756,0 0,28.347 -12.756,0 0,28.345 12.756,0 0,28.348 -12.756,0 0,15.59 -22.677,0 0,12.756 -35.432,0 0,-12.756 -28.347,0 0,12.756 -28.347,0 0,-12.756 -28.346,0 0,12.756 -28.347,0 0,-12.756 -28.346,0 0,12.756 -35.433,0 0,-12.756 -22.677,0 0,-15.59 -12.756,0 0,-28.348 12.756,0 0,-28.345 -12.756,0 0,-28.347 12.756,0 z"
   id="polygon3004" />
	<path
   fill="none"
   stroke="#000000"
   stroke-width="0.9"
   d="M84.366-15.839h105.732c9.941,0,18,5.076,18,11.339l0,0   c0,6.263-8.059,11.339-18,11.339H84.366c-9.941,0-18-5.076-18-11.339l0,0C66.366-10.763,74.425-15.839,84.366-15.839z"
   id="path3006" />
</g>
<g
   transform="translate(376.83101849999997, 376.83101849999997) "
   id="g3008">
	<path
   style="fill:none;stroke:#000000;stroke-width:0.89999998"
   d="m -62.61,-62.611 22.676,0 0,-12.756 35.434,0 0,12.756 28.345,0 0,-12.756 28.348,0 0,12.756 28.346,0 0,-12.756 28.347,0 0,12.756 28.346,0 0,-12.756 35.434,0 0,12.756 22.675,0 0,15.591 12.756,0 0,28.347 -12.756,0 0,28.345 12.756,0 0,28.348 -12.756,0 0,15.59 -22.675,0 0,12.756 -35.434,0 0,-12.756 -28.346,0 0,12.756 -28.347,0 0,-12.756 -28.346,0 0,12.756 -28.348,0 0,-12.756 -28.345,0 0,12.756 -35.434,0 0,-12.756 -22.676,0 0,-15.59 -12.757,0 0,-28.348 12.757,0 0,-28.345 -12.757,0 0,-28.347 12.757,0 z"
   id="polygon3010" />
</g>
<g
   transform="matrix(1 0 0 1 115.2026 106.4805)"
   style="font-size:41.4817009px;fill:#ee2924;stroke:#ee2d24;stroke-miterlimit:10;font-family:EmbassyBT-Regular"
   id="text3012"><path
     d="m 3.0382105,0 0,-29.693444 3.9294189,0 0,26.1893745 14.6239196,0 0,3.5040695 z"
     style="font-size:41.4817009px;fill:#ee2924;stroke:#ee2d24;stroke-miterlimit:10;font-family:EmbassyBT-Regular"
     id="path3119" /><path
     d="m 39.861323,-2.6533705 c -1.350331,1.1477699 -2.650009,1.95795857 -3.899037,2.4305684 -1.249054,0.47261027 -2.589241,0.7089153 -4.020565,0.70891578 -2.363059,-4.8e-7 -4.179232,-0.5772599 -5.448525,-1.73177998 -1.269298,-1.1545176 -1.903946,-2.6297361 -1.903945,-4.42566 -1e-6,-1.0532396 0.23968,-2.0153386 0.719043,-2.8863 0.47936,-0.8709442 1.107256,-1.5697317 1.883691,-2.0963657 0.776427,-0.526612 1.650755,-0.924954 2.622988,-1.195029 0.71566,-0.189032 1.795912,-0.371325 3.240758,-0.546878 2.943676,-0.351069 5.11093,-0.769667 6.501771,-1.255794 0.01349,-0.499602 0.02024,-0.816926 0.02025,-0.951972 -1.6e-5,-1.485331 -0.344346,-2.531825 -1.032991,-3.139484 -0.931733,-0.823674 -2.315805,-1.23552 -4.152221,-1.235539 -1.714911,1.9e-5 -2.980831,0.300464 -3.797763,0.901335 -0.816948,0.600908 -1.421214,1.664281 -1.812799,3.190121 l -3.564834,-0.486113 c 0.324073,-1.52584 0.857448,-2.758002 1.600124,-3.69649 0.742669,-0.938449 1.816169,-1.660867 3.220503,-2.167256 1.40432,-0.506347 3.031449,-0.759531 4.881392,-0.759553 1.836416,2.2e-5 3.328513,0.216072 4.476297,0.648151 1.147751,0.432122 1.991697,0.975624 2.531842,1.630507 0.540107,0.654922 0.918195,1.48199 1.134265,2.481205 0.121508,0.621162 0.182273,1.741923 0.182293,3.362286 l 0,4.8611371 c -2e-5,3.3892983 0.07762,5.5329224 0.232929,6.430879 C 43.632059,-1.6845173 43.939256,-0.8236918 44.398384,0 l -3.807891,0 c -0.378105,-0.75617608 -0.621162,-1.640632 -0.72917,-2.6533705 z m -0.303821,-8.1424045 c -1.323325,0.540137 -3.308287,0.9992438 -5.954893,1.3773224 -1.498859,0.2160597 -2.558856,0.4591163 -3.179994,0.7291705 -0.621152,0.2700716 -1.100513,0.6650386 -1.438086,1.1849021 -0.337584,0.5198786 -0.506374,1.097138 -0.506368,1.73178 -6e-6,0.9722322 0.367955,1.7824208 1.103883,2.4305684 0.735915,0.6481543 1.81279,0.9722298 3.23063,0.9722274 1.404318,2.4e-6 2.653358,-0.3071942 3.747127,-0.9215905 1.093741,-0.6143898 1.897178,-1.4549605 2.410313,-2.5217148 0.391576,-0.8236859 0.587371,-2.0389689 0.587388,-3.6458526 z"
     style="font-size:41.4817009px;fill:#ee2924;stroke:#ee2d24;stroke-miterlimit:10;font-family:EmbassyBT-Regular"
     id="path3121" /><path
     d="m 47.45685,-6.4207516 3.605343,-0.5671326 c 0.202542,1.4448434 0.766299,2.5521013 1.69127,3.3217768 0.924959,0.7696829 2.217885,1.1545226 3.878783,1.15452 1.674379,2.6e-6 2.916668,-0.3409518 3.726871,-1.0228642 0.810175,-0.6819052 1.215269,-1.4819665 1.215284,-2.4001863 -1.5e-5,-0.8236858 -0.357848,-1.4718368 -1.073501,-1.9444547 -0.49963,-0.3240676 -1.74192,-0.7359135 -3.726871,-1.2355389 -2.673633,-0.6751481 -4.52694,-1.2591595 -5.559926,-1.7520345 -1.032995,-0.492854 -1.816177,-1.174763 -2.349549,-2.045729 -0.533377,-0.87094 -0.800064,-1.833039 -0.800062,-2.8863 -2e-6,-0.958707 0.219424,-1.846539 0.658279,-2.663498 0.43885,-0.816921 1.036364,-1.495454 1.792544,-2.035601 0.567128,-0.418577 1.340183,-0.773034 2.319167,-1.063373 0.978972,-0.290296 2.028841,-0.435455 3.149612,-0.435477 1.687883,2.2e-5 3.169853,0.243078 4.445915,0.72917 1.276033,0.486135 2.217877,1.144413 2.825535,1.974837 0.607625,0.830463 1.026222,1.941097 1.255794,3.331904 l -3.564834,0.486114 c -0.162052,-1.107242 -0.631286,-1.971443 -1.407704,-2.592606 -0.776444,-0.621127 -1.873574,-0.931699 -3.291394,-0.931718 -1.6744,1.9e-5 -2.869429,0.276833 -3.585089,0.830444 -0.715673,0.553647 -1.073506,1.201798 -1.073501,1.944455 -5e-6,0.472626 0.148529,0.897975 0.445604,1.276048 0.297064,0.391606 0.762922,0.715682 1.397577,0.972228 0.364578,0.135045 1.438078,0.445617 3.220503,0.931718 2.57909,0.688673 4.378384,1.252429 5.397888,1.69127 1.019471,0.438864 1.819532,1.076887 2.400186,1.9140727 0.580617,0.8372044 0.870934,1.8769465 0.870954,3.1192294 -2e-5,1.2152893 -0.354477,2.3596808 -1.063374,3.4331779 -0.708933,1.0735029 -1.731796,1.90394625 -3.068593,2.49133263 -1.336826,0.58738718 -2.849178,0.88108057 -4.537061,0.88108105 -2.795161,-4.8e-7 -4.925282,-0.58063569 -6.390369,-1.74190738 -1.465095,-1.1612691 -2.400188,-2.88292 -2.805281,-5.1649579 z"
     style="font-size:41.4817009px;fill:#ee2924;stroke:#ee2d24;stroke-miterlimit:10;font-family:EmbassyBT-Regular"
     id="path3123" /><path
     d="m 84.381237,-6.92712 3.767381,0.465859 c -0.59416,2.201019 -1.694666,3.9091667 -3.301522,5.1244484 -1.606892,1.2152843 -3.65937,1.8229258 -6.15744,1.82292628 -3.146245,-4.8e-7 -5.640951,-0.96885109 -7.484125,-2.90655468 -1.843184,-1.9376988 -2.764774,-4.6552066 -2.764772,-8.152532 -2e-6,-3.618832 0.931715,-6.427486 2.795154,-8.42597 1.863429,-1.998446 4.280492,-2.997679 7.251195,-2.997701 2.876159,2.2e-5 5.225706,0.979 7.048649,2.936937 1.822906,1.957975 2.734368,4.712616 2.734389,8.263932 -2.1e-5,0.216061 -0.0068,0.540137 -0.02025,0.9722277 l -16.041752,0 c 0.135026,2.3630601 0.803432,4.1724814 2.005219,5.4282694 1.201773,1.2557968 2.700622,1.8836931 4.496552,1.8836905 1.336799,2.6e-6 2.477815,-0.3510792 3.42305,-1.0532463 0.945205,-0.7021599 1.694629,-1.8229209 2.248276,-3.3622863 z m -11.97055,-5.894128 12.011059,0 c -0.162055,-1.809409 -0.621162,-3.166475 -1.377322,-4.071202 -1.161286,-1.404311 -2.666887,-2.106474 -4.516806,-2.106493 -1.674402,1.9e-5 -3.082104,0.560399 -4.223113,1.681143 -1.141023,1.120778 -1.772295,2.619627 -1.893818,4.496552 z"
     style="font-size:41.4817009px;fill:#ee2924;stroke:#ee2d24;stroke-miterlimit:10;font-family:EmbassyBT-Regular"
     id="path3125" /><path
     d="m 92.705934,0 0,-21.51053 3.281268,0 0,3.261012 c 0.837189,-1.525837 1.610244,-2.531821 2.319167,-3.017956 0.708907,-0.486092 1.488714,-0.729148 2.339421,-0.72917 1.22878,2.2e-5 2.47782,0.391613 3.74713,1.174775 l -1.2558,3.382541 c -0.89122,-0.526606 -1.78242,-0.789917 -2.67362,-0.789935 -0.796697,1.8e-5 -1.512364,0.239699 -2.147003,0.719043 -0.634657,0.479379 -1.087012,1.144409 -1.357068,1.995092 -0.405101,1.296317 -0.607648,2.714147 -0.607642,4.253494 l 0,11.261634 z"
     style="font-size:41.4817009px;fill:#ee2924;stroke:#ee2d24;stroke-miterlimit:10;font-family:EmbassyBT-Regular"
     id="path3127" /></g>
<g
   transform="matrix(1 0 0 1 61.0615 156.2583)"
   style="font-size:41.4817009px;fill:#ee2924;stroke:#ee2d24;stroke-miterlimit:10;font-family:EmbassyBT-Regular"
   id="text3014"><path
     d="m 3.2002484,0 0,-29.693444 10.2286416,0 c 2.309025,3e-5 4.071185,0.141813 5.286487,0.425349 1.701377,0.391621 3.152965,1.100536 4.354768,2.126748 1.566342,1.323335 2.73774,3.014604 3.514197,5.073811 0.776404,2.059252 1.16462,4.412175 1.164647,7.058776 -2.7e-5,2.25504 -0.263339,4.253506 -0.789934,5.9954021 -0.52665,1.7419147 -1.201807,3.1833753 -2.025474,4.3243863 -0.823717,1.1410204 -1.725052,2.0389795 -2.704007,2.69388 -0.979001,0.6549045 -2.160526,1.15114508 -3.544579,1.48872318 C 17.300904,-0.1687893 15.710908,0 13.915004,0 z m 3.9294189,-3.5040695 6.3397327,0 c 1.957942,3.5e-6 3.493925,-0.1822889 4.607953,-0.5468779 1.113991,-0.3645808 2.001823,-0.8777003 2.663497,-1.5393599 0.931697,-0.9317114 1.657491,-2.1841281 2.177385,-3.7572537 0.519848,-1.573107 0.779783,-3.480426 0.779807,-5.721963 -2.4e-5,-3.105708 -0.509767,-5.492389 -1.529233,-7.16005 -1.019509,-1.667616 -2.258423,-2.785001 -3.716744,-3.352159 -1.053264,-0.405068 -2.747908,-0.607615 -5.083939,-0.607642 l -6.2384587,0 z"
     style="font-size:41.4817009px;fill:#ee2924;stroke:#ee2d24;stroke-miterlimit:10;font-family:EmbassyBT-Regular"
     id="path3098" /><path
     d="m 31.354333,-10.755265 c -2e-6,-3.983417 1.107256,-6.933854 3.321777,-8.85132 1.849926,-1.593352 4.104951,-2.390037 6.765082,-2.390059 2.957177,2.2e-5 5.37424,0.968872 7.251195,2.906555 1.876919,1.93772 2.815387,4.614718 2.815409,8.031003 -2.2e-5,2.7681554 -0.415243,4.9455374 -1.245666,6.5321523 -0.830464,1.586624 -2.038995,2.8187859 -3.625598,3.69648949 -1.586636,0.87770522 -3.318415,1.31655741 -5.19534,1.31655789 -3.011213,-4.8e-7 -5.445155,-0.9654753 -7.301833,-2.89642738 -1.856686,-1.9309472 -2.785028,-4.7125949 -2.785026,-8.3449513 z m 3.747126,0 c -5e-6,2.754652 0.600885,4.8172573 1.802672,6.1878219 1.201773,1.3705737 2.714125,2.0558583 4.537061,2.0558557 1.80941,2.6e-6 3.31501,-0.6886578 4.516806,-2.0659831 1.201764,-1.3773162 1.802654,-3.4770551 1.802672,-6.2992235 -1.8e-5,-2.660108 -0.604284,-4.675452 -1.812799,-6.046039 -1.208548,-1.370552 -2.710773,-2.055836 -4.506679,-2.055855 -1.822936,1.9e-5 -3.335288,0.681927 -4.537061,2.045728 -1.201787,1.363835 -1.802677,3.423064 -1.802672,6.177695 z"
     style="font-size:41.4817009px;fill:#ee2924;stroke:#ee2d24;stroke-miterlimit:10;font-family:EmbassyBT-Regular"
     id="path3100" /><path
     d="m 55.801803,0 0,-21.51053 3.281267,0 0,3.058465 c 1.579862,-2.363032 3.861893,-3.544557 6.846101,-3.544579 1.296289,2.2e-5 2.487942,0.232951 3.574961,0.698788 1.086987,0.46588 1.900551,1.076897 2.440696,1.833054 0.540107,0.756196 0.918195,1.654155 1.134265,2.69388 0.135012,0.675174 0.202527,1.856699 0.202548,3.544579 l 0,13.226343 -3.645853,0 0,-13.08456 c -1.7e-5,-1.485333 -0.1418,-2.595966 -0.425349,-3.331904 -0.283583,-0.735905 -0.786575,-1.323292 -1.508978,-1.762162 -0.722433,-0.438834 -1.569756,-0.65826 -2.54197,-0.658279 -1.552874,1.9e-5 -2.893061,0.492883 -4.020565,1.478596 -1.127521,0.985746 -1.691277,2.855932 -1.691271,5.610562 l 0,11.747747 z"
     style="font-size:41.4817009px;fill:#ee2924;stroke:#ee2d24;stroke-miterlimit:10;font-family:EmbassyBT-Regular"
     id="path3102" /><path
     d="m 92.928736,-2.6533705 c -1.350331,1.1477699 -2.650009,1.95795857 -3.899037,2.4305684 -1.249053,0.47261027 -2.589241,0.7089153 -4.020565,0.70891578 -2.363059,-4.8e-7 -4.179232,-0.5772599 -5.448524,-1.73177998 -1.269299,-1.1545176 -1.903947,-2.6297361 -1.903945,-4.42566 -2e-6,-1.0532396 0.239679,-2.0153386 0.719043,-2.8863 0.479359,-0.8709442 1.107255,-1.5697317 1.88369,-2.0963657 0.776427,-0.526612 1.650756,-0.924954 2.622989,-1.195029 0.71566,-0.189032 1.795911,-0.371325 3.240758,-0.546878 2.943675,-0.351069 5.11093,-0.769667 6.50177,-1.255794 0.01349,-0.499602 0.02024,-0.816926 0.02025,-0.951972 -1.7e-5,-1.485331 -0.344347,-2.531825 -1.032992,-3.139484 -0.931732,-0.823674 -2.315805,-1.23552 -4.152221,-1.235539 -1.71491,1.9e-5 -2.98083,0.300464 -3.797763,0.901335 -0.816948,0.600908 -1.421213,1.664281 -1.812799,3.190121 l -3.564834,-0.486113 c 0.324074,-1.52584 0.857448,-2.758002 1.600125,-3.69649 0.742669,-0.938449 1.816169,-1.660867 3.220503,-2.167256 1.40432,-0.506347 3.031449,-0.759531 4.881391,-0.759553 1.836416,2.2e-5 3.328514,0.216072 4.476297,0.648151 1.147751,0.432122 1.991698,0.975624 2.531842,1.630507 0.540107,0.654922 0.918195,1.48199 1.134265,2.481205 0.121509,0.621162 0.182273,1.741923 0.182293,3.362286 l 0,4.8611371 c -2e-5,3.3892983 0.07762,5.5329224 0.23293,6.430879 0.155265,0.8979616 0.462462,1.7587871 0.92159,2.5824789 l -3.80789,0 c -0.378106,-0.75617608 -0.621163,-1.640632 -0.729171,-2.6533705 z m -0.303821,-8.1424045 c -1.323325,0.540137 -3.308287,0.9992438 -5.954893,1.3773224 -1.498859,0.2160597 -2.558856,0.4591163 -3.179993,0.7291705 -0.621152,0.2700716 -1.100514,0.6650386 -1.438087,1.1849021 -0.337584,0.5198786 -0.506373,1.097138 -0.506368,1.73178 -5e-6,0.9722322 0.367955,1.7824208 1.103883,2.4305684 0.735915,0.6481543 1.812791,0.9722298 3.230631,0.9722274 1.404317,2.4e-6 2.653358,-0.3071942 3.747126,-0.9215905 1.093741,-0.6143898 1.897178,-1.4549605 2.410314,-2.5217148 0.391575,-0.8236859 0.587371,-2.0389689 0.587387,-3.6458526 z"
     style="font-size:41.4817009px;fill:#ee2924;stroke:#ee2d24;stroke-miterlimit:10;font-family:EmbassyBT-Regular"
     id="path3104" /><path
     d="m 109.94272,-3.2610126 0.52662,3.22050313 c -1.02625,0.21605035 -1.94447,0.3240755 -2.75465,0.32407578 -1.32331,-2.8e-7 -2.34955,-0.20929902 -3.07872,-0.62789684 -0.72917,-0.41859713 -1.24229,-0.96885027 -1.53936,-1.65076107 -0.29707,-0.6819068 -0.4456,-2.1166159 -0.4456,-4.3041315 l 0,-12.3756439 -2.673625,0 0,-2.835663 2.673625,0 0,-5.326996 3.6256,-2.187512 0,7.514508 3.66611,0 0,2.835663 -3.66611,0 0,12.5781912 c -1e-5,1.0397482 0.0641,1.7081539 0.19242,2.005219 0.12827,0.2970732 0.33757,0.5333783 0.6279,0.7089158 0.2903,0.1755442 0.70553,0.2633147 1.24566,0.2633115 0.40509,3.2e-6 0.93846,-0.047258 1.60013,-0.1417831 z"
     style="font-size:41.4817009px;fill:#ee2924;stroke:#ee2d24;stroke-miterlimit:10;font-family:EmbassyBT-Regular"
     id="path3106" /><path
     d="m 113.50754,-25.500714 0,-4.19273 3.64586,0 0,4.19273 z m 0,25.500714 0,-21.51053 3.64586,0 0,21.51053 z"
     style="font-size:41.4817009px;fill:#ee2924;stroke:#ee2d24;stroke-miterlimit:10;font-family:EmbassyBT-Regular"
     id="path3108" /><path
     d="m 121.36638,-10.755265 c 0,-3.983417 1.10726,-6.933854 3.32178,-8.85132 1.84992,-1.593352 4.10495,-2.390037 6.76508,-2.390059 2.95718,2.2e-5 5.37424,0.968872 7.2512,2.906555 1.87691,1.93772 2.81538,4.614718 2.8154,8.031003 -2e-5,2.7681554 -0.41524,4.9455374 -1.24566,6.5321523 -0.83047,1.586624 -2.039,2.8187859 -3.6256,3.69648949 -1.58664,0.87770522 -3.31841,1.31655741 -5.19534,1.31655789 -3.01121,-4.8e-7 -5.44515,-0.9654753 -7.30183,-2.89642738 -1.85669,-1.9309472 -2.78503,-4.7125949 -2.78503,-8.3449513 z m 3.74713,0 c -1e-5,2.754652 0.60088,4.8172573 1.80267,6.1878219 1.20177,1.3705737 2.71412,2.0558583 4.53706,2.0558557 1.80941,2.6e-6 3.31501,-0.6886578 4.51681,-2.0659831 1.20176,-1.3773162 1.80265,-3.4770551 1.80267,-6.2992235 -2e-5,-2.660108 -0.60429,-4.675452 -1.8128,-6.046039 -1.20855,-1.370552 -2.71077,-2.055836 -4.50668,-2.055855 -1.82294,1.9e-5 -3.33529,0.681927 -4.53706,2.045728 -1.20179,1.363835 -1.80268,3.423064 -1.80267,6.177695 z"
     style="font-size:41.4817009px;fill:#ee2924;stroke:#ee2d24;stroke-miterlimit:10;font-family:EmbassyBT-Regular"
     id="path3110" /><path
     d="m 157.62236,0 0,-29.693444 11.14011,0 c 2.26851,3e-5 4.08806,0.300475 5.45865,0.901336 1.37055,0.600918 2.44405,1.525884 3.2205,2.774899 0.77641,1.249066 1.16463,2.555496 1.16465,3.919291 -2e-5,1.269318 -0.34435,2.464346 -1.03299,3.585089 -0.68868,1.120779 -1.72843,2.02549 -3.11923,2.714134 1.7959,0.526639 3.17659,1.424598 4.14209,2.69388 0.96545,1.269309 1.44819,2.768158 1.44822,4.4965519 -3e-5,1.3908324 -0.29372,2.6837585 -0.88108,3.8787821 -0.58742,1.195033 -1.31321,2.1166226 -2.17739,2.7647715 -0.86422,0.6481529 -1.94785,1.13764191 -3.25088,1.46846845 C 172.43193,-0.16541352 170.83519,0 168.94476,0 z m 3.92942,-17.216526 6.42075,0 c 1.7419,1.7e-5 2.99094,-0.11476 3.74713,-0.344331 0.99922,-0.297051 1.75202,-0.789916 2.2584,-1.478596 0.50635,-0.688641 0.75954,-1.552842 0.75956,-2.592606 -2e-5,-0.985708 -0.23633,-1.853285 -0.70892,-2.602734 -0.47263,-0.7494 -1.14779,-1.262519 -2.02547,-1.53936 -0.87773,-0.276788 -2.38333,-0.415195 -4.51681,-0.415222 l -5.93464,0 z m 0,13.7124565 7.39298,0 c 1.26928,3.5e-6 2.16049,-0.047258 2.67363,-0.1417831 0.90469,-0.1620341 1.66087,-0.432097 2.26853,-0.8101895 0.60762,-0.3780836 1.10723,-0.9283367 1.49885,-1.650761 0.39157,-0.7224122 0.58736,-1.5562313 0.58738,-2.50146 -2e-5,-1.1072493 -0.28358,-2.0693479 -0.85069,-2.8862999 -0.56716,-0.816929 -1.35372,-1.390812 -2.35968,-1.721653 -1.006,-0.330814 -2.45422,-0.496227 -4.34464,-0.496241 l -6.86636,0 z"
     style="font-size:41.4817009px;fill:#ee2924;stroke:#ee2d24;stroke-miterlimit:10;font-family:EmbassyBT-Regular"
     id="path3112" /><path
     d="m 185.04728,-25.500714 0,-4.19273 3.64585,0 0,4.19273 z m 0,25.500714 0,-21.51053 3.64585,0 0,21.51053 z"
     style="font-size:41.4817009px;fill:#ee2924;stroke:#ee2d24;stroke-miterlimit:10;font-family:EmbassyBT-Regular"
     id="path3114" /><path
     d="m 194.26318,0 0,-21.51053 3.28127,0 0,3.058465 c 1.57986,-2.363032 3.86189,-3.544557 6.8461,-3.544579 1.29629,2.2e-5 2.48794,0.232951 3.57496,0.698788 1.08699,0.46588 1.90055,1.076897 2.4407,1.833054 0.5401,0.756196 0.91819,1.654155 1.13426,2.69388 0.13501,0.675174 0.20253,1.856699 0.20255,3.544579 l 0,13.226343 -3.64585,0 0,-13.08456 c -2e-5,-1.485333 -0.1418,-2.595966 -0.42535,-3.331904 -0.28358,-0.735905 -0.78658,-1.323292 -1.50898,-1.762162 -0.72243,-0.438834 -1.56975,-0.65826 -2.54197,-0.658279 -1.55287,1.9e-5 -2.89306,0.492883 -4.02056,1.478596 -1.12752,0.985746 -1.69128,2.855932 -1.69127,5.610562 l 0,11.747747 z"
     style="font-size:41.4817009px;fill:#ee2924;stroke:#ee2d24;stroke-miterlimit:10;font-family:EmbassyBT-Regular"
     id="path3116" /></g>
<g
   transform="matrix(1 0 0 1 122.0771 222.9644)"
   style="font-size:12px;fill:#ee2924;font-family:MyriadPro-Regular"
   id="text3016"><path
     d="M 0.375,-7.0136719 0.64453125,-7.8457031 C 1.2656237,-7.6269455 1.7167952,-7.4374926 1.9980469,-7.2773437 1.9238262,-7.984367 1.8847637,-8.4706947 1.8808594,-8.7363281 l 0.8496094,0 c -0.011722,0.3867271 -0.056643,0.8711016 -0.1347657,1.453125 0.4023408,-0.2031175 0.8632778,-0.3906174 1.3828125,-0.5625 l 0.2695313,0.8320312 c -0.4960975,0.1640694 -0.9824252,0.2734443 -1.4589844,0.328125 0.2382782,0.2070378 0.5742154,0.576178 1.0078125,1.1074219 L 3.09375,-5.0800781 C 2.8671846,-5.3886665 2.5996068,-5.8085879 2.2910156,-6.3398437 2.0019511,-5.7890567 1.7480451,-5.3691353 1.5292969,-5.0800781 L 0.83789063,-5.578125 C 1.2910143,-6.1367126 1.6152328,-6.5058529 1.8105469,-6.6855469 1.3066393,-6.7831963 0.82812417,-6.8925712 0.375,-7.0136719 z"
     style="font-size:12px;fill:#ee2924;font-family:MyriadPro-Regular"
     id="path3095" /></g>
<g
   transform="matrix(1 0 0 1 127.0571 222.9644)"
   style="font-size:12px;fill:#ee2924;font-family:MyriadPro-Regular"
   id="text3018"><path
     d="m 0.9609375,0 0,-8.5898438 1.1367188,0 0,3.5273438 4.4648437,0 0,-3.5273438 1.1367187,0 0,8.5898438 -1.1367187,0 0,-4.0488281 -4.4648437,0 0,4.0488281 z"
     style="font-size:12px;fill:#ee2924;font-family:MyriadPro-Regular"
     id="path3092" /></g>
<g
   transform="matrix(1 0 0 1 135.001 222.9644)"
   style="font-size:12px;fill:#ee2924;font-family:MyriadPro-Regular"
   id="text3020"><path
     d="m 0.796875,-7.3769531 0,-1.2128907 1.0546875,0 0,1.2128907 z m 0,7.3769531 0,-6.2226562 1.0546875,0 0,6.2226562 z"
     style="font-size:12px;fill:#ee2924;font-family:MyriadPro-Regular"
     id="path3089" /></g>
<g
   transform="matrix(1 0 0 1 137.8086 222.9644)"
   style="font-size:12px;fill:#ee2924;font-family:MyriadPro-Regular"
   id="text3022"><path
     d="m 0.79101562,0 0,-6.2226562 0.94921878,0 0,0.8847656 c 0.457029,-0.6835878 1.1171846,-1.0253843 1.9804687,-1.0253906 0.3749959,6.3e-6 0.7197221,0.067389 1.0341797,0.2021484 0.3144481,0.1347716 0.5497994,0.3115293 0.7060547,0.5302734 0.1562444,0.2187554 0.2656193,0.4785208 0.328125,0.7792969 0.039057,0.1953172 0.058588,0.5371137 0.058594,1.0253906 l 0,3.8261719 -1.0546875,0 0,-3.7851563 C 4.792964,-4.2148395 4.7519484,-4.5361283 4.6699219,-4.7490234 4.587886,-4.9619091 4.4423784,-5.1318308 4.2333984,-5.2587891 4.02441,-5.3857368 3.7792931,-5.4492133 3.4980469,-5.4492187 c -0.4492218,5.4e-6 -0.8369167,0.1425834 -1.163086,0.4277343 -0.3261738,0.285161 -0.4892596,0.8261761 -0.4892578,1.6230469 l 0,3.3984375 z"
     style="font-size:12px;fill:#ee2924;font-family:MyriadPro-Regular"
     id="path3086" /></g>
<g
   transform="matrix(1 0 0 1 144.4209 222.9644)"
   style="font-size:12px;fill:#ee2924;font-family:MyriadPro-Regular"
   id="text3024"><path
     d="m 3.09375,-0.94335938 0.1523438,0.93164063 c -0.296878,0.06249995 -0.5625027,0.09374992 -0.796875,0.09375 -0.3828146,-8e-8 -0.6796893,-0.0605469 -0.8906251,-0.18164062 C 1.3476549,-0.2207029 1.1992176,-0.37988243 1.1132812,-0.57714844 1.0273427,-0.77441329 0.98437402,-1.1894519 0.984375,-1.8222656 l 0,-3.5800781 -0.7734375,0 0,-0.8203125 0.7734375,0 0,-1.5410157 1.0488281,-0.6328125 0,2.1738282 1.0605469,0 0,0.8203125 -1.0605469,0 0,3.6386718 c -2e-6,0.3007827 0.018553,0.4941419 0.055664,0.5800782 0.037107,0.085939 0.097654,0.1542979 0.1816406,0.20507807 0.083982,0.0507822 0.2040991,0.0761728 0.3603516,0.0761719 0.1171847,9e-7 0.2714814,-0.013671 0.4628906,-0.0410156 z"
     style="font-size:12px;fill:#ee2924;font-family:MyriadPro-Regular"
     id="path3083" /></g>
<g
   transform="matrix(1 0 0 1 148.3926 222.9644)"
   style="font-size:12px;fill:#ee2924;font-family:MyriadPro-Regular"
   id="text3026"><path
     d="M 0.375,-7.0136719 0.64453125,-7.8457031 C 1.2656237,-7.6269455 1.7167952,-7.4374926 1.9980469,-7.2773437 1.9238262,-7.984367 1.8847637,-8.4706947 1.8808594,-8.7363281 l 0.8496094,0 c -0.011722,0.3867271 -0.056643,0.8711016 -0.1347657,1.453125 0.4023408,-0.2031175 0.8632778,-0.3906174 1.3828125,-0.5625 l 0.2695313,0.8320312 c -0.4960975,0.1640694 -0.9824252,0.2734443 -1.4589844,0.328125 0.2382782,0.2070378 0.5742154,0.576178 1.0078125,1.1074219 L 3.09375,-5.0800781 C 2.8671846,-5.3886665 2.5996068,-5.8085879 2.2910156,-6.3398437 2.0019511,-5.7890567 1.7480451,-5.3691353 1.5292969,-5.0800781 L 0.83789063,-5.578125 C 1.2910143,-6.1367126 1.6152328,-6.5058529 1.8105469,-6.6855469 1.3066393,-6.7831963 0.82812417,-6.8925712 0.375,-7.0136719 z"
     style="font-size:12px;fill:#ee2924;font-family:MyriadPro-Regular"
     id="path3080" /></g>
<g
   transform="matrix(1 0 0 1 153.3726 222.9644)"
   style="font-size:12px;fill:#ee2924;font-family:MyriadPro-Regular"
   id="text3028" />
<g
   transform="matrix(1 0 0 1 155.9165 222.9644)"
   style="font-size:12px;fill:#ee2924;font-family:MyriadPro-Regular"
   id="text3030" />
<g
   transform="matrix(1 0 0 1 158.4604 222.9644)"
   style="font-size:12px;fill:#ee2924;font-family:MyriadPro-Regular"
   id="text3032" />
<g
   transform="matrix(1 0 0 1 161.0044 222.9644)"
   style="font-size:12px;fill:#ee2924;font-family:MyriadPro-Regular"
   id="text3034" />
<g
   transform="matrix(1 0 0 1 163.5483 222.9644)"
   style="font-size:12px;fill:#ee2924;font-family:MyriadPro-Regular"
   id="text3036" />
<g
   transform="matrix(1 0 0 1 166.0918 222.9644)"
   style="font-size:12px;fill:#ee2924;font-family:MyriadPro-Regular"
   id="text3038"><path
     d="M 0.375,-7.0136719 0.64453125,-7.8457031 C 1.2656237,-7.6269455 1.7167952,-7.4374926 1.9980469,-7.2773437 1.9238262,-7.984367 1.8847637,-8.4706947 1.8808594,-8.7363281 l 0.8496094,0 c -0.011722,0.3867271 -0.056643,0.8711016 -0.1347657,1.453125 0.4023408,-0.2031175 0.8632778,-0.3906174 1.3828125,-0.5625 l 0.2695313,0.8320312 c -0.4960975,0.1640694 -0.9824252,0.2734443 -1.4589844,0.328125 0.2382782,0.2070378 0.5742154,0.576178 1.0078125,1.1074219 L 3.09375,-5.0800781 C 2.8671846,-5.3886665 2.5996068,-5.8085879 2.2910156,-6.3398437 2.0019511,-5.7890567 1.7480451,-5.3691353 1.5292969,-5.0800781 L 0.83789063,-5.578125 C 1.2910143,-6.1367126 1.6152328,-6.5058529 1.8105469,-6.6855469 1.3066393,-6.7831963 0.82812417,-6.8925712 0.375,-7.0136719 z"
     style="font-size:12px;fill:#ee2924;font-family:MyriadPro-Regular"
     id="path3072" /></g>
<g
   transform="matrix(1 0 0 1 171.0718 222.9644)"
   style="font-size:12px;fill:#ee2924;font-family:MyriadPro-Regular"
   id="text3040"><path
     d="m 0.9609375,0 0,-8.5898438 1.1367188,0 0,3.5273438 4.4648437,0 0,-3.5273438 1.1367187,0 0,8.5898438 -1.1367187,0 0,-4.0488281 -4.4648437,0 0,4.0488281 z"
     style="font-size:12px;fill:#ee2924;font-family:MyriadPro-Regular"
     id="path3069" /></g>
<g
   transform="matrix(1 0 0 1 179.0156 222.9644)"
   style="font-size:12px;fill:#ee2924;font-family:MyriadPro-Regular"
   id="text3042"><path
     d="m 0.796875,-7.3769531 0,-1.2128907 1.0546875,0 0,1.2128907 z m 0,7.3769531 0,-6.2226562 1.0546875,0 0,6.2226562 z"
     style="font-size:12px;fill:#ee2924;font-family:MyriadPro-Regular"
     id="path3066" /></g>
<g
   transform="matrix(1 0 0 1 181.8237 222.9644)"
   style="font-size:12px;fill:#ee2924;font-family:MyriadPro-Regular"
   id="text3044"><path
     d="m 0.79101562,0 0,-6.2226562 0.94921878,0 0,0.8847656 c 0.457029,-0.6835878 1.1171846,-1.0253843 1.9804687,-1.0253906 0.3749959,6.3e-6 0.7197221,0.067389 1.0341797,0.2021484 0.3144481,0.1347716 0.5497994,0.3115293 0.7060547,0.5302734 0.1562444,0.2187554 0.2656193,0.4785208 0.328125,0.7792969 0.039057,0.1953172 0.058588,0.5371137 0.058594,1.0253906 l 0,3.8261719 -1.0546875,0 0,-3.7851563 C 4.792964,-4.2148395 4.7519484,-4.5361283 4.6699219,-4.7490234 4.587886,-4.9619091 4.4423784,-5.1318308 4.2333984,-5.2587891 4.02441,-5.3857368 3.7792931,-5.4492133 3.4980469,-5.4492187 c -0.4492218,5.4e-6 -0.8369167,0.1425834 -1.163086,0.4277343 -0.3261738,0.285161 -0.4892596,0.8261761 -0.4892578,1.6230469 l 0,3.3984375 z"
     style="font-size:12px;fill:#ee2924;font-family:MyriadPro-Regular"
     id="path3063" /></g>
<g
   transform="matrix(1 0 0 1 188.4355 222.9644)"
   style="font-size:12px;fill:#ee2924;font-family:MyriadPro-Regular"
   id="text3046"><path
     d="m 3.09375,-0.94335938 0.1523438,0.93164063 c -0.296878,0.06249995 -0.5625027,0.09374992 -0.796875,0.09375 -0.3828146,-8e-8 -0.6796893,-0.0605469 -0.8906251,-0.18164062 C 1.3476549,-0.2207029 1.1992176,-0.37988243 1.1132812,-0.57714844 1.0273427,-0.77441329 0.98437402,-1.1894519 0.984375,-1.8222656 l 0,-3.5800781 -0.7734375,0 0,-0.8203125 0.7734375,0 0,-1.5410157 1.0488281,-0.6328125 0,2.1738282 1.0605469,0 0,0.8203125 -1.0605469,0 0,3.6386718 c -2e-6,0.3007827 0.018553,0.4941419 0.055664,0.5800782 0.037107,0.085939 0.097654,0.1542979 0.1816406,0.20507807 0.083982,0.0507822 0.2040991,0.0761728 0.3603516,0.0761719 0.1171847,9e-7 0.2714814,-0.013671 0.4628906,-0.0410156 z"
     style="font-size:12px;fill:#ee2924;font-family:MyriadPro-Regular"
     id="path3060" /></g>
<g
   transform="matrix(1 0 0 1 192.4077 222.9644)"
   style="font-size:12px;fill:#ee2924;font-family:MyriadPro-Regular"
   id="text3048"><path
     d="M 0.375,-7.0136719 0.64453125,-7.8457031 C 1.2656237,-7.6269455 1.7167952,-7.4374926 1.9980469,-7.2773437 1.9238262,-7.984367 1.8847637,-8.4706947 1.8808594,-8.7363281 l 0.8496094,0 c -0.011722,0.3867271 -0.056643,0.8711016 -0.1347657,1.453125 0.4023408,-0.2031175 0.8632778,-0.3906174 1.3828125,-0.5625 l 0.2695313,0.8320312 c -0.4960975,0.1640694 -0.9824252,0.2734443 -1.4589844,0.328125 0.2382782,0.2070378 0.5742154,0.576178 1.0078125,1.1074219 L 3.09375,-5.0800781 C 2.8671846,-5.3886665 2.5996068,-5.8085879 2.2910156,-6.3398437 2.0019511,-5.7890567 1.7480451,-5.3691353 1.5292969,-5.0800781 L 0.83789063,-5.578125 C 1.2910143,-6.1367126 1.6152328,-6.5058529 1.8105469,-6.6855469 1.3066393,-6.7831963 0.82812417,-6.8925712 0.375,-7.0136719 z"
     style="font-size:12px;fill:#ee2924;font-family:MyriadPro-Regular"
     id="path3057" /></g>
<g
   id="g3192"
   transform="matrix(0.1257594,0,0,0.1107614,409.99865,347.15435)"
   style="stroke:#ff0000"><g
     style="stroke:#ff0000;display:inline"
     id="layer1"
     inkscape:label="Capa 1" /><g
     style="stroke:#ff0000;display:inline"
     inkscape:label="Troll editable"
     id="layer2"><path
       sodipodi:nodetypes="csc"
       id="path3191"
       d="m 286.75705,216.6243 c -1.88218,-6.21883 15.68802,-6.75525 18.46567,-2.826 1.53751,2.17495 4.57415,1.0589 7.86143,1.05824"
       style="fill:none;stroke:#ff0000;stroke-width:8;stroke-linecap:round;stroke-linejoin:miter;stroke-miterlimit:4;stroke-opacity:1;stroke-dasharray:none"
       inkscape:connector-curvature="0" /><path
       sodipodi:nodetypes="czzzcccccsccccscccsszc"
       id="path2454"
       d="m 161.62441,54.49482 c 0.0627,0.270025 -35.0189,18.615621 -46.9721,46.97209 -11.88931,28.20491 -18.902648,34.65365 -28.284267,40.91118 -9.381619,6.25753 -28.92459,23.48605 -30.692357,39.90103 -1.770866,16.44376 -2.390139,33.08249 16.045145,51.51778 0,0 23.156458,20.87092 32.263599,40.3702 0,0 6.1222,16.95595 24.0524,33.62347 0,0 18.4539,17.63473 51.77963,36.32255 0,0 84.85079,43.58764 103.78387,48.7828 0,0 13.27761,3.43182 19.11135,4.19774 21.28637,2.79472 48.18723,18.36201 72.55999,18.5307 0,0 57.07362,3.53552 76.77159,-6.06092 0,0 34.85027,-23.73858 34.34519,-44.44671 0,0 2.72175,-18.33443 -3.53553,-41.92133 0,0 -4.28644,-20.01139 -3.48462,-44.44399 0.69409,-21.14973 2.9274,-43.96917 20.15214,-68.6931 0,0 21.46573,-36.11295 -1.01016,-56.06346 0,0 -24.6134,-16.33405 -26.76904,-29.7995 -1.23503,-9.09137 5.02185,-15.1523 -7.57615,-28.536813 0,0 -28.47921,-31.376881 -81.82235,-36.112954 C 328.29958,54.747358 324.0354,51.928142 296.98485,50.45421 269.9343,48.980278 183.7902,42.900135 161.62441,54.49482 z"
       style="fill:none;stroke:#ff0000;stroke-width:8;stroke-linecap:butt;stroke-linejoin:miter;stroke-miterlimit:4;stroke-opacity:1;stroke-dasharray:none"
       inkscape:connector-curvature="0" /><path
       sodipodi:nodetypes="cssss"
       id="path3246"
       d="m 101.01526,218.64461 c 0,0 -16.911918,-22.75372 2.0203,-47.72971 13.04434,-17.20852 38.48672,-13.09607 50.50762,-5.3033 12.26098,7.94841 26.24589,12.36044 40.15358,12.6269 7.84938,0.15039 21.71827,-3.03045 35.35533,-18.18274"
       style="fill:none;stroke:#ff0000;stroke-width:8;stroke-linecap:round;stroke-linejoin:miter;stroke-miterlimit:4;stroke-opacity:1;stroke-dasharray:none"
       inkscape:connector-curvature="0" /><path
       sodipodi:nodetypes="ccsc"
       id="path3248"
       d="m 399.01026,180.25881 c 0,0 11.14805,9.43502 24.54419,4.73631 0,0 -2.60039,-10.18952 14.85176,-12.56499 19.39241,-2.63956 20.4118,0.883 26.01142,5.55584"
       style="fill:none;stroke:#ff0000;stroke-width:8;stroke-linecap:round;stroke-linejoin:miter;stroke-miterlimit:4;stroke-opacity:1;stroke-dasharray:none"
       inkscape:connector-curvature="0" /><path
       sodipodi:nodetypes="cssc"
       id="path3250"
       d="m 178.92857,121.92857 c 0,0 22.30996,-28.140613 49.10714,-29.642856 20.50414,-1.141848 -1.55627,-4.278294 33.57143,-2.857143 5.90461,0.240102 18.03571,-0.714286 25.71429,3.035714"
       style="fill:none;stroke:#ff0000;stroke-width:3;stroke-linecap:round;stroke-linejoin:miter;stroke-miterlimit:4;stroke-opacity:1;stroke-dasharray:none"
       inkscape:connector-curvature="0" /><path
       id="path2386"
       d="m 307.85714,346.92857 74.64286,0"
       style="fill:none;stroke:#ff0000;stroke-width:3;stroke-linecap:round;stroke-linejoin:miter;stroke-miterlimit:4;stroke-opacity:1;stroke-dasharray:none"
       inkscape:connector-curvature="0" /><path
       sodipodi:nodetypes="csccsc"
       id="path3158"
       d="m 176.07143,310.5 c 0,0 4.74062,0.16744 12.41322,4.79648 22.82301,13.76958 77.71536,37.55125 111.63397,43.1894 8.34041,1.37157 37.40579,-1.02707 47.19815,1.89161 2.81495,1.6599 41.51348,2.25865 50.77917,0.28475 28.8812,-6.15268 34.11654,-15.40453 39.7612,-23.37652"
       style="fill:none;stroke:#ff0000;stroke-width:3;stroke-linecap:round;stroke-linejoin:miter;stroke-miterlimit:4;stroke-opacity:1;stroke-dasharray:none"
       inkscape:connector-curvature="0" /><path
       sodipodi:nodetypes="csssszssssc"
       id="path3160"
       d="m 152.78557,310.56849 c 0,0 54.85428,33.65017 93.94419,43.81537 24.24585,6.30506 46.92509,11.83882 62.65484,13.83729 13.48059,1.71271 13.54552,3.13221 24.15039,4.03535 13.73346,1.16959 19.01047,0.62977 28.44145,2.16313 10.24185,1.66521 62.56036,2.7302 66.32824,0.79862 3.697,-1.89524 2.24121,-2.40679 6.12084,-4.21828 3.67832,-1.71749 3.25272,-0.76498 5.4129,-3.43086 1.17601,-1.4513 3.91226,-2.30893 6.59165,-3.48147 4.78489,-2.09394 3.27631,-3.2589 7.60682,-5.32744 4.6788,-2.2349 6.05585,-1.03718 5.45625,-16.43504"
       style="fill:none;stroke:#ff0000;stroke-width:3;stroke-linecap:round;stroke-linejoin:miter;stroke-miterlimit:4;stroke-opacity:1;stroke-dasharray:none"
       inkscape:connector-curvature="0" /><path
       sodipodi:nodetypes="csc"
       id="path3162"
       d="m 126.52161,141.49421 c -7.14595,2.44368 -25.56331,-2.21426 -33.950555,3.15225 -2.042694,1.307 -6.946985,2.03274 -10.369892,4.04509"
       style="fill:none;stroke:#ff0000;stroke-width:3;stroke-linecap:round;stroke-linejoin:miter;stroke-miterlimit:4;stroke-opacity:1;stroke-dasharray:none"
       inkscape:connector-curvature="0" /><path
       sodipodi:nodetypes="cssssszzsszz"
       id="path3164"
       d="m 135.53571,146.75 c 0,0 -32.68657,-1.96365 -36.195271,1.66688 -1.636453,1.69328 -4.824382,0.60259 -6.699646,1.87275 -3.563002,2.4133 -3.674739,2.12632 -4.999944,5.21438 -0.523449,1.21977 -4.299367,3.35809 -4.884786,6.75605 -0.679178,3.94217 -3.708495,3.84361 -5.139405,6.20975 -1.977201,3.26948 -2.939907,36.60395 -0.403122,40.45208 2.488668,3.77513 0.830646,7.54652 2.272842,9.09137 1.473389,1.57826 1.836031,4.91368 4.617101,7.50669 1.751468,1.63304 2.747429,2.60191 5.142142,3.10337 2.705687,0.56658 4.193123,2.62448 7.729023,3.59522 3.477156,0.95461 5.050756,-0.18941 6.565996,2.71478"
       style="fill:none;stroke:#ff0000;stroke-width:3;stroke-linecap:round;stroke-linejoin:miter;stroke-miterlimit:4;stroke-opacity:1;stroke-dasharray:none"
       inkscape:connector-curvature="0" /><path
       sodipodi:nodetypes="csc"
       id="path3166"
       d="m 276.65553,94.648385 c 0,0 6.04305,1.918512 8.73077,9.331115 1.83671,5.06554 3.68841,1.15313 3.01225,16.68031"
       style="fill:none;stroke:#ff0000;stroke-width:3;stroke-linecap:round;stroke-linejoin:miter;stroke-miterlimit:4;stroke-opacity:1;stroke-dasharray:none"
       inkscape:connector-curvature="0" /><path
       sodipodi:nodetypes="csc"
       id="path3168"
       d="m 350.14412,134.54941 c 0,0 -1.5608,-15.33232 1.71385,-18.85023 2.05866,-2.21158 0.70306,-5.80634 5.10468,-6.78239"
       style="fill:none;stroke:#ff0000;stroke-width:3;stroke-linecap:round;stroke-linejoin:miter;stroke-miterlimit:4;stroke-opacity:1;stroke-dasharray:none"
       inkscape:connector-curvature="0" /><path
       sodipodi:nodetypes="csc"
       id="path3170"
       d="m 174.01786,141.92857 c 0,-0.11871 -6.29328,-0.0431 -7.44076,1.59105 -1.75605,2.50088 -3.78779,0.60673 -11.93424,2.24824"
       style="fill:none;stroke:#ff0000;stroke-width:3;stroke-linecap:round;stroke-linejoin:miter;stroke-miterlimit:4;stroke-opacity:1;stroke-dasharray:none"
       inkscape:connector-curvature="0" /><path
       sodipodi:nodetypes="csc"
       id="path3172"
       d="m 169.46429,148.98214 c 0,0 -1.75822,-0.0542 -5.00015,0.229 -2.70763,0.23656 -4.71964,0.61865 -6.16057,-3.88971"
       style="fill:none;stroke:#ff0000;stroke-width:3;stroke-linecap:round;stroke-linejoin:miter;stroke-miterlimit:4;stroke-opacity:1;stroke-dasharray:none"
       inkscape:connector-curvature="0" /><path
       sodipodi:nodetypes="cc"
       id="path3174"
       d="m 169.28571,155.94643 c 0.87132,-1.98947 2.00861,-1.36758 4.10715,-1.875"
       style="fill:none;stroke:#ff0000;stroke-width:3;stroke-linecap:round;stroke-linejoin:miter;stroke-miterlimit:4;stroke-opacity:1;stroke-dasharray:none"
       inkscape:connector-curvature="0" /><path
       sodipodi:nodetypes="cc"
       id="path3176"
       d="m 96.21703,244.27723 c -4.197929,-5.46063 -5.932767,0.38068 -17.046324,-6.18719"
       style="fill:none;stroke:#ff0000;stroke-width:3;stroke-linecap:round;stroke-linejoin:miter;stroke-miterlimit:4;stroke-opacity:1;stroke-dasharray:none"
       inkscape:connector-curvature="0" /><path
       sodipodi:nodetypes="csssssc"
       id="path3178"
       d="m 345.71429,101.57143 c -0.16913,-2.985919 6.06538,-0.87703 9.0326,-3.173215 4.25819,-3.295204 16.76788,0.119325 22.08537,-3.091238 2.87596,-1.736432 9.80499,-0.955921 13.88891,-0.678095 9.49809,0.646148 24.87937,8.212118 30.11235,16.091268 0.80266,1.20854 0.36314,3.20585 1.36765,4.47065 1.65554,2.08453 1.92244,4.911 1.54883,7.63063"
       style="fill:none;stroke:#ff0000;stroke-width:3;stroke-linecap:round;stroke-linejoin:miter;stroke-miterlimit:4;stroke-opacity:1;stroke-dasharray:none"
       inkscape:connector-curvature="0" /><path
       sodipodi:nodetypes="cssssszsszzssscsssssc"
       id="path3180"
       d="m 165.15994,118.38697 c 14.39137,-15.9036 17.77709,-18.602164 32.12941,-25.677901 4.11824,-2.030299 6.03697,-4.582112 11.00352,-5.139077 3.0889,-0.346399 4.44987,-2.531891 6.19119,-2.576435 3.71742,-0.0951 2.01991,-2.255678 8.00281,-2.312542 2.52762,-0.02367 4.16512,-1.977602 8.24366,-2.314557 4.99418,-0.412602 4.23829,-2.06224 13.58063,-2.564161 9.25332,-0.497139 8.02661,-1.695337 11.74854,-2.023513 9.38814,-0.827785 33.11995,-0.872566 34.79448,1.18051 1.57113,1.926301 7.02077,0.92165 9.65877,1.363397 2.5511,0.427197 1.49471,2.06719 5.3945,2.297535 3.90402,0.230596 8.53354,-0.589997 11.08567,1.762161 1.30983,1.207202 22.31476,0.699847 28.89649,0.809564 13.61332,0.226932 18.80665,0.587745 26.43078,-0.307737 2.99154,-0.351368 0.60135,-2.254057 6.38221,-2.436612 0,0 8.09457,-0.18777 19.13899,-0.149776 2.3119,0.008 2.05541,-2.062717 4.71403,-2.431266 2.64712,-0.366955 6.84976,-0.729607 9.5266,1.034332 1.77074,1.166855 1.06251,1.919954 2.65532,3.37393 0.37431,0.341687 2.2167,0.438775 3.01175,1.018705 0.77277,0.563686 0.22408,0.988135 1.30077,1.761037"
       style="fill:none;stroke:#ff0000;stroke-width:3;stroke-linecap:round;stroke-linejoin:miter;stroke-miterlimit:4;stroke-opacity:1;stroke-dasharray:none"
       inkscape:connector-curvature="0" /><path
       sodipodi:nodetypes="cssssssssssc"
       id="path3182"
       d="m 152.40676,107.90664 c 4.30853,-6.74526 8.99109,-6.84891 14.83355,-10.839887 18.05057,-12.3303 47.23928,-33.523884 88.086,-35.346836 4.5474,-0.202947 13.84494,-1.184791 32.91222,-0.166428 3.43979,0.183716 0.7632,2.012541 5.34064,2.079148 3.93173,0.05721 8.92263,0.138943 13.1411,0.182078 2.80651,0.0287 1.34026,2.330635 4.30794,2.233761 6.58503,-0.214957 11.49706,-0.02955 18.28322,-0.121206 1.89552,-0.0273 2.144,2.529229 4.04198,2.57434 11.6267,0.273343 30.5702,0.427216 46.0827,-0.172135 3.40382,-0.131512 1.7855,-2.86368 4.28859,-3.108474 9.42778,-0.922008 17.38216,0.142171 17.5584,0.13296"
       style="fill:none;stroke:#ff0000;stroke-width:3;stroke-linecap:round;stroke-linejoin:miter;stroke-miterlimit:4;stroke-opacity:1;stroke-dasharray:none"
       inkscape:connector-curvature="0" /><path
       sodipodi:nodetypes="csssssssssssssssc"
       id="path2410"
       d="m 429.69364,146.67125 c 2.86752,-3.09407 7.28318,-1.61848 11.19517,0.85703 1.95873,1.23948 1.33283,1.5333 2.67904,2.23723 1.35205,0.70698 1.35316,-1.97294 2.46943,-2.64927 1.89331,-1.14714 20.00113,-0.83443 22.39852,0.17308 4.99801,2.10043 4.67033,8.91233 13.74162,11.75663 2.28154,0.71537 0.3974,1.48746 5.09357,2.69614 1.4927,0.38418 3.18194,3.88054 3.47528,7.30199 0.15404,1.79669 1.72656,4.28315 3.43728,5.41952 1.70373,1.13171 1.41938,10.23126 0.6212,14.64056 -0.26905,1.4863 -1.6224,1.05012 -1.9369,1.93144 -1.2208,3.42101 0.73147,8.39158 -1.16267,10.644 -1.8399,2.1879 -0.99868,5.60536 -2.41978,6.7283 -1.74414,1.37821 -2.49983,3.35175 -4.45072,4.41014 -2.98982,1.62203 -5.96142,1.85877 -8.95203,3.09153 -2.81619,1.16086 -5.67783,3.3408 -7.6892,4.12583 -2.82906,1.10417 -3.46349,0.5775 -3.90209,2.39728"
       style="fill:none;stroke:#ff0000;stroke-width:3;stroke-linecap:round;stroke-linejoin:miter;stroke-miterlimit:4;stroke-opacity:1;stroke-dasharray:none"
       inkscape:connector-curvature="0" /><path
       sodipodi:nodetypes="csssssssc"
       id="path3183"
       d="m 462.14286,159.16071 c 0.13989,1.04546 -0.34125,1.71039 0.71558,1.93311 4.49952,0.94825 4.71057,-0.66252 6.57767,1.93828 0.83205,1.15902 2.06615,0.336 3.42497,1.1471 2.33638,1.39463 4.76976,4.02583 5.60022,5.88137 1.448,3.23536 -0.90072,9.84429 0.0282,13.79992 0.53487,2.27776 2.37809,1.52159 2.48511,3.10783 0.37727,5.59212 0.51883,8.79925 -1.61916,10.44973 -4.79359,3.70053 -7.4874,9.47379 -11.94469,8.88552"
       style="fill:none;stroke:#ff0000;stroke-width:3;stroke-linecap:round;stroke-linejoin:miter;stroke-miterlimit:4;stroke-opacity:1;stroke-dasharray:none"
       inkscape:connector-curvature="0" /><path
       sodipodi:nodetypes="cssssssc"
       id="path3185"
       d="m 410.50322,220.58294 c -2.26152,-2.68343 -3.61923,-1.84831 -5.82784,-3.35837 -1.37264,-0.93849 -1.78604,-2.20366 -3.24552,-3.05181 -2.12611,-1.23555 -5.30693,0.4234 -7.67048,-0.64373 -0.98808,-0.4461 -0.91853,-1.4305 -1.83923,-2.06931 -1.08636,-0.75374 -2.25752,-0.23029 -3.57956,-1.04226 -1.22697,-0.75359 -0.86541,-1.08006 -2.13457,-2.0615 -2.05691,-1.5906 -1.49701,-1.2229 -3.73108,-1.53725"
       style="fill:none;stroke:#ff0000;stroke-width:3;stroke-linecap:round;stroke-linejoin:miter;stroke-miterlimit:4;stroke-opacity:1;stroke-dasharray:none"
       inkscape:connector-curvature="0" /><path
       sodipodi:nodetypes="csssc"
       id="path3187"
       d="m 218.92857,204.07143 c 0.13495,-3.41747 3.1154,-2.9188 9.81648,-2.69498 4.32088,0.14432 16.89147,0.22534 20.74576,0.39448 4.53585,0.20296 1.38593,-1.89955 4.34055,-2.46339 4.49944,-0.85865 4.54999,-7.07478 1.25793,-7.11111"
       style="fill:none;stroke:#ff0000;stroke-width:3;stroke-linecap:round;stroke-linejoin:miter;stroke-miterlimit:4;stroke-opacity:1;stroke-dasharray:none"
       inkscape:connector-curvature="0" /><path
       sodipodi:nodetypes="csscc"
       id="path3189"
       d="m 272.67806,220.79118 c -7.59456,-1.52866 -7.52571,-7.65285 -7.42152,-11.42306 0.12944,-4.68388 -0.4124,-10.19053 3.03041,-11.04909 1.63638,-0.40807 1.66385,0.81341 3.9651,-0.525 4.00642,-3.473 6.08884,-1.58354 14.505,-1.94098"
       style="fill:none;stroke:#ff0000;stroke-width:8;stroke-linecap:round;stroke-linejoin:miter;stroke-miterlimit:4;stroke-opacity:1;stroke-dasharray:none"
       inkscape:connector-curvature="0" /><path
       sodipodi:nodetypes="csc"
       id="path3193"
       d="m 379.89133,212.9102 c -0.39876,-2.07165 0.60637,-5.10762 0.66468,-6.26888 0.20461,-4.11942 -3.47068,-5.06179 -8.15526,-4.67057"
       style="fill:none;stroke:#ff0000;stroke-width:8;stroke-linecap:round;stroke-linejoin:miter;stroke-miterlimit:4;stroke-opacity:1;stroke-dasharray:none"
       inkscape:connector-curvature="0" /><path
       sodipodi:nodetypes="csssssssc"
       id="path3195"
       d="m 334.47698,227.47326 c 5.18232,6.19625 10.29568,5.72398 17.04928,2.15281 6.43811,-3.40435 12.36197,-9.70979 13.50379,-15.82615 0.9764,-5.23025 6.12879,-7.96807 6.10056,-10.1569 -0.0513,-3.97404 -1.64635,-6.18806 -4.93745,-9.04235 -2.98441,-2.5883 -6.5046,-1.3428 -9.92688,-4.44957 -3.17911,-2.88602 -3.82458,-3.38332 -6.5493,-7.41993 -2.92806,-4.33786 1.46583,-16.44099 -2.27009,-21.75415 -3.77417,-5.36755 -7.7477,-3.29105 -13.23514,-7.73717"
       style="fill:none;stroke:#ff0000;stroke-width:8;stroke-linecap:round;stroke-linejoin:miter;stroke-miterlimit:4;stroke-opacity:1;stroke-dasharray:none"
       inkscape:connector-curvature="0" /><path
       sodipodi:nodetypes="cssssssssssssscscssssscsc"
       id="path3197"
       d="m 291.80782,149.82797 c 0,0 -2.045,-2.02157 -5.42545,-5.57266 -1.45726,-1.53082 -2.64867,-4.16831 -4.88123,-5.69089 -1.37644,-0.93871 -3.67498,-1.28901 -5.39401,-2.29716 -0.9697,-0.56869 -2.35268,-2.46496 -4.82129,-3.73104 -2.55391,-1.30982 -4.93606,-1.3582 -6.15894,-1.90087 -1.60785,-0.71351 -1.9351,-2.13478 -3.76507,-2.73099 -2.12832,-0.69342 -4.51196,-0.92704 -6.90153,-1.43303 -3.51344,-0.74397 -2.99355,-3.0154 -7.35173,-3.28614 -6.78936,-0.42176 -19.7858,-2.48163 -22.22789,-0.1184 -3.54881,3.4342 -9.08663,1.63682 -13.16297,2.31989 -3.19751,0.5358 -3.13165,3.02591 -5.9953,3.10938 -2.3147,0.0675 -3.44969,2.21117 -5.16008,3.04936 -2.61527,1.28163 -4.3115,0.24932 -6.3014,1.82049 -5.99636,4.73458 -10.28689,13.17906 -10.28689,13.17906 2.36847,0.0996 3.23061,1.85907 4.4159,2.74547 1.48961,1.11398 3.05063,1.50741 3.79159,2.93664 3.12178,-0.79345 3.00276,-2.51555 6.78897,-3.75987 2.68548,-0.88258 4.12723,-0.0485 7.14328,-0.87963 10.63463,-2.93059 30.04684,-4.14697 47.20645,0.60411 3.67212,1.01671 6.42575,4.554 10.19581,6.94966 2.36961,1.50575 4.79486,1.72374 7.54709,3.09127 2.36365,1.17447 4.0246,1.8204 6.35002,3.46464 7.76816,-7.42687 7.35323,-4.74992 10.01812,-6.69221 3.08276,-2.24685 4.37655,-5.17708 4.37655,-5.17708 z"
       style="fill:none;stroke:#ff0000;stroke-width:8;stroke-linecap:round;stroke-linejoin:round;stroke-miterlimit:4;stroke-opacity:1;stroke-dasharray:none"
       inkscape:connector-curvature="0" /><path
       sodipodi:nodetypes="czcc"
       id="path3201"
       d="m 204.42962,129.01907 c 0,0 -1.44861,19.35612 22.20725,18.28319 23.78187,-1.07864 19.27825,-23.10087 19.27825,-23.10087 -13.66662,-0.49856 -27.46264,0.68508 -41.4855,4.81768 z"
       style="fill:#000000;fill-opacity:1;fill-rule:evenodd;stroke:#ff0000;stroke-width:1px;stroke-linecap:butt;stroke-linejoin:miter;stroke-opacity:1"
       inkscape:connector-curvature="0" /><path
       sodipodi:nodetypes="cssssscsssssc"
       id="path3211"
       d="m 418.96077,143.89332 c -4.71181,-2.75396 -9.3071,-7.36181 -11.61177,-7.64139 -6.26899,-0.76049 -13.02697,-2.45509 -26.39522,-1.70252 -3.4777,0.19578 -3.84305,0.88061 -7.09638,2.1475 -1.89943,0.73965 -5.41352,0.32879 -7.15001,1.65234 -2.69976,2.05774 -7.91013,2.47843 -9.78799,4.69994 -5.69876,6.74161 -7.7773,10.4778 -11.06842,15.99642 5.22562,0.85349 3.09314,1.02102 9.66829,0.45836 4.86804,-0.41658 3.65105,-2.91119 11.40052,-3.54307 2.24714,-0.18323 3.05657,-2.43865 6.69818,-3.0271 3.95682,-0.63939 12.43658,0.42026 13.36605,-1.47313 0.83932,-1.70973 19.27799,-0.41788 22.40053,-1.56766 6.70939,-2.47055 6.84578,-1.98073 9.57622,-5.99969 z"
       style="fill:none;stroke:#ff0000;stroke-width:8;stroke-linecap:round;stroke-linejoin:round;stroke-miterlimit:4;stroke-opacity:1;stroke-dasharray:none"
       inkscape:connector-curvature="0" /><path
       sodipodi:nodetypes="cczc"
       id="path3221"
       d="m 383.35289,133.66553 c -13.01458,3.01296 -28.37209,8.05592 -35.1028,20.32932 1.29969,6.2487 7.67721,5.4209 20.07678,3.28299 12.52218,-2.15904 19.24687,-13.42185 15.02602,-23.61231 z"
       style="fill:#000000;fill-opacity:1;fill-rule:evenodd;stroke:#ff0000;stroke-width:1px;stroke-linecap:butt;stroke-linejoin:miter;stroke-opacity:1"
       inkscape:connector-curvature="0" /><path
       sodipodi:nodetypes="cssssc"
       id="path3231"
       d="m 136.96428,176.75 c -0.0141,7.31931 -1.61039,5.43874 -2.05277,8.48416 -0.27489,1.89244 -0.54623,5.6923 -1.32876,7.03265 -1.64296,2.81412 -4.4888,2.60472 -6.34975,4.37947 -2.6231,2.50161 -5.23298,2.12418 -7.41168,4.71464 -1.95826,2.32836 -5.12309,2.26943 -9.10703,1.28193"
       style="fill:none;stroke:#ff0000;stroke-width:8;stroke-linecap:round;stroke-linejoin:miter;stroke-miterlimit:4;stroke-opacity:1;stroke-dasharray:none"
       inkscape:connector-curvature="0" /><path
       sodipodi:nodetypes="csscsscssc"
       id="path3233"
       d="m 133.84521,186.8248 c 10.74284,-1.49665 174.52942,100.25739 290.50605,44.0965 5.25996,-2.5471 4.18453,-7.0699 9.56855,-10.22629 4.22201,-2.47516 8.27365,-19.39433 8.81915,-30.33096 2.20978,8.26485 1.65633,12.27249 3.32121,19.8617 1.6621,7.57651 4.15783,5.17863 5.31384,12.06978 7.00997,41.78757 2.01135,85.56404 -17.51349,96.35418 -60.24601,19.34152 -130.89237,16.59841 -173.122,5.57659 -78.67061,-20.53281 -111.04058,-81.62222 -130.19566,-122.50732 -2.51935,-5.37738 0.68368,-9.61961 3.30235,-14.89418 z"
       style="fill:none;stroke:#ff0000;stroke-width:8;stroke-linecap:round;stroke-linejoin:round;stroke-miterlimit:4;stroke-opacity:1;stroke-dasharray:none"
       inkscape:connector-curvature="0" /><path
       sodipodi:nodetypes="csssccsssc"
       id="path3235"
       d="m 133.06965,221.61379 c 0.96384,0.0876 10.24162,0.84135 25.73657,7.94874 14.95651,6.86041 37.70303,21.15636 56.26091,21.35413 10.81711,0.11528 47.58422,15.6478 58.17281,17.66941 34.41234,6.57011 160.73583,12.2465 181.32871,-23.17242 0.47218,4.17894 2.43853,30.28057 -13.43312,40.8499 -24.99514,9.19423 -42.72285,9.46491 -102.9155,6.91557 -24.90217,-1.05468 -49.1556,-6.54341 -73.89041,-16.59601 -12.93151,-5.25556 -31.1442,-7.43872 -40.62621,-12.24732 -29.52526,-14.9731 -53.9128,-24.29397 -90.63376,-42.722 z"
       style="fill:#000000;fill-opacity:1;fill-rule:evenodd;stroke:#ff0000;stroke-width:8;stroke-linecap:round;stroke-linejoin:round;stroke-miterlimit:4;stroke-opacity:1;stroke-dasharray:none"
       inkscape:connector-curvature="0" /><path
       sodipodi:nodetypes="ccccc"
       id="path3186"
       d="m 185.58855,206.28799 c -2.77886,8.98251 -4.54741,20.15498 0,33.76578 l 21.72729,6.68491 c -8.31806,-8.21062 -21.3597,-16.14678 -14.21819,-33.93838 l -7.5091,-6.51231 z"
       style="fill:#000000;fill-opacity:1;fill-rule:evenodd;stroke:#ff0000;stroke-width:1px;stroke-linecap:round;stroke-linejoin:miter;stroke-opacity:1"
       inkscape:connector-curvature="0" /><path
       sodipodi:nodetypes="csccscc"
       id="path3188"
       d="m 176.96226,270.6155 c 6.03864,-0.49081 10.87029,-4.79747 5.55921,-17.62676 -0.68386,-1.65191 0.41843,-3.92116 -0.13697,-6.03393 l 11.09095,4.9293 c 0.42288,6.81535 1.47285,14.81448 -0.0993,18.88213 -1.59358,4.12323 -5.82714,4.28819 -8.0341,7.24323 l -8.37983,-7.39397 z"
       style="fill:#000000;fill-opacity:1;fill-rule:evenodd;stroke:#ff0000;stroke-width:1px;stroke-linecap:butt;stroke-linejoin:miter;stroke-opacity:1"
       inkscape:connector-curvature="0" /><path
       sodipodi:nodetypes="cssccsscc"
       id="path3190"
       d="m 245.47969,256.99828 c 1.28425,-1.29201 0.71772,-2.96287 2.0767,-3.17638 2.21372,-0.34781 1.79441,-6.3723 1.68688,-11.23714 -0.0627,-2.83656 2.99449,2.70149 2.82937,-8.50778 l 9.1422,3.96849 c -1.01042,2.42452 -0.25853,5.20413 -1.03142,6.73621 -0.40182,0.7965 -2.49193,-0.0132 -2.65026,1.44016 -0.69639,6.3926 2.93309,10.98384 -4.43473,13.49383 l -7.61874,-2.71739 z"
       style="fill:#000000;fill-opacity:1;fill-rule:evenodd;stroke:#ff0000;stroke-width:1px;stroke-linecap:butt;stroke-linejoin:miter;stroke-opacity:1"
       inkscape:connector-curvature="0" /><path
       sodipodi:nodetypes="czcczcc"
       id="path3192"
       d="m 305.55566,248.24875 c 0,0 2.09042,1.80808 2.71112,3.26567 0.62071,1.45758 0.40132,17.90874 0.0616,18.36168 l 10.84449,0.7394 c 0,0 -1.26769,1.56154 -1.60203,-1.78688 -0.33367,-3.34177 -0.12323,-20.3334 -0.12323,-20.3334 l -11.89196,-0.24647 z"
       style="fill:#000000;fill-opacity:1;fill-rule:evenodd;stroke:#ff0000;stroke-width:1px;stroke-linecap:butt;stroke-linejoin:miter;stroke-opacity:1"
       inkscape:connector-curvature="0" /><path
       sodipodi:nodetypes="csccscc"
       id="path3194"
       d="m 348.31743,251.0831 c 0.86831,2.04865 0.15761,7.35801 2.09295,8.64568 2.15043,1.43078 1.20116,8.76536 0.24847,11.44127 l 9.85862,-0.43132 c -0.39792,-4.15651 1.24825,-14.27573 -0.63017,-14.51057 -1.98629,-0.24833 -2.06748,-2.05036 -1.03347,-5.57637 l -10.5364,0.43131 z"
       style="fill:#000000;fill-opacity:1;fill-rule:evenodd;stroke:#ff0000;stroke-width:1px;stroke-linecap:butt;stroke-linejoin:miter;stroke-opacity:1"
       inkscape:connector-curvature="0" /><path
       sodipodi:nodetypes="cssccssscc"
       id="path3196"
       d="m 394.09841,244.49015 c -1.0101,12.69527 0.53482,12.48922 2.71278,13.55288 1.14503,0.55921 0.40599,3.07594 0.56588,5.81911 0.10309,1.76875 2.14176,-0.48627 1.65065,3.79577 l 6.90103,-1.35556 c 3.08361,-6.17393 1.61347,-7.75231 -0.32526,-9.31823 -0.61635,-0.49783 -0.10295,-1.77046 -0.47205,-2.90052 -0.42339,-1.2963 -2.37583,-0.82466 -2.33368,-2.43211 0.0835,-3.18376 0.40762,-6.54113 -0.31953,-9.00983 l -8.37982,1.84849 z"
       style="fill:#000000;fill-opacity:1;fill-rule:evenodd;stroke:#ff0000;stroke-width:1px;stroke-linecap:butt;stroke-linejoin:miter;stroke-opacity:1"
       inkscape:connector-curvature="0" /><path
       sodipodi:nodetypes="cssccscc"
       id="path3198"
       d="m 420.22375,235.24769 c -0.0665,2.05689 -0.51511,7.52889 1.16898,7.31984 2.3817,-0.29565 2.67329,15.40632 0.0735,15.66403 -1.52618,0.15129 -0.82063,3.9491 -1.11929,5.11321 l 10.35156,-3.45053 c 1.49789,-2.88503 2.49228,-18.57011 -0.39759,-21.59809 -1.39701,-1.46379 -0.14947,-5.94806 -0.83474,-7.60807 l -9.24246,4.55961 z"
       style="fill:#000000;fill-opacity:1;fill-rule:evenodd;stroke:#ff0000;stroke-width:1px;stroke-linecap:butt;stroke-linejoin:miter;stroke-opacity:1"
       inkscape:connector-curvature="0" /><path
       sodipodi:nodetypes="csssssccsscc"
       id="path3200"
       d="m 441.29655,254.22554 c -9.3e-4,-1.15815 0.5939,-3.70782 0.39862,-4.9541 -0.2818,-1.79848 -1.40862,-2.21664 -1.62238,-3.02714 -0.52083,-1.97471 0.10625,-2.27807 -0.41438,-5.21836 -0.13088,-0.73914 -1.91041,-0.25313 -1.85367,-1.92028 0.1502,-4.41253 -1.63726,-4.87681 -1.98612,-6.7048 -0.73383,-3.84522 -2.77836,-3.70415 -3.76452,-5.28653 l 8.13336,-8.87276 c -0.24882,4.36778 0.4539,4.87694 2.79656,7.15599 1.01125,0.98379 2.13641,4.65828 2.17373,7.03779 0.081,5.16376 4.03478,5.86593 6.24389,9.59015 -0.0761,7.53389 -7.08016,8.79451 -10.10509,12.20004 z"
       style="fill:#000000;fill-opacity:1;fill-rule:evenodd;stroke:#ff0000;stroke-width:1px;stroke-linecap:butt;stroke-linejoin:miter;stroke-opacity:1"
       inkscape:connector-curvature="0" /><path
       sodipodi:nodetypes="cccccsscc"
       id="path3202"
       d="m 231.9633,311.13815 c 2.79846,-7.8789 0.41099,-16.30639 10.28237,-23.35318 0.58519,-3.65129 0.86275,-8.96351 -0.87139,-17.25347 l 9.06243,2.61416 c 1.34851,9.84069 0.49409,16.74603 -0.47927,20.08548 -5.90965,3.94335 -5.43932,9.21933 -6.20332,12.13642 -0.56704,2.16505 -2.26074,1.91711 -2.55608,4.42021 -0.34739,2.94417 3.093,4.7509 3.66179,5.88159 l -12.89653,-4.53121 z"
       style="fill:#000000;fill-opacity:1;fill-rule:evenodd;stroke:#ff0000;stroke-width:1px;stroke-linecap:butt;stroke-linejoin:miter;stroke-opacity:1"
       inkscape:connector-curvature="0" /><path
       sodipodi:nodetypes="csssccsscc"
       id="path3204"
       d="m 298.62442,289.96344 c 0.33322,14.17025 1.25139,20.29041 0.0812,25.96864 -0.3454,1.67599 -2.34902,1.32687 -2.35072,3.05121 -0.002,1.67608 1.97672,1.83156 2.69977,3.39876 0.88745,1.92352 -1.71974,4.09068 -3.91579,6.00957 l 16.99206,1.5685 c -0.65697,-8.00778 -5.68858,-3.49444 -6.54753,-6.87671 -0.22934,-0.90306 1.95116,-1.16127 2.21471,-3.12522 0.60402,-4.50104 -0.0518,-13.51549 0.67299,-28.0777 l -9.84668,-1.91705 z"
       style="fill:#000000;fill-opacity:1;fill-rule:evenodd;stroke:#ff0000;stroke-width:1px;stroke-linecap:butt;stroke-linejoin:miter;stroke-opacity:1"
       inkscape:connector-curvature="0" /><path
       sodipodi:nodetypes="csssssccssssssscc"
       id="path3206"
       d="m 345.5922,296.23743 c 0.83705,3.47753 1.27065,5.52347 1.26826,8.19154 -10e-4,1.15128 -2.72491,0.9404 -2.45476,2.78248 0.49425,3.37025 0.65919,7.87096 -0.0339,10.83749 -0.29579,1.26596 -1.77238,1.43253 -2.26867,2.49116 -0.60576,1.29214 0.51902,4.4731 0.0501,5.8901 -0.68631,2.07371 -0.97866,0.62884 -3.09636,3.09423 l 24.92167,0.34856 c 1.2261,-2.31113 0.26063,-3.03295 -3.13425,-3.10312 -7.26328,-0.15409 -5.38833,0.62436 -7.86019,0.88831 -2.63572,0.28146 -2.94071,-1.88454 -3.0781,-2.33707 -0.31511,-1.03791 3.41936,-1.45628 3.47008,-2.87985 0.15038,-4.30863 -0.10642,-8.48802 -0.24387,-11.73298 -0.0705,-1.66498 2.01769,-0.86591 2.14992,-2.45205 0.10743,-1.28864 -0.53882,-2.6255 -0.1493,-3.81891 1.0371,-3.17742 2.367,-3.62914 7.10293,-6.97995 l -16.64349,-1.21994 z"
       style="fill:#000000;fill-opacity:1;fill-rule:evenodd;stroke:#ff0000;stroke-width:1px;stroke-linecap:butt;stroke-linejoin:miter;stroke-opacity:1"
       inkscape:connector-curvature="0" /><path
       sodipodi:nodetypes="cssssscccssssscc"
       id="path3208"
       d="m 382.7133,298.15448 c 0.30017,2.22451 0.25232,5.29285 -1.61414,5.48365 -1.7477,0.17866 0.28382,5.85934 -1.39296,6.38596 -3.82508,1.20132 -1.42735,4.8052 -2.94859,5.25128 -2.01933,0.59213 -0.22872,3.18755 -2.55673,4.76129 -0.7016,0.47428 -0.20079,3.37445 -1.45752,3.94636 -3.36737,1.53241 -3.63642,-1.21009 -7.37067,5.36712 l 25.96734,-4.26979 c -3.2171,-0.33698 -7.79353,0.29699 -8.01676,-2.17847 0.41362,-3.36414 1.90899,-2.68535 2.67276,-4.48138 0.59775,-1.40565 0.1283,-3.29754 1.5547,-4.11299 1.55729,-0.89028 1.02754,-4.13495 1.54717,-5.72529 0.38642,-1.18264 1.50102,-1.16041 1.94214,-1.95926 0.76234,-1.38058 0.12969,-5.64132 1.14653,-6.07947 2.37251,-1.0223 8.90184,0.65339 9.34869,-3.08612 l -18.82196,0.69711 z"
       style="fill:#000000;fill-opacity:1;fill-rule:evenodd;stroke:#ff0000;stroke-width:1px;stroke-linecap:butt;stroke-linejoin:miter;stroke-opacity:1"
       inkscape:connector-curvature="0" /><path
       sodipodi:nodetypes="cscscsccscssssscc"
       id="path3210"
       d="m 410.72961,296.04163 c -5.57819,5.97761 -4.64804,10.14298 -6.28976,13.17417 -1.16152,2.14457 -3.41185,2.25382 -5.035,8.16333 -0.15552,1.05135 0.0913,1.57803 1.86302,1.93278 0.31122,0.0623 0.25393,0.86012 0.41574,1.86516 -0.40883,1.58126 -5.8909,0.71019 -8.04859,1.30771 -2.06683,0.57237 -1.95553,1.31686 -3.13806,2.76644 l 35.70061,-6.76724 c -8.0996,-1.59353 -9.87607,-1.21343 -11.59023,0.9703 -0.50186,0.63933 -3.78255,0.0972 -3.87773,-0.34882 -0.51052,-1.99078 -0.99092,-4.03843 1.05604,-4.8143 1.24095,-0.47037 0.17725,-2.87155 1.17294,-4.80985 0.31229,-0.60793 1.1457,-0.55766 1.5226,-1.22061 0.80398,-1.41415 -0.2607,-2.94441 2.33308,-3.61204 1.2164,-0.3131 0.0363,-2.93308 0.85683,-4.09305 1.17011,-1.65407 1.96408,0.71341 2.31167,-5.61884 l -9.25316,1.10486 z"
       style="fill:#000000;fill-opacity:1;fill-rule:evenodd;stroke:#ff0000;stroke-width:1px;stroke-linecap:butt;stroke-linejoin:miter;stroke-opacity:1"
       inkscape:connector-curvature="0" /><path
       sodipodi:nodetypes="cssccscsscccsssscc"
       id="path3212"
       d="m 428.75254,292.72706 c -0.79989,6.69426 -3.1707,5.48921 -3.14641,7.66338 0.0186,1.66663 0.29478,3.34782 -0.10105,4.72289 -0.45007,1.56346 -2.8636,-1.50793 -2.00059,3.49602 1.88402,2.28646 2.61367,2.02173 4.57031,2.9467 1.45759,-1.22748 1.4895,-2.05313 2.54325,-2.09683 0.83111,-0.0345 2.41311,0.54036 2.2777,1.98132 -0.5606,0.87521 -2.35124,1.1475 -2.59126,1.82793 -1.18379,3.35601 -3.62665,1.21148 -4.57654,2.19885 -0.89822,0.93366 -0.58027,1.9275 -1.11861,3.50003 6.10939,-1.63447 11.76126,-4.71194 15.67512,-8.90788 -4.4575,0.90681 -5.64331,0.58869 -6.62912,-1.79539 -0.67763,-1.60594 -0.18123,-4.61605 2.13011,-6.30417 0.9334,-0.68171 0.41184,-2.16914 0.89892,-3.33885 0.3745,-0.89937 1.35182,-0.73405 1.70116,-1.61917 0.5261,-1.33298 -0.0657,-2.86401 0.93582,-3.36964 2.41909,-1.22135 1.74237,-3.9501 1.99891,-4.63406 l -12.56772,3.72887 z"
       style="fill:#000000;fill-opacity:1;fill-rule:evenodd;stroke:#ff0000;stroke-width:1px;stroke-linecap:butt;stroke-linejoin:miter;stroke-opacity:1"
       inkscape:connector-curvature="0" /></g></g></svg>