0
SECTION
2
HEADER
9
$INSUNITS
70
4
9
$ACADVER
1
AC1014
9
$HANDSEED
5
FFFF
0
ENDSEC
0
SECTION
2
TABLES
0
TABLE
2
VPORT
5
8
100
AcDbSymbolTable
0
ENDTAB
0
TABLE
2
LTYPE
5
5
100
AcDbSymbolTable
0
LTYPE
5
14
100
AcDbSymbolTableRecord
100
AcDbLinetypeTableRecord
2
BYBLOCK
70
0
0
LTYPE
5
15
100
AcDbSymbolTableRecord
100
AcDbLinetypeTableRecord
2
BYLAYER
70
0
0
ENDTAB
0
TABLE
2
LAYER
5
2
100
AcDbSymbolTable
70
2
0
LAYER
5
50
100
AcDbSymbolTableRecord
100
AcDbLayerTableRecord
2
0
70
0
6
CONTINUOUS
0
ENDTAB
0
TABLE
2
STYLE
5
3
100
AcDbSymbolTable
70
1
0
STYLE
5
11
100
AcDbSymbolTableRecord
100
AcDbTextStyleTableRecord
2
STANDARD
70
0
0
ENDTAB
0
TABLE
2
VIEW
5
6
100
AcDbSymbolTable
70
0
0
ENDTAB
0
TABLE
2
UCS
5
7
100
AcDbSymbolTable
70
0
0
ENDTAB
0
TABLE
2
APPID
5
9
100
AcDbSymbolTable
70
2
0
APPID
5
12
100
AcDbSymbolTableRecord
100
AcDbRegAppTableRecord
2
ACAD
70
0
0
ENDTAB
0
TABLE
2
DIMSTYLE
5
A
100
AcDbSymbolTable
70
1
0
ENDTAB
0
TABLE
2
BLOCK_RECORD
5
1
100
AcDbSymbolTable
70
1
0
BLOCK_RECORD
5
1F
100
AcDbSymbolTableRecord
100
AcDbBlockTableRecord
2
*MODEL_SPACE
0
BLOCK_RECORD
5
1B
100
AcDbSymbolTableRecord
100
AcDbBlockTableRecord
2
*PAPER_SPACE
0
ENDTAB
0
ENDSEC
0
SECTION
2
BLOCKS
0
BLOCK
5
20
100
AcDbEntity
100
AcDbBlockBegin
2
*MODEL_SPACE
0
ENDBLK
5
21
100
AcDbEntity
100
AcDbBlockEnd
0
BLOCK
5
1C
100
AcDbEntity
100
AcDbBlockBegin
2
*PAPER_SPACE
0
ENDBLK
5
1D
100
AcDbEntity
100
AcDbBlockEnd
0
ENDSEC
0
SECTION
2
ENTITIES
0
LINE
5
100
100
AcDbEntity
8
0
100
AcDbLine
10
0
20
0
30
0
11
1.1796447880034799e-15
21
157.37852458324807
31
0
0
LINE
5
101
100
AcDbEntity
8
0
100
AcDbLine
10
0
20
0
30
0
11
-7.0000000000000009
21
78.689262291624004
31
0
0
LINE
5
102
100
AcDbEntity
8
0
100
AcDbLine
10
0
20
0
30
0
11
7.0000000000000009
21
78.689262291624019
31
0
0
LINE
5
103
100
AcDbEntity
8
0
100
AcDbLine
10
-7.0000000000000009
20
78.689262291624004
30
0
11
7.0000000000000009
21
78.689262291624019
31
0
0
LINE
5
104
100
AcDbEntity
8
0
100
AcDbLine
10
-7.0000000000000009
20
78.689262291624004
30
0
11
-6.424050632911392
21
72.214829318262531
31
0
0
LINE
5
105
100
AcDbEntity
8
0
100
AcDbLine
10
7.0000000000000009
20
78.689262291624019
30
0
11
6.4240506329113911
21
72.214829318262531
31
0
0
ARC
5
106
100
AcDbEntity
8
0
100
AcDbCircle
10
0
20
0
30
0
40
72.5
210
0
220
-0
230
1
100
AcDbArc
50
90
51
95.083508109897181
0
ARC
5
107
100
AcDbEntity
8
0
100
AcDbCircle
10
0
20
0
30
0
40
72.499999999999986
210
0
220
-0
230
1
100
AcDbArc
50
84.916491890102819
51
90
0
ARC
5
108
100
AcDbEntity
8
0
100
AcDbCircle
10
0
20
0
30
0
40
79.000000000000014
210
0
220
-0
230
1
100
AcDbArc
50
84.916491890102819
51
95.083508109897181
0
CIRCLE
5
109
100
AcDbEntity
8
0
100
AcDbCircle
10
0
20
0
30
0
40
75.750000000000171
210
0
220
0
230
1
0
CIRCLE
5
110
100
AcDbEntity
8
0
100
AcDbCircle
10
17.502466558770227
20
73.700245348036603
30
0
40
2.5000000000000022
210
0
220
0
230
1
0
LINE
5
111
100
AcDbEntity
8
0
100
AcDbLine
10
0
20
0
30
0
11
20.780163435347418
21
76.218008420587296
31
0
0
LINE
5
112
100
AcDbEntity
8
0
100
AcDbLine
10
7.0000000000000009
20
78.689262291624019
30
0
11
20.780163435347418
21
76.218008420587296
31
0
0
LINE
5
113
100
AcDbEntity
8
0
100
AcDbLine
10
-78.689262291624019
20
7.0000000000000187
30
0
11
-72.214829318262531
21
6.4240506329114062
31
0
0
LINE
5
114
100
AcDbEntity
8
0
100
AcDbLine
10
-78.689262291624004
20
-6.9999999999999831
30
0
11
-72.214829318262531
21
-6.4240506329113769
31
0
0
ARC
5
115
100
AcDbEntity
8
0
100
AcDbCircle
10
0
20
0
30
0
40
79.000000000000014
210
0
220
0
230
1
100
AcDbArc
50
174.9164918901028
51
185.08350810989711
0
ARC
5
116
100
AcDbEntity
8
0
100
AcDbCircle
10
0
20
0
30
0
40
72.5
210
0
220
0
230
1
100
AcDbArc
50
180
51
185.08350810989711
0
ARC
5
117
100
AcDbEntity
8
0
100
AcDbCircle
10
0
20
0
30
0
40
72.499999999999986
210
0
220
0
230
1
100
AcDbArc
50
174.9164918901028
51
180
0
CIRCLE
5
118
100
AcDbEntity
8
0
100
AcDbCircle
10
-73.700245348036603
20
17.502466558770241
30
0
40
2.5000000000000022
210
0
220
0
230
1
0
LINE
5
119
100
AcDbEntity
8
0
100
AcDbLine
10
-7.0000000000000107
20
-78.689262291624019
30
0
11
-6.4240506329114
21
-72.214829318262531
31
0
0
LINE
5
120
100
AcDbEntity
8
0
100
AcDbLine
10
6.9999999999999911
20
-78.689262291624004
30
0
11
6.4240506329113831
21
-72.214829318262531
31
0
0
ARC
5
121
100
AcDbEntity
8
0
100
AcDbCircle
10
0
20
0
30
0
40
79.000000000000014
210
0
220
0
230
1
100
AcDbArc
50
264.9164918901028
51
275.0835081098972
0
ARC
5
122
100
AcDbEntity
8
0
100
AcDbCircle
10
0
20
0
30
0
40
72.5
210
0
220
0
230
1
100
AcDbArc
50
270
51
275.0835081098972
0
ARC
5
123
100
AcDbEntity
8
0
100
AcDbCircle
10
0
20
0
30
0
40
72.499999999999986
210
0
220
0
230
1
100
AcDbArc
50
264.9164918901028
51
270
0
CIRCLE
5
124
100
AcDbEntity
8
0
100
AcDbCircle
10
-17.502466558770237
20
-73.700245348036603
30
0
40
2.5000000000000022
210
0
220
0
230
1
0
LINE
5
125
100
AcDbEntity
8
0
100
AcDbLine
10
78.689262291624019
20
-7.0000000000000187
30
0
11
72.214829318262531
21
-6.4240506329114062
31
0
0
LINE
5
126
100
AcDbEntity
8
0
100
AcDbLine
10
78.689262291624004
20
6.9999999999999831
30
0
11
72.214829318262531
21
6.4240506329113769
31
0
0
ARC
5
127
100
AcDbEntity
8
0
100
AcDbCircle
10
0
20
0
30
0
40
79.000000000000014
210
-0
220
0
230
1
100
AcDbArc
50
-5.0835081098971902
51
5.0835081098971155
0
ARC
5
128
100
AcDbEntity
8
0
100
AcDbCircle
10
0
20
0
30
0
40
72.5
210
-0
220
0
230
1
100
AcDbArc
50
0
51
5.0835081098971155
0
ARC
5
129
100
AcDbEntity
8
0
100
AcDbCircle
10
0
20
0
30
0
40
72.499999999999986
210
-0
220
0
230
1
100
AcDbArc
50
354.91649189010286
51
360
0
CIRCLE
5
130
100
AcDbEntity
8
0
100
AcDbCircle
10
73.700245348036603
20
-17.502466558770241
30
0
40
2.5000000000000022
210
0
220
0
230
1
0
ARC
5
131
100
AcDbEntity
8
0
100
AcDbCircle
10
0
20
0
30
0
40
72.499999999999986
210
0
220
-0
230
1
100
AcDbArc
50
58.960635879439678
51
74.749475670308613
0
ARC
5
132
100
AcDbEntity
8
0
100
AcDbCircle
10
0
20
0
30
0
40
72.499999999999986
210
0
220
-0
230
1
100
AcDbArc
50
5.0835081098971155
51
58.960635879439678
0
ARC
5
133
100
AcDbEntity
8
0
100
AcDbCircle
10
0
20
0
30
0
40
72.499999999999986
210
0
220
0
230
1
100
AcDbArc
50
-5.0835081098971902
51
5.0835081098971155
0
ARC
5
134
100
AcDbEntity
8
0
100
AcDbCircle
10
0
20
0
30
0
40
72.499999999999986
210
0
220
0
230
1
100
AcDbArc
50
275.0835081098972
51
354.91649189010286
0
ARC
5
135
100
AcDbEntity
8
0
100
AcDbCircle
10
0
20
0
30
0
40
72.499999999999986
210
0
220
0
230
1
100
AcDbArc
50
174.9164918901028
51
185.08350810989711
0
ARC
5
136
100
AcDbEntity
8
0
100
AcDbCircle
10
0
20
0
30
0
40
72.499999999999986
210
0
220
0
230
1
100
AcDbArc
50
264.9164918901028
51
275.0835081098972
0
ARC
5
137
100
AcDbEntity
8
0
100
AcDbCircle
10
0
20
0
30
0
40
72.499999999999986
210
0
220
0
230
1
100
AcDbArc
50
185.08350810989711
51
264.9164918901028
0
ARC
5
138
100
AcDbEntity
8
0
100
AcDbCircle
10
0
20
0
30
0
40
79.000000000000014
210
0
220
0
230
1
100
AcDbArc
50
174.9164918901028
51
185.08350810989711
0
ARC
5
139
100
AcDbEntity
8
0
100
AcDbCircle
10
0
20
0
30
0
40
79.000000000002927
210
0
220
-0
230
1
100
AcDbArc
50
74.749475670308613
51
84.916491890102819
0
ARC
5
140
100
AcDbEntity
8
0
100
AcDbCircle
10
0
20
0
30
0
40
72.499999999999986
210
0
220
-0
230
1
100
AcDbArc
50
74.749475670308613
51
84.916491890102819
0
ARC
5
141
100
AcDbEntity
8
0
100
AcDbCircle
10
0
20
0
30
0
40
79.000000000000014
210
0
220
0
230
1
100
AcDbArc
50
264.9164918901028
51
275.0835081098972
0
ARC
5
142
100
AcDbEntity
8
0
100
AcDbCircle
10
0
20
0
30
0
40
79.000000000000014
210
0
220
0
230
1
100
AcDbArc
50
-5.0835081098971902
51
5.0835081098971155
0
ARC
5
143
100
AcDbEntity
8
0
100
AcDbCircle
10
0
20
0
30
0
40
72.499999999999986
210
0
220
0
230
1
100
AcDbArc
50
95.083508109897181
51
174.9164918901028
0
ENDSEC
0
SECTION
2
OBJECTS
0
DICTIONARY
5
C
100
AcDbDictionary
3
ACAD_GROUP
350
D
3
ACAD_MLINESTYLE
350
17
0
DICTIONARY
5
D
100
AcDbDictionary
0
DICTIONARY
5
1A
330
C
100
AcDbDictionary
0
DICTIONARY
5
17
100
AcDbDictionary
0
ENDSEC
0
EOF
