  0
SECTION
  2
HEADER
  9
$ACADVER
  1
AC1014
  9
$HANDSEED
  5
FFFF
  9
$MEASUREMENT
 70
     1
  0
ENDSEC
  0
SECTION
  2
TABLES
  0
TABLE
  2
VPORT
  5
8
330
0
100
AcDbSymbolTable
 70
     4
  0
VPORT
  5
2E
330
8
100
AcDbSymbolTableRecord
100
AcDbViewportTableRecord
  2
*ACTIVE
 70
     0
 10
0.0
 20
0.0
 11
1.0
 21
1.0
 12
210.0
 22
148.5
 13
0.0
 23
0.0
 14
10.0
 24
10.0
 15
10.0
 25
10.0
 16
0.0
 26
0.0
 36
1.0
 17
0.0
 27
0.0
 37
0.0
 40
341.0
 41
1.24
 42
50.0
 43
0.0
 44
0.0
 50
0.0
 51
0.0
 71
     0
 72
   100
 73
     1
 74
     3
 75
     0
 76
     0
 77
     0
 78
     0
  0
ENDTAB
  0
TABLE
  2
LTYPE
  5
5
330
0
100
AcDbSymbolTable
 70
     1
  0
LTYPE
  5
14
330
5
100
AcDbSymbolTableRecord
100
AcDbLinetypeTableRecord
  2
BYBLOCK
 70
     0
  3

 72
    65
 73
     0
 40
0.0
  0
LTYPE
  5
15
330
5
100
AcDbSymbolTableRecord
100
AcDbLinetypeTableRecord
  2
BYLAYER
 70
     0
  3

 72
    65
 73
     0
 40
0.0
  0
LTYPE
  5
16
330
5
100
AcDbSymbolTableRecord
100
AcDbLinetypeTableRecord
  2
CONTINUOUS
 70
     0
  3
Solid line
 72
    65
 73
     0
 40
0.0
  0
ENDTAB
  0
TABLE
  2
LAYER
  5
2
100
AcDbSymbolTable
 70
1
  0
LAYER
  5
50
100
AcDbSymbolTableRecord
100
AcDbLayerTableRecord
  2
0
 70
0
  6
CONTINUOUS
  0
ENDTAB
  0
TABLE
  2
STYLE
  5
3
330
0
100
AcDbSymbolTable
 70
     1
  0
STYLE
  5
11
330
3
100
AcDbSymbolTableRecord
100
AcDbTextStyleTableRecord
  2
STANDARD
 70
     0
 40
0.0
 41
1.0
 50
0.0
 71
     0
 42
2.5
  3
txt
  4

  0
ENDTAB
  0
TABLE
  2
VIEW
  5
6
330
0
100
AcDbSymbolTable
 70
     0
  0
ENDTAB
  0
TABLE
  2
UCS
  5
7
330
0
100
AcDbSymbolTable
 70
     0
  0
ENDTAB
  0
TABLE
  2
APPID
  5
9
330
0
100
AcDbSymbolTable
 70
     2
  0
APPID
  5
12
330
9
100
AcDbSymbolTableRecord
100
AcDbRegAppTableRecord
  2
ACAD
 70
     0
  0
ENDTAB
  0
TABLE
  2
DIMSTYLE
  5
A
330
0
100
AcDbSymbolTable
 70
     1
  0
DIMSTYLE
105
27
330
A
100
AcDbSymbolTableRecord
100
AcDbDimStyleTableRecord
  2
ISO-25
 70
     0
  3

  4

  5

  6

  7

 40
1.0
 41
2.5
 42
0.625
 43
3.75
 44
1.25
 45
0.0
 46
0.0
 47
0.0
 48
0.0
140
2.5
141
2.5
142
0.0
143
0.03937007874016
144
1.0
145
0.0
146
1.0
147
0.625
 71
     0
 72
     0
 73
     0
 74
     0
 75
     0
 76
     0
 77
     1
 78
     8
170
     0
171
     3
172
     1
173
     0
174
     0
175
     0
176
     0
177
     0
178
     0
270
     2
271
     2
272
     2
273
     2
274
     3
340
11
275
     0
280
     0
281
     0
282
     0
283
     0
284
     8
285
     0
286
     0
287
     3
288
     0
  0
ENDTAB
  0
TABLE
  2
BLOCK_RECORD
  5
1
330
0
100
AcDbSymbolTable
 70
     1
  0
BLOCK_RECORD
  5
1F
330
1
100
AcDbSymbolTableRecord
100
AcDbBlockTableRecord
  2
*MODEL_SPACE
  0
BLOCK_RECORD
  5
1B
330
1
100
AcDbSymbolTableRecord
100
AcDbBlockTableRecord
  2
*PAPER_SPACE
  0
ENDTAB
  0
ENDSEC
  0
SECTION
  2
BLOCKS
  0
BLOCK
  5
20
330
1F
100
AcDbEntity
  8
0
100
AcDbBlockBegin
  2
*MODEL_SPACE
 70
     0
 10
0.0
 20
0.0
 30
0.0
  3
*MODEL_SPACE
  1

  0
ENDBLK
  5
21
330
1F
100
AcDbEntity
  8
0
100
AcDbBlockEnd
  0
BLOCK
  5
1C
330
1B
100
AcDbEntity
 67
     1
  8
0
100
AcDbBlockBegin
  2
*PAPER_SPACE
  1

  0
ENDBLK
  5
1D
330
1B
100
AcDbEntity
 67
     1
  8
0
100
AcDbBlockEnd
  0
ENDSEC
  0
SECTION
  2
ENTITIES
  0
LINE
  5
100
100
AcDbEntity
  8
0
 62
7
100
AcDbLine
 10
91.462428
 20
147.739841
 30
0.0
 11
93.415352
 21
147.844382
 31
0.0
  0
LINE
  5
101
100
AcDbEntity
  8
0
 62
7
100
AcDbLine
 10
98.632944
 20
147.772446
 30
0.0
 11
96.076666
 21
147.811776
 31
0.0
  0
LINE
  5
102
100
AcDbEntity
  8
0
 62
7
100
AcDbLine
 10
102.565677
 20
147.811776
 30
0.0
 11
105.200608
 21
147.772446
 31
0.0
  0
LINE
  5
103
100
AcDbEntity
  8
0
 62
7
100
AcDbLine
 10
109.919889
 20
147.811776
 30
0.0
 11
107.835539
 21
147.772446
 31
0.0
  0
LINE
  5
104
100
AcDbEntity
  8
0
 62
7
100
AcDbLine
 10
109.453037
 20
130.318077
 30
0.0
 11
109.453037
 21
147.818076
 31
0.0
  0
LINE
  5
105
100
AcDbEntity
  8
0
 62
7
100
AcDbLine
 10
109.453037
 20
147.818076
 30
0.0
 11
111.453035
 21
147.818076
 31
0.0
  0
LINE
  5
106
100
AcDbEntity
  8
0
 62
7
100
AcDbLine
 10
116.203036
 20
150.318076
 30
0.0
 11
111.453035
 21
147.818076
 31
0.0
  0
LINE
  5
107
100
AcDbEntity
  8
0
 62
7
100
AcDbLine
 10
123.803035
 20
152.618077
 30
0.0
 11
116.203036
 21
150.318076
 31
0.0
  0
LINE
  5
108
100
AcDbEntity
  8
0
 62
7
100
AcDbLine
 10
123.803035
 20
160.118076
 30
0.0
 11
123.803035
 21
152.618077
 31
0.0
  0
LINE
  5
109
100
AcDbEntity
  8
0
 62
7
100
AcDbLine
 10
116.203036
 20
163.818077
 30
0.0
 11
123.803035
 21
160.118076
 31
0.0
  0
LINE
  5
10a
100
AcDbEntity
  8
0
 62
7
100
AcDbLine
 10
111.453035
 20
168.918076
 30
0.0
 11
116.203036
 21
163.818077
 31
0.0
  0
LINE
  5
10b
100
AcDbEntity
  8
0
 62
7
100
AcDbLine
 10
111.453035
 20
168.918076
 30
0.0
 11
112.075558
 21
169.700678
 31
0.0
  0
LINE
  5
10c
100
AcDbEntity
  8
0
 62
7
100
AcDbLine
 10
124.436333
 20
161.144462
 30
0.0
 11
112.075558
 21
169.700678
 31
0.0
  0
LINE
  5
10d
100
AcDbEntity
  8
0
 62
7
100
AcDbLine
 10
124.436333
 20
161.144462
 30
0.0
 11
126.926427
 21
164.274868
 31
0.0
  0
LINE
  5
10e
100
AcDbEntity
  8
0
 62
7
100
AcDbLine
 10
114.953037
 20
173.318075
 30
0.0
 11
126.926427
 21
164.274868
 31
0.0
  0
LINE
  5
10f
100
AcDbEntity
  8
0
 62
7
100
AcDbLine
 10
111.453035
 20
179.918076
 30
0.0
 11
114.953037
 21
173.318075
 31
0.0
  0
LINE
  5
110
100
AcDbEntity
  8
0
 62
7
100
AcDbLine
 10
89.953036
 20
179.918076
 30
0.0
 11
111.453035
 21
179.918076
 31
0.0
  0
LINE
  5
111
100
AcDbEntity
  8
0
 62
7
100
AcDbLine
 10
86.453035
 20
173.318075
 30
0.0
 11
89.953036
 21
179.918076
 31
0.0
  0
LINE
  5
112
100
AcDbEntity
  8
0
 62
7
100
AcDbLine
 10
86.453035
 20
173.318075
 30
0.0
 11
74.479644
 21
164.274868
 31
0.0
  0
LINE
  5
113
100
AcDbEntity
  8
0
 62
7
100
AcDbLine
 10
76.969739
 20
161.144462
 30
0.0
 11
74.479644
 21
164.274868
 31
0.0
  0
LINE
  5
114
100
AcDbEntity
  8
0
 62
7
100
AcDbLine
 10
76.969739
 20
161.144462
 30
0.0
 11
89.330513
 21
169.700678
 31
0.0
  0
LINE
  5
115
100
AcDbEntity
  8
0
 62
7
100
AcDbLine
 10
89.953036
 20
168.918076
 30
0.0
 11
89.330513
 21
169.700678
 31
0.0
  0
LINE
  5
116
100
AcDbEntity
  8
0
 62
7
100
AcDbLine
 10
85.203036
 20
163.818077
 30
0.0
 11
89.953036
 21
168.918076
 31
0.0
  0
LINE
  5
117
100
AcDbEntity
  8
0
 62
7
100
AcDbLine
 10
77.603037
 20
160.118076
 30
0.0
 11
85.203036
 21
163.818077
 31
0.0
  0
LINE
  5
118
100
AcDbEntity
  8
0
 62
7
100
AcDbLine
 10
77.603037
 20
160.118076
 30
0.0
 11
77.603037
 21
152.618077
 31
0.0
  0
LINE
  5
119
100
AcDbEntity
  8
0
 62
7
100
AcDbLine
 10
85.203036
 20
150.318076
 30
0.0
 11
77.603037
 21
152.618077
 31
0.0
  0
LINE
  5
11a
100
AcDbEntity
  8
0
 62
7
100
AcDbLine
 10
89.953036
 20
147.818076
 30
0.0
 11
85.203036
 21
150.318076
 31
0.0
  0
LINE
  5
11b
100
AcDbEntity
  8
0
 62
7
100
AcDbLine
 10
89.953036
 20
147.818076
 30
0.0
 11
91.953035
 21
147.818076
 31
0.0
  0
LINE
  5
11c
100
AcDbEntity
  8
0
 62
7
100
AcDbLine
 10
91.953035
 20
147.818076
 30
0.0
 11
91.953035
 21
130.318077
 31
0.0
  0
LINE
  5
11d
100
AcDbEntity
  8
0
 62
7
100
AcDbLine
 10
91.953035
 20
130.318077
 30
0.0
 11
97.703036
 21
130.318077
 31
0.0
  0
LINE
  5
11e
100
AcDbEntity
  8
0
 62
7
100
AcDbLine
 10
97.703036
 20
130.318077
 30
0.0
 11
97.703036
 21
147.818076
 31
0.0
  0
LINE
  5
11f
100
AcDbEntity
  8
0
 62
7
100
AcDbLine
 10
97.703036
 20
147.818076
 30
0.0
 11
103.703035
 21
147.818076
 31
0.0
  0
LINE
  5
120
100
AcDbEntity
  8
0
 62
7
100
AcDbLine
 10
103.703035
 20
147.818076
 30
0.0
 11
103.703035
 21
130.318077
 31
0.0
  0
LINE
  5
121
100
AcDbEntity
  8
0
 62
7
100
AcDbLine
 10
103.703035
 20
130.318077
 30
0.0
 11
109.453037
 21
130.318077
 31
0.0
  0
LINE
  5
122
100
AcDbEntity
  8
0
 62
7
100
AcDbLine
 10
122.895281
 20
165.178637
 30
0.0
 11
122.895281
 21
165.178637
 31
0.0
  0
SPLINE
  5
123
100
AcDbEntity
  8
0
 62
7
100
AcDbSpline
 70
0
 71
3
 72
25
 73
21
 74
19
 40
0.000000
 40
0.000000
 40
0.000000
 40
0.000000
 40
0.348964
 40
0.692934
 40
1.041898
 40
1.390862
 40
1.734832
 40
2.083796
 40
2.432761
 40
2.776731
 40
3.125695
 40
3.474659
 40
3.818629
 40
4.167593
 40
4.516557
 40
4.860527
 40
5.209491
 40
5.558455
 40
5.902425
 40
6.251389
 40
6.251389
 40
6.251389
 40
6.251389
 10
122.895280
 20
165.178637
 30
0.0
 10
122.883332
 20
165.295552
 30
0.0
 10
122.859607
 20
165.527708
 30
0.0
 10
122.675541
 20
165.834505
 30
0.0
 10
122.406036
 20
166.062602
 30
0.0
 10
122.072305
 20
166.183576
 30
0.0
 10
121.718179
 20
166.183576
 30
0.0
 10
121.384915
 20
166.062602
 30
0.0
 10
121.113544
 20
165.834505
 30
0.0
 10
120.936412
 20
165.527708
 30
0.0
 10
120.874566
 20
165.178637
 30
0.0
 10
120.936412
 20
164.829566
 30
0.0
 10
121.113545
 20
164.522768
 30
0.0
 10
121.384916
 20
164.294672
 30
0.0
 10
121.718179
 20
164.173698
 30
0.0
 10
122.072305
 20
164.173698
 30
0.0
 10
122.406036
 20
164.294672
 30
0.0
 10
122.675541
 20
164.522768
 30
0.0
 10
122.859608
 20
164.829566
 30
0.0
 10
122.883333
 20
165.061722
 30
0.0
 10
122.895281
 20
165.178637
 30
0.0
 11
122.895280
 21
165.178637
 31
0.0
 11
122.834406
 21
165.522251
 31
0.0
 11
122.662421
 21
165.820137
 31
0.0
 11
122.395280
 21
166.044662
 31
0.0
 11
122.067265
 21
166.163751
 31
0.0
 11
121.723295
 21
166.163751
 31
0.0
 11
121.395280
 21
166.044662
 31
0.0
 11
121.128139
 21
165.820137
 31
0.0
 11
120.956154
 21
165.522251
 31
0.0
 11
120.895280
 21
165.178637
 31
0.0
 11
120.956154
 21
164.835023
 31
0.0
 11
121.128139
 21
164.537137
 31
0.0
 11
121.395280
 21
164.312611
 31
0.0
 11
121.723296
 21
164.193523
 31
0.0
 11
122.067265
 21
164.193523
 31
0.0
 11
122.395281
 21
164.312611
 31
0.0
 11
122.662422
 21
164.537137
 31
0.0
 11
122.834407
 21
164.835023
 31
0.0
 11
122.895281
 21
165.178637
 31
0.0
  0
LINE
  5
124
100
AcDbEntity
  8
0
 62
7
100
AcDbLine
 10
80.510792
 20
165.178637
 30
0.0
 11
80.510792
 21
165.178637
 31
0.0
  0
SPLINE
  5
125
100
AcDbEntity
  8
0
 62
7
100
AcDbSpline
 70
0
 71
3
 72
25
 73
21
 74
19
 40
0.000000
 40
0.000000
 40
0.000000
 40
0.000000
 40
0.348964
 40
0.692934
 40
1.041898
 40
1.390862
 40
1.734832
 40
2.083796
 40
2.432761
 40
2.776731
 40
3.125695
 40
3.474659
 40
3.818629
 40
4.167593
 40
4.516557
 40
4.860527
 40
5.209491
 40
5.558455
 40
5.902425
 40
6.251389
 40
6.251389
 40
6.251389
 40
6.251389
 10
80.510791
 20
165.178637
 30
0.0
 10
80.498843
 20
165.295552
 30
0.0
 10
80.475118
 20
165.527708
 30
0.0
 10
80.291052
 20
165.834505
 30
0.0
 10
80.021547
 20
166.062602
 30
0.0
 10
79.687816
 20
166.183576
 30
0.0
 10
79.333690
 20
166.183576
 30
0.0
 10
79.000426
 20
166.062602
 30
0.0
 10
78.729055
 20
165.834505
 30
0.0
 10
78.551923
 20
165.527708
 30
0.0
 10
78.490077
 20
165.178637
 30
0.0
 10
78.551923
 20
164.829566
 30
0.0
 10
78.729056
 20
164.522768
 30
0.0
 10
79.000427
 20
164.294672
 30
0.0
 10
79.333690
 20
164.173698
 30
0.0
 10
79.687816
 20
164.173698
 30
0.0
 10
80.021547
 20
164.294672
 30
0.0
 10
80.291052
 20
164.522768
 30
0.0
 10
80.475119
 20
164.829566
 30
0.0
 10
80.498844
 20
165.061722
 30
0.0
 10
80.510792
 20
165.178637
 30
0.0
 11
80.510791
 21
165.178637
 31
0.0
 11
80.449917
 21
165.522251
 31
0.0
 11
80.277933
 21
165.820137
 31
0.0
 11
80.010791
 21
166.044662
 31
0.0
 11
79.682776
 21
166.163751
 31
0.0
 11
79.338806
 21
166.163751
 31
0.0
 11
79.010791
 21
166.044662
 31
0.0
 11
78.743650
 21
165.820137
 31
0.0
 11
78.571665
 21
165.522251
 31
0.0
 11
78.510791
 21
165.178637
 31
0.0
 11
78.571665
 21
164.835023
 31
0.0
 11
78.743650
 21
164.537137
 31
0.0
 11
79.010792
 21
164.312611
 31
0.0
 11
79.338807
 21
164.193523
 31
0.0
 11
79.682777
 21
164.193523
 31
0.0
 11
80.010792
 21
164.312611
 31
0.0
 11
80.277933
 21
164.537137
 31
0.0
 11
80.449918
 21
164.835023
 31
0.0
 11
80.510792
 21
165.178637
 31
0.0
  0
LINE
  5
126
100
AcDbEntity
  8
0
 62
7
100
AcDbLine
 10
84.453036
 20
160.741680
 30
0.0
 11
84.453036
 21
160.741680
 31
0.0
  0
SPLINE
  5
127
100
AcDbEntity
  8
0
 62
7
100
AcDbSpline
 70
0
 71
3
 72
22
 73
18
 74
16
 40
0.000000
 40
0.000000
 40
0.000000
 40
0.000000
 40
0.349200
 40
0.693396
 40
1.042596
 40
1.391796
 40
1.735992
 40
2.085191
 40
2.434391
 40
2.778587
 40
3.127787
 40
3.650294
 40
4.157322
 40
4.679830
 40
5.202337
 40
5.709365
 40
6.231872
 40
6.231872
 40
6.231872
 40
6.231872
 10
84.453036
 20
160.741680
 30
0.0
 10
84.441196
 20
160.858687
 30
0.0
 10
84.417685
 20
161.091025
 30
0.0
 10
84.233703
 20
161.398169
 30
0.0
 10
83.964120
 20
161.626551
 30
0.0
 10
83.630185
 20
161.747688
 30
0.0
 10
83.275810
 20
161.747691
 30
0.0
 10
82.942350
 20
161.626541
 30
0.0
 10
82.670868
 20
161.398204
 30
0.0
 10
82.493941
 20
161.090896
 30
0.0
 10
82.421663
 20
160.684203
 30
0.0
 10
82.547391
 20
160.218215
 30
0.0
 10
82.929565
 20
159.836680
 30
0.0
 10
83.453943
 20
159.695086
 30
0.0
 10
83.972933
 20
159.836608
 30
0.0
 10
84.370954
 20
160.218498
 30
0.0
 10
84.425402
 20
160.565547
 30
0.0
 10
84.453036
 20
160.741680
 30
0.0
 11
84.453036
 21
160.741680
 31
0.0
 11
84.392445
 21
161.085583
 31
0.0
 11
84.220558
 21
161.383788
 31
0.0
 11
83.953343
 21
161.608591
 31
0.0
 11
83.625134
 21
161.727837
 31
0.0
 11
83.280938
 21
161.727837
 31
0.0
 11
82.952730
 21
161.608591
 31
0.0
 11
82.685514
 21
161.383788
 31
0.0
 11
82.513628
 21
161.085583
 31
0.0
 11
82.453037
 21
160.741680
 31
0.0
 11
82.589919
 21
160.237421
 31
0.0
 11
82.948632
 21
159.879089
 31
0.0
 11
83.453036
 21
159.742743
 31
0.0
 11
83.957441
 21
159.879089
 31
0.0
 11
84.316154
 21
160.237421
 31
0.0
 11
84.453036
 21
160.741680
 31
0.0
  0
LINE
  5
128
100
AcDbEntity
  8
0
 62
7
100
AcDbLine
 10
118.953034
 20
160.741680
 30
0.0
 11
118.953034
 21
160.741680
 31
0.0
  0
SPLINE
  5
129
100
AcDbEntity
  8
0
 62
7
100
AcDbSpline
 70
0
 71
3
 72
25
 73
21
 74
19
 40
0.000000
 40
0.000000
 40
0.000000
 40
0.000000
 40
0.349200
 40
0.693396
 40
1.042596
 40
1.391796
 40
1.735992
 40
2.085191
 40
2.434391
 40
2.778587
 40
3.127787
 40
3.476987
 40
3.821183
 40
4.170383
 40
4.519583
 40
4.863779
 40
5.212978
 40
5.562178
 40
5.906374
 40
6.255574
 40
6.255574
 40
6.255574
 40
6.255574
 10
118.953034
 20
160.741680
 30
0.0
 10
118.941194
 20
160.858687
 30
0.0
 10
118.917684
 20
161.091025
 30
0.0
 10
118.733702
 20
161.398169
 30
0.0
 10
118.464119
 20
161.626551
 30
0.0
 10
118.130183
 20
161.747688
 30
0.0
 10
117.775812
 20
161.747688
 30
0.0
 10
117.442339
 20
161.626551
 30
0.0
 10
117.170906
 20
161.398169
 30
0.0
 10
116.993796
 20
161.091025
 30
0.0
 10
116.932509
 20
160.741680
 30
0.0
 10
116.993796
 20
160.392336
 30
0.0
 10
117.170906
 20
160.085192
 30
0.0
 10
117.442339
 20
159.856810
 30
0.0
 10
117.775812
 20
159.735672
 30
0.0
 10
118.130183
 20
159.735672
 30
0.0
 10
118.464119
 20
159.856810
 30
0.0
 10
118.733702
 20
160.085192
 30
0.0
 10
118.917684
 20
160.392336
 30
0.0
 10
118.941194
 20
160.624673
 30
0.0
 10
118.953034
 20
160.741680
 30
0.0
 11
118.953034
 21
160.741680
 31
0.0
 11
118.892444
 21
161.085583
 31
0.0
 11
118.720557
 21
161.383788
 31
0.0
 11
118.453342
 21
161.608591
 31
0.0
 11
118.125133
 21
161.727837
 31
0.0
 11
117.780937
 21
161.727837
 31
0.0
 11
117.452728
 21
161.608591
 31
0.0
 11
117.185513
 21
161.383788
 31
0.0
 11
117.013626
 21
161.085583
 31
0.0
 11
116.953036
 21
160.741680
 31
0.0
 11
117.013626
 21
160.397777
 31
0.0
 11
117.185513
 21
160.099573
 31
0.0
 11
117.452728
 21
159.874770
 31
0.0
 11
117.780937
 21
159.755524
 31
0.0
 11
118.125133
 21
159.755524
 31
0.0
 11
118.453342
 21
159.874770
 31
0.0
 11
118.720557
 21
160.099573
 31
0.0
 11
118.892444
 21
160.397777
 31
0.0
 11
118.953034
 21
160.741680
 31
0.0
  0
ENDSEC
  0
SECTION
  2
OBJECTS
  0
DICTIONARY
  5
C
330
0
100
AcDbDictionary
  3
ACAD_GROUP
350
D
  3
ACAD_MLINESTYLE
350
17
  0
DICTIONARY
  5
D
330
C
100
AcDbDictionary
  0
DICTIONARY
  5
1A
330
C
100
AcDbDictionary
  0
DICTIONARY
  5
17
330
C
100
AcDbDictionary
  3
STANDARD
350
18
  0
DICTIONARY
  5
19
330
C
100
AcDbDictionary
  0
ENDSEC
  0
EOF
