<?xml version="1.0" encoding="utf-8"?>
<!-- Generator: Adobe Illustrator 16.0.0, SVG Export Plug-In . SVG Version: 6.00 Build 0)  -->
<!DOCTYPE svg PUBLIC "-//W3C//DTD SVG 1.1//EN" "http://www.w3.org/Graphics/SVG/1.1/DTD/svg11.dtd">
<svg version="1.1" id="Layer_1" xmlns="http://www.w3.org/2000/svg" xmlns:xlink="http://www.w3.org/1999/xlink" x="0px" y="0px"
	 width="425.2px" height="566.93px" viewBox="0 0 425.2 566.93" enable-background="new 0 0 425.2 566.93" xml:space="preserve">
<rect x="11.539" y="16.102" fill="none" stroke="#000000" stroke-miterlimit="10" width="396.85" height="530.463"/>
<rect x="25.297" y="34.493" fill="none" stroke="#000000" stroke-miterlimit="10" width="369.333" height="493.681"/>
<text transform="matrix(0.9459 -0.3244 0.3244 0.9459 47.2891 159.8789)" font-family="'Apple-Chancery'" font-size="45.6959">WHOPPER </text>
<text transform="matrix(0.9459 -0.3244 0.3244 0.9459 48.1748 209.7261)" font-family="'Apple-Chancery'" font-size="48.3486">WEDNESDAYS</text>
<text transform="matrix(1 0 0 1 201.2344 207.9932)" font-family="'Apple-Chancery'" font-size="91.3996">2015</text>
<text transform="matrix(1 0 0 1 104.1885 323.1621)" font-family="'GillSansMT-Bold'" font-size="73.651">FIRST</text>
<g>
	<g>
		<path stroke="#000000" stroke-miterlimit="10" d="M167.812,486.383c4.179,2.663,5.854,7.509,3.744,10.822
			c-2.112,3.311-7.213,3.836-11.391,1.172l-93.043-48.43c-9.571-6.102-13.411-17.196-8.574-24.782
			c4.837-7.588,16.515-8.793,26.086-2.691L167.812,486.383z"/>
	</g>
	<g>
		<path stroke="#000000" stroke-miterlimit="10" d="M252.114,486.383c-4.178,2.663-5.854,7.509-3.743,10.822
			c2.112,3.311,7.212,3.836,11.39,1.172l93.044-48.43c9.571-6.102,13.411-17.196,8.574-24.782
			c-4.837-7.588-16.515-8.793-26.087-2.691L252.114,486.383z"/>
	</g>
</g>
<circle stroke="#000000" stroke-miterlimit="10" cx="211.155" cy="434.307" r="25.64"/>
</svg>
